<?xml version="1.0" encoding="utf-8"?>
<!-- Generator: Adobe Illustrator 18.1.0, SVG Export Plug-In . SVG Version: 6.00 Build 0)  -->
<svg version="1.1" id="Layer_1" xmlns="http://www.w3.org/2000/svg" xmlns:xlink="http://www.w3.org/1999/xlink" x="0px" y="0px"
	 viewBox="51 398 646 520" enable-background="new 51 398 646 520" xml:space="preserve">
<path fill="#2178A9" d="M110,527.9v43.7v26.1c0,0-1,9.9,10.8,10.2c11.5,0.4,115.7,0,115.7,0l64,0.2c0,0,11.1,1,14.1-7v-96V493
	c0,0,0.2-11.8-11.8-11.8c-12,0-44.7,0-44.7,0H117.7c0,0-7.1,2.8-7.3,6v40.5H110V527.9z"/>
<polygon fill="#FFFFFF" points="121.4,492 230.1,492 303.1,492 303.1,584.5 121.4,584.5 "/>
<circle fill="#FFFFFF" cx="276.6" cy="600.8" r="5.1"/>
<circle fill="#FFFFFF" cx="292.1" cy="600.8" r="3.7"/>
<rect x="170.6" y="608.1" fill="#2B3990" width="83.2" height="31.6"/>
<path fill="#2178A9" d="M433.3,527.9v43.7v26.1c0,0-1,9.9,10.8,10.2c11.5,0.4,115.7,0,115.7,0l64,0.2c0,0,11.1,1,14.1-7v-96V493
	c0,0,0.2-11.8-11.8-11.8s-44.7,0-44.7,0H440.9c0,0-7.1,2.8-7.3,6v40.5h-0.3V527.9z"/>
<polygon fill="#FFFFFF" points="444.6,492 553.3,492 626.3,492 626.3,584.5 444.6,584.5 "/>
<circle fill="#FFFFFF" cx="447.7" cy="600.8" r="3"/>
<circle fill="#FFFFFF" cx="135.3" cy="619.8" r="3.2"/>
<rect x="494" y="608.1" fill="#2B3990" width="83.2" height="31.6"/>
<path fill="#2178A9" d="M266.6,711.8v43.7v25.8c0,0-1,9.9,10.8,10.2c11.5,0.4,115.7,0,115.7,0l64,0.2c0,0,11.1,1,14.1-7v-96.1v-12
	c0,0,0.2-11.8-11.8-11.8s-44.7,0-44.7,0H274.3c0,0-7.1,2.8-7.3,6L266.6,711.8z"/>
<polygon fill="#FFFFFF" points="278.3,675.8 387.1,675.8 459.9,675.8 459.9,768.3 278.3,768.3 "/>
<circle fill="#FFFFFF" cx="433.3" cy="784.8" r="5.1"/>
<circle fill="#FFFFFF" cx="450.9" cy="785.2" r="3.7"/>
<circle fill="#FFFFFF" cx="281.3" cy="784.8" r="3"/>
<rect x="327.3" y="791.8" fill="#2B3990" width="83.2" height="31.6"/>
<rect x="308.3" y="826.9" fill="#2178A9" width="126.4" height="7.9"/>
<rect x="473" y="639.6" fill="#2178A9" width="125" height="7.9"/>
<rect x="146.4" y="639.6" fill="#2178A9" width="125" height="7.9"/>
<polygon fill="#2178A9" points="337.7,572.3 364.1,572.3 364.1,542.3 391.2,542.3 391.2,557.6 426.8,529.2 392.2,504.1 392.2,520.6 
	337.7,520.6 "/>
<polygon fill="#2178A9" points="570.1,699.8 543.7,700 543.9,730.1 517.2,730.3 516.9,714.8 481.5,743.4 516,768.3 515.7,751.9 
	570.5,751.7 "/>
<polygon fill="#2178A9" points="238.4,773.4 238.6,746.9 208.6,746.6 208.8,719.6 224.1,719.8 196.1,683.7 170.6,717.9 187,718.3 
	186.5,772.7 "/>
<g id="Layer_3">
	<path fill="#2B3990" d="M317.2,587.5c0,0,21.1,2.8,57.7-12.7c0,0,32.8,15.6,56.5,12.5c0,0,21.6,92.1-56.7,125.6
		C374.6,712.8,299.6,688.1,317.2,587.5z"/>
</g>
</svg>
