<?xml version="1.0" encoding="utf-8"?>
<!-- Generator: Adobe Illustrator 18.1.0, SVG Export Plug-In . SVG Version: 6.00 Build 0)  -->
<svg version="1.1" id="Layer_1" xmlns="http://www.w3.org/2000/svg" xmlns:xlink="http://www.w3.org/1999/xlink" x="0px" y="0px"
	 viewBox="0 0 500 500" enable-background="new 0 0 500 500" xml:space="preserve">
<rect x="127" y="95.2" fill="#1C75BC" width="259.5" height="317.3"/>
<circle fill="none" stroke="#262262" stroke-width="5" stroke-miterlimit="10" cx="254.5" cy="225.3" r="105.6"/>
<circle fill="#262262" cx="255.6" cy="217.9" r="36"/>
<circle fill="#1C75BC" cx="230" cy="225.3" r="6.3"/>
<circle fill="#1C75BC" cx="275.7" cy="198.9" r="6.3"/>
<circle fill="#1C75BC" cx="282" cy="219.5" r="6.3"/>
<circle fill="#1C75BC" cx="281.3" cy="208.3" r="1.7"/>
<circle fill="#262262" cx="376.3" cy="103.3" r="3.1"/>
<circle fill="#262262" cx="378.2" cy="242.2" r="3.1"/>
<path fill="#262262" d="M137.5,245.3c0,1.3-0.8,2.4-1.9,2.9c-0.4,0.2-0.8,0.2-1.2,0.2c-1.7,0-3.1-1.4-3.1-3.1s1.4-3.1,3.1-3.1
	C136.1,242.2,137.5,243.6,137.5,245.3z"/>
<circle fill="#262262" cx="378.2" cy="402" r="3.1"/>
<circle fill="#262262" cx="137.5" cy="402" r="3.1"/>
<circle fill="#262262" cx="134.2" cy="102.3" r="3.1"/>
<circle fill="#1C75BC" cx="265.2" cy="191.2" r="1.7"/>
<circle fill="#1C75BC" cx="243.3" cy="192.1" r="1.7"/>
<circle fill="#1C75BC" cx="229.3" cy="213.1" r="1.7"/>
<circle fill="#1C75BC" cx="236.3" cy="235.5" r="1.7"/>
<circle fill="#1C75BC" cx="259.2" cy="241.3" r="1.7"/>
<circle fill="#1C75BC" cx="278.7" cy="230.9" r="1.7"/>
<circle fill="#1C75BC" cx="254.5" cy="189.8" r="6.3"/>
<circle fill="#1C75BC" cx="246.6" cy="242.4" r="6.3"/>
<circle fill="#1C75BC" cx="271.6" cy="239.6" r="6.3"/>
<circle fill="#1C75BC" cx="234" cy="200.8" r="6.3"/>
<circle fill="none" stroke="#1C75BC" stroke-width="2" stroke-miterlimit="10" cx="255.6" cy="216.5" r="16.8"/>
<line fill="none" stroke="#262262" stroke-miterlimit="10" x1="223.7" y1="225.3" x2="236.3" y2="225.3"/>
<line fill="none" stroke="#262262" stroke-miterlimit="10" x1="227.6" y1="200.8" x2="240.3" y2="200.8"/>
<line fill="none" stroke="#262262" stroke-miterlimit="10" x1="246.3" y1="185.2" x2="259" y2="185.2"/>
<line fill="none" stroke="#262262" stroke-miterlimit="10" x1="269.4" y1="198.9" x2="282" y2="198.9"/>
<line fill="none" stroke="#262262" stroke-miterlimit="10" x1="275.7" y1="219.5" x2="288.4" y2="219.5"/>
<line fill="none" stroke="#262262" stroke-miterlimit="10" x1="265.2" y1="239.6" x2="277.9" y2="239.6"/>
<line fill="none" stroke="#262262" stroke-miterlimit="10" x1="240.3" y1="242.4" x2="252.9" y2="242.4"/>
<line fill="none" stroke="#262262" stroke-miterlimit="10" x1="230" y1="219" x2="230" y2="231.6"/>
<line fill="none" stroke="#262262" stroke-miterlimit="10" x1="234" y1="194.5" x2="234" y2="207.1"/>
<line fill="none" stroke="#262262" stroke-miterlimit="10" x1="254.5" y1="183.4" x2="254.5" y2="196.1"/>
<line fill="none" stroke="#262262" stroke-miterlimit="10" x1="275.7" y1="192.6" x2="275.7" y2="205.3"/>
<line fill="none" stroke="#262262" stroke-miterlimit="10" x1="271.6" y1="233.3" x2="271.6" y2="245.9"/>
<line fill="none" stroke="#262262" stroke-miterlimit="10" x1="282" y1="213.1" x2="282" y2="225.8"/>
<line fill="none" stroke="#262262" stroke-miterlimit="10" x1="246.6" y1="236.1" x2="246.6" y2="248.7"/>
<polygon fill="#262262" points="142.3,95.3 148.1,109.2 361.2,109.2 368.8,95.3 "/>
<rect x="137.5" y="323.7" fill="#262262" width="42.7" height="67.1"/>
<rect x="137.5" y="364.2" fill="#262262" width="72.1" height="26.6"/>
<polygon fill="#1C75BC" points="255.6,206.9 258.6,213 265.3,213.9 260.4,218.6 261.6,225.3 255.6,222.2 249.6,225.3 250.8,218.6 
	245.9,213.9 252.6,213 "/>
<circle fill="#262262" cx="190.1" cy="345.7" r="15.8"/>
<circle fill="#1C75BC" cx="144.4" cy="383.7" r="3.1"/>
<circle fill="#1C75BC" cx="190.1" cy="347" r="2.9"/>
<path fill="#262262" d="M181.8,326.7c0,0-26.7,29.5,13.7,37.5S338,293.9,338,293.9s-136.6,12.2-155.1,31.4"/>
<circle fill="none" stroke="#1C75BC" stroke-miterlimit="10" cx="144.4" cy="383.7" r="5.6"/>
<circle fill="none" stroke="#262262" stroke-miterlimit="10" cx="134.4" cy="245.3" r="5"/>
<circle fill="none" stroke="#262262" stroke-miterlimit="10" cx="134.2" cy="102.3" r="5"/>
<circle fill="none" stroke="#262262" stroke-miterlimit="10" cx="376.3" cy="103.3" r="5"/>
<circle fill="none" stroke="#262262" stroke-miterlimit="10" cx="378.2" cy="242.2" r="5"/>
<circle fill="none" stroke="#262262" stroke-miterlimit="10" cx="378.2" cy="402" r="5"/>
<circle fill="none" stroke="#262262" stroke-miterlimit="10" cx="137.5" cy="402" r="5"/>
<circle fill="none" stroke="#1C75BC" stroke-miterlimit="10" cx="190.1" cy="345.7" r="13.5"/>
<circle fill="none" stroke="#1C75BC" stroke-miterlimit="10" cx="278.3" cy="315.9" r="6.3"/>
<circle fill="none" stroke="#1C75BC" stroke-width="2" stroke-miterlimit="10" cx="190.1" cy="345.7" r="10.4"/>
<circle fill="none" stroke="#1C75BC" stroke-width="0.6" stroke-miterlimit="10" cx="190.1" cy="345.7" r="8.3"/>
<circle fill="none" stroke="#1C75BC" stroke-width="0.34" stroke-miterlimit="10" cx="190.1" cy="345.7" r="7"/>
<circle fill="#1C75BC" cx="190.1" cy="345.7" r="4.5"/>
<ellipse transform="matrix(-0.3121 -0.9501 0.9501 -0.3121 -20.5808 651.4528)" fill="#1C75BC" cx="225.6" cy="333.2" rx="4.7" ry="8.9"/>
<circle fill="#1C75BC" cx="250.4" cy="327.1" r="2.8"/>
<circle fill="#1C75BC" cx="278.3" cy="315.9" r="4.7"/>
</svg>
