<?xml version="1.0" encoding="utf-8"?>
<!-- Generator: Adobe Illustrator 18.1.0, SVG Export Plug-In . SVG Version: 6.00 Build 0)  -->
<svg version="1.1" id="Layer_1" xmlns="http://www.w3.org/2000/svg" xmlns:xlink="http://www.w3.org/1999/xlink" x="0px" y="0px"
	 viewBox="19 330.6 646.6 520.5" enable-background="new 19 330.6 646.6 520.5" xml:space="preserve">
<path fill="#002E5F" d="M143,610.1h435.8c7.2,0,13,5.9,13,13v150.9c0,7.2-5.9,13-13,13H143c-7.2,0-13-5.9-13-13V623
	C129.8,615.9,135.8,610.1,143,610.1z"/>
<polygon fill="none" stroke="#FFFFFF" stroke-width="3" stroke-miterlimit="10" points="421.5,721.7 468.1,721.7 468.1,749.5 
	460.6,749.5 460.6,756.6 455.8,756.6 455.1,761.9 433.8,761.9 433.8,756 430.3,756 430.3,749.5 421.5,749.5 "/>
<polygon fill="none" stroke="#FFFFFF" stroke-width="3" stroke-miterlimit="10" points="356.3,721.7 403.2,721.7 403.2,749.5 
	395.4,749.5 395.4,756.6 391.2,756.6 390.6,761.9 368.9,761.9 368.9,756 365.2,756 365.2,749.5 356.3,749.5 "/>
<polygon fill="none" stroke="#FFFFFF" stroke-width="3" stroke-miterlimit="10" points="293.6,721.7 340.5,721.7 340.5,749.5 
	332.7,749.5 332.7,756.6 328.5,756.6 327.9,761.9 306.1,761.9 306.1,756 302.5,756 302.5,749.5 293.6,749.5 "/>
<polygon fill="none" stroke="#FFFFFF" stroke-width="3" stroke-miterlimit="10" points="158.8,721.7 205.7,721.7 205.7,749.5 
	197.9,749.5 197.9,756.6 193.7,756.6 193.1,761.9 171.4,761.9 171.4,756 167.7,756 167.7,749.5 158.8,749.5 "/>
<polygon fill="none" stroke="#FFFFFF" stroke-width="3" stroke-miterlimit="10" points="229.2,721.7 276,721.7 276,749.5 
	268.3,749.5 268.3,756.6 264,756.6 263.4,761.9 242.2,761.9 242.2,756 238.1,756 238.1,749.5 229.2,749.5 "/>
<rect x="151.7" y="787.2" fill="#1C75BC" width="46" height="13"/>
<rect x="142.4" y="648.9" fill="none" stroke="#FFFFFF" stroke-miterlimit="10" width="396.9" height="13"/>
<rect x="142.4" y="636" fill="none" stroke="#FFFFFF" stroke-miterlimit="10" width="396.9" height="13"/>
<rect x="142.4" y="661.4" fill="none" stroke="#FFFFFF" stroke-miterlimit="10" width="396.9" height="13"/>
<rect x="142.4" y="674.3" fill="none" stroke="#FFFFFF" stroke-miterlimit="10" width="396.9" height="13"/>
<rect x="513.8" y="787.2" fill="#1C75BC" width="46" height="13"/>
<rect x="142.4" y="709.9" fill="none" stroke="#FFFFFF" stroke-miterlimit="10" width="340.1" height="63.9"/>
<circle fill="#FFFFFF" cx="570.5" cy="761.9" r="10.1"/>
<circle fill="#FFFFFF" cx="536.8" cy="761.9" r="10.1"/>
<circle fill="#FFFFFF" cx="503.6" cy="761.9" r="10.1"/>
<path fill="#002E5F" d="M522,610.1h17.6v-43.8l-3-4.7V468c0,0-5.3-11.2-11.2,0l0.6,68.6v24.8l-4.1,4.1V610.1z"/>
<path fill="#1C75BC" d="M482.3,421.8c0,0-89.2,52.1-4.1,118.8C478.8,540.7,346.9,483.5,482.3,421.8z"/>
<path fill="#1C75BC" d="M570.5,540.7c0,0,89.2-51.5,4.7-118.8C575.2,421.8,706.6,479.8,570.5,540.7z"/>
<path fill="#1C75BC" d="M518.4,440.9c0,0-65.6,38.5-3,87.6C516.1,528.3,419,486.3,518.4,440.9z"/>
<path fill="#1C75BC" d="M541.5,528.3c0,0,66.3-36.6,4.7-87C546.8,440.9,642.7,485.1,541.5,528.3z"/>
</svg>
