<?xml version="1.0" encoding="utf-8"?>
<!-- Generator: Adobe Illustrator 18.1.0, SVG Export Plug-In . SVG Version: 6.00 Build 0)  -->
<svg version="1.1" id="Layer_1" xmlns="http://www.w3.org/2000/svg" xmlns:xlink="http://www.w3.org/1999/xlink" x="0px" y="0px"
	 viewBox="0 0 500 500" enable-background="new 0 0 500 500" xml:space="preserve">
<path fill="#2178A9" d="M53.5,152.7v32.7v19.5c0,0-0.7,7.4,8.1,7.6c8.6,0.3,86.5,0,86.5,0l47.9,0.2c0,0,8.3,0.7,10.5-5.2v-71.7v-9.1
	c0,0,0.2-8.8-8.8-8.8s-33.4,0-33.4,0H59.2c0,0-5.3,2.1-5.5,4.5v30.3H53.5L53.5,152.7z"/>
<polygon fill="#FFFFFF" points="62,125.9 143.3,125.9 197.9,125.9 197.9,195 62,195 "/>
<circle fill="#FFFFFF" cx="178" cy="207.2" r="3.8"/>
<circle fill="#FFFFFF" cx="189.6" cy="207.2" r="2.8"/>
<rect x="98.8" y="212.7" fill="#2B3990" width="62.2" height="23.6"/>
<path fill="#2178A9" d="M295.2,152.7v32.7v19.5c0,0-0.7,7.4,8.1,7.6c8.6,0.3,86.5,0,86.5,0l47.9,0.2c0,0,8.3,0.7,10.5-5.2v-71.7
	v-9.1c0,0,0.2-8.8-8.8-8.8s-33.4,0-33.4,0H300.9c0,0-5.3,2.1-5.5,4.5v30.3H295.2L295.2,152.7z"/>
<polygon fill="#FFFFFF" points="303.6,125.9 384.9,125.9 439.5,125.9 439.5,195 303.6,195 "/>
<circle fill="#FFFFFF" cx="306" cy="207.2" r="2.2"/>
<circle fill="#FFFFFF" cx="72.4" cy="221.4" r="2.4"/>
<rect x="340.5" y="212.7" fill="#2B3990" width="62.2" height="23.6"/>
<path fill="#2178A9" d="M170.6,290.2v32.7v19.3c0,0-0.7,7.4,8.1,7.6c8.6,0.3,86.5,0,86.5,0l47.9,0.2c0,0,8.3,0.7,10.5-5.2V273V264
	c0,0,0.2-8.8-8.8-8.8s-33.4,0-33.4,0H176.3c0,0-5.3,2.1-5.5,4.5L170.6,290.2z"/>
<polygon fill="#FFFFFF" points="179.3,263.2 260.6,263.2 315,263.2 315,332.4 179.3,332.4 "/>
<circle fill="#FFFFFF" cx="295.2" cy="344.8" r="3.8"/>
<circle fill="#FFFFFF" cx="308.3" cy="345" r="2.8"/>
<circle fill="#FFFFFF" cx="181.5" cy="344.8" r="2.2"/>
<rect x="215.9" y="350" fill="#2B3990" width="62.2" height="23.6"/>
<rect x="201.7" y="376.2" fill="#2178A9" width="94.5" height="5.9"/>
<rect x="324.8" y="236.2" fill="#2178A9" width="93.5" height="5.9"/>
<rect x="80.7" y="236.2" fill="#2178A9" width="93.5" height="5.9"/>
<polygon fill="#2178A9" points="223.7,185.9 243.5,185.9 243.5,163.5 263.7,163.5 263.7,174.9 290.4,153.7 264.5,134.9 264.5,147.2 
	223.7,147.2 "/>
<polygon fill="#2178A9" points="397.5,281.2 377.7,281.4 377.9,303.8 357.9,304 357.7,292.4 331.2,313.8 357,332.4 356.8,320.2 
	397.7,320 "/>
<polygon fill="#2178A9" points="149.5,336.2 149.6,316.4 127.2,316.2 127.4,296 138.8,296.2 117.9,269.2 98.8,294.8 111,295 
	110.7,335.7 "/>
<g id="Layer_3">
	<path fill="#2B3990" d="M208.4,197.2c0,0,15.8,2.1,43.1-9.5c0,0,24.5,11.7,42.2,9.3c0,0,16.2,68.9-42.4,93.9
		C251.3,290.9,195.3,272.5,208.4,197.2z"/>
</g>
</svg>
