<?xml version="1.0" encoding="utf-8"?>
<!-- Generator: Adobe Illustrator 18.1.0, SVG Export Plug-In . SVG Version: 6.00 Build 0)  -->
<svg version="1.1" id="Layer_1" xmlns="http://www.w3.org/2000/svg" xmlns:xlink="http://www.w3.org/1999/xlink" x="0px" y="0px"
	 viewBox="0 0 500 500" enable-background="new 0 0 500 500" xml:space="preserve">
<g id="b6vvwZ.tif">
	<g>
		<path fill="#2178A9" d="M415.9,265.1c-0.2,9.6-9,22.9-24.7,30.9c-17.1,8.7-34.4,7.5-50.7-2.9c-1.7-1.1-3.5-2.2-4.9-3.7
			c-3.1-3-5.6-2.4-8.9,0c-23.8,17.4-45.6,16.6-68.3-2.7c-4.1-3.5-6.5-3.5-10.4,0.5c-17,17.3-37.1,22.3-60,13.7
			c-2.9-1.1-5.1-0.5-7.7,0.8c-12.1,6.2-22.2,5.1-32.1-3.9c-2.8-2.6-5.6-2.5-8.8-2.5c-18.7-0.2-34.4-10.6-39.6-27
			c-4.9-15.2-1.4-28.8,10-40.2c2.4-2.4,3.8-4.5,2.8-8.3c-5.9-21.6-0.7-40.5,16.2-55.1c17.4-15,37.6-17.2,59.1-10
			c4.2,1.4,8.8,5.7,12.4,3.9c3.1-1.5,4.2-7.2,6.1-11c12.5-24.8,39.7-38.3,68.8-34.3c27.3,3.8,48.5,24.5,53.1,52.4
			c1,6.2,3.5,8.5,9.8,9.4c17.2,2.6,29.4,11.9,34.3,29.1c1.4,4.9,4.1,6.7,8.7,8.1C403,218.7,415.9,235.2,415.9,265.1z"/>
	</g>
</g>
<path fill="#262262" d="M219.9,182c0,0-10.2-51.1,37.1-55.8c0,0,45.4,0.6,39.8,55.8c0,0,8.8,0.6,10.8,8.2v76.9c0,0,0,8.8-12.3,10.2
	H215c0,0-10.2-4.7-8.8-12.3l-0.1-75.6C206.1,189.7,212.4,181.5,219.9,182z"/>
<path fill="#2178A9" d="M251.9,229.3c0,0-7.6-4.5-2.6-13.5c0,0,5.7-7.3,14.3-1.9c0,0,4.1,4.5,2.6,10.4c0,0,0,3.1-4.1,5.1l1,19.1
	h-11.9L251.9,229.3z"/>
<path fill="#2178A9" d="M234.1,182.6h49c0,0,4.7-39.6-24.7-39.6C258.7,143.1,228.8,142.4,234.1,182.6z"/>
<polygon fill="#262262" points="235,309.9 264.3,309.9 254.5,349.9 266.6,349.9 229.7,389.2 215.8,349.6 226.2,349.6 "/>
<polygon fill="#2178A9" points="198.7,309.9 216.3,309.9 210.4,331.3 217.7,331.3 195.5,352.3 187.1,331.1 193.4,331.1 "/>
<polygon fill="#2178A9" points="286.9,309.9 311.2,309.9 303.1,343 313.2,343 282.5,375.6 271,342.7 279.6,342.7 "/>
</svg>
