<?xml version="1.0" encoding="utf-8"?>
<!-- Generator: Adobe Illustrator 18.1.0, SVG Export Plug-In . SVG Version: 6.00 Build 0)  -->
<svg version="1.1" id="Layer_1" xmlns="http://www.w3.org/2000/svg" xmlns:xlink="http://www.w3.org/1999/xlink" x="0px" y="0px"
	 viewBox="0 0 500 500" enable-background="new 0 0 500 500" xml:space="preserve">
<path fill="#002E5F" d="M106.1,253.8h288.6c4.7,0,8.6,3.9,8.6,8.6v99.9c0,4.7-3.9,8.6-8.6,8.6H106.1c-4.7,0-8.6-3.9-8.6-8.6v-99.9
	C97.4,257.7,101.4,253.8,106.1,253.8z"/>
<polygon fill="none" stroke="#FFFFFF" stroke-width="3" stroke-miterlimit="10" points="290.5,327.8 321.4,327.8 321.4,346.2 
	316.4,346.2 316.4,350.9 313.2,350.9 312.8,354.4 298.7,354.4 298.7,350.5 296.4,350.5 296.4,346.2 290.5,346.2 "/>
<polygon fill="none" stroke="#FFFFFF" stroke-width="3" stroke-miterlimit="10" points="247.4,327.8 278.4,327.8 278.4,346.2 
	273.3,346.2 273.3,350.9 270.5,350.9 270.1,354.4 255.7,354.4 255.7,350.5 253.3,350.5 253.3,346.2 247.4,346.2 "/>
<polygon fill="none" stroke="#FFFFFF" stroke-width="3" stroke-miterlimit="10" points="205.9,327.8 236.9,327.8 236.9,346.2 
	231.8,346.2 231.8,350.9 229,350.9 228.6,354.4 214.1,354.4 214.1,350.5 211.8,350.5 211.8,346.2 205.9,346.2 "/>
<polygon fill="none" stroke="#FFFFFF" stroke-width="3" stroke-miterlimit="10" points="116.6,327.8 147.6,327.8 147.6,346.2 
	142.5,346.2 142.5,350.9 139.7,350.9 139.3,354.4 124.9,354.4 124.9,350.5 122.5,350.5 122.5,346.2 116.6,346.2 "/>
<polygon fill="none" stroke="#FFFFFF" stroke-width="3" stroke-miterlimit="10" points="163.2,327.8 194.2,327.8 194.2,346.2 
	189.1,346.2 189.1,350.9 186.3,350.9 185.9,354.4 171.8,354.4 171.8,350.5 169.1,350.5 169.1,346.2 163.2,346.2 "/>
<rect x="111.9" y="371.2" fill="#1C75BC" width="30.5" height="8.6"/>
<rect x="105.7" y="279.6" fill="none" stroke="#FFFFFF" stroke-miterlimit="10" width="262.8" height="8.6"/>
<rect x="105.7" y="271" fill="none" stroke="#FFFFFF" stroke-miterlimit="10" width="262.8" height="8.6"/>
<rect x="105.7" y="287.8" fill="none" stroke="#FFFFFF" stroke-miterlimit="10" width="262.8" height="8.6"/>
<rect x="105.7" y="296.4" fill="none" stroke="#FFFFFF" stroke-miterlimit="10" width="262.8" height="8.6"/>
<rect x="351.6" y="371.2" fill="#1C75BC" width="30.5" height="8.6"/>
<rect x="105.7" y="319.9" fill="none" stroke="#FFFFFF" stroke-miterlimit="10" width="225.2" height="42.3"/>
<circle fill="#FFFFFF" cx="389.2" cy="354.4" r="6.7"/>
<circle fill="#FFFFFF" cx="366.9" cy="354.4" r="6.7"/>
<circle fill="#FFFFFF" cx="344.9" cy="354.4" r="6.7"/>
<path fill="#002E5F" d="M357.1,253.8h11.7v-29l-2-3.1v-61.9c0,0-3.5-7.4-7.4,0l0.4,45.4v16.4l-2.7,2.7V253.8z"/>
<path fill="#1C75BC" d="M330.8,129.2c0,0-59.1,34.5-2.7,78.7C328.5,207.9,241.2,170,330.8,129.2z"/>
<path fill="#1C75BC" d="M389.2,207.9c0,0,59.1-34.1,3.1-78.7C392.3,129.2,479.3,167.6,389.2,207.9z"/>
<path fill="#1C75BC" d="M354.7,141.8c0,0-43.5,25.5-2,58C353.2,199.7,288.9,171.9,354.7,141.8z"/>
<path fill="#1C75BC" d="M370,199.7c0,0,43.9-24.3,3.1-57.6C373.5,141.8,437,171.1,370,199.7z"/>
</svg>
