<?xml version="1.0" encoding="utf-8"?>
<!-- Generator: Adobe Illustrator 18.1.0, SVG Export Plug-In . SVG Version: 6.00 Build 0)  -->
<svg version="1.1" id="Layer_1" xmlns="http://www.w3.org/2000/svg" xmlns:xlink="http://www.w3.org/1999/xlink" x="0px" y="0px"
	 viewBox="-17 136 646 520" enable-background="new -17 136 646 520" xml:space="preserve">
<rect x="101" y="145.3" fill="#1C75BC" width="410.1" height="501.5"/>
<circle fill="none" stroke="#262262" stroke-width="5" stroke-miterlimit="10" cx="302.5" cy="351" r="166.9"/>
<circle fill="#262262" cx="304.3" cy="339.3" r="56.9"/>
<circle fill="#1C75BC" cx="263.8" cy="351" r="9.9"/>
<circle fill="#1C75BC" cx="336.1" cy="309.3" r="9.9"/>
<circle fill="#1C75BC" cx="346" cy="341.9" r="9.9"/>
<circle fill="#1C75BC" cx="344.9" cy="324.2" r="2.7"/>
<circle fill="#262262" cx="495" cy="158.1" r="4.9"/>
<circle fill="#262262" cx="498" cy="377.8" r="4.9"/>
<path fill="#262262" d="M117.6,382.5c0,2.1-1.3,3.7-3,4.5c-0.6,0.3-1.3,0.3-1.9,0.3c-2.7,0-4.9-2.2-4.9-4.9c0-2.7,2.2-4.9,4.9-4.9
	C115.4,377.8,117.6,379.9,117.6,382.5z"/>
<circle fill="#262262" cx="498" cy="630.2" r="4.9"/>
<circle fill="#262262" cx="117.6" cy="630.2" r="4.9"/>
<circle fill="#262262" cx="112.5" cy="156.6" r="4.9"/>
<circle fill="#1C75BC" cx="319.4" cy="297.1" r="2.7"/>
<circle fill="#1C75BC" cx="284.8" cy="298.5" r="2.7"/>
<circle fill="#1C75BC" cx="262.7" cy="331.7" r="2.7"/>
<circle fill="#1C75BC" cx="273.7" cy="367.2" r="2.7"/>
<circle fill="#1C75BC" cx="310" cy="376.3" r="2.7"/>
<circle fill="#1C75BC" cx="340.7" cy="359.8" r="2.7"/>
<circle fill="#1C75BC" cx="302.5" cy="294.9" r="9.9"/>
<circle fill="#1C75BC" cx="290" cy="378" r="9.9"/>
<circle fill="#1C75BC" cx="329.5" cy="373.6" r="9.9"/>
<circle fill="#1C75BC" cx="270.1" cy="312.3" r="9.9"/>
<circle fill="none" stroke="#1C75BC" stroke-width="2" stroke-miterlimit="10" cx="304.3" cy="337.1" r="26.6"/>
<line fill="none" stroke="#262262" stroke-miterlimit="10" x1="253.8" y1="351" x2="273.7" y2="351"/>
<line fill="none" stroke="#262262" stroke-miterlimit="10" x1="260" y1="312.3" x2="280" y2="312.3"/>
<line fill="none" stroke="#262262" stroke-miterlimit="10" x1="289.6" y1="287.6" x2="309.6" y2="287.6"/>
<line fill="none" stroke="#262262" stroke-miterlimit="10" x1="326" y1="309.3" x2="346" y2="309.3"/>
<line fill="none" stroke="#262262" stroke-miterlimit="10" x1="336.1" y1="341.9" x2="356.1" y2="341.9"/>
<line fill="none" stroke="#262262" stroke-miterlimit="10" x1="319.4" y1="373.6" x2="339.4" y2="373.6"/>
<line fill="none" stroke="#262262" stroke-miterlimit="10" x1="280" y1="378" x2="299.9" y2="378"/>
<line fill="none" stroke="#262262" stroke-miterlimit="10" x1="263.8" y1="341.1" x2="263.8" y2="361"/>
<line fill="none" stroke="#262262" stroke-miterlimit="10" x1="270.1" y1="302.4" x2="270.1" y2="322.2"/>
<line fill="none" stroke="#262262" stroke-miterlimit="10" x1="302.5" y1="284.8" x2="302.5" y2="304.8"/>
<line fill="none" stroke="#262262" stroke-miterlimit="10" x1="336.1" y1="299.3" x2="336.1" y2="319.4"/>
<line fill="none" stroke="#262262" stroke-miterlimit="10" x1="329.5" y1="363.7" x2="329.5" y2="383.6"/>
<line fill="none" stroke="#262262" stroke-miterlimit="10" x1="346" y1="331.7" x2="346" y2="351.8"/>
<line fill="none" stroke="#262262" stroke-miterlimit="10" x1="290" y1="368.1" x2="290" y2="388"/>
<polygon fill="#262262" points="125.2,145.5 134.4,167.6 471.1,167.6 483.1,145.5 "/>
<rect x="117.6" y="506.5" fill="#262262" width="67.5" height="106"/>
<rect x="117.6" y="570.5" fill="#262262" width="114" height="42.1"/>
<polygon fill="#1C75BC" points="304.3,321.8 309,331.5 319.6,333 311.8,340.4 313.7,351 304.3,346.1 294.8,351 296.7,340.4 289,333 
	299.5,331.5 "/>
<circle fill="#262262" cx="200.8" cy="541.2" r="24.9"/>
<circle fill="#1C75BC" cx="128.5" cy="601.3" r="4.9"/>
<circle fill="#1C75BC" cx="200.8" cy="543.3" r="4.5"/>
<path fill="#262262" d="M187.6,511.3c0,0-42.2,46.6,21.7,59.3s225.2-111,225.2-111s-215.9,19.2-245.1,49.6"/>
<circle fill="none" stroke="#1C75BC" stroke-miterlimit="10" cx="128.5" cy="601.3" r="8.9"/>
<circle fill="none" stroke="#262262" stroke-miterlimit="10" cx="112.7" cy="382.5" r="7.9"/>
<circle fill="none" stroke="#262262" stroke-miterlimit="10" cx="112.5" cy="156.6" r="7.9"/>
<circle fill="none" stroke="#262262" stroke-miterlimit="10" cx="495" cy="158.1" r="7.9"/>
<circle fill="none" stroke="#262262" stroke-miterlimit="10" cx="498" cy="377.8" r="7.9"/>
<circle fill="none" stroke="#262262" stroke-miterlimit="10" cx="498" cy="630.2" r="7.9"/>
<circle fill="none" stroke="#262262" stroke-miterlimit="10" cx="117.6" cy="630.2" r="7.9"/>
<circle fill="none" stroke="#1C75BC" stroke-miterlimit="10" cx="200.8" cy="541.2" r="21.3"/>
<circle fill="none" stroke="#1C75BC" stroke-miterlimit="10" cx="340.1" cy="494.2" r="9.9"/>
<circle fill="none" stroke="#1C75BC" stroke-width="2" stroke-miterlimit="10" cx="200.8" cy="541.2" r="16.4"/>
<circle fill="none" stroke="#1C75BC" stroke-width="0.6" stroke-miterlimit="10" cx="200.8" cy="541.2" r="13.2"/>
<circle fill="none" stroke="#1C75BC" stroke-width="0.34" stroke-miterlimit="10" cx="200.8" cy="541.2" r="11.1"/>
<circle fill="#1C75BC" cx="200.8" cy="541.2" r="7.1"/>
<ellipse transform="matrix(0.3121 0.9501 -0.9501 0.3121 672.0287 114.6715)" fill="#1C75BC" cx="256.8" cy="521.4" rx="7.5" ry="14.1"/>
<circle fill="#1C75BC" cx="296.1" cy="511.9" r="4.4"/>
<circle fill="#1C75BC" cx="340.1" cy="494.2" r="7.5"/>
</svg>
