<?xml version="1.0" encoding="utf-8"?>
<!-- Generator: Adobe Illustrator 18.1.0, SVG Export Plug-In . SVG Version: 6.00 Build 0)  -->
<svg version="1.1" id="Layer_1" xmlns="http://www.w3.org/2000/svg" xmlns:xlink="http://www.w3.org/1999/xlink" x="0px" y="0px"
	 viewBox="38.1 299.1 646.5 520.5" enable-background="new 38.1 299.1 646.5 520.5" xml:space="preserve">
<path fill="#2178A9" d="M440.7,798.8H278.4c-20.1,0-36.7-16.5-36.7-36.7V354c0-20.1,16.5-36.7,36.7-36.7h162.3
	c20.1,0,36.7,16.5,36.7,36.7v408.3C477.4,782.3,460.8,798.8,440.7,798.8z"/>
<polygon fill="#FFFFFF" points="260,750.4 260,526.4 260,376.6 459.1,376.6 459.1,750.4 "/>
<path fill="#262262" d="M312,537.9c0,0-13.3-65.7,47.8-71.8c0,0,58.4,0.7,51.3,71.8c0,0,11.4,0.7,14,10.6v99.1c0,0,0,11.4-15.9,13.3
	H305.7c0,0-13.3-5.9-11.4-15.9l-0.1-97.4C294.2,547.7,302.2,537.2,312,537.9z"/>
<path fill="#FFFFFF" d="M353.1,598.9c0,0-9.8-5.8-3.4-17.3c0,0,7.4-9.4,18.5-2.4c0,0,5.2,5.8,3.4,13.4c0,0,0,4-5.2,6.5l1.3,24.7
	h-15.4L353.1,598.9z"/>
<path fill="#FFFFFF" d="M330.2,538.6h63.1c0,0,5.9-51-31.8-51C361.9,487.8,323.3,486.9,330.2,538.6z"/>
</svg>
