<?xml version="1.0" encoding="utf-8"?>
<!-- Generator: Adobe Illustrator 18.1.0, SVG Export Plug-In . SVG Version: 6.00 Build 0)  -->
<svg version="1.1" id="Layer_1" xmlns="http://www.w3.org/2000/svg" xmlns:xlink="http://www.w3.org/1999/xlink" x="0px" y="0px"
	 viewBox="84 325 633 514" enable-background="new 84 325 633 514" xml:space="preserve">
<g id="b6vvwZ.tif">
	<g>
		<path fill="#2178A9" d="M680.2,618.9c-0.3,16.7-15.5,39.5-42.6,53.4c-29.5,15-59.4,13-87.7-4.9c-3-1.8-6.1-3.8-8.5-6.4
			c-5.4-5.2-9.7-4.1-15.4,0c-41.1,30.1-78.8,28.7-118-4.7c-7.1-6.1-11.3-6.1-17.9,0.8c-29.4,29.9-64.1,38.5-103.6,23.7
			c-4.9-1.8-8.8-0.8-13.3,1.4c-20.9,10.7-38.4,8.8-55.5-6.8c-4.8-4.5-9.7-4.4-15.2-4.4c-32.3-0.3-59.4-18.4-68.5-46.6
			c-8.5-26.3-2.4-49.8,17.2-69.5c4.1-4.1,6.6-7.8,4.8-14.4c-10.2-37.3-1.3-70,28-95.2c30.1-26,64.9-29.8,102.1-17.2
			c7.2,2.4,15.2,9.9,21.5,6.8c5.4-2.5,7.2-12.4,10.6-19.1c21.6-42.9,68.6-66.2,118.9-59.3c47.2,6.6,83.9,42.4,91.8,90.5
			c1.7,10.7,6.1,14.7,16.9,16.2c29.8,4.5,50.8,20.6,59.3,50.3c2.4,8.5,7.1,11.6,15,14C657.9,538.7,680.2,567.2,680.2,618.9z"/>
	</g>
</g>
<path fill="#262262" d="M341.5,475.3c0,0-17.6-88.2,64.1-96.4c0,0,78.5,1,68.8,96.4c0,0,15.2,1,18.6,14.1v132.8
	c0,0,0,15.2-21.3,17.6H332.9c0,0-17.6-8.2-15.2-21.3L317.5,488C317.6,488.6,328.5,474.5,341.5,475.3z"/>
<path fill="#2178A9" d="M396.7,557.1c0,0-13.1-7.8-4.5-23.3c0,0,9.9-12.6,24.7-3.2c0,0,7.1,7.8,4.5,17.9c0,0,0,5.4-7.1,8.8l1.7,33
	h-20.6L396.7,557.1z"/>
<path fill="#2178A9" d="M365.9,476.3h84.7c0,0,8.2-68.5-42.6-68.5C408.4,408.1,356.9,406.9,365.9,476.3z"/>
<polygon fill="#262262" points="367.5,696.3 418.2,696.3 401.2,765.4 422.1,765.4 358.4,833.3 334.3,764.9 352.4,764.9 "/>
<polygon fill="#2178A9" points="304.8,696.3 335.3,696.3 325,733.3 337.7,733.3 299.3,769.5 284.8,733 295.6,733 "/>
<polygon fill="#2178A9" points="457.3,696.3 499.2,696.3 485.2,753.4 502.7,753.4 449.6,809.8 429.7,753 444.6,753 "/>
</svg>
