<?xml version="1.0" encoding="utf-8"?>
<!-- Generator: Adobe Illustrator 18.1.0, SVG Export Plug-In . SVG Version: 6.00 Build 0)  -->
<svg version="1.1" id="Layer_1" xmlns="http://www.w3.org/2000/svg" xmlns:xlink="http://www.w3.org/1999/xlink" x="0px" y="0px"
	 viewBox="0 0 500 500" enable-background="new 0 0 500 500" xml:space="preserve">
<path fill="#262262" d="M119.4,163.9c0,0-14-69.8,50.7-76.2c0,0,62,0.8,54.3,76.2c0,0,12,0.8,14.8,11.2v105.1c0,0,0,12-16.8,14
	H112.7c0,0-14-6.4-12-16.8l-0.2-103.3C100.6,174.3,109.2,163.1,119.4,163.9z"/>
<path fill="#FFFFFF" d="M163.2,228.4c0,0-10.4-6.2-3.6-18.4c0,0,7.8-10,19.6-2.6c0,0,5.6,6.2,3.6,14.2c0,0,0,4.2-5.6,7l1.4,26.1
	h-16.2L163.2,228.4z"/>
<path fill="#FFFFFF" d="M283.8,297.4c0,0-10.4-6.2-3.6-18.4c0,0,7.8-10,19.6-2.6c0,0,5.6,6.2,3.6,14.2c0,0,0,4.2-5.6,7l1.4,26.1H283
	L283.8,297.4z"/>
<path fill="#1C75BC" d="M328.6,241.9h20.7v-21.1c0,0,6.4-37.9,46.5-22.7c0,0,12.6,4.4,14.8,23.3v33.1h20.2V214
	c0,0-6.8-45.9-57.1-40.9c0,0-26.3,1.4-39.3,26.7C334,199.8,326.7,209,328.6,241.9z"/>
<path fill="#1C75BC" stroke="#FFFFFF" stroke-width="4" stroke-miterlimit="10" d="M351.6,237.9c-1.4,0-2.8-0.2-4.4-0.2
	c-7.8,0.2-16,0.6-23.9,0.2c-0.2,0-0.2,0-0.6,0c-1.6,0.2-3.6,0.2-5.6,0.2c-1.6,0-3.4,0-5-0.2c-17,0.6-34.3,0.2-51.3,0.2h-0.2h-8.4
	H252c-1.6,0.2-3.4,0.2-5,0.2h-11.3c-1.6,0-3.4,0.2-5,0.2c-5.4,3-9,7.8-9,7.8v103.3c-2,10.4,12,16.8,12,16.8h109.9
	c16.8-2,16.8-14,16.8-14V247.3C358.8,242.1,355,239.3,351.6,237.9z"/>
<path fill="#FFFFFF" d="M286.3,303.6c0,0-10.4-6.2-3.6-18.4c0,0,7.8-10,19.6-2.6c0,0,5.6,6.2,3.6,14.2c0,0,0,4.2-5.6,7l1.4,26.1
	h-16.2L286.3,303.6z"/>
<path fill="#FFFFFF" d="M138.8,164.6h67c0,0,6.4-54.1-33.7-54.1C172.5,110.7,131.6,109.7,138.8,164.6z"/>
</svg>
