<?xml version="1.0" encoding="utf-8"?>
<!-- Generator: Adobe Illustrator 18.1.0, SVG Export Plug-In . SVG Version: 6.00 Build 0)  -->
<svg version="1.1" id="Layer_1" xmlns="http://www.w3.org/2000/svg" xmlns:xlink="http://www.w3.org/1999/xlink" x="0px" y="0px"
	 viewBox="0 0 500 500" enable-background="new 0 0 500 500" xml:space="preserve">
<path fill="#2178A9" d="M315.2,416.2h-114c-14.1,0-25.7-11.6-25.7-25.7V103.8c0-14.1,11.6-25.7,25.7-25.7h114
	c14.1,0,25.7,11.6,25.7,25.7v286.7C340.9,404.6,329.3,416.2,315.2,416.2z"/>
<polygon fill="#FFFFFF" points="188.3,382.2 188.3,224.9 188.3,119.7 328.1,119.7 328.1,382.2 "/>
<path fill="#262262" d="M224.8,233c0,0-9.3-46.2,33.6-50.4c0,0,41,0.5,36,50.4c0,0,8,0.5,9.8,7.4V310c0,0,0,8-11.2,9.3h-72.6
	c0,0-9.3-4.2-8-11.2l-0.1-68.4C212.3,239.9,218,232.5,224.8,233z"/>
<path fill="#FFFFFF" d="M253.7,275.8c0,0-6.9-4.1-2.4-12.2c0,0,5.2-6.6,13-1.7c0,0,3.7,4.1,2.4,9.4c0,0,0,2.8-3.7,4.6l0.9,17.3
	h-10.8L253.7,275.8z"/>
<path fill="#FFFFFF" d="M237.6,233.5h44.3c0,0,4.2-35.8-22.3-35.8C259.9,197.8,232.8,197.1,237.6,233.5z"/>
</svg>
