<?xml version="1.0" encoding="utf-8"?>
<!-- Generator: Adobe Illustrator 18.1.0, SVG Export Plug-In . SVG Version: 6.00 Build 0)  -->
<svg version="1.1" id="Layer_1" xmlns="http://www.w3.org/2000/svg" xmlns:xlink="http://www.w3.org/1999/xlink" x="0px" y="0px"
	 viewBox="-17 136 646 520" enable-background="new -17 136 646 520" xml:space="preserve">
<path fill="#262262" d="M85.2,300.7c0,0-21.1-105.4,76.6-115.1c0,0,93.7,1.2,82.1,115.1c0,0,18.1,1.2,22.3,16.9v158.8
	c0,0,0,18.1-25.4,21.1H75c0,0-21.1-9.6-18.1-25.4l-0.2-156C56.8,316.4,69.9,299.5,85.2,300.7z"/>
<path fill="#FFFFFF" d="M151.4,398.2c0,0-15.7-9.4-5.4-27.8c0,0,11.7-15.1,29.6-3.9c0,0,8.5,9.4,5.4,21.5c0,0,0,6.3-8.5,10.6
	l2.1,39.4h-24.4L151.4,398.2z"/>
<path fill="#FFFFFF" d="M333.5,502.4c0,0-15.7-9.4-5.4-27.8c0,0,11.7-15.1,29.6-3.9c0,0,8.5,9.4,5.4,21.5c0,0,0,6.3-8.5,10.6
	l2.1,39.4h-24.4L333.5,502.4z"/>
<path fill="#1C75BC" d="M401.2,418.6h31.2v-31.8c0,0,9.6-57.3,70.2-34.3c0,0,19,6.7,22.3,35.2v50h30.5v-61.2
	c0,0-10.2-69.3-86.2-61.8c0,0-39.7,2.1-59.3,40.3C409.3,355,398.3,368.9,401.2,418.6z"/>
<path fill="#1C75BC" stroke="#FFFFFF" stroke-width="4" stroke-miterlimit="10" d="M435.9,412.5c-2.1,0-4.2-0.2-6.7-0.2
	c-11.7,0.2-24.2,0.9-36.2,0.2c-0.2,0-0.2,0-0.9,0c-2.5,0.2-5.4,0.2-8.5,0.2c-2.5,0-5.2,0-7.5-0.2c-25.7,0.9-51.8,0.2-77.5,0.2h-0.2
	h-12.7h-0.2c-2.5,0.2-5.2,0.2-7.5,0.2h-17c-2.5,0-5.2,0.2-7.5,0.2c-8.1,4.6-13.6,11.7-13.6,11.7v156c-3,15.7,18.1,25.4,18.1,25.4
	h166c25.4-3,25.4-21.1,25.4-21.1V426.7C446.8,418.8,441,414.6,435.9,412.5z"/>
<path fill="#FFFFFF" d="M337.2,511.7c0,0-15.7-9.4-5.4-27.8c0,0,11.7-15.1,29.6-3.9c0,0,8.5,9.4,5.4,21.5c0,0,0,6.3-8.5,10.6
	l2.1,39.4H336L337.2,511.7z"/>
<path fill="#FFFFFF" d="M114.5,301.9h101.2c0,0,9.6-81.7-50.8-81.7C165.4,220.4,103.7,218.9,114.5,301.9z"/>
</svg>
