<?xml version="1.0" encoding="utf-8"?>
<!-- Generator: Adobe Illustrator 18.1.0, SVG Export Plug-In . SVG Version: 6.00 Build 0)  -->
<svg version="1.1" id="Layer_1" xmlns="http://www.w3.org/2000/svg" xmlns:xlink="http://www.w3.org/1999/xlink" x="0px" y="0px"
	 viewBox="0 0 500 500" enable-background="new 0 0 500 500" xml:space="preserve">
<g>
	<path fill="#CCD7E3" d="M146.5,252.2c3.2,3.8,6.9,6.9,11.2,9.5c0.9,3.4-1.2,2.8-3.1,2.2c-5.8-1.8-11.2-4.6-15.9-8.5
		c-5.3-6.5-7.8-13.7-5.3-22c3.3,0.4,1.6,3.1,2.2,4.4c-0.3-2.7,0.5-5.7,0.9-8.7c1.2-5.9,4.8-10.4,9.3-14.1c1.2-1,2.3-2.9,4.4-1.5
		c0.4,1.9-1.3,2.7-2.3,3.8C138.8,227,138.2,241.2,146.5,252.2z"/>
	<path fill="#CCD7E3" d="M291.8,263.6c7.1-0.2,2.2-5.5,3.4-8.2c2.7-0.9,4.4-2.9,5.6-5.4c2.6-5.1,2.1-10-1-14.8
		c-0.8-1.2-1.7-2.2-2-3.6c0-0.5,0.1-1,0.3-1.4c2.8-1.5,6.4-0.1,8.9-2.6c1.9,0.7,4.6-1.5,5.9,1.6c-2,0-3.1,1.9-5,2.3
		c-1.7,0.4,1,1,0.7,1.9c2.6,7.2,1.9,13.6-4.3,18.9c-1.5,1.3-3.4,2.8-1.5,5.2c2.5,2.7,6,4.3,8,7.5c-0.4,1.4,1.5,2.7,0,4.1
		c-1.8,1.4-3.7,1.3-5.1-0.2c-3.3-3.4-6.8-5.7-11.8-4C293.1,265,292.2,264.4,291.8,263.6z"/>
	<path fill="#CCD7E3" d="M291.8,263.6c3.1,1.6,6-2.4,9.2-0.2c1.5,1.1,3.3,1.6,4.4,3.4c1.4,2.3,3.4,2.7,5.7,1.2
		c3.5,4.2,3,6.5-1.6,8.7c-0.3,0.1-0.2,1.8-1.4,2c-0.8-0.5-1-1.3-1.3-2.2c-2.2-7.7-6.8-10.6-14.3-8.9c-3.6,0.8-6.8,2.5-7,6.7
		c-0.2,4.4,3.1,6.3,6.7,7.6c2.8,1,6-0.3,8.6,1.8c-2.9,3.9-7,3.4-11,2.9c-4.1-0.6-7.9-2.4-11.3-5c-2.7-2.9-2.6-6-1-9.4
		c3.7-0.4,3.6-4.8,6.3-6.2C286.2,264.5,288.8,263.5,291.8,263.6z"/>
	<path fill="#CCD7E3" d="M229,234.4c1.8,1.7,2.7,3.8,3,6.3c-0.5,8.1-1.7,15.8-9.3,20.6c-1,0.6-2.4,0.6-3,1.8
		c-9.7,3.4-18,0.7-23.3-7.6c-0.3-1.9,1-1.4,1.9-1.2c1.9,0.3,2.2-0.7,1.6-2.1c-1.9-5-1.4-10.2-1.9-15.4c0-1.8,1.1-2.9,2.2-4
		c0.9-0.6,1.8-1.3,2.8-0.4c0.8,1.6,0,3.1-0.4,4.6c-0.9,3.2-0.9,6.4,0.1,9.6c1.4,3.7,2.4,7.7,5.4,10.6c4.9,4.9,11.2,3.6,13.9-2.8
		c1.1-2.6,1.3-5.4,1.9-8.2c0.9-1.7,1.9-2.2,2.7-0.1c0.7,1.8,0.2,3.6-0.4,5.3c1.2-4.2,1.5-8.5,1.3-12.9
		C227.5,237.1,226.3,235,229,234.4z"/>
	<path fill="#CCD7E3" d="M328.9,207.1c0.5,0.1,1,0.2,1.4,0.3c-3.7,7.6-1.5,15.7-1.8,23.6c-0.4,7.5-0.1,15-0.1,22.6c0,6,0,6,5.8,8.2
		c-4.8,1.9-9.8,1.5-14.8,0.7c-1.1-0.2-0.1-1.3,0.5-1.9c3.7-1.8,4.2-5.1,4.2-8.8c0-13.4-0.1-26.8,0.4-40.2
		C325.1,209.1,327.1,208.2,328.9,207.1z"/>
	<path fill="#CCD7E3" d="M252.3,227c10.1-2,17.4,1.1,21.9,9.4c0.4,4.3,1.1,8.6-0.5,12.9c-0.8,2.1-1.4,4.2-3.5,5.4
		c-0.8,0.3-1.7,0.2-2.4-0.3c-1.1-1.3-1.1-2.9-1.1-4.4c-0.2-10.2-3.2-18.4-14.5-20.7C251.6,228.5,251.6,227.7,252.3,227z"/>
	<path fill="#CCD7E3" d="M325.8,210.2c0,14.6-0.2,29.3,0,43.9c0.1,4.6-1.6,6.4-5.9,6.4c0.2-0.3,0.4-0.6,0.6-1
		c1-11.8,0.2-23.6,0.5-35.4c0-1.8-0.3-3.7,0.7-6c2.8,2.4,1.5,5.1,1.9,7.1c0.1-2.8-0.3-5.9-0.4-9C323.3,214,322.3,211.1,325.8,210.2z
		"/>
	<path fill="#CCD7E3" d="M267.7,254.2c0.8,0,1.6,0,2.4,0.1c1.6,4.7-3.2,5.2-5.1,7.6c-0.4,0.9-1.2,0.8-1.9,0.8
		c-8.9,3.1-15.8-1-22.4-6.3c-1.2-1.1-1.9-2.5-2.1-4.1c2.8-2.4,2.8-5.5,2.2-8.8c0.8-5.9,0.8-5.9,3.6-7c2,3.5,0.2,7.9,2.5,11.4
		c1.5,3.3,2.7,6.8,5.6,9.3c4.3,3.8,7.2,3.9,11.4,0C264.9,256.2,265.7,254.4,267.7,254.2z"/>
	<path fill="#CCD7E3" d="M138.8,255.4c5.9,1.4,10.3,5.9,16.2,7.4c1.7,0.4,2.5,1,2.8-1.1c7,2.9,14,2.9,21.1,0
		c1.4-3.7-0.5-7.8,1.1-11.6c2.4,0.8,1.3,2.7,1.8,3.9c0.5-5.9,1.4-7.1,5.9-6.8c0,2.3-0.5,4.5-0.5,6.8c0,5.9-2.4,8.9-8.2,10.4
		c-12.4,3.3-24.5,3-35.9-3.7C141.4,259,138.6,258.4,138.8,255.4z"/>
	<path fill="#CCD7E3" d="M308,278.5c1.5-1.1,0.6-2.9,1.4-4.5c0.4,1,0.8,1.8,1.2,2.8c2-3,1.9-5.9,0.4-8.8c-0.2-1-1.6-2-0.2-3.1
		c4.1,5.2,4.4,10.1,0.8,15.2c-6.7,9.5-25.6,10.4-33.2,1.6c1.5-1.2,2.1,0.6,3,1.1c6.2,3.3,12.5,4.3,19.2,1.2
		C302.4,281.1,305.2,279.8,308,278.5z"/>
	<path fill="#CCD7E3" d="M325.8,210.2c-2.3,3.7-0.6,7.8-1,11.7c-0.4,3.5,0.5,7.2-0.9,11.9c-2.2-5.3-0.5-9.9-2.3-14.1
		c0,11.2,0,22.5,0,33.7c0,2,0.8,4.2-0.9,6c-0.1-16.4-0.2-32.7-0.3-49.1c0.1-3.9,4.2-1.4,5.4-3.4c1.1,0,2.1,0,3.2,0
		C327.9,208.1,326.8,209.2,325.8,210.2z"/>
	<path fill="#CCD7E3" d="M142.9,260.7c5.7,0.5,10.2,4.9,16,4.7c9-0.3,18.5,1.6,25.6-6.4c3.1-3.5,0.5-8.2,2.6-11.9
		c0.1-0.5,0.4-0.7,0.9-0.7c0.4,0.2,0.8,0.4,1.3,0.6c-2.4,4.3-1.4,9.1-1.6,13.6c-0.1,1.7-0.3,2.9-2.3,3.4c-9.3,2.3-18.7,4.2-28.3,2.9
		C151.8,266.2,147,264.1,142.9,260.7z"/>
	<path fill="#CCD7E3" d="M346.8,253.3c1.8,1.7,3.7,3.4,5.5,5c1.6,3.1-0.3,3.5-2.6,3.1c-4.8-0.8-8.2-3.8-11.3-7.2
		c-2.4-3.5-2.6-7.4-2-11.5c1.3-0.6,1.5,1.1,2.6,1.3c0.7-2,0.1-4,0.4-6c0.4-2.3,1-4.3,3.9-4.2c0.9,0.4,1.1,1.1,1.1,1.9
		c-0.1,0.5-0.3,1-0.5,1.4C341.8,243.2,342.3,248.6,346.8,253.3z"/>
	<path fill="#CCD7E3" d="M229,234.4c-0.2,6.1,1.2,12.4-3.1,18.6c0-2.6,0.5-4.7-0.1-6.3c-0.7-1.7-0.7,0.4-1.1,0.7
		c-1.2-0.2-1.8-1.1-1.9-2.2c-0.5-5.6-3.4-10-6.7-14.3c0-2.9,1.8-2.8,3.4-1.6c1.8,1.4,3.5,1.6,5.5,0.8
		C226.8,231.1,228.2,232.4,229,234.4z"/>
	<path fill="#CCD7E3" d="M282.6,249.1c-2.4-2.4-2.5-5.4-2.1-8.4c1.4-0.5,2-1.6,2.5-2.9c0.5-1.3,0.9-3.1,3.1-2.3
		c1.5,2.4,1.6,5.1,2.2,7.8c0.5,2.2,1.1,4.3,3.2,5.6c1.2,0.9,2.7,1.6,3.1,3.2c0,0.5-0.1,1-0.4,1.4C289.4,255,286.2,251.6,282.6,249.1
		z"/>
	<path fill="#CCD7E3" d="M198.8,236.4c1.8,5.9,0.4,12.5,3.5,18.2c0.9,1.7-1.1,1.6-2.2,1.7c-1.3,0.1-2-2.4-3.6-0.9
		c-1.9-2.5-3.6-5.1-2.9-8.5c2.4-1.6,3-4,2.8-6.7C196.6,238.6,196.9,237,198.8,236.4z"/>
	<path fill="#CCD7E3" d="M264.9,262c0.9-3.1,5-4,5.1-7.6c2.5-4.9,4.3-9.9,3.3-15.6c-0.1-0.7,0.5-1.6,0.8-2.3
		c3.8,9,2.7,16.5-3.3,22.6C269.1,260.7,267.3,261.9,264.9,262z"/>
	<path fill="#CCD7E3" d="M243.7,236.3c-2.4,2-1.3,5-2,7.5c-2.1,1.3-2.7,3.7-4.3,5.4c-2.7-9.7,4.2-19.9,14.8-22.3c0,0.7,0,1.3,0,2
		c-0.1,0.8-0.5,1.4-1.1,1.8C248,231.8,246.4,234.7,243.7,236.3z"/>
	<path fill="#CCD7E3" d="M338.4,254.3c0.2-0.9,0.4-2.1,1.3-0.4c2.2,4.1,6.6,5,10.3,6.7c2.4,1.1,1.7-1.3,2.3-2.1
		c5.1,2.2,10.1,1.8,15.3-0.7c-0.5,2.3-1.7,3.4-3.4,4c-7.6,3.1-15,2.8-21.8-2.1C340.3,258.4,339,256.6,338.4,254.3z"/>
	<path fill="#CCD7E3" d="M146.5,252.2c-6.7-6.6-7.2-14.7-6-23.4c0.9-6.7,5.9-10.7,9.9-15.5c0.2-0.1,0.4-0.3,0.6-0.4
		c0.5-0.1,1-0.1,1.4,0.1c0.3,0.3,0.4,0.5,0.3,0.8c-0.1,0.3-0.1,0.4-0.2,0.4C140.1,224.3,138.4,235.6,146.5,252.2z"/>
	<path fill="#CCD7E3" d="M362.6,229c1,0.3,1.7,1,2.1,2c1.8,2.6,0.9,4.4-1.5,6c-2.2,1.6-4.9,2.4-7,4.1c-2.1,0.9-4.1,1.9-6.2,2.8
		c-1.8,0.7-3.6,0.8-5.4-0.1c1-4.2,5.1-4,8-5.5c2.5-1.3,5.2-2.2,5.1-5.7C358.9,230.8,360.8,230,362.6,229z"/>
	<path fill="#CCD7E3" d="M188,246.3c-0.3,0.2-0.6,0.5-0.9,0.7c-3.9,0.8-4.4,3.8-4.4,7c0,1.6,0.8,3.4-1.2,4.8
		c-1.5-2.4,0.1-5.3-1.2-7.9c-1.6,3.6,0.9,7.5-1.5,10.7c-0.2-4.2,1.1-8.5-1-12.5c-1.3-1.8-4.1-0.2-5.3-2.2
		C177.6,245.4,182.8,246.4,188,246.3z"/>
	<path fill="#CCD7E3" d="M362.6,229c-0.1,3-1.6,3.9-4.4,3.2c-4.7-1.8-9.3-1.5-13.9,0.2c-0.9-0.7-1.5-1.5-1-2.7
		C348.4,226,357.4,225.6,362.6,229z"/>
	<path fill="#CCD7E3" d="M225,230.1c-0.8,3.2-2.1,4-4.7,1.3c-0.9-1-2-3.5-4-1c-1.2,0.7-2.3,0.1-3.4-0.4c-2.9-1.3-5.2,0.4-7.5,1.8
		c-0.6,0.4-1.3,0.6-2,0.5c-0.9,0.4-1.7,0.7-2.6,1.1c-0.8-0.7-0.6-1.6-0.2-2.4C207.3,225.3,217.8,225,225,230.1z"/>
	<path fill="#CCD7E3" d="M291.6,250c-6.3-3.2-4.3-9.6-5.8-14.7c-1.6-2.7,1.6-3.4,2.1-5.2c1.8-1.4,3.9-2.1,6.2-2.2
		c0.7-0.3,1.4-0.4,2.2-0.2c1.1,0.5,2.5,0.6,2.2,2.4c0,0.5-0.1,1-0.1,1.4c-9.1,1.5-11.1,5.2-7.8,14C291.2,247,292.2,248.3,291.6,250z
		"/>
	<path fill="#CCD7E3" d="M150.4,213.4c-6.8,3.2-10.4,8.9-12.6,15.7c-1.1,1.7-2.2,1.9-3.2,0c2.5-8.9,8.2-14.8,16.9-17.9
		C152,212.4,151,212.8,150.4,213.4L150.4,213.4z"/>
	<path fill="#CCD7E3" d="M169.3,209c5.4-0.1,10.3,1.3,14.9,4.1c0.1,3.9-2,4.6-5.3,3.8c-1.8-1.7-3.8-2.9-6-4.1
		C171.8,211.6,168.9,211.8,169.3,209z"/>
	<path fill="#CCD7E3" d="M219.7,263.1c8-5.4,10.6-13.7,12.3-22.4C234,251.7,229.6,259.8,219.7,263.1z"/>
	<path fill="#CCD7E3" d="M302.8,257.4c-2.4-1.2-1.4-3.2-0.3-4.2c6.2-5.4,7.4-12.2,6.2-19.9c4.3,6.6,3.8,11.9-1.7,17.3
		C305,252.5,302.3,254,302.8,257.4z"/>
	<path fill="#CCD7E3" d="M240.6,256.5c2.8-0.9,3.5,2.1,5.3,3.1c5.4,3.1,11.2,3.4,17.1,3.2C256.1,267.1,246.6,264.4,240.6,256.5z"/>
	<path fill="#CCD7E3" d="M237.4,249.3c0.1-2.8-0.4-6.2,4.3-5.4c0.2,1,0.1,2.1,0.5,3c1.6,3.8,0.1,5.5-3.8,5.6
		C237.5,251.6,237.5,250.4,237.4,249.3z"/>
	<path fill="#CCD7E3" d="M169.3,209c1.4,1.1,2.9,2.2,4.3,3.3c-1.1,0.9-2.2,0.6-3.3,0.1h0.1c-6.1-2.2-12-0.9-17.9,0.9
		c-0.7,0-1.4,0.1-2.1,0.1c0.3-0.7,0.7-1.5,1-2.2C157,207.8,163.3,209.6,169.3,209z"/>
	<path fill="#CCD7E3" d="M178.7,216.4c2.7,0.5,4.4-0.8,5.5-3.2c1.2,0.7,3.8,1.1,2.4,2.9c-1.8,2.4-3.6,5.7-7,5.6
		c-2.6-0.1,1.1-3.1-0.9-4.1c-0.3-0.3-0.4-0.5-0.3-0.8C178.5,216.5,178.6,216.4,178.7,216.4z"/>
	<path fill="#CCD7E3" d="M134.5,229.1c1.1,0.6,2.1,0.8,3.2,0c0.3,3.8-2,7.5-0.7,11.4c0.3,1-0.3,1.9-1.2,1.8c-1.1,0-1-1.1-1.2-2
		c-0.4-2.3,0.9-4.9-1.1-7C133.3,231.8,133.6,230.3,134.5,229.1z"/>
	<path fill="#CCD7E3" d="M342.3,259.7c7,3.4,14.3,3.8,21.8,2.1C356.7,266.5,348.8,265.7,342.3,259.7z"/>
	<path fill="#CCD7E3" d="M287.9,230.1c-0.7,1.7-1.4,3.4-2.1,5.2c-1.4,1.4-1.9,3.2-2.1,5.1c-0.5,4.4-2,0.5-3.1,0.3
		C280.9,235.7,283.5,232.3,287.9,230.1z"/>
	<path fill="#CCD7E3" d="M343.4,229.8c0.5,0.9,0.9,1.9,1.4,2.8c0,0.9-0.4,1.4-1.1,1.7c-2.8,0.1-3.1,2.1-3.2,4.2
		c-0.9,1.5-1.9,2.8-4,2.1C337,236,339.2,232.3,343.4,229.8z"/>
	<path fill="#CCD7E3" d="M356.3,241.1c2.3-1.9,4.5-4.1,7-5.7c1.9-1.2,1.6-2.7,1.4-4.4c4.1,5.1,4,5.4-1.7,7.7
		C360.8,239.6,358.5,240.3,356.3,241.1z"/>
	<path fill="#CCD7E3" d="M336.4,240.7c1.3-0.7,2.7-1.4,4-2.1c0,1.9,0,3.8,0,5.7c0,1.2,0,2.8-1.4,3c-1.6,0.1-1.5-1.5-1.8-2.7
		c-0.1-0.6-0.6-1.2-0.9-1.8C336.3,242.1,336.4,241.4,336.4,240.7z"/>
	<path fill="#CCD7E3" d="M152.4,213.3c5.8-2.8,11.7-4.6,17.9-0.9c-6.1-0.7-12.1-0.8-17.8,1.9C152.5,214,152.5,213.6,152.4,213.3z"/>
	<path fill="#CCD7E3" d="M197.6,240.7c-0.3,2.8,1.5,6.9-4.1,6.3c-0.4-2.5-0.3-5,1-7.3C196,238.8,196,242.3,197.6,240.7z"/>
	<path fill="#CCD7E3" d="M197.6,240.7c-1.5,1.2-2.2-0.3-3.1-1c0.6-3.9,3-6.5,6.1-8.7c0.1,0.8,0.1,1.6,0.2,2.4c-0.7,1-1.3,2-2,3
		C198,237.7,197.4,239.1,197.6,240.7z"/>
	<path fill="#CCD7E3" d="M294.3,253.3c0-0.4,0.1-0.8,0.1-1.2c2.2-1.4,4.6-2.1,7.2-1c-1.8,1.8-1.6,6.6-6.3,4.4
		c-1.3-0.3-2.7-0.5-4-0.8C291.7,253.1,293.5,254.4,294.3,253.3z"/>
	<path fill="#CCD7E3" d="M346.8,253.3c-4.9-2.8-6.8-11.3-3.8-16.7c1.7,2.7,0.6,5.6,0.8,8.4C343.9,248.1,345.7,250.6,346.8,253.3z"/>
	<path fill="#CCD7E3" d="M172.5,247c1.9,0.5,4.6-1.1,5.3,2.2c-3,0.7-6,0.8-9.4,0.6C169.5,247.6,171.1,247.5,172.5,247z"/>
	<path fill="#CCD7E3" d="M283.8,266c-1.1,2.2-2.2,4.3-3.3,6.5c-1.2,2.5-2.1,0.3-3-0.2C278.3,268.9,280.7,267,283.8,266z"/>
	<path fill="#CCD7E3" d="M296.1,228.2c-0.7-0.1-1.4-0.2-2.1-0.2c6.2-1.4,12.5-0.5,18.7-0.7c1.9-0.1,1.8,1.2,0.1,2
		c-2.1-2.1-4.6-0.7-6.9-1C302.7,230.5,299.4,228.8,296.1,228.2z"/>
	<path fill="#CCD7E3" d="M325.8,207c-0.7,2.9-4.2,1.3-5.4,3.4c-1.5-0.1-3-0.2-5.1-0.4C318.5,206.6,322.1,206.5,325.8,207z"/>
	<path fill="#CCD7E3" d="M294.3,253.3c-0.7,1.3-2.1,0.8-3.1,1.3c-3.7-0.5-6.8-2-8.6-5.5C286.5,250.5,289.8,253.5,294.3,253.3z"/>
	<path fill="#CCD7E3" d="M178.7,216.4c0,0.4,0,0.8,0,1.2c-2.8-1.7-5.6-3.5-8.5-5.2c1.1,0,2.2,0,3.3-0.1
		C175.6,213.3,177.6,214.2,178.7,216.4z"/>
	<path fill="#CCD7E3" d="M343.7,245c-1.6-2.7-1.3-5.6-0.8-8.4c0.2-0.1,0.5-0.2,0.7-0.2c1.8,1.9,1.4,4.3,1.2,6.6
		c1.5,1.8,3.5,0.3,5.2,0.9C348.2,245.5,345.8,244.5,343.7,245z"/>
	<path fill="#003573" d="M301.5,251c-2.3,0.9-4.6,1.6-7.2,1c-0.9-0.7-1.9-1.4-2.8-2.1c-2.3-3.3-3.8-6.9-3.8-11.1
		c0.1-6.8,4-9.5,10.6-7.3C304.6,237.6,305.8,244.9,301.5,251z"/>
	<path fill="#CCD7E3" d="M296.1,228.2c3.3,0,6.6,0,9.9,0c-1.1,6.1-5.1,1.1-7.5,1.9C297.7,229.5,296.9,228.8,296.1,228.2z"/>
	<path fill="#003573" d="M308,278.5c-1.7,2.9-4.4,4.3-7.4,5.3c-4.2,0-8.4,0.3-12.2-2c-2.9-1.7-4.8-4-4.6-7.6
		c0.1-3.6,2.3-5.7,5.3-7.1C299.2,262.5,308.7,268.2,308,278.5z"/>
	<path fill="#003573" d="M213.6,229.2c0.7,0.9,1.7,1.1,2.8,1.2c6.1,4,6.9,10.6,8.4,16.9c-0.8,9.3-3.6,13.5-9.3,14.1
		s-10.2-3.5-12.9-12c-0.3-0.8-0.5-1.6-0.8-2.5c-0.7-3.5-0.8-7,0.1-10.5c0.5-1.4,1.1-2.8,1.6-4.1c0.4-0.3,0.9-0.7,1.3-1
		C207.5,230,210.1,227.8,213.6,229.2z"/>
	<path fill="#CCD7E3" d="M201.8,236.5c0,3.5,0,7-0.1,10.5C200.2,243.5,200,240,201.8,236.5z"/>
	<path fill="#003573" d="M251.2,229.8c0.4-0.3,0.7-0.6,1.1-0.8c12.7,0.4,14.8,9.5,15.7,19.5c0.2,1.9-0.2,3.8-0.3,5.7
		c-2.2,4.3-5.2,7.7-10.5,7.1c-5.2-0.5-7.7-4.4-9.7-8.6c-0.5-1.1-0.9-2.3-1.4-3.4c-1-2-1.3-4.3-1.5-6.5
		C243.8,237.2,245.6,232.5,251.2,229.8z"/>
	<path fill="#CCD7E3" d="M251.2,229.8c-6.9,5.2-6.3,12.3-5.1,19.6c-3.2-3.9-1.8-8.7-2.3-13.1C245.2,232.9,247.3,230.4,251.2,229.8z"
		/>
	<path fill="#003573" d="M344.8,242.9c-2.4-1.8-0.6-4.4-1.2-6.6c0-0.7,0-1.3-0.1-2c0.4-0.6,0.8-1.2,1.1-1.7
		c5.3-4.2,7.7-4.3,13.5-0.4c1.7,2.8,1,4.7-2.1,5.9C352.3,239.6,348.6,241.3,344.8,242.9z"/>
	<path fill="#CCD7E3" d="M213.6,229.2c-3.1-0.1-5.9,1.6-8.8,2.1C207.3,228.9,209.9,227,213.6,229.2z"/>
</g>
</svg>
