<?xml version="1.0" encoding="utf-8"?>
<!-- Generator: Adobe Illustrator 18.1.0, SVG Export Plug-In . SVG Version: 6.00 Build 0)  -->
<svg version="1.1" id="Layer_1" xmlns="http://www.w3.org/2000/svg" xmlns:xlink="http://www.w3.org/1999/xlink" x="0px" y="0px"
	 viewBox="56 301 500 190" enable-background="new 56 301 500 190" xml:space="preserve">
<g>
	<path fill="#003573" d="M87.5,414.1c6.7,8.1,14.4,14.4,23.6,20c1.8,7.2-2.6,5.9-6.6,4.6c-12.2-3.8-23.6-9.7-33.6-18
		c-11.2-13.8-16.4-29-11.2-46.4c7,0.9,3.4,6.6,4.6,9.3c-0.7-5.6,1.1-12.1,1.8-18.3c2.6-12.5,10.1-21.9,19.7-29.8
		c2.6-2.1,4.9-6,9.3-3.2c0.9,3.9-2.8,5.6-4.9,8.1C71.4,360.8,70.2,390.8,87.5,414.1z"/>
	<path fill="#003573" d="M394.4,438.1c15-0.4,4.6-11.6,7.2-17.2c5.6-1.8,9.3-6,12-11.4c5.5-10.6,4.5-21-2.1-31.3
		c-1.7-2.6-3.7-4.6-4.2-7.6c0-1.1,0.1-2.1,0.7-2.9c5.9-3.2,13.4-0.1,18.8-5.5c3.9,1.6,9.7-3.2,12.5,3.4c-4.2,0-6.6,3.9-10.5,4.9
		c-3.7,0.9,2.1,2.1,1.6,3.9c5.5,15.2,3.9,28.6-9.2,39.8c-3.2,2.8-7.2,5.9-3.2,11c5.4,5.6,12.6,9.2,16.9,15.9c-0.9,2.9,3.2,5.6,0,8.7
		c-3.8,2.9-7.7,2.8-10.6-0.4c-7-7.2-14.3-12.1-24.8-8.4C397.2,441.1,395.2,439.8,394.4,438.1z"/>
	<path fill="#003573" d="M394.4,438.1c6.6,3.4,12.6-5,19.4-0.4c3.2,2.2,7,3.4,9.3,7.2c2.9,4.9,7.2,5.6,12.1,2.6
		c7.4,8.8,6.4,13.8-3.4,18.3c-0.7,0.1-0.4,3.8-2.9,4.2c-1.7-1.1-2.1-2.8-2.8-4.6c-4.6-16.2-14.3-22.5-30.2-18.8
		c-7.6,1.7-14.3,5.4-14.8,14.2c-0.4,9.3,6.6,13.3,14.2,16c5.9,2.1,12.6-0.7,18.1,3.8c-6,8.3-14.8,7.2-23.2,6
		c-8.7-1.2-16.7-5-23.8-10.5c-5.6-6-5.5-12.6-2.1-19.8c7.7-0.9,7.6-10.1,13.3-13.1C382.5,439.9,388,437.8,394.4,438.1z"/>
	<path fill="#003573" d="M261.8,376.5c3.8,3.7,5.6,8.1,6.4,13.3c-1.1,17.1-3.7,33.2-19.7,43.5c-2.1,1.2-5,1.2-6.4,3.8
		c-20.5,7.2-38,1.6-49.1-16c-0.7-3.9,2.1-2.9,3.9-2.6c3.9,0.7,4.6-1.6,3.4-4.5c-3.9-10.5-2.9-21.5-3.9-32.4c0-3.8,2.2-6,4.6-8.4
		c1.8-1.2,3.8-2.8,5.9-0.9c1.7,3.4,0,6.6-0.9,9.7c-1.8,6.7-1.8,13.4,0.1,20.4c2.9,7.7,5,16.2,11.4,22.5c10.4,10.4,23.6,7.6,29.3-5.9
		c2.2-5.5,2.8-11.4,3.9-17.2c1.8-3.7,3.9-4.6,5.6-0.1c1.6,3.8,0.4,7.6-0.9,11.2c2.6-8.8,3.2-18,2.8-27.3
		C258.6,382.2,256.1,377.7,261.8,376.5z"/>
	<path fill="#003573" d="M472.7,318.9c1.1,0.1,2.1,0.4,2.9,0.7c-7.7,16-3.2,33.1-3.8,49.9c-0.9,15.9-0.1,31.8-0.1,47.8
		c0,12.6,0,12.6,12.2,17.2c-10.1,3.9-20.8,3.2-31.3,1.6c-2.2-0.4-0.1-2.8,1.1-3.9c7.7-3.8,8.8-10.6,8.8-18.6
		c0-28.2-0.1-56.6,0.9-84.8C464.6,323.1,468.9,321.1,472.7,318.9z"/>
	<path fill="#003573" d="M310.9,360.8c21.4-4.2,36.8,2.2,46.2,19.8c0.9,9.2,2.2,18.1-1.1,27.3c-1.7,4.5-2.9,8.8-7.4,11.4
		c-1.7,0.7-3.7,0.4-5-0.7c-2.2-2.8-2.2-6-2.2-9.3c-0.4-21.5-6.7-38.7-30.5-43.6C309.6,364,309.6,362.3,310.9,360.8z"/>
	<path fill="#003573" d="M466.1,325.4c0,30.9-0.4,61.9,0,92.6c0.1,9.7-3.4,13.4-12.5,13.4c0.4-0.7,0.9-1.2,1.2-2.1
		c2.1-24.8,0.4-49.9,1.1-74.7c0-3.8-0.7-7.7,1.6-12.6c5.9,5,3.2,10.6,3.9,15c0.1-5.9-0.7-12.5-0.9-18.9
		C460.7,333.4,458.8,327.4,466.1,325.4z"/>
	<path fill="#003573" d="M343.5,418.3c1.7,0,3.4,0,5,0.1c3.4,10-6.7,11-10.6,16c-0.9,1.8-2.6,1.7-3.9,1.7
		c-18.8,6.6-33.2-2.1-47.3-13.3c-2.6-2.2-3.9-5.4-4.5-8.7c5.9-5,5.9-11.6,4.6-18.6c1.7-12.5,1.7-12.5,7.6-14.8
		c4.2,7.4,0.4,16.7,5.4,24.2c3.2,7,5.6,14.3,12,19.7c9.2,8.1,15.2,8.3,24.2,0C337.4,422.5,339.3,418.8,343.5,418.3z"/>
	<path fill="#003573" d="M71.4,420.8c12.5,2.9,21.7,12.5,34.1,15.8c3.7,0.9,5.4,2.1,5.9-2.2c14.8,6,29.5,6,44.5,0
		c2.9-7.7-1.1-16.4,2.2-24.4c5,1.7,2.8,5.6,3.8,8.3c1.1-12.5,2.9-15,12.5-14.3c0,4.9-1.1,9.5-1.1,14.3c0,12.5-5,18.8-17.2,21.9
		c-26.3,7-51.7,6.4-75.8-7.7C76.9,428.4,70.8,427.2,71.4,420.8z"/>
	<path fill="#003573" d="M428.6,469.6c3.2-2.2,1.2-6,2.9-9.5c0.9,2.1,1.7,3.8,2.6,5.9c4.2-6.4,3.9-12.5,0.9-18.6
		c-0.4-2.1-3.4-4.2-0.4-6.6c8.7,11,9.3,21.4,1.7,32c-14.2,20-54,21.9-70,3.4c3.2-2.6,4.5,1.2,6.4,2.2c13.1,7,26.4,9.2,40.6,2.6
		C416.6,475.1,422.7,472.4,428.6,469.6z"/>
	<path fill="#003573" d="M466.1,325.4c-4.9,7.7-1.2,16.4-2.1,24.7c-0.9,7.4,1.1,15.2-1.8,25.2c-4.6-11.2-1.1-20.9-4.9-29.8
		c0,23.6,0,47.4,0,71c0,4.2,1.7,8.8-1.8,12.6c-0.1-34.7-0.4-68.9-0.7-103.6c0.1-8.3,8.8-2.9,11.4-7.2c2.2,0,4.5,0,6.7,0
		C470.5,321,468.2,323.3,466.1,325.4z"/>
	<path fill="#003573" d="M80,432.1c12.1,1.1,21.5,10.4,33.8,10c18.9-0.7,39,3.4,54-13.4c6.6-7.4,1.1-17.2,5.5-25.2
		c0.1-1.1,0.9-1.6,1.8-1.6c0.9,0.4,1.7,0.9,2.8,1.2c-5,9.2-2.9,19.2-3.4,28.6c-0.1,3.7-0.7,6-4.9,7.2c-19.7,4.9-39.5,8.8-59.6,6
		C98.8,443.6,88.6,439.3,80,432.1z"/>
	<path fill="#003573" d="M510.5,416.3c3.8,3.7,7.7,7.2,11.6,10.5c3.4,6.6-0.7,7.4-5.5,6.6c-10.1-1.7-17.2-8.1-23.8-15.2
		c-5-7.4-5.5-15.8-4.2-24.3c2.8-1.2,3.2,2.2,5.5,2.8c1.6-4.2,0.1-8.4,0.9-12.6c0.9-4.9,2.1-9.2,8.3-8.8c1.8,0.9,2.2,2.2,2.2,3.9
		c-0.1,1.1-0.7,2.1-1.1,2.9C500,395.2,500.9,406.5,510.5,416.3z"/>
	<path fill="#003573" d="M261.8,376.5c-0.4,12.9,2.6,26.3-6.6,39.3c0-5.5,1.1-10-0.1-13.3c-1.6-3.7-1.6,0.9-2.2,1.6
		c-2.6-0.4-3.8-2.2-3.9-4.6c-1.1-12-7.2-21-14.2-30.2c0-6,3.8-5.9,7.2-3.4c3.8,2.9,7.4,3.4,11.6,1.7
		C257.1,369.6,260.1,372.3,261.8,376.5z"/>
	<path fill="#003573" d="M374.9,407.5c-5-5-5.4-11.4-4.5-17.7c2.9-1.1,4.2-3.4,5.4-6c1.1-2.8,1.8-6.6,6.6-4.9
		c3.2,5,3.4,10.6,4.6,16.4c1.1,4.6,2.2,9.2,6.7,12c2.6,1.8,5.6,3.4,6.6,6.7c0,1.1-0.1,2.1-0.9,2.9
		C389.2,420,382.5,412.9,374.9,407.5z"/>
	<path fill="#003573" d="M198,380.8c3.8,12.5,0.9,26.4,7.4,38.5c1.8,3.7-2.2,3.4-4.6,3.7c-2.8,0.1-4.2-5-7.6-1.8
		c-3.9-5.4-7.6-10.6-6-18c5-3.4,6.4-8.4,5.9-14.2C193.4,385.3,194,382,198,380.8z"/>
	<path fill="#003573" d="M337.4,434.8c1.8-6.6,10.5-8.4,10.6-16c5.4-10.4,9.2-20.9,7-33c-0.1-1.6,1.1-3.4,1.7-4.9
		c8.1,18.9,5.6,34.8-7,47.8C346.5,432.1,342.7,434.6,337.4,434.8z"/>
	<path fill="#003573" d="M292.8,380.5c-5,4.2-2.8,10.5-4.2,15.9c-4.5,2.8-5.6,7.7-9.2,11.4c-5.6-20.5,8.8-42,31.3-47.1
		c0,1.6,0,2.8,0,4.2c-0.1,1.7-1.1,2.9-2.2,3.8C302,371,298.6,377.2,292.8,380.5z"/>
	<path fill="#003573" d="M492.7,418.5c0.4-1.8,0.9-4.5,2.8-0.9c4.6,8.7,13.9,10.5,21.7,14.2c5,2.2,3.7-2.8,4.9-4.5
		c10.6,4.6,21.4,3.8,32.3-1.6c-1.1,4.9-3.7,7.2-7.2,8.4c-16,6.6-31.8,5.9-46.1-4.5C496.7,427.2,494,423.4,492.7,418.5z"/>
	<path fill="#003573" d="M87.5,414.1c-14.2-13.9-15.2-31-12.6-49.4c1.8-14.2,12.5-22.6,20.9-32.8c0.4-0.1,0.9-0.7,1.2-0.9
		c1.1-0.1,2.1-0.1,2.9,0.1c0.7,0.7,0.9,1.1,0.7,1.7c-0.1,0.7-0.1,0.9-0.4,0.9C74.1,355.1,70.4,379.1,87.5,414.1z"/>
	<path fill="#003573" d="M543.7,365.1c2.1,0.7,3.7,2.1,4.5,4.2c3.8,5.5,1.8,9.3-3.2,12.6c-4.6,3.4-10.4,5-14.8,8.7
		c-4.5,1.8-8.7,3.9-13.1,5.9c-3.8,1.6-7.6,1.7-11.4-0.1c2.1-8.8,10.6-8.4,16.9-11.6c5.4-2.8,11-4.6,10.6-12.1
		C536,368.9,539.9,367.2,543.7,365.1z"/>
	<path fill="#003573" d="M175.2,401.7c-0.7,0.4-1.2,1.1-1.8,1.6c-8.3,1.7-9.3,8.1-9.3,14.8c0,3.4,1.7,7.2-2.6,10.1
		c-3.2-5,0.1-11.2-2.6-16.7c-3.4,7.6,1.8,15.9-3.2,22.6c-0.4-8.8,2.2-18-2.1-26.4c-2.8-3.8-8.7-0.4-11.2-4.6
		C153.3,399.8,164.2,401.9,175.2,401.7z"/>
	<path fill="#003573" d="M543.7,365.1c-0.1,6.4-3.4,8.3-9.3,6.7c-10-3.8-19.7-3.2-29.3,0.4c-1.8-1.6-3.2-3.2-2.1-5.6
		C513.8,358.8,532.8,357.9,543.7,365.1z"/>
	<path fill="#003573" d="M253.4,367.3c-1.7,6.7-4.5,8.4-10,2.8c-1.8-2.1-4.2-7.4-8.4-2.1c-2.6,1.6-4.9,0.1-7.2-0.9
		c-6-2.8-11,0.9-15.9,3.8c-1.2,0.9-2.8,1.2-4.2,1.1c-1.8,0.9-3.7,1.6-5.5,2.2c-1.7-1.6-1.2-3.4-0.4-5
		C215.9,357.3,238.1,356.7,253.4,367.3z"/>
	<path fill="#003573" d="M393.9,409.5c-13.3-6.7-9.2-20.4-12.2-31c-3.4-5.6,3.4-7.2,4.5-11c3.8-2.9,8.3-4.5,13.1-4.6
		c1.6-0.7,2.9-0.9,4.6-0.4c2.2,1.1,5.4,1.2,4.6,5c0,1.1-0.1,2.1-0.1,2.9c-19.2,3.2-23.5,11-16.4,29.5
		C393,403,395.2,405.8,393.9,409.5z"/>
	<path fill="#003573" d="M95.9,332.1c-14.3,6.7-21.9,18.8-26.5,33.1c-2.2,3.7-4.6,3.9-6.7,0c5.4-18.8,17.2-31.3,35.7-37.8
		C99.1,330.2,97.1,330.9,95.9,332.1L95.9,332.1z"/>
	<path fill="#003573" d="M135.7,322.8c11.4-0.1,21.7,2.8,31.4,8.7c0.1,8.3-4.2,9.7-11.2,8.1c-3.8-3.7-8.1-6-12.6-8.7
		C141.1,328.3,134.8,328.7,135.7,322.8z"/>
	<path fill="#003573" d="M242.1,437.1c16.9-11.4,22.5-29,26-47.3C272.3,413,263,430.1,242.1,437.1z"/>
	<path fill="#003573" d="M417.5,425.1c-5-2.6-2.9-6.7-0.7-8.8c13.1-11.4,15.8-25.7,13.1-42c9.2,13.9,8.1,25.2-3.7,36.5
		C422.1,414.7,416.5,417.9,417.5,425.1z"/>
	<path fill="#003573" d="M286.2,423.3c5.9-1.8,7.4,4.5,11.2,6.6c11.4,6.6,23.6,7.2,36,6.7C319,445.5,298.8,439.8,286.2,423.3z"/>
	<path fill="#003573" d="M279.5,407.9c0.1-5.9-0.9-13.1,9.2-11.4c0.4,2.1,0.1,4.5,1.1,6.4c3.4,8.1,0.1,11.6-8.1,12
		C279.8,412.9,279.8,410.3,279.5,407.9z"/>
	<path fill="#003573" d="M135.7,322.8c2.9,2.2,6,4.6,9.2,7c-2.2,1.8-4.6,1.2-7,0.1h0.1c-12.9-4.6-25.3-1.8-37.8,1.8
		c-1.6,0-2.9,0.1-4.5,0.1c0.7-1.6,1.6-3.2,2.1-4.6C109.8,320.3,123.1,324.2,135.7,322.8z"/>
	<path fill="#003573" d="M155.5,338.6c5.6,1.1,9.3-1.7,11.6-6.7c2.6,1.6,8.1,2.2,5,6c-3.8,5-7.6,12.1-14.8,12
		c-5.5-0.1,2.2-6.6-1.8-8.7c-0.7-0.7-0.9-1.1-0.7-1.7C155.1,338.7,155.4,338.6,155.5,338.6z"/>
	<path fill="#003573" d="M62.2,365.2c2.2,1.2,4.5,1.7,6.7,0c0.7,8.1-4.2,15.9-1.6,24.2c0.7,2.1-0.7,3.9-2.6,3.8
		c-2.2,0-2.1-2.2-2.6-4.2c-0.9-4.9,1.8-10.4-2.2-14.8C59.8,371,60.3,367.8,62.2,365.2z"/>
	<path fill="#003573" d="M500.9,430c14.8,7.2,30.2,8.1,46.1,4.5C531.4,444.3,514.6,442.6,500.9,430z"/>
	<path fill="#003573" d="M386.2,367.3c-1.6,3.7-2.9,7.2-4.5,11c-2.9,2.9-3.9,6.7-4.5,10.6c-1.1,9.3-4.2,1.1-6.6,0.7
		C371.3,379.3,376.8,372,386.2,367.3z"/>
	<path fill="#003573" d="M503.3,366.8c1.1,1.8,1.8,3.9,2.9,5.9c0,1.8-0.9,2.9-2.2,3.7c-5.9,0.1-6.6,4.5-6.7,8.8
		c-1.8,3.2-3.9,5.9-8.4,4.5C489.8,379.9,494.5,372,503.3,366.8z"/>
	<path fill="#003573" d="M530.5,390.7c4.9-3.9,9.5-8.7,14.8-12.1c3.9-2.6,3.4-5.6,2.9-9.3c8.7,10.6,8.4,11.4-3.7,16.2
		C539.9,387.5,535.2,388.9,530.5,390.7z"/>
	<path fill="#003573" d="M488.6,389.8c2.8-1.6,5.6-2.9,8.4-4.5c0,3.9,0,8.1,0,12.1c0,2.6,0,5.9-2.9,6.4c-3.4,0.1-3.2-3.2-3.8-5.6
		c-0.1-1.2-1.2-2.6-1.8-3.8C488.2,392.7,488.6,391.4,488.6,389.8z"/>
	<path fill="#003573" d="M100,332c12.2-5.9,24.7-9.7,37.8-1.8c-12.9-1.6-25.5-1.7-37.6,3.9C100.4,333.4,100.4,332.5,100,332z"/>
	<path fill="#003573" d="M195.6,389.8c-0.7,5.9,3.2,14.4-8.7,13.3c-0.9-5.4-0.7-10.5,2.1-15.4C192,385.8,192,393.2,195.6,389.8z"/>
	<path fill="#003573" d="M195.6,389.8c-3.2,2.6-4.6-0.7-6.6-2.1c1.2-8.3,6.4-13.8,12.9-18.3c0.1,1.7,0.1,3.4,0.4,5
		c-1.6,2.1-2.8,4.2-4.2,6.4C196.4,383.3,195.1,386.5,195.6,389.8z"/>
	<path fill="#003573" d="M399.5,416.3c0-0.9,0.1-1.7,0.1-2.6c4.6-2.9,9.7-4.5,15.2-2.1c-3.8,3.8-3.4,13.9-13.3,9.3
		c-2.8-0.7-5.6-1.1-8.4-1.7C394,416,397.8,418.8,399.5,416.3z"/>
	<path fill="#003573" d="M510.5,416.3c-10.4-5.9-14.3-23.8-8.1-35.2c3.7,5.6,1.2,12,1.7,17.7C504.2,405.4,508,410.7,510.5,416.3z"/>
	<path fill="#003573" d="M142.4,403c3.9,1.1,9.7-2.2,11.2,4.6c-6.4,1.6-12.6,1.7-19.8,1.2C136.2,404.5,139.5,404.1,142.4,403z"/>
	<path fill="#003573" d="M377.5,443.2c-2.2,4.6-4.6,9.2-7,13.8c-2.6,5.4-4.5,0.7-6.4-0.4C365.8,449.3,370.9,445.3,377.5,443.2z"/>
	<path fill="#003573" d="M403.4,363.4c-1.6-0.1-2.9-0.4-4.5-0.4c13.1-2.9,26.4-1.1,39.5-1.6c3.9-0.1,3.8,2.6,0.1,4.2
		c-4.5-4.5-9.7-1.6-14.4-2.1C417.4,368.2,410.4,364.8,403.4,363.4z"/>
	<path fill="#003573" d="M466.1,318.7c-1.6,6-8.8,2.8-11.4,7.2c-3.2-0.1-6.4-0.4-10.6-0.9C450.6,317.8,458.4,317.7,466.1,318.7z"/>
	<path fill="#003573" d="M399.5,416.3c-1.6,2.8-4.5,1.7-6.6,2.8c-7.7-1.1-14.3-4.2-18.1-11.6C383.1,410.5,390.1,416.8,399.5,416.3z"
		/>
	<path fill="#003573" d="M155.5,338.6c0,0.9,0,1.7,0,2.6c-5.9-3.7-12-7.4-18-11c2.2,0,4.6,0,7-0.1C149,332,153.3,333.8,155.5,338.6z
		"/>
	<path fill="#003573" d="M504,399c-3.4-5.6-2.8-12-1.7-17.7c0.4-0.1,1.1-0.4,1.6-0.4c3.8,3.9,2.9,9.2,2.6,13.9
		c3.2,3.8,7.4,0.7,11,1.8C513.4,399.9,508.4,397.9,504,399z"/>
	<path fill="#B9E9FF" d="M414.8,411.4c-4.9,1.8-9.7,3.4-15.2,2.1c-1.8-1.6-3.9-2.9-5.9-4.5c-4.9-7-8.1-14.4-8.1-23.5
		c0.1-14.3,8.4-20,22.5-15.4C421.3,383.2,423.8,398.7,414.8,411.4z"/>
	<path fill="#003573" d="M403.4,363.4c7,0,13.9,0,20.9,0c-2.2,12.9-10.6,2.2-15.9,3.9C406.8,366.1,405.1,364.8,403.4,363.4z"/>
	<path fill="#B9E9FF" d="M428.6,469.6c-3.7,6-9.3,9.2-15.8,11.2c-8.8,0-17.7,0.7-25.7-4.2c-6-3.7-10.1-8.4-9.7-16
		c0.1-7.6,4.9-12.1,11.2-15C409.9,435.9,429.9,448,428.6,469.6z"/>
	<path fill="#B9E9FF" d="M229.2,365.5c1.6,1.8,3.7,2.2,5.9,2.6c12.9,8.4,14.4,22.5,17.7,35.7c-1.7,19.7-7.6,28.5-19.7,29.8
		c-12.1,1.2-21.5-7.4-27.3-25.3c-0.7-1.7-1.1-3.4-1.7-5.4c-1.6-7.4-1.7-14.8,0.1-22.2c1.1-2.9,2.2-5.9,3.4-8.7
		c0.9-0.7,1.8-1.6,2.8-2.1C216.5,367.2,222,362.5,229.2,365.5z"/>
	<path fill="#003573" d="M204.4,381c0,7.4,0,14.8-0.1,22.2C200.8,395.7,200.6,388.3,204.4,381z"/>
	<path fill="#B9E9FF" d="M308.7,366.8c0.9-0.7,1.6-1.2,2.2-1.7c26.8,0.9,31.3,20,33.1,41.2c0.4,3.9-0.4,8.1-0.7,12.1
		c-4.6,9.2-11,16.2-22.2,15c-11-1.1-16.2-9.3-20.5-18.1c-1.1-2.2-1.8-4.9-2.9-7.2c-2.1-4.2-2.8-9.2-3.2-13.8
		C293,382.3,296.8,372.6,308.7,366.8z"/>
	<path fill="#003573" d="M308.7,366.8c-14.4,11-13.3,26-10.6,41.4c-6.7-8.3-3.8-18.3-4.9-27.6C295.9,373.4,300.4,368,308.7,366.8z"
		/>
	<path fill="#B9E9FF" d="M506.2,394.4c-5-3.8-1.2-9.3-2.6-13.9c0-1.6,0-2.8-0.1-4.2c0.9-1.2,1.7-2.6,2.2-3.7
		c11.2-8.8,16.2-9.2,28.5-0.9c3.7,5.9,2.1,10-4.5,12.5C522.1,387.5,514.3,391.1,506.2,394.4z"/>
	<path fill="#003573" d="M229.2,365.5c-6.6-0.1-12.5,3.4-18.6,4.5C215.9,365,221.5,360.8,229.2,365.5z"/>
</g>
</svg>
