<?xml version="1.0" encoding="utf-8"?>
<!-- Generator: Adobe Illustrator 18.1.0, SVG Export Plug-In . SVG Version: 6.00 Build 0)  -->
<svg version="1.1" id="Layer_1" xmlns="http://www.w3.org/2000/svg" xmlns:xlink="http://www.w3.org/1999/xlink" x="0px" y="0px"
	 viewBox="73 309 466 174" enable-background="new 73 309 466 174" xml:space="preserve">
<g>
	<path fill="#003573" d="M139.6,402.6c5.1,6.2,11,11,18,15.2c1.4,5.5-2,4.5-5,3.5c-9.3-2.9-18-7.4-25.6-13.7
		c-8.5-10.5-12.5-22.1-8.5-35.3c5.3,0.7,2.6,5,3.5,7.1c-0.5-4.3,0.8-9.2,1.4-13.9c2-9.5,7.7-16.7,15-22.7c2-1.6,3.7-4.6,7.1-2.4
		c0.7,3-2.1,4.3-3.7,6.2C127.3,362,126.4,384.9,139.6,402.6z"/>
	<path fill="#003573" d="M373.3,420.9c11.4-0.3,3.5-8.8,5.5-13.1c4.3-1.4,7.1-4.6,9.1-8.7c4.2-8.1,3.4-16-1.6-23.8
		c-1.3-2-2.8-3.5-3.2-5.8c0-0.8,0.1-1.6,0.5-2.2c4.5-2.4,10.2-0.1,14.3-4.2c3,1.2,7.4-2.4,9.5,2.6c-3.2,0-5,3-8,3.7
		c-2.8,0.7,1.6,1.6,1.2,3c4.2,11.6,3,21.8-7,30.3c-2.4,2.1-5.5,4.5-2.4,8.4c4.1,4.3,9.6,7,12.9,12.1c-0.7,2.2,2.4,4.3,0,6.6
		c-2.9,2.2-5.9,2.1-8.1-0.3c-5.3-5.5-10.9-9.2-18.9-6.4C375.4,423.2,373.9,422.2,373.3,420.9z"/>
	<path fill="#003573" d="M373.3,420.9c5,2.6,9.6-3.8,14.8-0.3c2.4,1.7,5.3,2.6,7.1,5.5c2.2,3.7,5.5,4.3,9.2,2
		c5.6,6.7,4.9,10.5-2.6,13.9c-0.5,0.1-0.3,2.9-2.2,3.2c-1.3-0.8-1.6-2.1-2.1-3.5c-3.5-12.3-10.9-17.1-23-14.3
		c-5.8,1.3-10.9,4.1-11.3,10.8c-0.3,7.1,5,10.1,10.8,12.2c4.5,1.6,9.6-0.5,13.8,2.9c-4.6,6.3-11.3,5.5-17.7,4.6
		c-6.6-0.9-12.7-3.8-18.1-8c-4.3-4.6-4.2-9.6-1.6-15.1c5.9-0.7,5.8-7.7,10.1-10C364.2,422.3,368.4,420.7,373.3,420.9z"/>
	<path fill="#003573" d="M272.3,374c2.9,2.8,4.3,6.2,4.9,10.1c-0.8,13-2.8,25.3-15,33.1c-1.6,0.9-3.8,0.9-4.9,2.9
		c-15.6,5.5-28.9,1.2-37.4-12.2c-0.5-3,1.6-2.2,3-2c3,0.5,3.5-1.2,2.6-3.4c-3-8-2.2-16.4-3-24.7c0-2.9,1.7-4.6,3.5-6.4
		c1.4-0.9,2.9-2.1,4.5-0.7c1.3,2.6,0,5-0.7,7.4c-1.4,5.1-1.4,10.2,0.1,15.5c2.2,5.9,3.8,12.3,8.7,17.1c7.9,7.9,18,5.8,22.3-4.5
		c1.7-4.2,2.1-8.7,3-13.1c1.4-2.8,3-3.5,4.3-0.1c1.2,2.9,0.3,5.8-0.7,8.5c2-6.7,2.4-13.7,2.1-20.8C269.9,378.3,268,374.9,272.3,374z
		"/>
	<path fill="#003573" d="M432.9,330.1c0.8,0.1,1.6,0.3,2.2,0.5c-5.9,12.2-2.4,25.2-2.9,38c-0.7,12.1-0.1,24.2-0.1,36.4
		c0,9.6,0,9.6,9.3,13.1c-7.7,3-15.8,2.4-23.8,1.2c-1.7-0.3-0.1-2.1,0.8-3c5.9-2.9,6.7-8.1,6.7-14.2c0-21.5-0.1-43.1,0.7-64.6
		C426.7,333.3,430,331.8,432.9,330.1z"/>
	<path fill="#003573" d="M309.7,362c16.3-3.2,28,1.7,35.2,15.1c0.7,7,1.7,13.8-0.8,20.8c-1.3,3.4-2.2,6.7-5.6,8.7
		c-1.3,0.5-2.8,0.3-3.8-0.5c-1.7-2.1-1.7-4.6-1.7-7.1c-0.3-16.4-5.1-29.5-23.2-33.2C308.7,364.5,308.7,363.2,309.7,362z"/>
	<path fill="#003573" d="M427.9,335.1c0,23.5-0.3,47.1,0,70.5c0.1,7.4-2.6,10.2-9.5,10.2c0.3-0.5,0.7-0.9,0.9-1.6
		c1.6-18.9,0.3-38,0.8-56.9c0-2.9-0.5-5.9,1.2-9.6c4.5,3.8,2.4,8.1,3,11.4c0.1-4.5-0.5-9.5-0.7-14.4
		C423.8,341.2,422.3,336.6,427.9,335.1z"/>
	<path fill="#003573" d="M334.5,405.8c1.3,0,2.6,0,3.8,0.1c2.6,7.6-5.1,8.4-8.1,12.2c-0.7,1.4-2,1.3-3,1.3c-14.3,5-25.3-1.6-36-10.1
		c-2-1.7-3-4.1-3.4-6.6c4.5-3.8,4.5-8.8,3.5-14.2c1.3-9.5,1.3-9.5,5.8-11.3c3.2,5.6,0.3,12.7,4.1,18.4c2.4,5.3,4.3,10.9,9.1,15
		c7,6.2,11.6,6.3,18.4,0C329.9,409,331.3,406.2,334.5,405.8z"/>
	<path fill="#003573" d="M127.3,407.7c9.5,2.2,16.5,9.5,26,12c2.8,0.7,4.1,1.6,4.5-1.7c11.3,4.6,22.5,4.6,33.9,0
		c2.2-5.9-0.8-12.5,1.7-18.6c3.8,1.3,2.1,4.3,2.9,6.3c0.8-9.5,2.2-11.4,9.5-10.9c0,3.7-0.8,7.2-0.8,10.9c0,9.5-3.8,14.3-13.1,16.7
		c-20,5.3-39.4,4.9-57.7-5.9C131.5,413.5,126.9,412.6,127.3,407.7z"/>
	<path fill="#003573" d="M399.3,444.9c2.4-1.7,0.9-4.6,2.2-7.2c0.7,1.6,1.3,2.9,2,4.5c3.2-4.9,3-9.5,0.7-14.2
		c-0.3-1.6-2.6-3.2-0.3-5c6.6,8.4,7.1,16.3,1.3,24.4c-10.8,15.2-41.1,16.7-53.3,2.6c2.4-2,3.4,0.9,4.9,1.7c10,5.3,20.1,7,30.9,2
		C390.2,449.1,394.8,447,399.3,444.9z"/>
	<path fill="#003573" d="M427.9,335.1c-3.7,5.9-0.9,12.5-1.6,18.8c-0.7,5.6,0.8,11.6-1.4,19.2c-3.5-8.5-0.8-15.9-3.7-22.7
		c0,18,0,36.1,0,54.1c0,3.2,1.3,6.7-1.4,9.6c-0.1-26.4-0.3-52.5-0.5-78.9c0.1-6.3,6.7-2.2,8.7-5.5c1.7,0,3.4,0,5.1,0
		C431.2,331.7,429.5,333.5,427.9,335.1z"/>
	<path fill="#003573" d="M133.9,416.3c9.2,0.8,16.4,7.9,25.7,7.6c14.4-0.5,29.7,2.6,41.1-10.2c5-5.6,0.8-13.1,4.2-19.2
		c0.1-0.8,0.7-1.2,1.4-1.2c0.7,0.3,1.3,0.7,2.1,0.9c-3.8,7-2.2,14.6-2.6,21.8c-0.1,2.8-0.5,4.6-3.7,5.5c-15,3.7-30.1,6.7-45.4,4.6
		C148.2,425.1,140.4,421.8,133.9,416.3z"/>
	<path fill="#003573" d="M461.7,404.3c2.9,2.8,5.9,5.5,8.8,8c2.6,5-0.5,5.6-4.2,5c-7.7-1.3-13.1-6.2-18.1-11.6
		c-3.8-5.6-4.2-12-3.2-18.5c2.1-0.9,2.4,1.7,4.2,2.1c1.2-3.2,0.1-6.4,0.7-9.6c0.7-3.7,1.6-7,6.3-6.7c1.4,0.7,1.7,1.7,1.7,3
		c-0.1,0.8-0.5,1.6-0.8,2.2C453.7,388.2,454.4,396.8,461.7,404.3z"/>
	<path fill="#003573" d="M272.3,374c-0.3,9.8,2,20-5,29.9c0-4.2,0.8-7.6-0.1-10.1c-1.2-2.8-1.2,0.7-1.7,1.2c-2-0.3-2.9-1.7-3-3.5
		c-0.8-9.1-5.5-16-10.8-23c0-4.6,2.9-4.5,5.5-2.6c2.9,2.2,5.6,2.6,8.8,1.3C268.7,368.7,271,370.8,272.3,374z"/>
	<path fill="#003573" d="M358.4,397.6c-3.8-3.8-4.1-8.7-3.4-13.5c2.2-0.8,3.2-2.6,4.1-4.6c0.8-2.1,1.4-5,5-3.7
		c2.4,3.8,2.6,8.1,3.5,12.5c0.8,3.5,1.7,7,5.1,9.1c2,1.4,4.3,2.6,5,5.1c0,0.8-0.1,1.6-0.7,2.2C369.3,407.1,364.2,401.7,358.4,397.6z
		"/>
	<path fill="#003573" d="M223.7,377.3c2.9,9.5,0.7,20.1,5.6,29.3c1.4,2.8-1.7,2.6-3.5,2.8c-2.1,0.1-3.2-3.8-5.8-1.4
		c-3-4.1-5.8-8.1-4.6-13.7c3.8-2.6,4.9-6.4,4.5-10.8C220.2,380.7,220.7,378.2,223.7,377.3z"/>
	<path fill="#003573" d="M329.9,418.4c1.4-5,8-6.4,8.1-12.2c4.1-7.9,7-15.9,5.3-25.1c-0.1-1.2,0.8-2.6,1.3-3.7
		c6.2,14.4,4.3,26.5-5.3,36.4C336.8,416.3,333.9,418.2,329.9,418.4z"/>
	<path fill="#003573" d="M295.9,377c-3.8,3.2-2.1,8-3.2,12.1c-3.4,2.1-4.3,5.9-7,8.7c-4.3-15.6,6.7-32,23.8-35.9c0,1.2,0,2.1,0,3.2
		c-0.1,1.3-0.8,2.2-1.7,2.9C302.9,369.8,300.3,374.5,295.9,377z"/>
	<path fill="#003573" d="M448.1,406c0.3-1.4,0.7-3.4,2.1-0.7c3.5,6.6,10.6,8,16.5,10.8c3.8,1.7,2.8-2.1,3.7-3.4
		c8.1,3.5,16.3,2.9,24.6-1.2c-0.8,3.7-2.8,5.5-5.5,6.4c-12.2,5-24.2,4.5-35.1-3.4C451.2,412.6,449.1,409.7,448.1,406z"/>
	<path fill="#003573" d="M139.6,402.6c-10.8-10.6-11.6-23.6-9.6-37.6c1.4-10.8,9.5-17.2,15.9-25c0.3-0.1,0.7-0.5,0.9-0.7
		c0.8-0.1,1.6-0.1,2.2,0.1c0.5,0.5,0.7,0.8,0.5,1.3c-0.1,0.5-0.1,0.7-0.3,0.7C129.4,357.7,126.6,376,139.6,402.6z"/>
	<path fill="#003573" d="M487,365.3c1.6,0.5,2.8,1.6,3.4,3.2c2.9,4.2,1.4,7.1-2.4,9.6c-3.5,2.6-7.9,3.8-11.3,6.6
		c-3.4,1.4-6.6,3-10,4.5c-2.9,1.2-5.8,1.3-8.7-0.1c1.6-6.7,8.1-6.4,12.9-8.8c4.1-2.1,8.4-3.5,8.1-9.2
		C481.1,368.2,484.1,366.9,487,365.3z"/>
	<path fill="#003573" d="M206.4,393.2c-0.5,0.3-0.9,0.8-1.4,1.2c-6.3,1.3-7.1,6.2-7.1,11.3c0,2.6,1.3,5.5-2,7.7
		c-2.4-3.8,0.1-8.5-2-12.7c-2.6,5.8,1.4,12.1-2.4,17.2c-0.3-6.7,1.7-13.7-1.6-20.1c-2.1-2.9-6.6-0.3-8.5-3.5
		C189.7,391.7,198,393.3,206.4,393.2z"/>
	<path fill="#003573" d="M487,365.3c-0.1,4.9-2.6,6.3-7.1,5.1c-7.6-2.9-15-2.4-22.3,0.3c-1.4-1.2-2.4-2.4-1.6-4.3
		C464.2,360.5,478.7,359.8,487,365.3z"/>
	<path fill="#003573" d="M265.9,367c-1.3,5.1-3.4,6.4-7.6,2.1c-1.4-1.6-3.2-5.6-6.4-1.6c-2,1.2-3.7,0.1-5.5-0.7
		c-4.6-2.1-8.4,0.7-12.1,2.9c-0.9,0.7-2.1,0.9-3.2,0.8c-1.4,0.7-2.8,1.2-4.2,1.7c-1.3-1.2-0.9-2.6-0.3-3.8
		C237.4,359.4,254.3,358.9,265.9,367z"/>
	<path fill="#003573" d="M372.9,399.1c-10.1-5.1-7-15.5-9.3-23.6c-2.6-4.3,2.6-5.5,3.4-8.4c2.9-2.2,6.3-3.4,10-3.5
		c1.2-0.5,2.2-0.7,3.5-0.3c1.7,0.8,4.1,0.9,3.5,3.8c0,0.8-0.1,1.6-0.1,2.2c-14.6,2.4-17.9,8.4-12.5,22.5
		C372.2,394.2,373.9,396.3,372.9,399.1z"/>
	<path fill="#003573" d="M146,340.2c-10.9,5.1-16.7,14.3-20.2,25.2c-1.7,2.8-3.5,3-5.1,0c4.1-14.3,13.1-23.8,27.2-28.8
		C148.4,338.7,146.9,339.3,146,340.2L146,340.2z"/>
	<path fill="#003573" d="M176.3,333.1c8.7-0.1,16.5,2.1,23.9,6.6c0.1,6.3-3.2,7.4-8.5,6.2c-2.9-2.8-6.2-4.6-9.6-6.6
		C180.4,337.3,175.6,337.6,176.3,333.1z"/>
	<path fill="#003573" d="M257.3,420.1c12.9-8.7,17.1-22.1,19.8-36C280.3,401.8,273.2,414.8,257.3,420.1z"/>
	<path fill="#003573" d="M390.9,411c-3.8-2-2.2-5.1-0.5-6.7c10-8.7,12-19.6,10-32c7,10.6,6.2,19.2-2.8,27.8
		C394.4,403.1,390.1,405.5,390.9,411z"/>
	<path fill="#003573" d="M290.9,409.6c4.5-1.4,5.6,3.4,8.5,5c8.7,5,18,5.5,27.4,5.1C315.9,426.5,300.5,422.2,290.9,409.6z"/>
	<path fill="#003573" d="M285.8,397.9c0.1-4.5-0.7-10,7-8.7c0.3,1.6,0.1,3.4,0.8,4.9c2.6,6.2,0.1,8.8-6.2,9.1
		C286,401.7,286,399.7,285.8,397.9z"/>
	<path fill="#003573" d="M176.3,333.1c2.2,1.7,4.6,3.5,7,5.3c-1.7,1.4-3.5,0.9-5.3,0.1h0.1c-9.8-3.5-19.3-1.4-28.8,1.4
		c-1.2,0-2.2,0.1-3.4,0.1c0.5-1.2,1.2-2.4,1.6-3.5C156.6,331.2,166.7,334.2,176.3,333.1z"/>
	<path fill="#003573" d="M191.4,345.1c4.3,0.8,7.1-1.3,8.8-5.1c2,1.2,6.2,1.7,3.8,4.6c-2.9,3.8-5.8,9.2-11.3,9.1
		c-4.2-0.1,1.7-5-1.4-6.6c-0.5-0.5-0.7-0.8-0.5-1.3C191.1,345.2,191.3,345.1,191.4,345.1z"/>
	<path fill="#003573" d="M120.3,365.4c1.7,0.9,3.4,1.3,5.1,0c0.5,6.2-3.2,12.1-1.2,18.4c0.5,1.6-0.5,3-2,2.9c-1.7,0-1.6-1.7-2-3.2
		c-0.7-3.7,1.4-7.9-1.7-11.3C118.5,369.8,118.9,367.4,120.3,365.4z"/>
	<path fill="#003573" d="M454.4,414.7c11.3,5.5,23,6.2,35.1,3.4C477.6,425.6,464.8,424.3,454.4,414.7z"/>
	<path fill="#003573" d="M367,367c-1.2,2.8-2.2,5.5-3.4,8.4c-2.2,2.2-3,5.1-3.4,8.1c-0.8,7.1-3.2,0.8-5,0.5
		C355.7,376.1,359.9,370.6,367,367z"/>
	<path fill="#003573" d="M456.2,366.6c0.8,1.4,1.4,3,2.2,4.5c0,1.4-0.7,2.2-1.7,2.8c-4.5,0.1-5,3.4-5.1,6.7c-1.4,2.4-3,4.5-6.4,3.4
		C445.9,376.6,449.5,370.6,456.2,366.6z"/>
	<path fill="#003573" d="M476.9,384.8c3.7-3,7.2-6.6,11.3-9.2c3-2,2.6-4.3,2.2-7.1c6.6,8.1,6.4,8.7-2.8,12.3
		C484.1,382.4,480.5,383.4,476.9,384.8z"/>
	<path fill="#003573" d="M445,384.1c2.1-1.2,4.3-2.2,6.4-3.4c0,3,0,6.2,0,9.2c0,2,0,4.5-2.2,4.9c-2.6,0.1-2.4-2.4-2.9-4.3
		c-0.1-0.9-0.9-2-1.4-2.9C444.7,386.3,445,385.3,445,384.1z"/>
	<path fill="#003573" d="M149.1,340.1c9.3-4.5,18.8-7.4,28.8-1.4c-9.8-1.2-19.4-1.3-28.6,3C149.4,341.2,149.4,340.5,149.1,340.1z"/>
	<path fill="#003573" d="M221.9,384.1c-0.5,4.5,2.4,11-6.6,10.1c-0.7-4.1-0.5-8,1.6-11.7C219.2,381.1,219.2,386.7,221.9,384.1z"/>
	<path fill="#003573" d="M221.9,384.1c-2.4,2-3.5-0.5-5-1.6c0.9-6.3,4.9-10.5,9.8-13.9c0.1,1.3,0.1,2.6,0.3,3.8
		c-1.2,1.6-2.1,3.2-3.2,4.9C222.5,379.2,221.5,381.6,221.9,384.1z"/>
	<path fill="#003573" d="M377.2,404.3c0-0.7,0.1-1.3,0.1-2c3.5-2.2,7.4-3.4,11.6-1.6c-2.9,2.9-2.6,10.6-10.1,7.1
		c-2.1-0.5-4.3-0.8-6.4-1.3C373,404.1,375.9,406.2,377.2,404.3z"/>
	<path fill="#003573" d="M461.7,404.3c-7.9-4.5-10.9-18.1-6.2-26.8c2.8,4.3,0.9,9.1,1.3,13.5C456.9,396,459.8,400,461.7,404.3z"/>
	<path fill="#003573" d="M181.4,394.2c3,0.8,7.4-1.7,8.5,3.5c-4.9,1.2-9.6,1.3-15.1,0.9C176.7,395.3,179.2,395,181.4,394.2z"/>
	<path fill="#003573" d="M360.4,424.8c-1.7,3.5-3.5,7-5.3,10.5c-2,4.1-3.4,0.5-4.9-0.3C351.5,429.4,355.4,426.4,360.4,424.8z"/>
	<path fill="#003573" d="M380.1,364c-1.2-0.1-2.2-0.3-3.4-0.3c10-2.2,20.1-0.8,30.1-1.2c3-0.1,2.9,2,0.1,3.2
		c-3.4-3.4-7.4-1.2-11-1.6C390.8,367.7,385.5,365.1,380.1,364z"/>
	<path fill="#003573" d="M427.9,330c-1.2,4.6-6.7,2.1-8.7,5.5c-2.4-0.1-4.9-0.3-8.1-0.7C416.1,329.3,422,329.2,427.9,330z"/>
	<path fill="#003573" d="M377.2,404.3c-1.2,2.1-3.4,1.3-5,2.1c-5.9-0.8-10.9-3.2-13.8-8.8C364.7,399.9,370,404.7,377.2,404.3z"/>
	<path fill="#003573" d="M191.4,345.1c0,0.7,0,1.3,0,2c-4.5-2.8-9.1-5.6-13.7-8.4c1.7,0,3.5,0,5.3-0.1
		C186.4,340.1,189.7,341.5,191.4,345.1z"/>
	<path fill="#003573" d="M456.7,391.1c-2.6-4.3-2.1-9.1-1.3-13.5c0.3-0.1,0.8-0.3,1.2-0.3c2.9,3,2.2,7,2,10.6
		c2.4,2.9,5.6,0.5,8.4,1.4C463.9,391.8,460.1,390.3,456.7,391.1z"/>
	<path fill="#99D7F6" d="M388.8,400.6c-3.7,1.4-7.4,2.6-11.6,1.6c-1.4-1.2-3-2.2-4.5-3.4c-3.7-5.3-6.2-11-6.2-17.9
		c0.1-10.9,6.4-15.2,17.1-11.7C393.8,379.1,395.7,390.9,388.8,400.6z"/>
	<path fill="#003573" d="M380.1,364c5.3,0,10.6,0,15.9,0c-1.7,9.8-8.1,1.7-12.1,3C382.7,366.1,381.4,365.1,380.1,364z"/>
	<path fill="#99D7F6" d="M399.3,444.9c-2.8,4.6-7.1,7-12,8.5c-6.7,0-13.5,0.5-19.6-3.2c-4.6-2.8-7.7-6.4-7.4-12.2
		c0.1-5.8,3.7-9.2,8.5-11.4C385.1,419.2,400.3,428.4,399.3,444.9z"/>
	<path fill="#99D7F6" d="M247.5,365.6c1.2,1.4,2.8,1.7,4.5,2c9.8,6.4,11,17.1,13.5,27.2c-1.3,15-5.8,21.7-15,22.7
		c-9.2,0.9-16.4-5.6-20.8-19.3c-0.5-1.3-0.8-2.6-1.3-4.1c-1.2-5.6-1.3-11.3,0.1-16.9c0.8-2.2,1.7-4.5,2.6-6.6
		c0.7-0.5,1.4-1.2,2.1-1.6C237.8,366.9,242,363.3,247.5,365.6z"/>
	<path fill="#003573" d="M228.6,377.4c0,5.6,0,11.3-0.1,16.9C225.9,388.6,225.7,383,228.6,377.4z"/>
	<path fill="#99D7F6" d="M308,366.6c0.7-0.5,1.2-0.9,1.7-1.3c20.4,0.7,23.8,15.2,25.2,31.4c0.3,3-0.3,6.2-0.5,9.2
		c-3.5,7-8.4,12.3-16.9,11.4c-8.4-0.8-12.3-7.1-15.6-13.8c-0.8-1.7-1.4-3.7-2.2-5.5c-1.6-3.2-2.1-7-2.4-10.5
		C296.1,378.4,299,371,308,366.6z"/>
	<path fill="#003573" d="M308,366.6c-11,8.4-10.1,19.8-8.1,31.5c-5.1-6.3-2.9-13.9-3.7-21C298.3,371.6,301.7,367.5,308,366.6z"/>
	<path fill="#99D7F6" d="M458.4,387.6c-3.8-2.9-0.9-7.1-2-10.6c0-1.2,0-2.1-0.1-3.2c0.7-0.9,1.3-2,1.7-2.8c8.5-6.7,12.3-7,21.7-0.7
		c2.8,4.5,1.6,7.6-3.4,9.5C470.5,382.4,464.6,385.1,458.4,387.6z"/>
	<path fill="#003573" d="M247.5,365.6c-5-0.1-9.5,2.6-14.2,3.4C237.4,365.2,241.6,362,247.5,365.6z"/>
</g>
</svg>
