<?xml version="1.0" encoding="utf-8"?>
<!-- Generator: Adobe Illustrator 18.1.0, SVG Export Plug-In . SVG Version: 6.00 Build 0)  -->
<svg version="1.1" id="Layer_1" xmlns="http://www.w3.org/2000/svg" xmlns:xlink="http://www.w3.org/1999/xlink" x="0px" y="0px"
	 viewBox="101.6 313.3 466 174" enable-background="new 101.6 313.3 466 174" xml:space="preserve">
<g>
	<path fill="#003573" d="M132.4,413.6c6.1,7.4,13.2,13.2,21.6,18.3c1.6,6.6-2.4,5.4-6,4.2c-11.2-3.5-21.6-8.9-30.8-16.5
		c-10.3-12.6-15-26.6-10.3-42.5c6.4,0.8,3.1,6,4.2,8.5c-0.6-5.1,1-11.1,1.6-16.8c2.4-11.5,9.3-20.1,18.1-27.3
		c2.4-1.9,4.5-5.5,8.5-2.9c0.8,3.6-2.6,5.1-4.5,7.4C117.6,364.7,116.5,392.2,132.4,413.6z"/>
	<path fill="#003573" d="M413.7,435.6c13.7-0.4,4.2-10.6,6.6-15.8c5.1-1.6,8.5-5.5,11-10.4c5-9.7,4.1-19.2-1.9-28.7
		c-1.6-2.4-3.4-4.2-3.8-7c0-1,0.1-1.9,0.6-2.7c5.4-2.9,12.3-0.1,17.2-5c3.6,1.5,8.9-2.9,11.5,3.1c-3.8,0-6,3.6-9.6,4.5
		c-3.4,0.8,1.9,1.9,1.5,3.6c5,13.9,3.6,26.2-8.4,36.5c-2.9,2.6-6.6,5.4-2.9,10.1c4.9,5.1,11.5,8.4,15.5,14.6c-0.8,2.7,2.9,5.1,0,8
		c-3.5,2.7-7.1,2.6-9.7-0.4c-6.4-6.6-13.1-11.1-22.7-7.7C416.2,438.3,414.4,437.1,413.7,435.6z"/>
	<path fill="#003573" d="M413.7,435.6c6,3.1,11.5-4.6,17.8-0.4c2.9,2,6.4,3.1,8.5,6.6c2.7,4.5,6.6,5.1,11.1,2.4
		c6.8,8.1,5.9,12.6-3.1,16.8c-0.6,0.1-0.4,3.5-2.7,3.8c-1.6-1-1.9-2.6-2.6-4.2c-4.2-14.8-13.1-20.6-27.7-17.2
		c-7,1.6-13.1,4.9-13.6,13c-0.4,8.5,6,12.2,13,14.7c5.4,1.9,11.5-0.6,16.6,3.5c-5.5,7.6-13.6,6.6-21.3,5.5c-8-1.1-15.3-4.6-21.8-9.6
		c-5.1-5.5-5-11.5-1.9-18.1c7.1-0.8,7-9.3,12.2-12C402.8,437.2,407.8,435.3,413.7,435.6z"/>
	<path fill="#003573" d="M292.1,379.1c3.5,3.4,5.1,7.4,5.9,12.2c-1,15.7-3.4,30.4-18.1,39.9c-1.9,1.1-4.6,1.1-5.9,3.5
		c-18.8,6.6-34.8,1.5-45-14.7c-0.6-3.6,1.9-2.7,3.6-2.4c3.6,0.6,4.2-1.5,3.1-4.1c-3.6-9.6-2.7-19.7-3.6-29.7c0-3.5,2-5.5,4.2-7.7
		c1.6-1.1,3.5-2.6,5.4-0.8c1.6,3.1,0,6-0.8,8.9c-1.6,6.1-1.6,12.3,0.1,18.7c2.7,7.1,4.6,14.8,10.4,20.6c9.5,9.5,21.6,7,26.9-5.4
		c2-5,2.6-10.4,3.6-15.8c1.6-3.4,3.6-4.2,5.1-0.1c1.5,3.5,0.4,7-0.8,10.3c2.4-8.1,2.9-16.5,2.6-25
		C289.2,384.3,286.9,380.2,292.1,379.1z"/>
	<path fill="#003573" d="M485.5,326.3c1,0.1,1.9,0.4,2.7,0.6c-7.1,14.7-2.9,30.3-3.5,45.7c-0.8,14.6-0.1,29.1-0.1,43.8
		c0,11.5,0,11.5,11.2,15.8c-9.3,3.6-19.1,2.9-28.7,1.5c-2-0.4-0.1-2.6,1-3.6c7.1-3.5,8.1-9.7,8.1-17c0-25.8-0.1-51.9,0.8-77.7
		C478,330.2,482,328.3,485.5,326.3z"/>
	<path fill="#003573" d="M337.1,364.7c19.6-3.8,33.7,2,42.3,18.1c0.8,8.4,2,16.6-1,25c-1.6,4.1-2.7,8.1-6.8,10.4
		c-1.6,0.6-3.4,0.4-4.6-0.6c-2-2.6-2-5.5-2-8.5c-0.4-19.7-6.1-35.5-28-40C336,367.6,336,366.1,337.1,364.7z"/>
	<path fill="#003573" d="M479.4,332.3c0,28.3-0.4,56.7,0,84.9c0.1,8.9-3.1,12.3-11.5,12.3c0.4-0.6,0.8-1.1,1.1-1.9
		c1.9-22.7,0.4-45.7,1-68.5c0-3.5-0.6-7.1,1.5-11.5c5.4,4.6,2.9,9.7,3.6,13.7c0.1-5.4-0.6-11.5-0.8-17.3
		C474.5,339.6,472.7,334.1,479.4,332.3z"/>
	<path fill="#003573" d="M367,417.4c1.6,0,3.1,0,4.6,0.1c3.1,9.2-6.1,10.1-9.7,14.7c-0.8,1.6-2.4,1.6-3.6,1.6
		c-17.2,6-30.4-1.9-43.4-12.2c-2.4-2-3.6-4.9-4.1-8c5.4-4.6,5.4-10.6,4.2-17c1.6-11.5,1.6-11.5,7-13.6c3.8,6.8,0.4,15.3,4.9,22.2
		c2.9,6.4,5.1,13.1,11,18.1c8.4,7.4,13.9,7.6,22.2,0C361.4,421.3,363.2,417.9,367,417.4z"/>
	<path fill="#003573" d="M117.6,419.7c11.5,2.7,19.9,11.5,31.3,14.5c3.4,0.8,4.9,1.9,5.4-2c13.6,5.5,27,5.5,40.8,0
		c2.7-7.1-1-15,2-22.4c4.6,1.6,2.6,5.1,3.5,7.6c1-11.5,2.7-13.7,11.5-13.1c0,4.5-1,8.7-1,13.1c0,11.5-4.6,17.2-15.8,20.1
		c-24.1,6.4-47.4,5.9-69.5-7.1C122.7,426.7,117.1,425.6,117.6,419.7z"/>
	<path fill="#003573" d="M445,464.4c2.9-2,1.1-5.5,2.7-8.7c0.8,1.9,1.6,3.5,2.4,5.4c3.8-5.9,3.6-11.5,0.8-17c-0.4-1.9-3.1-3.8-0.4-6
		c8,10.1,8.5,19.6,1.6,29.3c-13,18.3-49.5,20.1-64.2,3.1c2.9-2.4,4.1,1.1,5.9,2c12,6.4,24.2,8.4,37.2,2.4
		C434,469.5,439.6,467,445,464.4z"/>
	<path fill="#003573" d="M479.4,332.3c-4.5,7.1-1.1,15-1.9,22.6c-0.8,6.8,1,13.9-1.6,23.1c-4.2-10.3-1-19.2-4.5-27.3
		c0,21.6,0,43.4,0,65.1c0,3.8,1.6,8.1-1.6,11.5c-0.1-31.8-0.4-63.2-0.6-95c0.1-7.6,8.1-2.7,10.4-6.6c2,0,4.1,0,6.1,0
		C483.4,328.2,481.3,330.3,479.4,332.3z"/>
	<path fill="#003573" d="M125.5,430.1c11.1,1,19.7,9.5,31,9.2c17.3-0.6,35.7,3.1,49.5-12.3c6-6.8,1-15.8,5-23.1
		c0.1-1,0.8-1.5,1.6-1.5c0.8,0.4,1.6,0.8,2.6,1.1c-4.6,8.4-2.7,17.6-3.1,26.2c-0.1,3.4-0.6,5.5-4.5,6.6c-18.1,4.5-36.2,8.1-54.6,5.5
		C142.7,440.6,133.4,436.7,125.5,430.1z"/>
	<path fill="#003573" d="M520.1,415.6c3.5,3.4,7.1,6.6,10.6,9.6c3.1,6-0.6,6.8-5,6c-9.3-1.6-15.8-7.4-21.8-13.9
		c-4.6-6.8-5-14.5-3.8-22.3c2.6-1.1,2.9,2,5,2.6c1.5-3.8,0.1-7.7,0.8-11.5c0.8-4.5,1.9-8.4,7.6-8.1c1.6,0.8,2,2,2,3.6
		c-0.1,1-0.6,1.9-1,2.7C510.5,396.2,511.3,406.6,520.1,415.6z"/>
	<path fill="#003573" d="M292.1,379.1c-0.4,11.8,2.4,24.1-6,36c0-5,1-9.2-0.1-12.2c-1.5-3.4-1.5,0.8-2,1.5c-2.4-0.4-3.5-2-3.6-4.2
		c-1-11-6.6-19.2-13-27.7c0-5.5,3.5-5.4,6.6-3.1c3.5,2.7,6.8,3.1,10.6,1.6C287.8,372.8,290.6,375.3,292.1,379.1z"/>
	<path fill="#003573" d="M395.8,407.5c-4.6-4.6-4.9-10.4-4.1-16.2c2.7-1,3.8-3.1,4.9-5.5c1-2.6,1.6-6,6-4.5c2.9,4.6,3.1,9.7,4.2,15
		c1,4.2,2,8.4,6.1,11c2.4,1.6,5.1,3.1,6,6.1c0,1-0.1,1.9-0.8,2.7C408.9,419,402.8,412.5,395.8,407.5z"/>
	<path fill="#003573" d="M233.7,383c3.5,11.5,0.8,24.2,6.8,35.3c1.6,3.4-2,3.1-4.2,3.4c-2.6,0.1-3.8-4.6-7-1.6
		c-3.6-4.9-7-9.7-5.5-16.5c4.6-3.1,5.9-7.7,5.4-13C229.4,387.2,230,384.1,233.7,383z"/>
	<path fill="#003573" d="M361.4,432.5c1.6-6,9.6-7.7,9.7-14.7c4.9-9.5,8.4-19.2,6.4-30.2c-0.1-1.5,1-3.1,1.6-4.5
		c7.4,17.3,5.1,31.9-6.4,43.8C369.8,430.1,366.3,432.4,361.4,432.5z"/>
	<path fill="#003573" d="M320.6,382.8c-4.6,3.8-2.6,9.6-3.8,14.6c-4.1,2.6-5.1,7.1-8.4,10.4c-5.1-18.8,8.1-38.5,28.7-43.2
		c0,1.5,0,2.6,0,3.8c-0.1,1.6-1,2.7-2,3.5C329,374.1,325.9,379.7,320.6,382.8z"/>
	<path fill="#003573" d="M503.8,417.6c0.4-1.6,0.8-4.1,2.6-0.8c4.2,8,12.7,9.6,19.9,13c4.6,2,3.4-2.6,4.5-4.1
		c9.7,4.2,19.6,3.5,29.6-1.5c-1,4.5-3.4,6.6-6.6,7.7c-14.7,6-29.1,5.4-42.3-4.1C507.5,425.6,505,422.1,503.8,417.6z"/>
	<path fill="#003573" d="M132.4,413.6c-13-12.7-13.9-28.4-11.5-45.3c1.6-13,11.5-20.7,19.2-30.1c0.4-0.1,0.8-0.6,1.1-0.8
		c1-0.1,1.9-0.1,2.7,0.1c0.6,0.6,0.8,1,0.6,1.6c-0.1,0.6-0.1,0.8-0.4,0.8C120.1,359.5,116.7,381.5,132.4,413.6z"/>
	<path fill="#003573" d="M550.5,368.7c1.9,0.6,3.4,1.9,4.1,3.8c3.5,5,1.6,8.5-2.9,11.5c-4.2,3.1-9.5,4.6-13.6,8
		c-4.1,1.6-8,3.6-12,5.4c-3.5,1.5-7,1.6-10.4-0.1c1.9-8.1,9.7-7.7,15.5-10.6c4.9-2.6,10.1-4.2,9.7-11.1
		C543.5,372.1,547,370.6,550.5,368.7z"/>
	<path fill="#003573" d="M212.8,402.2c-0.6,0.4-1.1,1-1.6,1.5c-7.6,1.6-8.5,7.4-8.5,13.6c0,3.1,1.6,6.6-2.4,9.3
		c-2.9-4.6,0.1-10.3-2.4-15.3c-3.1,7,1.6,14.6-2.9,20.7c-0.4-8.1,2-16.5-1.9-24.2c-2.6-3.5-8-0.4-10.3-4.2
		C192.7,400.5,202.7,402.4,212.8,402.2z"/>
	<path fill="#003573" d="M550.5,368.7c-0.1,5.9-3.1,7.6-8.5,6.1c-9.2-3.5-18.1-2.9-26.9,0.4c-1.6-1.5-2.9-2.9-1.9-5.1
		C523.1,362.9,540.5,362.1,550.5,368.7z"/>
	<path fill="#003573" d="M284.4,370.7c-1.6,6.1-4.1,7.7-9.2,2.6c-1.6-1.9-3.8-6.8-7.7-1.9c-2.4,1.5-4.5,0.1-6.6-0.8
		c-5.5-2.6-10.1,0.8-14.6,3.5c-1.1,0.8-2.6,1.1-3.8,1c-1.6,0.8-3.4,1.5-5,2c-1.6-1.5-1.1-3.1-0.4-4.6
		C250.1,361.5,270.4,361,284.4,370.7z"/>
	<path fill="#003573" d="M413.2,409.3c-12.2-6.1-8.4-18.7-11.2-28.4c-3.1-5.1,3.1-6.6,4.1-10.1c3.5-2.7,7.6-4.1,12-4.2
		c1.5-0.6,2.7-0.8,4.2-0.4c2,1,4.9,1.1,4.2,4.6c0,1-0.1,1.9-0.1,2.7c-17.6,2.9-21.5,10.1-15,27C412.4,403.4,414.4,406,413.2,409.3z"
		/>
	<path fill="#003573" d="M140.1,338.4c-13.1,6.1-20.1,17.2-24.3,30.3c-2,3.4-4.2,3.6-6.1,0c4.9-17.2,15.8-28.7,32.7-34.6
		C143,336.7,141.2,337.3,140.1,338.4L140.1,338.4z"/>
	<path fill="#003573" d="M176.6,329.9c10.4-0.1,19.9,2.6,28.8,8c0.1,7.6-3.8,8.9-10.3,7.4c-3.5-3.4-7.4-5.5-11.5-8
		C181.5,334.9,175.7,335.3,176.6,329.9z"/>
	<path fill="#003573" d="M274.1,434.6c15.5-10.4,20.6-26.6,23.8-43.4C301.8,412.6,293.2,428.2,274.1,434.6z"/>
	<path fill="#003573" d="M434.9,423.6c-4.6-2.4-2.7-6.1-0.6-8.1c12-10.4,14.5-23.6,12-38.5c8.4,12.7,7.4,23.1-3.4,33.5
		C439.1,414.1,433.9,417,434.9,423.6z"/>
	<path fill="#003573" d="M314.5,422c5.4-1.6,6.8,4.1,10.3,6c10.4,6,21.6,6.6,33,6.1C344.6,442.3,326.1,437.1,314.5,422z"/>
	<path fill="#003573" d="M308.4,407.9c0.1-5.4-0.8-12,8.4-10.4c0.4,1.9,0.1,4.1,1,5.9c3.1,7.4,0.1,10.6-7.4,11
		C308.6,412.5,308.6,410.1,308.4,407.9z"/>
	<path fill="#003573" d="M176.6,329.9c2.7,2,5.5,4.2,8.4,6.4c-2,1.6-4.2,1.1-6.4,0.1h0.1c-11.8-4.2-23.2-1.6-34.6,1.6
		c-1.5,0-2.7,0.1-4.1,0.1c0.6-1.5,1.5-2.9,1.9-4.2C152.8,327.6,165,331.2,176.6,329.9z"/>
	<path fill="#003573" d="M194.7,344.4c5.1,1,8.5-1.6,10.6-6.1c2.4,1.5,7.4,2,4.6,5.5c-3.5,4.6-7,11.1-13.6,11c-5-0.1,2-6-1.6-8
		c-0.6-0.6-0.8-1-0.6-1.6C194.3,344.5,194.6,344.4,194.7,344.4z"/>
	<path fill="#003573" d="M109.2,368.7c2,1.1,4.1,1.6,6.1,0c0.6,7.4-3.8,14.6-1.5,22.2c0.6,1.9-0.6,3.6-2.4,3.5c-2,0-1.9-2-2.4-3.8
		c-0.8-4.5,1.6-9.5-2-13.6C107,374.1,107.4,371.1,109.2,368.7z"/>
	<path fill="#003573" d="M511.3,428.1c13.6,6.6,27.7,7.4,42.3,4.1C539.3,441.2,523.9,439.7,511.3,428.1z"/>
	<path fill="#003573" d="M406.2,370.7c-1.5,3.4-2.7,6.6-4.1,10.1c-2.7,2.7-3.6,6.1-4.1,9.7c-1,8.5-3.8,1-6,0.6
		C392.5,381.7,397.5,375,406.2,370.7z"/>
	<path fill="#003573" d="M513.5,370.2c1,1.6,1.6,3.6,2.7,5.4c0,1.6-0.8,2.7-2,3.4c-5.4,0.1-6,4.1-6.1,8.1c-1.6,2.9-3.6,5.4-7.7,4.1
		C501.1,382.2,505.4,375,513.5,370.2z"/>
	<path fill="#003573" d="M538.4,392.1c4.5-3.6,8.7-8,13.6-11.1c3.6-2.4,3.1-5.1,2.7-8.5c8,9.7,7.7,10.4-3.4,14.8
		C547,389.2,542.7,390.5,538.4,392.1z"/>
	<path fill="#003573" d="M500,391.3c2.6-1.5,5.1-2.7,7.7-4.1c0,3.6,0,7.4,0,11.1c0,2.4,0,5.4-2.7,5.9c-3.1,0.1-2.9-2.9-3.5-5.1
		c-0.1-1.1-1.1-2.4-1.6-3.5C499.7,393.9,500,392.8,500,391.3z"/>
	<path fill="#003573" d="M143.8,338.3c11.2-5.4,22.6-8.9,34.6-1.6c-11.8-1.5-23.4-1.6-34.5,3.6C144.2,339.6,144.2,338.8,143.8,338.3
		z"/>
	<path fill="#003573" d="M231.5,391.3c-0.6,5.4,2.9,13.2-8,12.2c-0.8-4.9-0.6-9.6,1.9-14.1C228.2,387.6,228.2,394.4,231.5,391.3z"/>
	<path fill="#003573" d="M231.5,391.3c-2.9,2.4-4.2-0.6-6-1.9c1.1-7.6,5.9-12.6,11.8-16.8c0.1,1.6,0.1,3.1,0.4,4.6
		c-1.5,1.9-2.6,3.8-3.8,5.9C232.2,385.3,231,388.3,231.5,391.3z"/>
	<path fill="#003573" d="M418.4,415.6c0-0.8,0.1-1.6,0.1-2.4c4.2-2.7,8.9-4.1,13.9-1.9c-3.5,3.5-3.1,12.7-12.2,8.5
		c-2.6-0.6-5.1-1-7.7-1.6C413.3,415.3,416.8,417.9,418.4,415.6z"/>
	<path fill="#003573" d="M520.1,415.6c-9.5-5.4-13.1-21.8-7.4-32.3c3.4,5.1,1.1,11,1.6,16.2C514.3,405.6,517.8,410.4,520.1,415.6z"
		/>
	<path fill="#003573" d="M182.7,403.4c3.6,1,8.9-2,10.3,4.2c-5.9,1.5-11.5,1.6-18.1,1.1C177,404.8,180,404.4,182.7,403.4z"/>
	<path fill="#003573" d="M398.2,440.2c-2,4.2-4.2,8.4-6.4,12.6c-2.4,4.9-4.1,0.6-5.9-0.4C387.5,445.8,392.1,442.2,398.2,440.2z"/>
	<path fill="#003573" d="M421.9,367.1c-1.5-0.1-2.7-0.4-4.1-0.4c12-2.7,24.2-1,36.2-1.5c3.6-0.1,3.5,2.4,0.1,3.8
		c-4.1-4.1-8.9-1.5-13.2-1.9C434.8,371.5,428.3,368.4,421.9,367.1z"/>
	<path fill="#003573" d="M479.4,326.1c-1.5,5.5-8.1,2.6-10.4,6.6c-2.9-0.1-5.9-0.4-9.7-0.8C465.2,325.3,472.3,325.2,479.4,326.1z"/>
	<path fill="#003573" d="M418.4,415.6c-1.5,2.6-4.1,1.6-6,2.6c-7.1-1-13.1-3.8-16.6-10.6C403.3,410.3,409.7,416,418.4,415.6z"/>
	<path fill="#003573" d="M194.7,344.4c0,0.8,0,1.6,0,2.4c-5.4-3.4-11-6.8-16.5-10.1c2,0,4.2,0,6.4-0.1
		C188.7,338.3,192.7,340,194.7,344.4z"/>
	<path fill="#003573" d="M514.1,399.7c-3.1-5.1-2.6-11-1.6-16.2c0.4-0.1,1-0.4,1.5-0.4c3.5,3.6,2.7,8.4,2.4,12.7
		c2.9,3.5,6.8,0.6,10.1,1.6C522.8,400.5,518.2,398.7,514.1,399.7z"/>
	<path fill="#B9E9FF" d="M432.4,411.1c-4.5,1.6-8.9,3.1-13.9,1.9c-1.6-1.5-3.6-2.7-5.4-4.1c-4.5-6.4-7.4-13.2-7.4-21.5
		c0.1-13.1,7.7-18.3,20.6-14.1C438.3,385.2,440.6,399.4,432.4,411.1z"/>
	<path fill="#003573" d="M421.9,367.1c6.4,0,12.7,0,19.2,0c-2,11.8-9.7,2-14.6,3.6C425,369.6,423.5,368.4,421.9,367.1z"/>
	<path fill="#B9E9FF" d="M445,464.4c-3.4,5.5-8.5,8.4-14.5,10.3c-8.1,0-16.2,0.6-23.6-3.8c-5.5-3.4-9.3-7.7-8.9-14.7
		c0.1-7,4.5-11.1,10.3-13.7C427.9,433.5,446.2,444.6,445,464.4z"/>
	<path fill="#B9E9FF" d="M262.3,369c1.5,1.6,3.4,2,5.4,2.4c11.8,7.7,13.2,20.6,16.2,32.7c-1.6,18.1-7,26.1-18.1,27.3
		c-11.1,1.1-19.7-6.8-25-23.2c-0.6-1.6-1-3.1-1.6-4.9c-1.5-6.8-1.6-13.6,0.1-20.3c1-2.7,2-5.4,3.1-8c0.8-0.6,1.6-1.5,2.6-1.9
		C250.6,370.6,255.7,366.3,262.3,369z"/>
	<path fill="#003573" d="M239.5,383.2c0,6.8,0,13.6-0.1,20.3C236.2,396.7,236,389.9,239.5,383.2z"/>
	<path fill="#B9E9FF" d="M335.1,370.2c0.8-0.6,1.5-1.1,2-1.6c24.6,0.8,28.7,18.3,30.3,37.8c0.4,3.6-0.4,7.4-0.6,11.1
		c-4.2,8.4-10.1,14.8-20.3,13.7c-10.1-1-14.8-8.5-18.8-16.6c-1-2-1.6-4.5-2.7-6.6c-1.9-3.8-2.6-8.4-2.9-12.6
		C320.7,384.4,324.2,375.5,335.1,370.2z"/>
	<path fill="#003573" d="M335.1,370.2c-13.2,10.1-12.2,23.8-9.7,37.9c-6.1-7.6-3.5-16.8-4.5-25.3
		C323.4,376.3,327.5,371.3,335.1,370.2z"/>
	<path fill="#B9E9FF" d="M516.2,395.5c-4.6-3.5-1.1-8.5-2.4-12.7c0-1.5,0-2.6-0.1-3.8c0.8-1.1,1.6-2.4,2-3.4
		c10.3-8.1,14.8-8.4,26.1-0.8c3.4,5.4,1.9,9.2-4.1,11.5C530.7,389.2,523.6,392.5,516.2,395.5z"/>
	<path fill="#003573" d="M262.3,369c-6-0.1-11.5,3.1-17,4.1C250.1,368.6,255.2,364.7,262.3,369z"/>
</g>
</svg>
