<?xml version="1.0" encoding="utf-8"?>
<!-- Generator: Adobe Illustrator 18.1.0, SVG Export Plug-In . SVG Version: 6.00 Build 0)  -->
<svg version="1.1" id="Layer_1" xmlns="http://www.w3.org/2000/svg" xmlns:xlink="http://www.w3.org/1999/xlink" x="0px" y="0px"
	 viewBox="0 0 399 325.5" enable-background="new 0 0 399 325.5" xml:space="preserve">
<path fill="#2178A9" d="M39.7,72.9v68.6v40.4c0,0-1.3,15.4,16.7,16.1s180.8,0,180.8,0l100.1,0.3c0,0,17.4,1.3,22-10.8v-150v-19
	c0,0,0.3-18.4-18.4-18.4C322.2,0,271,0,271,0H51.2c0,0-11.2,4.3-11.5,9.5L39.7,72.9z"/>
<polygon fill="#FFFFFF" points="61,24.3 226.7,24.3 338,24.3 338,173.9 61,173.9 "/>
<path fill="#262262" d="M165.8,81.1c0,0-9.3-46.5,33.8-50.8c0,0,41.2,0.6,36.3,50.8c0,0,8.1,0.6,9.9,7.4v70.1c0,0,0,8.1-11.2,9.3
	h-73.2c0,0-9.3-4.3-8.1-11.2l-0.1-68.8C153.2,87.9,158.9,80.5,165.8,81.1z"/>
<path fill="#FFFFFF" d="M194.9,123.9c0,0-7-4-2.5-12.4c0,0,5.3-6.7,13-1.7c0,0,3.7,4,2.5,9.5c0,0,0,2.8-3.7,4.6l0.9,17.4h-10.8
	L194.9,123.9z"/>
<path fill="#FFFFFF" d="M177.4,79.9H222c0,0,4.3-36-22.3-36C199.7,43.9,172.4,43.3,177.4,79.9z"/>
<path fill="#2B3990" d="M19.1,265.2L1.2,316.3c0,0-8.1,9.8,17.9,9.2l324.7,0h45.3c0,0,14.7,1.6,8.3-17.7l-82.5,5.2l-114.1,2
	l-121-3.7l-51-2.4C28.8,308.8,19.1,282.1,19.1,265.2z"/>
<path fill="#2178A9" d="M33.1,223L3.8,308.7c0,0-3.1,7,42,6.6c45.1-0.4,122.7,0.4,122.7,0.4l161.7-0.4l54,0.4c0,0,14.7-1.3,12.9-8.5
	s-16-46.4-16-46.4l-16-45.3c0,0-3.1-8.3-17.7-7.4L236.1,208h-98H50.8h-5.9C44.9,208,34.2,209.6,33.1,223z"/>
<path fill="none" stroke="#FFFFFF" stroke-width="0.5" stroke-miterlimit="10" d="M55.7,245.1l7.1-19.6l1.7-4.2
	c0,0,1.4-2.1,11.4-2.1h72.9h164.9c0,0,6.8,0.6,8.8,7.2l13.3,34.7c0,0,4.3,4.8-7.4,6h-93.4h-166l-17.6-1.5c0,0-4.3,0.6,0-9.9
	L55.7,245.1z"/>
<polygon fill="#FFFFFF" points="66.4,231.8 87.4,231.8 85,225.4 69.4,225.4 "/>
<polygon fill="#FFFFFF" points="93.1,231.8 114.1,231.8 111.7,225.4 96.1,225.4 "/>
<polygon fill="#FFFFFF" points="59.7,261.9 80.7,261.9 78.3,255.5 62.8,255.5 "/>
<polygon fill="#FFFFFF" points="119.7,261.9 140.7,261.9 138.3,255.5 122.7,255.5 "/>
<polygon fill="#FFFFFF" points="62.9,246.3 83.9,246.3 81.5,240 65.9,240 "/>
<polygon fill="#FFFFFF" points="91.8,246.3 112.8,246.3 110.4,240 94.8,240 "/>
<polygon fill="#FFFFFF" points="90.2,261.9 111.2,261.9 108.8,255.5 93.3,255.5 "/>
<polygon fill="#FFFFFF" points="119.7,231.8 140.7,231.8 138.3,225.4 122.7,225.4 "/>
<polygon fill="#FFFFFF" points="150.3,231.8 171.3,231.8 168.9,225.4 153.3,225.4 "/>
<polygon fill="#FFFFFF" points="179.5,231.8 200.5,231.8 198.1,225.4 182.6,225.4 "/>
<polygon fill="#FFFFFF" points="209.4,231.8 230.4,231.8 227.9,225.4 212.4,225.4 "/>
<polygon fill="#FFFFFF" points="240,231.8 261,231.8 258.6,225.4 243,225.4 "/>
<polygon fill="#FFFFFF" points="269.4,231.8 290.4,231.8 288,225.4 272.5,225.4 "/>
<polygon fill="#FFFFFF" points="297.6,231.8 318.6,231.8 316.2,225.4 300.7,225.4 "/>
<polygon fill="#FFFFFF" points="297.6,246.3 318.6,246.3 316.2,240 300.7,240 "/>
<polygon fill="#FFFFFF" points="297.6,261.9 318.6,261.9 316.2,255.5 300.7,255.5 "/>
<polygon fill="#FFFFFF" points="269.4,246.3 290.4,246.3 288,240 272.5,240 "/>
<polygon fill="#FFFFFF" points="269.4,261.9 290.4,261.9 288,255.5 272.5,255.5 "/>
<polygon fill="#FFFFFF" points="240,246.3 261,246.3 258.6,240 243,240 "/>
<polygon fill="#FFFFFF" points="240,261.9 261,261.9 258.6,255.5 243,255.5 "/>
<polygon fill="#FFFFFF" points="209.4,246.3 230.4,246.3 227.9,240 212.4,240 "/>
<polygon fill="#FFFFFF" points="209.4,261.9 230.4,261.9 227.9,255.5 212.4,255.5 "/>
<polygon fill="#FFFFFF" points="179.5,246.3 200.5,246.3 198.1,240 182.6,240 "/>
<polygon fill="#FFFFFF" points="179.5,261.9 200.5,261.9 198.1,255.5 182.6,255.5 "/>
<polygon fill="#FFFFFF" points="148.8,246.3 169.8,246.3 167.3,240 151.8,240 "/>
<polygon fill="#FFFFFF" points="148.8,261.9 169.8,261.9 167.3,255.5 151.8,255.5 "/>
<polygon fill="#FFFFFF" points="119.7,246.3 140.7,246.3 138.3,240 122.7,240 "/>
<polygon fill="#FFFFFF" points="159,306.5 241.9,306.5 233.4,277.4 169.3,277.4 "/>
</svg>
