<?xml version="1.0" encoding="utf-8"?>
<!-- Generator: Adobe Illustrator 18.1.0, SVG Export Plug-In . SVG Version: 6.00 Build 0)  -->
<svg version="1.1" id="Layer_1" xmlns="http://www.w3.org/2000/svg" xmlns:xlink="http://www.w3.org/1999/xlink" x="0px" y="0px"
	 viewBox="0 0 792 612" enable-background="new 0 0 792 612" xml:space="preserve">
<rect x="94.1" y="2" fill="#0065A1" width="603.3" height="610"/>
<rect x="232.2" y="2" fill="#FFFFFF" stroke="#FFFFFF" stroke-miterlimit="10" width="22.3" height="159.8"/>
<path fill="#FFFFFF" stroke="#FFFFFF" stroke-miterlimit="10" d="M189.9,160.3V7.3c0,0,0.4-4.2,7.7-5.8H213v21.1v137.6L189.9,160.3
	L189.9,160.3z"/>
<path fill="#FFFFFF" stroke="#FFFFFF" stroke-miterlimit="10" d="M148.4,160.3h23.8V2c0,0-23.8-5.1-23.8,14.2V160.3z"/>
<path fill="#FFFFFF" stroke="#FFFFFF" stroke-miterlimit="10" d="M582.1,76.6c0,0,3.9-14.1,18-14.9h71.5c0,0,13.3,2.3,14.5,26.6
	v64.5c0,0-4.7,12.9-19.5,13.7h-68.8c0,0-15.2-6.6-15.6-17.6L582.1,76.6L582.1,76.6z"/>
<path fill="#FFFFFF" stroke="#FFFFFF" stroke-miterlimit="10" d="M94.6,208.7h193.7c0,0,102.2-107.6,219.1,0h190.1l-0.2,18.1H520.4
	c0,0,79.9,103.4-19.2,199.5c0,0-100.7,100.7-220.6-10c0,0-73.8-85.3-9.2-188.3H94.6V208.7z"/>
<ellipse fill="none" stroke="#0065A1" stroke-width="12" stroke-miterlimit="10" cx="395.8" cy="314.5" rx="105.3" ry="99.9"/>
</svg>
