<?xml version="1.0" encoding="utf-8"?>
<!-- Generator: Adobe Illustrator 17.1.0, SVG Export Plug-In . SVG Version: 6.00 Build 0)  -->
<!DOCTYPE svg PUBLIC "-//W3C//DTD SVG 1.1//EN" "http://www.w3.org/Graphics/SVG/1.1/DTD/svg11.dtd">
<svg version="1.1" id="Layer_1" xmlns="http://www.w3.org/2000/svg" xmlns:xlink="http://www.w3.org/1999/xlink" x="0px" y="0px"
	 viewBox="0 0 220.512 222.827" enable-background="new 0 0 220.512 222.827" xml:space="preserve">
<rect x="0.35" y="0.718" fill="#231F20" width="219.656" height="222.108"/>
<rect x="50.602" y="0.718" fill="#FFFFFF" stroke="#FFFFFF" stroke-miterlimit="10" width="8.117" height="58.199"/>
<path fill="#FFFFFF" stroke="#FFFFFF" stroke-miterlimit="10" d="M35.207,58.357v-55.7c0,0,0.14-1.539,2.799-2.099h5.598v7.697
	v50.102H35.207z"/>
<path fill="#FFFFFF" stroke="#FFFFFF" stroke-miterlimit="10" d="M20.093,58.357h8.677V0.718c0,0-8.677-1.84-8.677,5.158V58.357z"/>
<path fill="#FFFFFF" stroke="#FFFFFF" stroke-miterlimit="10" d="M178.03,27.885c0,0,1.423-5.122,6.545-5.407h26.038
	c0,0,4.838,0.854,5.265,9.675V55.63c0,0-1.707,4.695-7.114,4.98h-25.042c0,0-5.549-2.419-5.691-6.403V27.885z"/>
<path fill="#FFFFFF" stroke="#FFFFFF" stroke-miterlimit="10" d="M0.5,75.991h70.535c0,0,37.227-39.186,79.771,0h69.201
	l-0.066,6.578h-64.377c0,0,29.109,37.646-6.997,72.634c0,0-36.667,36.667-80.331-3.639c0,0-26.87-31.069-3.359-68.575H0.5V75.991z"
	/>
<ellipse fill="none" stroke="#231F20" stroke-width="12" stroke-miterlimit="10" cx="110.179" cy="114.523" rx="38.346" ry="36.387"/>
</svg>
