<?xml version="1.0" encoding="utf-8"?>
<!-- Generator: Adobe Illustrator 18.1.0, SVG Export Plug-In . SVG Version: 6.00 Build 0)  -->
<svg version="1.1" id="Layer_1" xmlns="http://www.w3.org/2000/svg" xmlns:xlink="http://www.w3.org/1999/xlink" x="0px" y="0px"
	 viewBox="73 301 466 190" enable-background="new 73 301 466 190" xml:space="preserve">
<g>
	<path fill="#003573" d="M166.7,405.4c2.1-1.4,1.7-4.1,2.2-5.9c4.5-17.1,14.6-30.3,27.4-42.2c1.6,5.6,1.7,5.6-1.6,9.8
		c-9.3,11.7-15.2,25-16.7,39.7c-2.2,23.2,8.4,41.6,29.7,52.3c16.3,8,33.9,10.9,51.7,11.7c46,2.1,89.8-6.2,131.6-25.3
		c1.7-0.8,3.5-1.7,5.5-2.8c1.7-0.9,3.5-2,6.3-3.4c0,7-0.1,13,0,19.2c0,3.4-2.8,3.7-4.9,4.6c-28.1,13.8-58,21.4-88.9,25.1
		c-5.1,0.7-10.5,0.8-15.8,1.3c-4.5,1.2-9.2-0.7-13.5,0.9c-1.6,0-3.2,0-4.9,0c-4.2-1.3-8.5-0.3-12.9-0.7c-21,0.3-41.1-3.5-59.8-13.5
		c-19.4-10.2-33.1-25.1-35.7-47.9C166.7,420.6,166.7,412.9,166.7,405.4z"/>
	<path fill="#003573" d="M450.3,374.9c-3.5,23.5-16.7,39.9-37.3,50.8c-4.1,2.1-4.9,1.3-5.1-3.2c-0.5-6.7,1.6-11,7.4-15.6
		c32.3-24.7,26.8-67.5-10.5-84.4c-22.5-10.2-46.5-12-70.9-10.5c-36.8,2.2-71.7,12.2-104.8,28.5c-1.7-3.8,0.1-5.5,3-7.2
		c27.3-15.8,56.9-25.1,88.1-29.4c4.6-0.7,9.6,0,13.9-2.2c6.2,0,12.2,0,18.4,0c4.1,0.9,8,0.9,12.2,0c0.8,0,1.6,0,2.4,0
		c4.3,0.9,8.8,0.7,13.1,1.3c24.3,3.4,46,11.4,61.6,31.7c5.9,7.7,9.2,16.5,8.7,26.5C450.5,365.9,451.1,370.5,450.3,374.9z"/>
	<path fill="#003573" d="M450.3,360.2c0.3,0,0.7,0,1.2,0.1c0,4.9,0,9.8,0,14.6c-0.3,0-0.7,0.1-1.2,0.1
		C450.3,369.9,450.3,365.1,450.3,360.2z"/>
	<path fill="#003573" d="M261.5,490.4c0-0.3,0-0.7-0.1-1.2c4.5,0.1,9.2-1.2,13.5,1.2C270.4,490.4,266,490.4,261.5,490.4z"/>
	<path fill="#003573" d="M279.7,490.4c4.3-2.1,9.1-0.9,13.5-0.9c0,0.3-0.1,0.7-0.1,0.9C288.7,490.4,284.2,490.4,279.7,490.4z"/>
	<path fill="#003573" d="M365,301.9c-4.1,2.1-8,1.7-12.2,0C356.8,301.9,360.8,301.9,365,301.9z"/>
	<path fill="#003573" d="M356.3,403.4c-4.6,0-9.3,0.1-13.9,0c-4.9-0.3-5,2.1-3.5,5.6c2.9,7.6,13.4,10.1,21.4,5.6
		c1.6-0.9,2.8-3.8,5-2.4c2.6,1.7,4.9,4.3,7,6.7c1.3,1.4-0.7,2.6-1.6,3.4c-8.8,7.2-18.8,8.1-29.3,5.1c-10-2.9-15.1-10.2-17.1-20.2
		c-2.9-15.5,2.2-29.4,13.4-35.1c9.2-4.6,18.5-5,27.1,1.4c9.1,6.7,10.8,16.5,10.5,27.2c-0.1,2.9-2.1,2.4-3.8,2.4
		C366.2,403.4,361.2,403.4,356.3,403.4z"/>
	<path fill="#003573" d="M235.7,399c0-7.9,0.1-15.8,0-23.6c-0.1-3.7,0.7-5.5,5-5.3c8.5,0.3,17.1,0,25.6,0.1
		c9.8,0.1,16.4,5.9,16.7,15.6c0.5,13,0.1,25.9,0.1,38.9c0,2.6-0.9,3.7-3.5,3.5c-0.7,0-1.3,0-1.7,0c-10.9-0.1-9.1,1.3-9.2-8.8
		c-0.1-9.6,0-19.4,0-29.2c0-7-1.3-8.1-8-8.4c-1.3,0-2.4,0.1-3.7,0c-5.1-0.8-7.1,0.9-6.7,6.6c0.5,10.9-0.1,21.8,0.3,32.8
		c0.3,6.2-1.7,7.2-7.4,7.4c-6.2,0.1-7.6-2-7.1-7.6C236.3,413.5,235.7,406.2,235.7,399z"/>
	<path fill="#003573" d="M294.1,385.2c0-8.8,0.1-17.9,0-26.7c0-3.2,0.7-5,4.3-4.5c1.6,0.1,3.2,0.1,4.9,0c3.8-0.5,5.6,0.8,5.3,4.9
		c-0.1,0.9,0.1,2.1,0,3c-0.9,5.8,0.7,9.3,7.6,8c4.9-0.8,3.7,2.9,3.7,5.6s1.2,7-4.1,5.9c-7-1.2-7.6,2.4-7.2,7.9
		c0.3,6.3,0.1,12.5,0,18.8c-0.1,5,1.6,7.9,7,7.4c6.7-0.5,3.7,4.6,4.2,7.6c0.8,3.7-1.2,4.6-4.9,4.9c-14.6,0.1-20.8-5.6-20.8-20.4
		C294.1,400.4,294.1,392.8,294.1,385.2z"/>
	<path fill="#003573" d="M397.9,387.4c0,12-0.1,23.9,0,35.9c0,3.7-0.9,4.5-4.5,3.2c-6.3-2.4-10-6.6-10-13.7c-0.1-21,0-42.2-0.1-63.2
		c0-2.9,0.9-3.7,3.8-3.8c10.8-0.7,10.8-0.7,10.8,10.1C397.9,366.2,397.9,376.8,397.9,387.4z"/>
	<path fill="#003573" d="M222.7,399.7c0,8.4-0.1,16.5,0,25c0,3.5-1.3,4.1-4.3,3c-6.3-2-10-6.2-10.1-13.5
		c-0.3-13.5-0.1-27.2-0.3-40.7c0-2.6,0.8-3.4,3.5-3.7c11.3-0.8,11.3-0.9,11.3,10.2C222.7,386.9,222.7,393.2,222.7,399.7z"/>
	<path fill="#003573" d="M215.5,361.7c-5.5,1.3-7.9-0.1-7.9-6.4c0-5.9,1.6-7.4,7.4-7.2c5.1,0.1,8,0.5,7.7,7
		C222.6,360.2,221.8,363.4,215.5,361.7z"/>
	<path fill="#99D7F6" d="M349,393.2c-1.7,0-3.7,0-5.5,0c-5.9,0-6.7-1.4-3.8-6.6c2.9-5,9.8-7.1,14.8-4.5c3.7,2,6.3,5.5,5.5,9.3
		c-0.7,3.5-4.9,1.2-7.2,1.7C351.3,393.6,350,393.2,349,393.2z"/>
</g>
</svg>
