<?xml version="1.0" encoding="utf-8"?>
<!-- Generator: Adobe Illustrator 18.1.0, SVG Export Plug-In . SVG Version: 6.00 Build 0)  -->
<svg version="1.1" id="Layer_1" xmlns="http://www.w3.org/2000/svg" xmlns:xlink="http://www.w3.org/1999/xlink" x="0px" y="0px"
	 viewBox="0 0 500 500" enable-background="new 0 0 500 500" xml:space="preserve">
<g>
	<path fill="#CCD7E3" d="M161.5,255.7c1.3-0.9,1.1-2.5,1.4-3.7c2.8-10.6,9.1-18.9,17.1-26.2c1,3.5,1.1,3.5-1,6.1
		c-5.8,7.3-9.5,15.5-10.4,24.7c-1.4,14.5,5.2,25.9,18.5,32.5c10.1,5,21.1,6.8,32.2,7.3c28.6,1.3,55.9-3.8,81.9-15.8
		c1.1-0.5,2.2-1.1,3.4-1.7c1.1-0.6,2.2-1.2,3.9-2.1c0,4.3-0.1,8.1,0,11.9c0,2.1-1.7,2.3-3,2.9c-17.5,8.6-36.1,13.3-55.3,15.6
		c-3.2,0.4-6.5,0.5-9.8,0.8c-2.8,0.7-5.7-0.4-8.4,0.6c-1,0-2,0-3,0c-2.6-0.8-5.3-0.2-8-0.4c-13.1,0.2-25.6-2.2-37.2-8.4
		c-12.1-6.4-20.6-15.6-22.2-29.8C161.5,265.2,161.5,260.4,161.5,255.7z"/>
	<path fill="#CCD7E3" d="M338,236.8c-2.2,14.6-10.4,24.8-23.2,31.6c-2.5,1.3-3,0.8-3.2-2c-0.3-4.2,1-6.9,4.6-9.7
		c20.1-15.4,16.7-42-6.5-52.5c-14-6.4-28.9-7.4-44.1-6.5c-22.9,1.4-44.6,7.6-65.2,17.7c-1.1-2.4,0.1-3.4,1.9-4.5
		c17-9.8,35.4-15.6,54.8-18.3c2.9-0.4,6,0,8.7-1.4c3.8,0,7.6,0,11.4,0c2.5,0.6,5,0.6,7.6,0c0.5,0,1,0,1.5,0c2.7,0.6,5.5,0.4,8.2,0.8
		c15.1,2.1,28.6,7.1,38.3,19.7c3.7,4.8,5.7,10.3,5.4,16.5C338.1,231.1,338.5,234,338,236.8z"/>
	<path fill="#CCD7E3" d="M338,227.6c0.2,0,0.4,0,0.7,0.1c0,3,0,6.1,0,9.1c-0.2,0-0.4,0.1-0.7,0.1C338,233.7,338,230.6,338,227.6z"/>
	<path fill="#CCD7E3" d="M220.5,308.6c0-0.2,0-0.4-0.1-0.7c2.8,0.1,5.7-0.7,8.4,0.7C226.1,308.6,223.3,308.6,220.5,308.6z"/>
	<path fill="#CCD7E3" d="M231.9,308.6c2.7-1.3,5.6-0.6,8.4-0.6c0,0.2-0.1,0.4-0.1,0.6C237.4,308.6,234.6,308.6,231.9,308.6z"/>
	<path fill="#CCD7E3" d="M284.9,191.3c-2.5,1.3-5,1.1-7.6,0C279.8,191.3,282.3,191.3,284.9,191.3z"/>
	<path fill="#CCD7E3" d="M279.5,254.5c-2.9,0-5.8,0.1-8.7,0c-3-0.2-3.1,1.3-2.2,3.5c1.8,4.7,8.3,6.3,13.3,3.5c1-0.6,1.7-2.4,3.1-1.5
		c1.6,1.1,3,2.7,4.3,4.2c0.8,0.9-0.4,1.6-1,2.1c-5.5,4.5-11.7,5.1-18.2,3.2c-6.2-1.8-9.4-6.4-10.6-12.6c-1.8-9.6,1.4-18.3,8.3-21.8
		c5.7-2.9,11.5-3.1,16.8,0.9c5.6,4.2,6.7,10.3,6.5,16.9c-0.1,1.8-1.3,1.5-2.4,1.5C285.6,254.5,282.5,254.5,279.5,254.5z"/>
	<path fill="#CCD7E3" d="M204.5,251.7c0-4.9,0.1-9.8,0-14.7c-0.1-2.3,0.4-3.4,3.1-3.3c5.3,0.2,10.6,0,15.9,0.1
		c6.1,0.1,10.2,3.7,10.4,9.7c0.3,8.1,0.1,16.1,0.1,24.2c0,1.6-0.6,2.3-2.2,2.2c-0.4,0-0.8,0-1.1,0c-6.8-0.1-5.6,0.8-5.7-5.5
		c-0.1-6,0-12.1,0-18.1c0-4.3-0.8-5.1-5-5.2c-0.8,0-1.5,0.1-2.3,0c-3.2-0.5-4.4,0.6-4.2,4.1c0.3,6.8-0.1,13.6,0.2,20.4
		c0.2,3.8-1.1,4.5-4.6,4.6c-3.8,0.1-4.7-1.2-4.4-4.7C204.8,260.8,204.5,256.3,204.5,251.7z"/>
	<path fill="#CCD7E3" d="M240.8,243.2c0-5.5,0.1-11.1,0-16.6c0-2,0.4-3.1,2.7-2.8c1,0.1,2,0.1,3,0c2.4-0.3,3.5,0.5,3.3,3
		c-0.1,0.6,0.1,1.3,0,1.9c-0.6,3.6,0.4,5.8,4.7,5c3-0.5,2.3,1.8,2.3,3.5s0.7,4.3-2.5,3.7c-4.3-0.7-4.7,1.5-4.5,4.9
		c0.2,3.9,0.1,7.8,0,11.7c-0.1,3.1,1,4.9,4.3,4.6c4.2-0.3,2.3,2.9,2.6,4.7c0.5,2.3-0.7,2.9-3,3c-9.1,0.1-12.9-3.5-12.9-12.7
		C240.8,252.6,240.8,247.9,240.8,243.2z"/>
	<path fill="#CCD7E3" d="M305.4,244.5c0,7.4-0.1,14.9,0,22.3c0,2.3-0.6,2.8-2.8,2c-3.9-1.5-6.2-4.1-6.2-8.5
		c-0.1-13.1,0-26.2-0.1-39.3c0-1.8,0.6-2.3,2.4-2.4c6.7-0.4,6.7-0.4,6.7,6.3C305.4,231.4,305.4,237.9,305.4,244.5z"/>
	<path fill="#CCD7E3" d="M196.4,252.2c0,5.2-0.1,10.3,0,15.5c0,2.2-0.8,2.5-2.7,1.9c-3.9-1.2-6.2-3.8-6.3-8.4
		c-0.2-8.4-0.1-16.9-0.2-25.3c0-1.6,0.5-2.1,2.2-2.3c7-0.5,7-0.6,7,6.4C196.4,244.2,196.4,248.2,196.4,252.2z"/>
	<path fill="#CCD7E3" d="M191.9,228.5c-3.4,0.8-4.9-0.1-4.9-4c0-3.7,1-4.6,4.6-4.5c3.2,0.1,5,0.3,4.8,4.3
		C196.3,227.7,195.8,229.6,191.9,228.5z"/>
	<path fill="#003573" d="M274.9,248.2c-1.1,0-2.3,0-3.4,0c-3.7,0-4.2-0.9-2.4-4.1c1.8-3.1,6.1-4.4,9.2-2.8c2.3,1.2,3.9,3.4,3.4,5.8
		c-0.4,2.2-3,0.7-4.5,1.1C276.4,248.4,275.6,248.2,274.9,248.2z"/>
</g>
</svg>
