<?xml version="1.0" encoding="utf-8"?>
<!-- Generator: Adobe Illustrator 18.1.0, SVG Export Plug-In . SVG Version: 6.00 Build 0)  -->
<svg version="1.1" id="Layer_1" xmlns="http://www.w3.org/2000/svg" xmlns:xlink="http://www.w3.org/1999/xlink" x="0px" y="0px"
	 viewBox="73 271 466 250" enable-background="new 73 271 466 250" xml:space="preserve">
<g>
	<path fill="#003573" d="M119.2,407.4c2.8-1.8,2.2-5.4,2.9-7.7c5.9-22.5,19.2-39.8,36-55.4c2.1,7.4,2.2,7.4-2.1,12.9
		c-12.2,15.4-20,32.8-21.9,52.1c-2.9,30.5,11,54.6,39,68.7c21.4,10.5,44.5,14.3,67.9,15.4c60.4,2.8,117.9-8.1,172.8-33.2
		c2.2-1.1,4.6-2.2,7.2-3.7c2.2-1.2,4.6-2.6,8.3-4.5c0,9.2-0.1,17.1,0,25.2c0,4.5-3.7,4.9-6.4,6c-36.9,18.1-76.2,28.1-116.8,33
		c-6.7,0.9-13.8,1.1-20.8,1.7c-5.9,1.6-12.1-0.9-17.7,1.2c-2.1,0-4.2,0-6.4,0c-5.5-1.7-11.2-0.4-16.9-0.9
		c-27.6,0.4-54-4.6-78.5-17.7c-25.5-13.4-43.5-33-46.9-62.9C119.2,427.3,119.2,417.2,119.2,407.4z"/>
	<path fill="#003573" d="M491.6,367.3c-4.6,30.9-21.9,52.4-49,66.7c-5.4,2.8-6.4,1.7-6.7-4.2c-0.7-8.8,2.1-14.4,9.7-20.5
		c42.4-32.4,35.2-88.6-13.8-110.8c-29.5-13.4-61.1-15.8-93.1-13.8c-48.3,2.9-94.2,16-137.6,37.4c-2.2-5,0.1-7.2,3.9-9.5
		c35.9-20.8,74.7-33,115.7-38.6c6-0.9,12.6,0,18.3-2.9c8.1,0,16,0,24.2,0c5.4,1.2,10.5,1.2,16,0c1.1,0,2.1,0,3.2,0
		c5.6,1.2,11.6,0.9,17.2,1.7c31.9,4.5,60.4,15,80.9,41.6c7.7,10.1,12.1,21.7,11.4,34.8C491.9,355.5,492.7,361.5,491.6,367.3z"/>
	<path fill="#003573" d="M491.6,348c0.4,0,0.9,0,1.6,0.1c0,6.4,0,12.9,0,19.2c-0.4,0-0.9,0.1-1.6,0.1
		C491.6,360.7,491.6,354.4,491.6,348z"/>
	<path fill="#003573" d="M243.7,519c0-0.4,0-0.9-0.1-1.6c5.9,0.1,12.1-1.6,17.7,1.6C255.4,519,249.6,519,243.7,519z"/>
	<path fill="#003573" d="M267.6,519c5.6-2.8,12-1.2,17.7-1.2c0,0.4-0.1,0.9-0.1,1.2C279.4,519,273.5,519,267.6,519z"/>
	<path fill="#003573" d="M379.6,271.4c-5.4,2.8-10.5,2.2-16,0C368.8,271.4,374.1,271.4,379.6,271.4z"/>
	<path fill="#003573" d="M368.2,404.7c-6,0-12.2,0.1-18.3,0c-6.4-0.4-6.6,2.8-4.6,7.4c3.8,10,17.6,13.3,28.1,7.4
		c2.1-1.2,3.7-5,6.6-3.2c3.4,2.2,6.4,5.6,9.2,8.8c1.7,1.8-0.9,3.4-2.1,4.5c-11.6,9.5-24.7,10.6-38.5,6.7
		c-13.1-3.8-19.8-13.4-22.5-26.5c-3.8-20.4,2.9-38.6,17.6-46.1c12.1-6,24.3-6.6,35.6,1.8c12,8.8,14.2,21.7,13.8,35.7
		c-0.1,3.8-2.8,3.2-5,3.2C381.2,404.7,374.6,404.7,368.2,404.7z"/>
	<path fill="#003573" d="M209.8,399c0-10.4,0.1-20.8,0-31c-0.1-4.9,0.9-7.2,6.6-7c11.2,0.4,22.5,0,33.6,0.1
		c12.9,0.1,21.5,7.7,21.9,20.5c0.7,17.1,0.1,34,0.1,51.1c0,3.4-1.2,4.9-4.6,4.6c-0.9,0-1.7,0-2.2,0c-14.3-0.1-12,1.7-12.1-11.6
		c-0.1-12.6,0-25.5,0-38.3c0-9.2-1.7-10.6-10.5-11c-1.7,0-3.2,0.1-4.9,0c-6.7-1.1-9.3,1.2-8.8,8.7c0.7,14.3-0.1,28.6,0.4,43.1
		c0.4,8.1-2.2,9.5-9.7,9.7c-8.1,0.1-10-2.6-9.3-10C210.6,418,209.8,408.4,209.8,399z"/>
	<path fill="#003573" d="M286.5,380.8c0-11.6,0.1-23.5,0-35.1c0-4.2,0.9-6.6,5.6-5.9c2.1,0.1,4.2,0.1,6.4,0c5-0.7,7.4,1.1,7,6.4
		c-0.1,1.2,0.1,2.8,0,3.9c-1.2,7.6,0.9,12.2,10,10.5c6.4-1.1,4.9,3.8,4.9,7.4s1.6,9.2-5.4,7.7c-9.2-1.6-10,3.2-9.5,10.4
		c0.4,8.3,0.1,16.4,0,24.7c-0.1,6.6,2.1,10.4,9.2,9.7c8.8-0.7,4.9,6,5.5,10c1.1,4.9-1.6,6-6.4,6.4c-19.2,0.1-27.3-7.4-27.3-26.8
		C286.5,400.8,286.5,390.8,286.5,380.8z"/>
	<path fill="#003573" d="M422.8,383.7c0,15.8-0.1,31.4,0,47.1c0,4.9-1.2,5.9-5.9,4.2c-8.3-3.2-13.1-8.7-13.1-18
		c-0.1-27.6,0-55.4-0.1-83c0-3.8,1.2-4.9,5-5c14.2-0.9,14.2-0.9,14.2,13.3C422.8,355.9,422.8,369.8,422.8,383.7z"/>
	<path fill="#003573" d="M192.7,399.9c0,11-0.1,21.7,0,32.8c0,4.6-1.7,5.4-5.6,3.9c-8.3-2.6-13.1-8.1-13.3-17.7
		c-0.4-17.7-0.1-35.7-0.4-53.5c0-3.4,1.1-4.5,4.6-4.9c14.8-1.1,14.8-1.2,14.8,13.4C192.7,383.1,192.7,391.3,192.7,399.9z"/>
	<path fill="#003573" d="M183.3,350c-7.2,1.7-10.4-0.1-10.4-8.4c0-7.7,2.1-9.7,9.7-9.5c6.7,0.1,10.5,0.7,10.1,9.2
		C192.6,348,191.5,352.2,183.3,350z"/>
	<path fill="#B9E9FF" d="M358.6,391.3c-2.2,0-4.9,0-7.2,0c-7.7,0-8.8-1.8-5-8.7c3.8-6.6,12.9-9.3,19.4-5.9c4.9,2.6,8.3,7.2,7.2,12.2
		c-0.9,4.6-6.4,1.6-9.5,2.2C361.6,391.9,359.9,391.3,358.6,391.3z"/>
</g>
</svg>
