<?xml version="1.0" encoding="utf-8"?>
<!-- Generator: Adobe Illustrator 17.1.0, SVG Export Plug-In . SVG Version: 6.00 Build 0)  -->
<!DOCTYPE svg PUBLIC "-//W3C//DTD SVG 1.1//EN" "http://www.w3.org/Graphics/SVG/1.1/DTD/svg11.dtd">
<svg version="1.1" xmlns="http://www.w3.org/2000/svg" xmlns:xlink="http://www.w3.org/1999/xlink" x="0px" y="0px"
	 viewBox="0 0 1209 226.316" enable-background="new 0 0 1209 226.316" xml:space="preserve">
<g id="Layer_1">
</g>
<g id="Layer_2">
	<rect x="0" y="0.079" fill="#231F20" width="220.77" height="223.386"/>
	<path fill="#FFFFFF" d="M104.511,224.988v-87.131H74.735v-33.441h29.776V67.31c0,0,3.665-43.061,69.631-31.151v29.318
		l-23.821,0.458c0,0-15.575,1.374-10.994,38.022h34.816l-5.497,32.983h-28.86l0.229,89.375h-35.732L104.511,224.988z"/>
	<rect x="246.874" y="0.718" fill="#231F20" width="219.656" height="222.108"/>
	<rect x="494.992" y="0.718" fill="#231F20" width="219.656" height="222.108"/>
	<rect x="739.344" y="0.718" fill="#231F20" width="219.656" height="222.108"/>
	<rect x="989.344" y="0.718" fill="#231F20" width="219.656" height="222.108"/>
	<path fill="#FFFFFF" d="M348.053,92.567c0,0-8.765-33.169,29.049-39.44c0,0,15.792-1.634,26.369,10.101
		c0,0,13.619-2.608,20.284-7.969c0,0-3.332,11.771-13.329,17.549c0,0,11.646-0.887,17.631-4.509c0,0-8.503,12.17-15.892,16.662
		c0,0,5.65,54.766-48.681,85.191c0,0-34.772,23.471-86.06,0c0,0-2.256-1.087-6.453-4.129c0,0,24.925,5.216,47.309-13.257
		c0,0-21.95,0.652-29.773-22.602c0,0,9.345,2.391,13.909-0.435c0,0-24.775-6.085-24.992-31.512c0,0,5.868,3.912,14.126,3.26
		c0,0-23.471-14.778-9.78-43.03C281.769,58.447,304.371,89.959,348.053,92.567z"/>
	<polygon fill="#FFFFFF" points="536.287,34.566 551.681,34.566 560.638,63.675 570.714,34.566 585.269,34.566 567.355,77.39 
		567.355,108.179 554.2,108.179 553.92,77.95 	"/>
	<path fill="#FFFFFF" d="M587.788,61.436c0,0,0.756-8.677,17.032-9.796c0,0,14.597-0.56,19.355,9.796v37.227
		c0,0-2.799,10.916-18.193,10.916c0,0-17.914,0.28-18.193-12.316V61.436z"/>
	<path fill="#FFFFFF" d="M634.811,53.05h13.155v42.814c0,0,3.079,7.557,12.036-1.959V53.05h12.036v55.13h-12.316l-0.28-6.438
		c0,0-19.313,15.394-24.631-0.28V53.05z"/>
	<path fill="none" stroke="#FFFFFF" stroke-width="3" stroke-miterlimit="10" d="M532.368,132.531c0,0-2.519-18.832,41.705-15.714
		h88.448c0,0,21.272,0.599,20.433,30.269l0.024,35.827c0,0-4.503,14.555-26.055,14.555H549.722c0,0-18.526-5.038-17.38-20.713
		L532.368,132.531z"/>
	<polygon fill="#FFFFFF" points="542.724,129.172 574.633,129.172 574.633,136.729 563.997,136.729 563.997,182.632 553.92,182.632 
		553.64,137.289 542.724,137.289 	"/>
	<path fill="#FFFFFF" d="M574.633,142.887h9.237v31.524c0,0,1.504,4.513,7.802-1.26v-30.264h9.027v40.445h-9.027v-3.884
		c0,0-15.709,10.391-17.039-1.784V142.887z"/>
	<path fill="#FFFFFF" d="M610.04,129.172h8.922v17.424c0,0,11.861-10.706,17.424,3.044v27.815c0,0-3.044,11.756-17.004,2.834v3.292
		h-9.342V129.172z"/>
	<path fill="#FFFFFF" d="M643.208,152.054c0,0,1.679-8.712,11.021-9.761c0,0,14.59-2.519,16.479,9.761v12.281H652.76v9.971
		c0,0,3.464,6.193,7.977,0.84l0.21-6.718l9.761,0.105c0,0,1.679,12.251-7.767,15.1c0,0-19.208,4.843-19.733-11.216V152.054z"/>
	<path fill="#231F20" d="M652.865,157.931h8.187c0,0,1.574-9.237-4.828-8.607C656.223,149.324,651.92,149.324,652.865,157.931z"/>
	<path fill="#231F20" d="M619.417,150.864c0,0,7.137-4.579,7.277,2.749v22.162c0,0-5.178,3.779-7.277-0.84V150.864z"/>
	<path fill="#231F20" d="M600.243,65.215c0,0,0.28-4.198,5.738-3.779c0,0,5.038-0.56,5.318,3.779v32.048
		c0,0-2.799,3.079-5.528,3.079c0,0-5.388,0-5.528-4.478V65.215z"/>
	<rect x="789.595" y="0.718" fill="#FFFFFF" stroke="#FFFFFF" stroke-miterlimit="10" width="8.117" height="58.199"/>
	<path fill="#FFFFFF" stroke="#FFFFFF" stroke-miterlimit="10" d="M774.201,58.357v-55.7c0,0,0.14-1.539,2.799-2.099h5.598v7.697
		v50.102H774.201z"/>
	<path fill="#FFFFFF" stroke="#FFFFFF" stroke-miterlimit="10" d="M759.086,58.357h8.677V0.718c0,0-8.677-1.84-8.677,5.158V58.357z"
		/>
	<path fill="#FFFFFF" stroke="#FFFFFF" stroke-miterlimit="10" d="M917.023,27.885c0,0,1.423-5.122,6.545-5.407h26.038
		c0,0,4.838,0.854,5.265,9.675V55.63c0,0-1.707,4.695-7.114,4.98h-25.042c0,0-5.549-2.419-5.691-6.403V27.885z"/>
	<path fill="#FFFFFF" stroke="#FFFFFF" stroke-miterlimit="10" d="M739.493,75.991h70.535c0,0,37.227-39.186,79.771,0H959
		l-0.066,6.578h-64.377c0,0,29.109,37.646-6.997,72.634c0,0-36.667,36.667-80.331-3.639c0,0-26.87-31.069-3.359-68.575h-64.377
		V75.991z"/>
	
		<ellipse fill="none" stroke="#231F20" stroke-width="12" stroke-miterlimit="10" cx="849.172" cy="114.523" rx="38.346" ry="36.387"/>
	<path fill="#FFFFFF" d="M1043.011,53.555c0,0,20-21,51.5-22.25c0,0,56-5.25,80.25,50.5c0,0,22,46.5-14.25,88
		c0,0-29.25,40-84.5,24.5c0,0,12.25-24,13.75-40.25c0,0,17.25,25,49.25-2c0,0,38.5-46.5-4.25-82.75c0,0-45.75-30.75-84.25,15.75
		c0,0-22.438,43.147,11.5,59c0,0,4-2,4.25-13.25c0,0-12.75-11.75-4-32.25c0,0,12.25-33.25,51-22.75c0,0,37.5,8.75,11.75,64
		c0,0-8,14.25-22.5,9c0,0-13.25-4.75-5.5-23.25c0,0,16.252-31.434-6.25-34.25c0,0-21.75,2.75-13.25,35.75l-10.25,45.25
		c0,0-3,12.5-1.25,19c0,0-38.5-13.25-47.5-60.75C1018.512,130.555,1007.762,87.305,1043.011,53.555z"/>
</g>
</svg>
