<?xml version="1.0" encoding="utf-8"?>
<!-- Generator: Adobe Illustrator 18.1.0, SVG Export Plug-In . SVG Version: 6.00 Build 0)  -->
<svg version="1.1" id="Layer_1" xmlns="http://www.w3.org/2000/svg" xmlns:xlink="http://www.w3.org/1999/xlink" x="0px" y="0px"
	 viewBox="73 309 466 174" enable-background="new 73 309 466 174" xml:space="preserve">
<g>
	<path fill="#003573" d="M203.2,397.7c-5.6,17.9-11.4,22.2-30.2,22.1c-7.2,0-14.8,0.1-22.1-0.1c-12.7-0.5-22.3-10.9-22.2-23.5
		c0.1-12.2,9.6-22.2,22.1-22.7c7.2-0.3,14.8-0.1,22.1-0.1c18.9,0,24.6,4.2,30.2,22.1C204.3,396,204.3,396.8,203.2,397.7z"/>
	<path fill="#003573" d="M446.3,401.2c-2.8,0.1-2,1.7-1.2,3c3.2,5.3,8,7.4,13.9,7.4c9.8,0,19.6,0,29.7,0c-1.4,6.2-4.3,8.8-10.2,8.1
		c-8-0.7-16.3,0.1-24.3-0.5c-12.3-1.2-20.9-11.6-20.4-24.2c0.5-11.7,10-21.5,22.2-21.8c10.6-0.3,21.4,0,32.3,0
		c-1.2,6.7-5.1,8.7-11.4,8.1c-5.8-0.5-11.7-0.1-17.5,0c-5.5,0.1-10.8,0.9-13.4,6.7c0,4.3,3.4,2.4,5.1,2.6c7.4,0.7,15.1-0.8,22.5,0.8
		c0.9,0.1,2,0.1,3,0.3c3,0.5,7.2-1.6,8.8,1.3c1.2,2.2-2.4,5-4.2,7.4C470,402.3,458,402.2,446.3,401.2z"/>
	<path fill="#003573" d="M247.7,396c4.5-1.4,5.9-4.6,5-9.1c-0.9-4.5-4.6-5.6-8.8-5.6c-7.4,0-14.8,0.1-22.2,0
		c-4.3-0.1-5.9,1.2-5.8,5.6c0.3,8-0.5,16.4,0.3,24.3c0.7,8-2.8,9.6-9.6,7.7c-1.6-14.8-1.4-29.4-0.1-44.3c2-3,5.1-1.6,7.7-1.6
		c10-0.1,20-0.1,29.5,0c10.8,0.1,17.2,5.3,18,14.4c0.8,9.2-4.9,15.1-15.5,17.1c-0.7,0.1-1.3,0.5-2.8,0.8c5.1,4.5,10,8.4,15.2,12.9
		c-4.2,2.1-9.1,2.4-11.6,0.5c-9.3-6.6-18.4-13.7-25.6-22.9C230.5,395.1,239.3,395.7,247.7,396z"/>
	<path fill="#003573" d="M290.7,411.7c-2-2.8-5.3-5-4.3-9.2c2.6-3.8,6.6-2.6,10.2-3.2c1.6-0.1,4.2,0.7,4.3-1.6
		c0.3-2.6-1.4-4.9-3.5-6.3c-2.4-1.7-3.7,0.7-4.6,2.1c-2.2,3.4-4.5,6.7-8,8.8c-4.1,3-5.6,7.7-8.1,11.7c-4.3,6.3-4.2,6.3-13.5,4.5
		c9.2-14.3,18-28.5,27.2-42.4c3.4-5,8.7-5.3,12-0.3c9.3,13.8,18,28.1,27.4,42.9c-6.3,1.6-11,1.7-13.5-4.6c-0.7-1.6-1.4-3.4-4.1-2.4
		C304.9,412.8,297.8,413.1,290.7,411.7z"/>
	<path fill="#003573" d="M380.4,411.7c-1.3,5.9-4.2,8.8-10.2,8.1c-8-0.5-16.4,0.1-24.3-0.7c-12.3-1.3-20.8-11.3-20.6-23.2
		c0.3-12.3,9.6-22.1,22.2-22.5c10.6-0.3,21.3,0,32.3,0c-1.4,5.9-4.3,8.7-10.2,8c-6.2-0.5-12.2-0.1-18.4,0
		c-10.6,0.1-16.5,5.6-16.7,14.8c-0.1,9.5,6.2,15.2,16.9,15.5C360.8,412,370.4,411.7,380.4,411.7z"/>
	<path fill="#003573" d="M385.4,373.7c7.2-1.7,10,0.8,9.3,8.4c-0.7,7.2,0.3,14.8-0.3,22.1c-0.7,6.6,2,7.9,8,7.7
		c10.8-0.5,21.7-0.1,32.8-0.1c-1.4,6.3-4.9,8.7-10.9,8.4c-10.1-0.5-20.4-0.3-30.3-0.1c-3.5,0-6.4-0.5-8.7-3.7
		C384.1,402,383.8,387.8,385.4,373.7z"/>
	<path fill="#B9E9FF" d="M284.9,402.7c2.4-7,7.1-12.2,11.3-19.3c4.2,6.7,7.7,12.5,12.1,19.4c-8,0-15,0-21.8,0
		C286,402.7,285.4,402.7,284.9,402.7z"/>
	<path fill="#003573" d="M446.3,401.2c11.7,0,23.2-0.1,35.1-0.1C470,403.7,458,403.2,446.3,401.2z"/>
	<path fill="#003573" d="M247.7,396c-8.7,0.1-17.2,0.1-25.9,0.3C230.5,393.9,239.3,394.4,247.7,396z"/>
	<path fill="#B9E9FF" d="M166.2,411.5c-4.6,0-9.3,0.3-13.7,0c-9.1-0.8-15-7.6-14.6-15.8c0.5-7.9,6.4-13.8,15.2-14.3
		c8.7-0.3,17.3-0.3,26,0c8.7,0.3,14.4,6.4,14.8,14.6c0.1,8.1-5.8,15-14.6,15.5C174.9,411.7,170.3,411.6,166.2,411.5
		C166.2,411.6,166.2,411.5,166.2,411.5z"/>
</g>
</svg>
