<?xml version="1.0" encoding="utf-8"?>
<!-- Generator: Adobe Illustrator 18.1.0, SVG Export Plug-In . SVG Version: 6.00 Build 0)  -->
<svg version="1.1" id="Layer_1" xmlns="http://www.w3.org/2000/svg" xmlns:xlink="http://www.w3.org/1999/xlink" x="0px" y="0px"
	 viewBox="0 0 500 500" enable-background="new 0 0 500 500" xml:space="preserve">
<g>
	<path fill="#CCD7E3" d="M189.3,249.7c-3.5,11.1-7.1,13.8-18.8,13.7c-4.5,0-9.2,0.1-13.7-0.1c-7.9-0.3-13.9-6.8-13.8-14.6
		c0.1-7.6,6-13.8,13.7-14.1c4.5-0.2,9.2-0.1,13.7-0.1c11.8,0,15.3,2.6,18.8,13.7C189.9,248.7,189.9,249.2,189.3,249.7z"/>
	<path fill="#CCD7E3" d="M340.5,251.9c-1.7,0.1-1.2,1.1-0.7,1.9c2,3.3,5,4.6,8.7,4.6c6.1,0,12.2,0,18.5,0c-0.9,3.8-2.7,5.5-6.4,5.1
		c-5-0.4-10.1,0.1-15.1-0.3c-7.7-0.7-13-7.2-12.7-15c0.3-7.3,6.2-13.4,13.8-13.6c6.6-0.2,13.3,0,20.1,0c-0.7,4.2-3.2,5.4-7.1,5.1
		c-3.6-0.3-7.3-0.1-10.9,0c-3.4,0.1-6.7,0.6-8.3,4.2c0,2.7,2.1,1.5,3.2,1.6c4.6,0.4,9.4-0.5,14,0.5c0.6,0.1,1.2,0.1,1.9,0.2
		c1.9,0.3,4.5-1,5.5,0.8c0.7,1.4-1.5,3.1-2.6,4.6C355.2,252.6,347.8,252.5,340.5,251.9z"/>
	<path fill="#CCD7E3" d="M217,248.7c2.8-0.9,3.7-2.9,3.1-5.6c-0.6-2.8-2.9-3.5-5.5-3.5c-4.6,0-9.2,0.1-13.8,0
		c-2.7-0.1-3.7,0.7-3.6,3.5c0.2,5-0.3,10.2,0.2,15.1c0.4,5-1.7,6-6,4.8c-1-9.2-0.9-18.3-0.1-27.5c1.2-1.9,3.2-1,4.8-1
		c6.2-0.1,12.4-0.1,18.4,0c6.7,0.1,10.7,3.3,11.2,9c0.5,5.7-3,9.4-9.6,10.6c-0.4,0.1-0.8,0.3-1.7,0.5c3.2,2.8,6.2,5.2,9.5,8
		c-2.6,1.3-5.6,1.5-7.2,0.3c-5.8-4.1-11.4-8.5-15.9-14.2C206.3,248.1,211.7,248.5,217,248.7z"/>
	<path fill="#CCD7E3" d="M243.7,258.5c-1.2-1.7-3.3-3.1-2.7-5.7c1.6-2.4,4.1-1.6,6.4-2c1-0.1,2.6,0.4,2.7-1c0.2-1.6-0.9-3-2.2-3.9
		c-1.5-1.1-2.3,0.4-2.9,1.3c-1.4,2.1-2.8,4.2-5,5.5c-2.5,1.9-3.5,4.8-5.1,7.3c-2.7,3.9-2.6,3.9-8.4,2.8c5.7-8.9,11.2-17.7,16.9-26.4
		c2.1-3.1,5.4-3.3,7.4-0.2c5.8,8.6,11.2,17.5,17.1,26.7c-3.9,1-6.9,1.1-8.4-2.9c-0.4-1-0.9-2.1-2.5-1.5
		C252.5,259.1,248.1,259.3,243.7,258.5z"/>
	<path fill="#CCD7E3" d="M299.5,258.5c-0.8,3.7-2.6,5.5-6.4,5.1c-5-0.3-10.2,0.1-15.1-0.4c-7.7-0.8-12.9-7-12.8-14.5
		c0.2-7.7,6-13.7,13.8-14c6.6-0.2,13.2,0,20.1,0c-0.9,3.7-2.7,5.4-6.4,5c-3.8-0.3-7.6-0.1-11.4,0c-6.6,0.1-10.3,3.5-10.4,9.2
		c-0.1,5.9,3.8,9.5,10.5,9.6C287.3,258.6,293.3,258.5,299.5,258.5z"/>
	<path fill="#CCD7E3" d="M302.6,234.8c4.5-1.1,6.2,0.5,5.8,5.2c-0.4,4.5,0.2,9.2-0.2,13.7c-0.4,4.1,1.2,4.9,5,4.8
		c6.7-0.3,13.5-0.1,20.4-0.1c-0.9,3.9-3,5.4-6.8,5.2c-6.3-0.3-12.7-0.2-18.9-0.1c-2.2,0-4-0.3-5.4-2.3
		C301.8,252.4,301.6,243.6,302.6,234.8z"/>
	<path fill="#003573" d="M240.1,252.8c1.5-4.3,4.4-7.6,7-12c2.6,4.2,4.8,7.8,7.5,12.1c-5,0-9.3,0-13.6,0
		C240.7,252.8,240.4,252.8,240.1,252.8z"/>
	<path fill="#CCD7E3" d="M370.9,237.4c-0.2-1.5,0-3.2,2.1-3.2c2.1,0,3.6,1,3.6,3.4c0,2.1-1.2,3.3-3.1,3.4
		C371.2,241.2,370.9,239.5,370.9,237.4z"/>
	<path fill="#CCD7E3" d="M340.5,251.9c7.3,0,14.5-0.1,21.8-0.1C355.2,253.5,347.8,253.2,340.5,251.9z"/>
	<path fill="#CCD7E3" d="M217,248.7c-5.4,0.1-10.7,0.1-16.1,0.2C206.3,247.4,211.7,247.7,217,248.7z"/>
	<path fill="#003573" d="M166.2,258.3c-2.9,0-5.8,0.2-8.5,0c-5.6-0.5-9.3-4.7-9.1-9.8c0.3-4.9,4-8.6,9.5-8.9
		c5.4-0.2,10.8-0.2,16.2,0s9,4,9.2,9.1c0.1,5.1-3.6,9.3-9.1,9.6C171.6,258.5,168.8,258.4,166.2,258.3
		C166.2,258.4,166.2,258.3,166.2,258.3z"/>
</g>
</svg>
