<?xml version="1.0" encoding="utf-8"?>
<!-- Generator: Adobe Illustrator 18.1.0, SVG Export Plug-In . SVG Version: 6.00 Build 0)  -->
<svg version="1.1" id="Layer_1" xmlns="http://www.w3.org/2000/svg" xmlns:xlink="http://www.w3.org/1999/xlink" x="0px" y="0px"
	 viewBox="66 279.6 480 174" enable-background="new 66 279.6 480 174" xml:space="preserve">
<g>
	<path fill="#003573" d="M166.6,362.8c-7.4,23.8-15.1,29.5-40.1,29.4c-9.6,0-19.7,0.1-29.4-0.1c-16.9-0.7-29.6-14.5-29.5-31.2
		c0.1-16.2,12.7-29.5,29.4-30.1c9.6-0.4,19.7-0.1,29.4-0.1c25.1,0,32.7,5.6,40.1,29.4C168.1,360.6,168.1,361.6,166.6,362.8z"/>
	<path fill="#003573" d="M489.5,367.5c-3.7,0.1-2.7,2.3-1.6,4c4.2,7,10.6,9.8,18.5,9.8c13,0,26,0,39.4,0
		c-1.9,8.2-5.7,11.7-13.5,10.8c-10.6-0.9-21.6,0.1-32.3-0.7c-16.3-1.6-27.8-15.4-27.1-32.1c0.7-15.5,13.3-28.6,29.5-29
		c14.1-0.4,28.4,0,42.9,0c-1.6,8.9-6.8,11.6-15.1,10.8c-7.7-0.7-15.5-0.1-23.2,0c-7.3,0.1-14.3,1.2-17.8,8.9c0,5.7,4.5,3.2,6.8,3.5
		c9.8,0.9,20.1-1.1,29.9,1.1c1.2,0.1,2.7,0.1,4,0.4c4,0.7,9.6-2.1,11.7,1.7c1.6,2.9-3.2,6.6-5.6,9.8
		C521,368.9,505,368.8,489.5,367.5z"/>
	<path fill="#003573" d="M225.7,360.6c6-1.9,7.8-6.1,6.6-12.1s-6.1-7.4-11.7-7.4c-9.8,0-19.7,0.1-29.5,0c-5.7-0.1-7.8,1.6-7.7,7.4
		c0.4,10.6-0.7,21.8,0.4,32.3c0.9,10.6-3.7,12.7-12.7,10.2c-2.1-19.7-1.9-39-0.1-58.8c2.7-4,6.8-2.1,10.2-2.1
		c13.3-0.1,26.6-0.1,39.2,0c14.3,0.1,22.8,7,23.9,19.1c1.1,12.2-6.5,20.1-20.6,22.7c-0.9,0.1-1.7,0.7-3.7,1.1
		c6.8,6,13.3,11.2,20.2,17.1c-5.6,2.8-12.1,3.2-15.4,0.7c-12.4-8.8-24.4-18.2-34-30.4C202.9,359.4,214.6,360.2,225.7,360.6z"/>
	<path fill="#003573" d="M282.8,381.4c-2.7-3.7-7-6.6-5.7-12.2c3.5-5,8.8-3.5,13.5-4.2c2.1-0.1,5.6,0.9,5.7-2.1
		c0.4-3.5-1.9-6.5-4.6-8.4c-3.2-2.3-4.9,0.9-6.1,2.8c-2.9,4.5-6,8.9-10.6,11.7c-5.4,4-7.4,10.2-10.8,15.5c-5.7,8.4-5.6,8.4-17.9,6
		c12.2-19,23.9-37.9,36.1-56.3c4.5-6.6,11.6-7,15.9-0.4c12.4,18.3,23.9,37.3,36.4,57c-8.4,2.1-14.6,2.3-17.9-6.1
		c-0.9-2.1-1.9-4.5-5.4-3.2C301.7,382.9,292.3,383.3,282.8,381.4z"/>
	<path fill="#003573" d="M402,381.4c-1.7,7.8-5.6,11.7-13.5,10.8c-10.6-0.7-21.8,0.1-32.3-0.9c-16.3-1.7-27.6-15-27.4-30.8
		c0.4-16.3,12.7-29.4,29.5-29.9c14.1-0.4,28.3,0,42.9,0c-1.9,7.8-5.7,11.6-13.5,10.6c-8.2-0.7-16.2-0.1-24.4,0
		c-14.1,0.1-21.9,7.4-22.2,19.7c-0.1,12.6,8.2,20.2,22.4,20.6C375.9,381.8,388.7,381.4,402,381.4z"/>
	<path fill="#003573" d="M408.6,331c9.6-2.3,13.3,1.1,12.4,11.2c-0.9,9.6,0.4,19.7-0.4,29.4c-0.9,8.8,2.7,10.5,10.6,10.2
		c14.3-0.7,28.8-0.1,43.6-0.1c-1.9,8.4-6.5,11.6-14.5,11.2c-13.4-0.7-27.1-0.4-40.2-0.1c-4.6,0-8.5-0.7-11.6-4.9
		C406.9,368.5,406.5,349.7,408.6,331z"/>
	<path fill="#B9E9FF" d="M275.1,369.5c3.2-9.3,9.4-16.2,15-25.6c5.6,8.9,10.2,16.6,16.1,25.8c-10.6,0-19.9,0-29,0
		C276.6,369.5,275.8,369.5,275.1,369.5z"/>
	<path fill="#003573" d="M489.5,367.5c15.5,0,30.8-0.1,46.6-0.1C521,370.8,505,370.1,489.5,367.5z"/>
	<path fill="#003573" d="M225.7,360.6c-11.6,0.1-22.8,0.1-34.4,0.4C202.9,357.8,214.6,358.4,225.7,360.6z"/>
	<path fill="#B9E9FF" d="M117.5,381.2c-6.1,0-12.4,0.4-18.2,0c-12.1-1.1-19.9-10.1-19.4-21c0.7-10.5,8.5-18.3,20.2-19
		c11.6-0.4,23-0.4,34.5,0c11.6,0.4,19.1,8.5,19.7,19.4c0.1,10.8-7.7,19.9-19.4,20.6C129,381.4,122.9,381.3,117.5,381.2
		C117.5,381.3,117.5,381.2,117.5,381.2z"/>
</g>
</svg>
