<?xml version="1.0" encoding="utf-8"?>
<!-- Generator: Adobe Illustrator 18.1.0, SVG Export Plug-In . SVG Version: 6.00 Build 0)  -->
<svg version="1.1" id="Layer_1" xmlns="http://www.w3.org/2000/svg" xmlns:xlink="http://www.w3.org/1999/xlink" x="0px" y="0px"
	 viewBox="0 0 792 612" enable-background="new 0 0 792 612" xml:space="preserve">
<rect x="93.4" fill="#0065A1" width="605.2" height="612"/>
<path fill="#FFFFFF" d="M241.3,145.6c0,0,55.1-57.9,141.9-61.3c0,0,154.3-14.5,221.1,139.1c0,0,60.6,128.1-39.3,242.5
	c0,0-80.6,110.2-232.8,67.5c0,0,33.8-66.1,37.9-110.9c0,0,47.5,68.9,135.7-5.5c0,0,106.1-128.1-11.7-228c0,0-126.1-84.7-232.1,43.4
	c0,0-61.8,118.9,31.7,162.6c0,0,11-5.5,11.7-36.5c0,0-35.1-32.4-11-88.9c0,0,33.8-91.6,140.5-62.7c0,0,103.3,24.1,32.4,176.3
	c0,0-22,39.3-62,24.8c0,0-36.5-13.1-15.2-64.1c0,0,44.8-86.6-17.2-94.4c0,0-59.9,7.6-36.5,98.5l-28.2,124.7c0,0-8.3,34.4-3.4,52.4
	c0,0-106.1-36.5-130.9-167.4C173.7,357.8,144.1,238.6,241.3,145.6z"/>
</svg>
