<?xml version="1.0" encoding="utf-8"?>
<!-- Generator: Adobe Illustrator 17.1.0, SVG Export Plug-In . SVG Version: 6.00 Build 0)  -->
<!DOCTYPE svg PUBLIC "-//W3C//DTD SVG 1.1//EN" "http://www.w3.org/Graphics/SVG/1.1/DTD/svg11.dtd">
<svg version="1.1" id="Layer_1" xmlns="http://www.w3.org/2000/svg" xmlns:xlink="http://www.w3.org/1999/xlink" x="0px" y="0px"
	 viewBox="0 0 219.656 222.108" enable-background="new 0 0 219.656 222.108" xml:space="preserve">
<rect x="0" y="0" fill="#231F20" width="219.656" height="222.108"/>
<path fill="#FFFFFF" d="M53.668,52.836c0,0,20-21,51.5-22.25c0,0,56-5.25,80.25,50.5c0,0,22,46.5-14.25,88c0,0-29.25,40-84.5,24.5
	c0,0,12.25-24,13.75-40.25c0,0,17.25,25,49.25-2c0,0,38.5-46.5-4.25-82.75c0,0-45.75-30.75-84.25,15.75c0,0-22.438,43.147,11.5,59
	c0,0,4-2,4.25-13.25c0,0-12.75-11.75-4-32.25c0,0,12.25-33.25,51-22.75c0,0,37.5,8.75,11.75,64c0,0-8,14.25-22.5,9
	c0,0-13.25-4.75-5.5-23.25c0,0,16.252-31.434-6.25-34.25c0,0-21.75,2.75-13.25,35.75l-10.25,45.25c0,0-3,12.5-1.25,19
	c0,0-38.5-13.25-47.5-60.75C29.168,129.836,18.418,86.586,53.668,52.836z"/>
</svg>
