<?xml version="1.0" encoding="utf-8"?>
<!-- Generator: Adobe Illustrator 18.1.0, SVG Export Plug-In . SVG Version: 6.00 Build 0)  -->
<svg version="1.1" id="Layer_1" xmlns="http://www.w3.org/2000/svg" xmlns:xlink="http://www.w3.org/1999/xlink" x="0px" y="0px"
	 viewBox="0 84.7 612.1 707.3" enable-background="new 0 84.7 612.1 707.3" xml:space="preserve">
<g id="Layer_3">
	<path fill="#2178A9" d="M13.6,149.4c0,0,108.5,14.2,295-64.7c0,0,167.8,80.4,289.6,64.4c0,0,110.4,472.2-290.5,642.9
		C307.6,792-76,666.2,13.6,149.4z"/>
	<path fill="none" stroke="#FFFFFF" stroke-width="9" stroke-miterlimit="10" d="M312.6,739.9c0,0-328.1-98.7-260-553.2
		c0,0,134.6,3.3,251.7-63.8c0,0,101.4,40.9,146.9,45.5"/>
	<polygon fill="#F2EA33" points="306,246.4 337.2,309.5 407,319.8 356.5,368.9 368.5,438.4 306,405.8 243.5,438.4 255.5,368.9 
		205,319.8 274.8,309.5 	"/>
	<polygon fill="#FFFFFF" points="119.1,229.1 132.1,255.3 161,259.6 140.1,280 145,308.8 119.1,295.3 93.2,308.8 98.2,280 
		77.2,259.6 106.2,255.3 	"/>
	<polygon fill="#FFFFFF" points="464.5,229.1 477.5,255.3 506.4,259.6 485.5,280 490.4,308.8 464.5,295.3 438.6,308.8 443.6,280 
		422.6,259.6 451.5,255.3 	"/>
	<text transform="matrix(0.9667 0 0 1 119.1201 534.7197)" fill="#FFFFFF" font-family="'MyriadPro-Regular'" font-size="93">Interstellar</text>
	<text transform="matrix(0.9667 0 0 1 158.3858 619.7324)" fill="#FFFFFF" font-family="'MyriadPro-Regular'" font-size="93">Security</text>
</g>
<g id="Layer_2">
</g>
</svg>
