<?xml version="1.0" encoding="utf-8"?>
<!-- Generator: Adobe Illustrator 18.1.0, SVG Export Plug-In . SVG Version: 6.00 Build 0)  -->
<svg version="1.1" id="Layer_1" xmlns="http://www.w3.org/2000/svg" xmlns:xlink="http://www.w3.org/1999/xlink" x="0px" y="0px"
	 viewBox="-4 312.7 794.4 299.3" enable-background="new -4 312.7 794.4 299.3" xml:space="preserve">
<g id="Layer_1_1_">
</g>
<g id="Layer_2">
	<g id="U4X7JD_1_">
		<g>
			<polygon fill="#183964" points="-4,584.3 333,588.9 373.3,517.6 790.3,510.5 790.3,612 332.3,612 -4,612 			"/>
			<path fill="#FDFDFD" d="M528.5,547.4c-32,0-63.8,0-95.8,0c-4.2,0-8.3,0.5-12-1.8c-3.9-4.9-3.5-10.3-1.7-15.7
				c-0.9-8.3,2.6-10.3,11.1-10.3c57.5,0.4,115.2,0.1,172.6,0.1c3.5,0,6.9,0.4,10.5,0.8c4.2,2.9,7.7,5.6,13.4,5.6
				c7.5,0,14.8,11.7,14.7,21.2c-12.2,0.1-24.4,0.1-36.7,0.4c-1.7,0.9-3.3,2.1-5.1,2.2c-20.3,0.5-40.4,0.1-60.7,0.1
				C535.1,549.9,531.5,549.9,528.5,547.4z"/>
			<path fill="#0F303F" d="M641,547.3c-1.6-7.2-7.9-11.3-10.5-17.7c-1.2-2.6-4.3-2.2-5.9-1.3c-9.8,5.6-10.3-1.3-11.7-7.9
				c-0.4-1.8-1.8-2.2-3.4-2.6c-0.1-0.9,0-1.7,0.4-2.6c0.1-0.1,0.4-0.5,0.5-0.8c11.8-4.2,11.8-4.2,8.6-18.1
				c-0.8-7.9,0.1-15.6-8.8-21.2c-6.4-3.9,1.2-21.2,9.6-22.4c4.9-0.8,8.5-2.2,10.5-6.8c0.5-0.8,1.2-1.6,1.7-2.1
				c2.6-1.8,5.1-3.9,8.5-3.8c0.5,0.1,1.2,0.4,1.7,0.5c0.1-0.5-0.1-1.2-0.8-1.6c-2.1-2.6-3-6-4.7-8.8c-3-6-0.8-10.5,4.6-13.5
				c5.6-3.3,11.1-8.8,18.1-3c3,2.6,6.4,3.9,10.3,4.3c6,4.7,13.4,5.6,20.7,6c1.8,0.1,3.8,2.2,5.1-0.8c1.6-2.2,0.8-7.3,6-4.6
				c2.5,4.7,2.5,9.2,0.1,13.9c-2.5,3.4-6.6,2.6-9.8,4.2c-11.4,1.8-20.2,10-30.9,13.4c-1.3,1.3-2.5-3.5-3.5-0.1
				c-1.2,3.5-3.5,6.2-6.2,8.3c-3.3,2.5-3.3,5.1-1.7,8.3c0.1,5.2-2.1,10-2.9,14.8c-1.2,3-1.3,6.2-1.2,9.6
				c-0.4,10.5,2.9,19.9,7.7,28.9c1.7,3,3.5,6,6.4,8.3c3.9,4.2,8.1,8.1,13,11.1c2.6,2.1,5.9,3,9,3.9c3.3,1.2,6.4,2.1,9.2,3.8
				c1.2,0.5,2.1,1.3,3.3,2.1c2.5,2.2,6.6,1.7,8.3,5.1c0.5,6.2,3.8,10,10.1,10.7c2.9,1.8,2.5,3.8-0.1,5.5c-0.1,13.9-6,18.1-19.4,13.5
				c-2.6-0.9-2.1-2.6-2.6-4.3c-2.1-7.7-17.7-17.7-25.5-16.4c-1.2,0.1-2.1,1.3-3.3,1.8c-3.3,1.7-4.2,8.5-9.8,4.9
				c-5.5-3.5-12.6-6.2-10.9-15.1c3.3-2.1,4.6-4.6,1.8-7.9C642.1,546.9,641.6,546.9,641,547.3z"/>
			<path fill="#95BFE5" d="M370.8,450.7c6-13-5.2-11.1-11.7-13.5c0.9-1.6,2.6-0.5,3.8-1.3c-2.1,1.6-3.5-4.2-5.6-0.4
				c-2.9-4.7-1.2-10-1.3-14.8c-0.4-5.2,1.8-8.6,7.7-8.3c3.8,0.1,6.6-0.1,7.9-4.9c1.2-4.3,0-6.9-3.8-8.5c-6.8-2.9-5.6-7.3-3.3-12.2
				c0-4.3,2.5-7.7,4.9-10.9c2.5-3,5.6-5.5,8.8-0.5c4.9,4.7,8.8,3.9,12-1.8c0.9-4.6-5.6-5.6-4.3-10.1c4.7-5.9,13-7.3,17.4-13.5
				c3.9-3.3,5.9-0.1,7.5,2.6c1.8,3.3,3.8,5.9,8.1,5.6c1.8,1.6,2.1,3.4,1.7,5.5c-3.8,6.6-2.9,13.7-2.1,20.8c0,0.9-0.1,1.8-0.4,2.9
				c-9.6,8.6-18.2,17.7-19.4,31.6c-0.1,3.8-0.1,7.3,0,11.1c0.4,7.7,3.5,14.3,7.9,20.3c0.8,0.9,1.6,1.8,2.5,2.9
				c2.1,2.6,4.9,4.3,7.2,6.8c0.8,1.2,1.3,2.2,1.7,3.4c0.8,2.9,1.2,5.9,2.1,8.8c0,0.9,0,1.7-0.4,2.6c-2.5,4.6-2.2,9.2,0,13.7
				c0.1,0.9,0,1.7-0.5,2.5c-0.4,0-0.8,0-0.9,0.1c-11.7,9.8-11.7,9.8-26.1,1.8c-1.7,0.5-2.6-0.1-3.3-1.7c-0.9-2.6,0.1-4.7,0.9-7.3
				c3.3-8.6-0.5-13.4-8.6-9.8c-7.9,3.4-10.1-0.1-12.4-5.9c-1.8-4.6-8.3-7.9-3.9-14C367.6,454.4,369.8,453.7,370.8,450.7z"/>
			<path fill="#0D3040" d="M422.8,335c0-0.5,0.1-1.2,0.1-1.6c3.5-3.8,8.1-3.3,12.6-3.3c28.3,0,56.9,0,85.3,0c5.5,0,10.9-0.4,15.7-3
				c7.5-0.1,16.1,1.6,17.8-9.6c0.1-1.6,2.5-2.1,3.9-1.3c0.9,0.4,1.6,1.2,2.5,1.6c7.5,4.2,11.1-4.2,16.4-5.1
				c5.2-0.8,9.6,9.4,16.4,5.2c5.9-3.5,7.7-2.9,9,3.4c0.5,2.2,3.3,2.9,5.2,3.5c2.1-1.2,3.8,2.1,5.9,0.5c3.3-0.4,6,0.1,5.2,4.3
				s2.5,2.6,4.2,3.3c9.6,6.2,9.6,6.2,4.3,19.1c-5.5,4.3-9.4,1.6-12.7-3c-7.3-9.4-16.4-15.6-28.6-17.8c-16.9-3-34.2,3.9-43.9,18.5
				c-7.5,8.3-7.5,19.4-10.1,29.3c-1.3,2.2-3,3.9-5.2,5.1c-1.6,0.4-2.9,0.4-4.3-0.4c-3-3-1.8-7.2-3-10.5c-0.1-0.9-0.4-1.7-0.4-2.6
				s0.1-1.7,0.4-2.5c1.2-2.2,0.8-4.7,0.4-7.2c0.5-4.2,2.5-8.3,0.5-12.4c-0.4-3-3-4.7-4.2-7.3c-2.2-4.6-6.6-3.3-10.1-3.3
				c-24.1,0-47.8,0-71.9,0c-1.6,0.1-3,0.4-4.3,1.6c-4.7,4.3-6.6,2.1-7.2-3.3C422.8,335.7,422.8,335.4,422.8,335z"/>
			<path fill="#0D3040" d="M714,402.7c0.8,4.9-2.6,11.8,5.6,13.1c7.5,1.2,15.3,10.9,22.5-0.5c2.2-3.5,5.1-3.5,7.9-0.9
				c5.1,4.9,17.8,6.6,7.3,18.1c-1.8,2.1-0.1,4.2,1.2,6c3.5,4.6,6.9,9.2,10.3,13.9c2.1,3,4.2,4.3,8.1,3c13-4.7,9.6,7.5,12.2,12.7
				c3.8,7.2-2.5,7.5-7.3,8.1c-3.9,1.6-3.3,4.9-3.3,7.9c-0.1,6.8,0.1,13.7-0.4,21.5c-4.6-1.3-5.1-4.2-5.5-7.2
				c-0.8-3.8-0.4-7.5-0.4-11.1c0.5-3.4,0.5-6.6-1.2-9.8c-4.9-15.6-12.6-29.3-25-40c-3.3-2.9-6.8-4.9-10.3-6.8
				c-1.7-0.5-3.4-1.6-4.9-2.6c-7.5-4.9-16.8-4.9-24.8-7.9c-3.8-2.6-8.1-5.2,0.4-6.9c4.6-0.9,2.9-5.1,3.9-7.2c-2.5,0.9,1.7,9-5.9,5.5
				c-0.4-0.9-0.8-1.7-0.9-2.6c0.1-4.6,1.2-8.8,2.6-13c0.5-0.9,1.6-1.6,2.5-1.7C715.3,394.4,715.7,397.9,714,402.7z"/>
			<path fill="#0E3041" d="M775.6,496.7c0.1,1.8,0.1,3.5,0.4,5.5c0.5,0,1.2,0,1.7,0c0-6.4,0-12.7,0-19.1c0-3.3-0.5-6.8,4.2-7.2
				c-4.9,8.6-1.2,18.1-2.1,27c-0.1,2.2,1.7,3.4,3.5,3.8c10.1,2.1,7.5,8.1,4.2,13.9c-1.3,2.2-2.5,4.6-2.1,7.2c0,0.8,0,1.3-0.1,2.1
				c-2.6-0.5-5.2-1.3-7.7-1.8c-2.5,0.9-3.9-0.5-5.6-1.8c-3,5.1-5.5,10.9-9.4,15.2c-4.7,5.2-6.4,8.3-0.9,14.8
				c3.9,4.7-3.3,7.7-7.2,10.3c-1.6,1.8-4.3,1.8-5.9,3.8c-12.2-9.8-24.4-1.6-36.7,0c0.4-1.3,1.8-2.9-0.1-3.9c0.1-4.6,4.2-4.3,6.9-5.2
				c28.2-9.4,45.8-28,52-57.3C771.4,501,771,497.1,775.6,496.7z"/>
			<path fill="#2C5871" d="M716.1,344.6c9.6,0.5,10.7,10.7,12.2,15.6c2.6,8.3-1.8,17.8-6.8,25.7c-1.3,2.2-3.5,2.2-5.9,1.2
				c-2.2,2.9-2.9,7.5-7.7,7.7l0,0c-0.4,0.8-0.9,0.9-1.7,1.2c-1.3-0.1-2.6-0.8-3.9-1.2c-0.9-0.1-2.1-0.4-3-0.4
				c-2.2,0.4-4.6,0.8-6.6-0.4c-0.5-0.5-1.2-1.2-1.7-1.7c-0.9-2.6-2.9-3.5-5.5-3.4c-2.5-0.4-4.3-1.3-5.2-3.9c0-0.9,0.4-1.8,1.2-2.6
				c3-2.1,6.2-1.7,9.6-1.7c3,0,5.9,0.1,8.5-1.7c1.8-0.8,3.9-0.9,5.6-1.7c2.2-0.9,4.3-2.1,6.2-3.5c2.1-1.7,2.6-3.8,2.5-6.4
				c-0.1-0.8-0.4-1.6-0.8-2.2c-1.8-4.9-4.7-8.6-9.8-10.5c-0.8-0.4-1.6-1.2-2.1-1.7c-1.6-3.3-4.3-6.2-2.9-10.1
				c3.9-3.8,8.3-6.2,13.5-2.9C714,340.8,713.6,343.8,716.1,344.6z"/>
			<path fill="#103345" d="M711.9,340.8c-4.9-2.9-8.8,2.9-13.5,1.8c-0.4-0.1-0.8-0.4-1.2-0.5c-0.9-0.8-1.6-1.8-2.5-2.9
				c-4.9-3.3-8.6-0.9-12.4,2.2c-2.6,1.7-5.6,2.1-8.6,2.1c-10.3,0.4-20.7-0.5-30.8,0.5c-2.1,0.9-4.3,1.2-6.2,2.9
				c-2.1,1.7-3.8,3.8-6.4,4.7c-1.3,0.1-2.6,0-3.5-1.2c-0.1-12-0.1-12-3.9-17.3c29.5,0,59.2,0,88.7,0l0,0c0.5,0.8,1.3,1.3,1.8,2.1
				C714.8,337.4,716.8,340.3,711.9,340.8z"/>
			<path fill="#93BEE5" d="M361.3,527.9c0-3.2-0.8-5.9-4.7-5.9c-9.4,0-9.8-3.5-3.9-9.8c0.8-0.8,0.4-2.5,0.4-3.8
				c0.4-0.1,0.8-0.4,1.2-0.5c0.9,0,1.7,0.4,2.2,0.8c2.2,2.1,4.9,0.9,7.3,0.9c9.4,4.9,9.4,4.9,13-6c4.6-5.5,10.1-7.2,16.9-4.9
				c-2.6,4.2-9.8,7.5-0.5,12.7c2.1,1.2,2.2,6.2-2.9,6.6c-3.5,0.1-6.6,1.2-5.5,5.6c2.5,8.6-3.8,6.8-7.3,5.2c-4.3-1.7-6.6-0.5-8.8,2.6
				C366.3,530.4,363.4,530,361.3,527.9z"/>
			<path fill="#002130" d="M609.9,516.2c0,0.5,0,0.9-0.1,1.6c-62.9,0-125.6,0-188.5,0c-0.5-1.3-0.1-2.2,0.9-3
				c1.7-0.9,3.4-1.2,5.2-1.3c57.3-0.1,114.5,0,171.9,0c3.3,0,6.4-0.1,9.4,1.6C608.9,515.3,609.5,515.9,609.9,516.2z"/>
			<path fill="#92BCE3" d="M393.7,499c-5.5,1.6-11.7,0.9-15.6,6.2c-3.4,1.3-6.6,0.4-9.6-1.3c-2.6-2.9-5.2-5.5-7.3-8.6
				c-2.6-4.2-1.6-6.6,3.8-6.2c0.5,0.1,1.2,0.4,1.8,0.1c1.3,0,2.6,0,3.8,0.1c4.3-3.4,8.8-8.8,11.3,1.8c1.7,7.3,4.3,2.2,6.6,0.1
				c1.2,0.5,2.1,1.2,3.3,1.7C392.4,495,393,496.9,393.7,499z"/>
			<path fill="#96C0EA" d="M365.1,488.9c-2.1,1.6-5.2,2.5-1.6,5.6c2.5,2.1,6,3.5,5.2,7.9c-0.8,3.5-3,6-5.9,7.9c-0.9,3-3.4,3.4-6,2.9
				s-1.6-3-1.7-4.6c0.5-0.1,0.9-0.5,1.6-0.9c-1.2-0.8-0.8,1.2-1.6,0.9c-0.8,0-1.3,0-2.1,0c-2.1-1.7-5.9-1.6-5.6-5.6
				c0.1-3.8,2.5-4.6,5.9-4.6c3.5,0.1,3.9-2.5,3.5-5.2C355.9,484.7,360.4,486.5,365.1,488.9z"/>
			<path fill="#184264" d="M420.9,516.2c0,0.5,0,0.9,0.1,1.3c-4.7-4.3-0.9-10.1-2.5-15.1c-1.7-2.5-0.9-5.1,0-7.5
				c0-1.3,0-2.9,0.1-4.2c0.1-0.5,0.1-1.2,0-1.7c-2.5-5.1-2.6-10.3,0.1-15.3c0-0.5,0-1.3,0-1.8c-1.3-2.9-0.9-5.9-1.7-8.6
				c-2.1-23.3-0.5-46.5-0.8-70.1c0-2.2,0.9-4.3,1.7-6.4c0.5-1.3,1.3-1.8,2.9-2.1c0.9,0.8,1.7,1.7,2.2,3c1.7,23.5,0.1,47.2,0.8,70.6
				c0.1,1.2,0.1,2.5,0.1,3.5c-0.4,3.4-0.5,6.9,0,10.3c0.5,6.8-0.1,13.7-0.4,20.4c0,4.6,0,9.2,0,13.7
				C423.9,510.1,423.5,513.5,420.9,516.2z"/>
			<path fill="#0D3040" d="M419,355.9c1.2-6.9-2.9-14.8,3.8-21.1l0.1,0.1c2.9,9,4.2,18.1,1.7,27.2c-0.5,0.9-1.3,1.7-2.5,2.1
				C417.7,362.8,421.3,358.4,419,355.9z"/>
			<path fill="#94BEE9" d="M403.4,350c-1.3,9.6-11.3,8.6-16.4,13.9c-1.7-0.1-1.8-0.8-0.8-2.1C390.3,355.5,396.8,352.6,403.4,350z"/>
			<path fill="#0D3141" d="M708,394.8c3.8-1.6,3.3-7.2,7.7-7.7c-0.8,5.2,1.7,10.7-1.8,15.6C714,398.5,713.1,395.2,708,394.8z"/>
			<path fill="#3B617B" d="M419,355.9c2.2,2.2,1.6,5.2,1.8,8.1c3.5,7.2,4.3,14-0.4,21.1c-0.4,0-0.8,0.1-1.3,0.4
				c-0.9-0.5-1.7-1.3-2.1-2.5c-0.4-6.4-1.6-12.7,1.2-19c0-1.8,0.1-3.8,0.1-5.6C418.8,357.6,419,356.8,419,355.9z"/>
			<path fill="#326394" d="M386.3,361.9c0.1,0.8,0.5,1.3,0.8,2.1c-0.5,3.8,8.5,4.6,3.3,9.8C388.8,369.8,376.9,369.4,386.3,361.9z"/>
			<path fill="#98C5EC" d="M357.3,435.5c0-1.8,0.1-3.8,0.4-7.9c2.5,6.2,5.2,9,11.7,6.4c-3.9,4.6-7.2,2.6-10,3.4
				C358.6,436.6,357.8,436.1,357.3,435.5z"/>
			<path fill="#95C2F0" d="M361.3,527.9c3,0.1,6.8-0.9,7.3,3.8C364.6,533.7,362,533,361.3,527.9z"/>
			<path fill="#97C2EA" d="M370.8,450.7c1.6,0.4,3.5,0.9,1.7,2.5c-2.1,1.7-4.6,4.7-7.7,1.2C366.3,452.2,368.5,451.4,370.8,450.7z"/>
			<path fill="#16415A" d="M711.9,340.8c2.1-1.3,1.8-3.5,1.8-5.6c3.3,2.6,1.6,6.2,2.2,9.4C710.6,347.6,712.7,342.8,711.9,340.8z"/>
			<path fill="#3A6B9B" d="M418.7,495.3c0,2.5,0,5.1,0,7.5C412.3,500.3,417.1,497.6,418.7,495.3z"/>
			<path fill="#A6D9EA" d="M599.9,547.6c1.6,0,3,0,4.6,0c2.1,7.5,3.9,15.1,6,22.5c-1.7,1.8-3.8,1.7-6.2,1.7
				c-22.1-1.2-44.1-0.1-66.3-0.5c-3.5,0-6.9,0.8-10.3,2.1c-1.8,0.4-3.5,0.1-4.9-1.6c2.9-3.9,3.3-8.6,3.8-13.4
				c-1.2-3.5,0-6.4,2.6-8.8c16.9-1.7,33.8-0.4,50.6-0.8C586.8,548.9,593.3,549.1,599.9,547.6z"/>
			<path fill="#EDEFF2" d="M522.9,571.8c1.6-0.1,2.9-0.1,4.3-0.4c4.9-2.1,10.1-1.6,15.2-1.3c23.3,0.8,46.5-1.8,69.8,1.6
				c3.4-0.1,6.9-0.5,8.8,3.4c0.8,1.6,0.1,2.9-0.9,4.2c-2.6,3.4-5.5,0.8-8.3,0.5c-5.2,2.1-10.7,0.9-16,0.9c-23.7,0.1-47.2,0.1-70.9,0
				c-3.2,0-6.4,0.9-9.4-1.2C511.2,570.7,517.8,572.1,522.9,571.8z"/>
			<path fill="#A7DAE8" d="M612.1,571.8c-28.3,0-56.7-0.1-84.9-0.1c1.6-2.5,3.8-3.3,6.6-3.3c22.8,0,45.6,0,68.4,0.1
				c2.9,0,5.6,0.9,8.5,1.6C610.9,570.7,611.6,571.3,612.1,571.8z"/>
			<path fill="#A7DAE8" d="M599.9,547.6c-4.7,3-10,3.4-15.6,3.4c-18.5-0.1-36.7,0-55,0c-0.9-0.4-1.3-0.9-0.9-1.8
				c0.1-0.5,0.1-1.2,0.1-1.7C552.3,547.4,576.2,547.6,599.9,547.6z"/>
			<path fill="#0C2E54" d="M515.5,579.8c32.1,0,64.1,0,96.2,0c-1.3,1.7-3.3,2.1-5.1,2.1c-29.6,0-59.3,0-89.2,0c-0.5,0-1.3,0-1.7-0.4
				C515.5,581.1,515.5,580.3,515.5,579.8z"/>
			<path fill="#0D2A53" d="M642.5,546.9c2.9-1.3,3.4,0.9,3.5,2.6c0.1,3.5-2.2,4.9-5.5,5.2C642.1,552.3,639.3,548.9,642.5,546.9z"/>
			<path fill="#103353" d="M748.6,570.4c0.4-3.8,3-3.9,5.9-3.8C754.1,570.1,751.5,570.4,748.6,570.4z"/>
			<path fill="#F8D61F" d="M633.3,445.6c-1.8,6.9-3.8,13.7-13.5,8.8c-1.8-0.9-3.8,0.1-4.6,2.5c-1.6,4.6-3.5,9-4.3,13.7
				c-1.2,6.9,6,4.9,9,7.3c1.8,1.6,4.2,2.5,2.5,6c-2.1,4.2-1.2,8.8-0.5,13.1c1.2,10.7,0.4,12.2-8.8,12.2c-58,0.1-115.8,0.4-173.9-0.1
				c-0.5,0-1.3-0.1-1.8-0.4c-1.2-0.4-2.1-0.9-3-1.7c1.3-8.3,8.6-9.2,14.4-11.8c3.8-0.9,5.5,6.9,10.7,2.1c1.3-1.2,6,3.8,10.1,3.4
				c8.5,1.7,16.1-4.6,24.6-2.6c2.5,0,4.9,0.1,7.2-0.5c2.6-1.7,1.8-5.1,3.5-7.2c0.8-1.2,1.8-1.8,3-2.5c3-0.9,5.5,0,7.3,2.5
				c1.2,1.7,2.2,3.5,4.3,4.2c1.7,0.1,2.5-0.9,3.5-2.1c2.6-2.6,6.2-3.8,7.3-8.1c3-11.3,3.5-11.4,14.7-9.2c4.2,1.3,5.1-1.2,5.1-4.6
				c0.1-2.9-0.4-5.6-1.3-8.3c-3.4-9.6-2.5-11.3,7.7-15.1c0.5-0.5,1.3-1.2,1.7-1.7c1.6-3.5,0.1-7.7,1.6-11.3c0.4-0.9,0.8-1.7,1.3-2.5
				c4.6-3.8,9-2.2,13.5-0.1c2.5,1.6,3.8,4.7,7.3,4.3c3-0.5,4.6-3.5,7.3-4.6c2.2-0.8,4.3-0.5,6.6,0.4c2.2,0.5,2.5,5.1,5.9,3.4
				c2.6-1.3,1.2-3.9,1.3-6c4.9-9,6.8-9.6,18.1-6.6c1.6,0.8,2.9,1.8,3.9,3c2.2,2.5,4.2-0.8,6.2-0.4c3.4-0.5,4.7,3.4,7.7,3.5
				c3.4,2.6,4.2,6,3.9,10c0.1,1.7-0.4,2.6-2.1,2.2C637.6,441.6,637.1,446.6,633.3,445.6c-0.5-1.2-1.2-2.1-1.7-2.9
				C632.1,443.8,632.8,444.7,633.3,445.6z"/>
			<path fill="#2C5770" d="M775.6,496.7c-3.3,7.3-3,15.3-6.2,22.8c-11.1,25.7-31.3,39.8-57.5,46.8c-12,2.5-12.2-5.1-11.4-13.4
				c-2.5-1.2-5.2-0.1-7.5-1.8c-0.8-0.5-1.3-1.2-2.1-1.8c6-5.9,13.7-1.7,20.3-3.5c0.9-0.4,1.7-0.5,2.6-0.9
				c14.4-3.5,26.7-10.3,33-24.6c3.4-6,6-12.2,7.5-19c1.6-2.9,1.3-5.9,1.3-8.6c-1.2-24.1-12.2-41.3-34.3-51.1
				c-3.4-1.7-6.9-2.9-10.5-4.2c-3.3-1.8-8.1-0.1-10.5-4.2c0-5.1,0.1-10.1,0.1-15.1c0.4-0.4,0.5-0.5,0.9-0.9c1.7-0.1,3.4-0.4,4.9,0.8
				c9.4,1.2,18.7,2.5,26.9,7.9c-2.6,3-6.6,1.6-8.5,2.5c3.2-2.1,7.9,1.7,12.4-0.4c19.8,10.3,30.3,27.6,36.7,48.1
				c2.2,3-0.1,6.9,1.8,10C775.6,489.4,775.6,493.2,775.6,496.7z"/>
			<path fill="#FEFEFE" d="M681,545.7c-3.8-0.1-6.9-1.3-9.6-4.2c1.3-7.5,6.9-4.9,11.1-5.1c-3-4.9-8.1-8.3-12-12.7
				c-0.1-0.8-0.1-1.7-0.1-2.6c1.2-2.6,4.2-2.6,5.9-4.3c0.9-0.8,2.1-1.3,3.3-1.8c3.8-1.2,6.8-2.9,7.9-6.9c0.5-1.2,1.6-2.1,2.6-2.6
				c2.5-0.5,4.3-2.1,6.2-3.8c3.5-2.1,7.5-3.4,10.9-5.9c0.8-0.4,1.6-0.5,2.1-0.8c3.3-0.9,0-3.9,1.7-5.2c1.8-3.3,5.1-3.8,8.3-4.7
				c1.3-0.4,2.9-0.4,4.2-0.4c7.3,3.8,16.1-1.6,23.1,3.8c-1.8,4.9,4.6,4.2,4.9,7.5c0.4,7.5-0.1,14.7-4.7,21.1
				c-9.6,4.2-16.4,12.2-24.2,18.5c-1.7,1.3-7.7,0-3.3,6c2.6,3.5-3.8,3.8-5.5,6l0.1-0.1c-4.7,1.3-8.1-0.5-10.3-4.6
				c-0.9-1.7-1.3-3.8-3.9-2.1c-0.8,0.5-1.6,0.9-2.2,1.3C692.4,544.8,686.5,544,681,545.7z"/>
			<path fill="#F8D71F" d="M638.9,429.1c-3.5,4.2-4.9-2.9-7.9-1.6c-0.5-0.5-1.2-1.3-1.6-2.2c-0.4-1.3-0.4-2.6,0-3.9
				c0.9-4.9,4.6-9.2,3-14.4c-1.2-2.6-3.8-4.3-4.2-7.3c0-1.3,0.4-2.5,0.9-3.5c0.9-1.8,1.7-3.8,2.6-5.6c1.2-1.8,2.6-3.4,4.7-4.3
				c0.8-0.1,1.7-0.4,2.5-0.4c3,0.8,5.9,0.1,8.5-1.2c2.1-0.8,4.2-1.3,6.2-1.2c3.4,0.8,6.6,1.2,9.4-1.2c2.1-1.2,4.6-1.3,6.8-0.9
				c3.5,1.3,7.9,0.4,10.9,3.5c1.8,1.2,3.4,3.8,6.2,1.7c4.6-0.5,3.8,3.9,5.6,6l-0.1,0.5c3,1.6,5.6,0.9,7.9-1.7
				c1.6-0.5,2.1,0.4,2.5,1.7c1.2,1.8,1.3,3.8,0.4,5.6c-2.6,3.8-8.1,1.6-10.7,5.2c-1.7,3.4-0.4,7.5-3.3,10.5c-6,4.6-13,5.5-20.2,5.2
				c-3.3,0.1-6.4,3.4-9-1.3c-2.1-3.8-5.2-7.3-9.6-3.5C645.9,418.6,635.5,418.6,638.9,429.1z"/>
			<path fill="#0F313A" d="M434.4,506.4c46.9,0.1,94.1,0.4,141.1,0.4c12.2,0,24.4-0.5,36.4,0.1c8.3,0.5,10.9-2.5,9.8-10.1
				c2.1,2.1,1.6,4.7,1.7,7.2c1.7,11.3,1.7,11.3-10.1,10.9c-1.2,0-2.5,0.8-3.5,1.3l0,0c-0.9-0.8-2.1-1.3-3.3-1.7
				c-51.1-0.5-102.3,0-153.4-0.4c-4.2,0-8.3,0.8-12.4-1.2c-1.2-0.9-1.3-1.8-0.5-3.3c12.7-1.2,25.5-0.5,38.4-0.5
				c43.4-0.1,86.7,0,130.1,0c-50.2,0-100.5,0-150.7,0c-7.7,0-15.3-0.4-22.9,0.9c-1.2-0.4-2.2-0.9-3-1.8
				C432.2,507.2,433,506.4,434.4,506.4z"/>
			<path fill="#FAFBFB" d="M671.6,522c8.1,2.5,8.8,13.9,19.9,14.4c-7.5,3.4-14.8,0.1-20.2,5.2c-5.5-2.9-10-6.6-13.5-11.7
				c-1.8-3.3-3.9-6.2-5.2-9.6c-3.8-8.6-8.5-16.9-6-26.9c0.5-1.3,1.3-2.5,2.1-3.5c3.8-1.6,2.1-10.1,7.3-7.7c4.6,2.1,3.9,9.2,1.8,13.1
				c-3.5,6.9,2.1,10.3,3.9,15.2c0.4,0.9,1.2,1.8,2.1,1.6c8.5-2.2,6,3.4,5.9,7.5C670,520.7,670.7,521.5,671.6,522z"/>
			<path fill="#0F313A" d="M669.2,419.6c5.9-3.8,12.4-4.9,19.1-6c0.8,0,1.3,0.5,1.6,1.3c0.5,1.2,0.5,1.2,0.1-0.1
				c-0.4-1.2,0.4,0.4,0-0.9c0-0.8,0.1-1.7,0.4-2.5c1.7-10,7.9-6.9,13.9-4.9c0.8,0.5,1.3,1.2,2.1,1.7c0,0.5,0,1.3,0,1.8
				c-1.2,3.3-7.2,2.6-5.9,7.7l0,0c-3,2.9-1.6,6.4-1.8,9.6c-3,1.3-5.1-1.3-7.7-1.8C682.7,427,675.2,426.4,669.2,419.6z"/>
			<path fill="#A8D6E6" d="M660.2,448.8c9.8-5.6,18.7-12.7,30.6-13.9c0.4,0.1,0.8,0.5,1.2,0.8c1.2,1.6,1.8,3,1.3,5.1
				c-10,6.4-20.7,11.4-29.1,19.8c-2.9,1.8-3.9,6.4-8.3,6.6c-2.6-0.5-4.3-1.8-5.1-4.6C651.4,456.1,655.1,452,660.2,448.8z"/>
			<path fill="#FAFBFB" d="M681,545.7c4.3-6.6,12.4-3,17.8-6c0.4,0.4,0.8,0.9,1.2,1.3c-0.4-0.4-0.8-0.9-1.2-1.3
				c0-2.6,1.2-4.6,4.2-3.5c1.7,0.4,4.7,1.3,4.2,3.2c-2.2,7.2,3.9,6.2,7.2,8.1c-7.5,4.2-15.6,1.2-23.5,1.8
				C687.6,548,684.3,546.9,681,545.7z"/>
			<path fill="#A9D8E5" d="M651.9,461.5c1.8,1.7,3.8,3.5,5.6,5.2c1.6,1.6,1.6,3.3,0.8,4.9c-4.2,6-5.6,13-7.9,19.5
				c-0.5,0.5-1.3,1.3-1.8,1.8c-2.6,0.8-3.9-0.8-4.7-3c0-3.3-0.4-6.4,0.5-9.6c-0.4-5.2,2.1-9.8,3.9-14.4
				C647.6,463.1,649,461.8,651.9,461.5z"/>
			<path fill="#A8D6E2" d="M644.6,491.1c1.3,0.5,2.6,1.3,3.9,1.8c0.5,8.8,0,17.8,7.3,24.8c0.1,0.1-0.8,1.6-1.2,2.5
				c-0.9,0.8-1.3,2.1-2.6,2.5c-7.3-9.2-9.2-20.2-9-31.3C643.4,490.2,644,490.2,644.6,491.1z"/>
			<path fill="#0C313C" d="M651.9,461.5c-1.3,1.6-2.5,3-3.8,4.7c-6.9-2.6-3.8-6-0.1-8.5c5.1-3.5,8.5-8.1,8.3-14.7
				c3.9,0.5,1.3,4.7,3.8,5.9C657.3,453,653.4,456.5,651.9,461.5z"/>
			<path fill="#588992" d="M700.4,433.1c3.9,0.8,8.3-0.9,11.8,2.1c-6.9,4.9-14,3.5-21.5,0.5l0.1-0.8
				C693.6,432.5,697.1,433.6,700.4,433.1z"/>
			<path fill="#04313B" d="M640.8,441.3c0.8-0.8,1.6-1.6,2.1-2.2c2.2,0.4,4.7-2.9,6.8,0c0.4,0.5,0.1,2.1-0.4,2.5
				C646.4,443.5,643.4,443.5,640.8,441.3z"/>
			<path fill="#B6D9E3" d="M651.9,522.7c0.9-0.8,1.7-1.7,2.6-2.5c1.2,3.3,2.2,6.6,3.4,9.8C654.7,528.4,653.4,525.7,651.9,522.7z"/>
			<path fill="#132E4B" d="M690.8,425.6c3.3-2.1,5.1,1.6,7.7,1.8C694.9,431.2,692.8,428.7,690.8,425.6z"/>
			<path fill="#062838" d="M692.8,551c2.6,0.4,5.6-0.8,7.5,1.8C697.4,554.5,694.9,553.6,692.8,551z"/>
			<path fill="#9ECCDC" d="M644.6,491.1c-0.5,0-1.2,0-1.7,0c-0.4-3.5-0.5-7.3,1.3-10.7C644.3,484.1,644.3,487.7,644.6,491.1z"/>
			<path fill="#0C344A" d="M646.7,426c0.8,1.3,1.3,1.8,1.3,2.6c0,0.9-0.5,1.7-1.7,1.2c-0.4-0.1-0.9-0.9-0.9-1.3
				C645.5,427.7,645.9,427,646.7,426z"/>
			<path fill="#336697" d="M395.9,417.9c1.6-14,8.5-24.6,21.1-31.2c2.1,2.6,0,5.2-0.4,7.7c-0.5,21.2-1.7,42.3,0.8,63.3
				c0.4,2.2-0.4,3.3-2.6,2.6c-3.4-0.9-5.6-3-7.3-6c0-1.2-0.8-1.8-1.8-2.1c-5.9-5.9-9.2-12.7-9.6-21.1
				C397.2,426.9,397.5,422.3,395.9,417.9z"/>
			<path fill="#396896" d="M415,392.8c0.5-2.1,1.2-4.2,1.8-6c0.1-0.4,0.4-0.9,0.4-1.6c0.4-0.8,0.9-0.9,1.6-0.4l0.8,0.4
				c-0.1,26.3-0.4,52.5-0.8,78.9c-1.3,0.9-2.6,1.3-3.8-0.5c-0.1-1.2-0.4-2.1-0.5-3.3c0.8-0.8,1.6-1.6,2.5-2.2
				c-3.8-13.7-1.3-27.8-1.8-41.7C414.9,408.8,415,400.7,415,392.8z"/>
			<path fill="#99C2EA" d="M418.8,385c-0.5,0.1-0.9,0.4-1.6,0.4c-3-7.3-4.7-14.7,1.3-21.5C418.7,371.1,418.7,378,418.8,385z"/>
			<path fill="#99C2E8" d="M418.8,473.8c0,5.1,0,10.3-0.1,15.3C413.1,484.1,412.8,478.9,418.8,473.8z"/>
			<path fill="#93BCE7" d="M405.9,387.6c-0.8-1.2-1.8-2.6-2.9-3.9c0.8-0.4,1.8-1.2,2.1-0.9c1.2,0.9,2.2,2.1,3,3.4
				C408.5,386.7,407.6,387.6,405.9,387.6z"/>
			<path fill="#2E5E8D" d="M395.9,417.9c3,4.6,2.9,9,0,13.4C395,426.9,395,422.3,395.9,417.9z"/>
			<path fill="#99C2E8" d="M415,463.7c1.3,0.1,2.5,0.4,3.8,0.5c0,2.6,0,5.1,0,7.7C414,470.8,417.5,465.9,415,463.7z"/>
			<path fill="#346592" d="M405.5,452.4c0.1-1.2,0.1-2.9,1.8-2.1c2.1,1.2,1.8,2.9,0,4.2C406.6,453.9,406,453.1,405.5,452.4z"/>
			<path fill="#0E323D" d="M422.8,364c0-9.6,0-19.1,0.1-28.7c2.9,7.7,5.1-0.5,7.7-0.1c0.9,0.9,2.1,1.2,3,1.8
				c1.8,1.7,3.8,3.3,3.3,6.2c-0.9,1.6-2.2,2.5-3.5,3.4c-2.9,1.7-2.1,4.3-1.8,6.8c0.8,19.1-0.8,38.4,0.8,57.5
				c0.1,1.2,0.4,2.1,0.4,3.3c-1.6,4.9-0.4,10.3-2.1,15.2c-4.6,5.1-1.7,9.8,0.5,14.7c0.4,14.8,1.3,29.9-0.4,44.7
				c-2.2,3.4-4.3,7.3-9.6,4.9c0-7.2,0.1-14.3,0.1-21.5c1.7-3.3,1.2-6.4-0.1-9.4c0-0.8,0-1.3,0-2.1c2.1-16.9,0.5-33.8,0.9-50.8
				c0.1-7.3,0-14.8,0-22.1C422.4,379.6,420.7,371.6,422.8,364z"/>
			<path fill="#2D556A" d="M627.3,350.4c1.2,0,2.2-0.1,3.4-0.1c0.9,0.8,1.3,1.6,1.3,2.6c-0.1,1.2-0.8,2.1-1.7,2.6
				c-4.6,2.2-9.2,1.3-13.9,1.2c-0.9-0.1-1.8-0.5-2.9-1.2c-8.3-11.3-18.6-19.1-33.3-19.5c-10-0.1-19,2.5-26.7,8.6
				c-3.3,2.6-5.9,6-10.3,6.4c-1.7-0.1-2.6-1.3-3-2.9c16.9-27.2,55.4-27.8,76.4-1.2C619.8,351.2,622,354.6,627.3,350.4z"/>
			<path fill="#0E3042" d="M432.3,336.9c-0.5-0.5-1.3-1.3-1.8-1.8c26.1,0,52.3,0,78.5,0c5.5,0,10.7,0,10.3,7.7
				c-0.9,0.8-2.1,1.2-3.3,1.2c-24.2-0.5-48.2,0.4-72.5-0.4C439.3,342,435.7,339.9,432.3,336.9z"/>
			<path fill="#A8D7E8" d="M526.8,382.5c-0.5-3.3,1.8-3.3,3.9-3.5c1.2-0.9,2.5-0.9,3.8-0.4c1.8,4.7,7.9,7.3,6.9,13.5
				c-0.4,0.8-0.9,1.3-1.7,1.6c-1.6,0-2.5,0.1-1.7,2.1c0.5,2.9,0.4,5.6,0.9,8.3c0.4,2.9,0.1,5.6-1.7,7.9c-0.8,0.5-1.8,1.2-2.6,0.8
				c-8.6-4.9-17.7-9.8-24.1-17.8c0.5-4.2,3.5-5.2,7.2-5.5c0.8,0.1,1.6,0.4,2.2,0.8c0.5,0.1,0.8,0.1,0.8,0.1c-1.3,0.4,0-2.1-0.1-0.8
				c0-0.8,0.1-1.3,0.5-1.8C522.1,385,525.5,385,526.8,382.5z"/>
			<path fill="#F2EC6F" d="M523,348.5c4.3,5.2,0.1,9.2-2.1,13.4c-0.1,1.8-1.3,2.9-2.6,3.9c-1.7,1.2-3.3,2.5-5.2,2.9
				c-0.8,0-1.6-0.1-2.2-0.8c-2.9-2.2-2.5,1.2-3.5,1.8c-5.9,1.6-6.8-1.7-5.9-6.4c0.5-3.3,3-5.6,4.2-8.6c2.5-6.9,8.5-7.5,14.7-7.7
				C521.4,347.4,522.3,347.8,523,348.5z"/>
			<path fill="#4A5F4C" d="M523,348.5c-0.5,0-1.2-0.1-1.7-0.1c-1.2-0.1-2.2-0.4-3.4-0.5c-25.2-0.4-50.3,0-75.5-0.1
				c-2.9-0.1-5.6,0.1-8.3-1.2c-0.9-0.5-1.7-1.3-2.1-2.5c1.3-0.4,2.6-0.9,4.2-1.3c1.6-1.3,3.4-0.9,5.2-0.8c22.1,0,44.1,0,66.3,0
				c3.3,0,6.4-0.8,9.4,0.8c0.8,0,1.3,0,2.1,0C523,342.9,523.3,345.5,523,348.5z"/>
			<path fill="#2F5770" d="M534.5,379.3c-1.3-0.1-2.5-0.1-3.8-0.4c0.4-11.1,1.8-21.8,9.6-30.6c0.8,0.8,1.6,1.6,2.2,2.2
				c1.7,8.6-4.3,16.5-2.5,25.2C538.8,378.3,537.7,380.5,534.5,379.3z"/>
			<path fill="#E1E475" d="M520.8,370.2c0,0.5,0.1,1.2,0.4,1.6c1.6,3.4,0.4,6.9,0.8,10.3c0.1,0.9,0,2.1-0.1,3
				c-2.1,2.6-4.9,3.4-8.1,3c-2.5-1.2-3.8-3-3.5-5.6c0.1-1.3,0.9-2.5,2.1-3.4c0.5-0.5,1.3-0.9,2.1-1.6c3.3-2.5-2.5-6.8,1.8-8.8
				C518,368.1,519.7,368.2,520.8,370.2z"/>
			<path fill="#132D53" d="M517.5,364c1.2-0.8,2.2-1.3,3.4-2.1c3.9,1.8,4.2,3.8,0.1,5.9c-1.6,1.2-3,1.2-4.2-0.4
				C516.2,366.2,516.5,365.1,517.5,364z"/>
			<path fill="#2F443B" d="M517.5,364c0,2.5,1.3,3.5,3.5,3.8c0,0.8-0.1,1.6-0.1,2.2c-1.7-0.4-3.4-0.8-5.1-1.3
				c-0.9,0-1.7-0.4-1.8-1.3C514.2,365.6,515.8,364.7,517.5,364z"/>
			<path fill="#152830" d="M521,383.5c0.1-3.9,0.1-7.9,0.4-11.8c3,3.4,1.3,7.3,1.7,11.1C522.7,383.7,521.9,383.8,521,383.5z"/>
			<path fill="#EAFEFE" d="M521,383.5c0.8-0.1,1.3-0.5,2.1-0.8c1.3,0,2.5-0.1,3.8-0.1c-0.8,3-3,4.7-5.6,6c-1.2-1.3-1.2-2.5,0-3.8
				C521.2,384.4,521.2,383.8,521,383.5z"/>
			<path fill="#12304E" d="M528.5,337.4c-1.7,1.6-3.4,1.6-5.2,0.5C524.7,335.7,526.8,337.7,528.5,337.4z"/>
			<path fill="#0F3142" d="M700.5,417.9c-2.5-5.9,2.5-6.2,5.9-7.7c4.3-0.5,1.8-6,5.6-7.7c-0.1,5.5,2.6,11.7-6.8,12
				c-1.8,0,0.9,2.1,1.2,3.4C704.3,417.9,702.5,417.9,700.5,417.9z"/>
			<path fill="#2A5776" d="M737,427.7c-5.2,5.9-11.3-0.8-16.8,1.7c3.9-2.9,8.3-3.9,12.7-3.8C734.3,426.4,735.6,427,737,427.7z"/>
			<path fill="#0D2F4E" d="M706.2,408.3c-0.5,0-1.3,0-1.8,0c-1.2-1.2-1.7-2.5-1.8-4.2c0.9-3.4,1.3-6.9,3.8-9.6c0.5,0,1.2,0,1.7,0.1
				C708.8,399.4,707.5,403.7,706.2,408.3z"/>
			<path fill="#0E3041" d="M775.6,485.6c-2.6-3-1.6-6.6-1.8-10C776.8,478.5,775.3,482.3,775.6,485.6z"/>
			<path fill="#33586E" d="M698.7,342.5c1.7,3,4.6,5.6,3.8,9.6c-0.8,0.8-1.6,1.3-2.6,1.6c-6.8-1.6-14.3,1.7-20.3-3.8
				c-0.9-1.3-0.9-2.6,0-3.9c1.3-1.3,2.9-2.1,4.6-2.9c1.6-0.8,3-1.6,4.6-2.2c1.6-0.8,3-1.3,4.9-1.3
				C695.4,339.9,697.1,341.2,698.7,342.5L698.7,342.5z"/>
			<path fill="#153A4F" d="M704.3,352.5c6.9,1.7,10,6.8,11.4,13.1c-0.8,1.8-2.2,2.9-4.3,2.9c-5.1-2.6-5.5-8.1-8.3-12.2
				C703,354.7,703.1,353.4,704.3,352.5z"/>
			<path fill="#122830" d="M706.4,394.5c0,3.4-0.1,6.8-2.1,9.8c-3.3,1.3-5.2,0-6.2-3.3c0.5-2.2,3.3-1.2,4.3-2.6
				c0.1-1.8,0.4-3.8,0.5-5.6C704.1,393.5,705.2,394,706.4,394.5z"/>
			<path fill="#27546A" d="M711.9,367.9c1.3-0.8,2.5-1.6,3.8-2.1l0.4,0.5c-0.4,3.5-1.8,6.8-4.2,9.6c-1.8,1.2-3.8,2.2-5.6,3.5
				c-1.2-0.5-2.5-1.2-2.9-2.5c0-0.9,0.1-1.7,0.8-2.5C706.7,372.1,708.4,369,711.9,367.9z"/>
			<path fill="#3B6979" d="M700.5,379.3c-0.9,5.1-4.7,3.5-7.9,3.5c-0.8-0.9-1.3-2.1-1.3-3.4c0.1-0.9,0.4-1.7,0.9-2.2
				s1.3-0.9,2.2-1.2c0.8,0,1.7,0,2.5,0.1C698.3,376.7,699.7,377.6,700.5,379.3z"/>
			<path fill="#B8D372" d="M681,385c-3.9-0.5-8.3,1.8-11.7-1.8c0.5-2.1,2.1-3,3.9-3.8c1.8-0.5,3.8-0.4,5.6,0.4
				c1.3,0.8,2.1,1.8,2.2,3.4C681,383.8,681,384.4,681,385z"/>
			<path fill="#66AEBF" d="M681.1,383.3c-0.5-0.5-1.2-1.2-1.7-1.7c0.4-0.8,1.2-1.6,1.8-1.8c0.8-0.4,1.7-0.8,2.5-0.9
				c3-0.4,6-1.8,8.8,0.5c0,1.2-0.1,2.5-0.1,3.5C688.7,383.1,684.9,383.1,681.1,383.3z"/>
			<path fill="#4C6349" d="M704.3,352.5c0.1,1.3,0.4,2.9,0.5,4.2c0.9,2.2,1.7,4.3,0.4,6.8c-5.6,2.2-4.9-3.5-7.2-5.6
				c-0.4-0.8-0.5-1.7-0.4-2.6c0.4-1.6,1.6-2.1,2.9-2.6c0.8,0,1.3-0.1,2.1-0.1C703,352.3,703.8,352.3,704.3,352.5z"/>
			<path fill="#4D8CA4" d="M711.9,375.8c0.4-3.8,2.1-6.8,4.2-9.6C718.2,370.8,716.4,373.8,711.9,375.8z"/>
			<path fill="#3B6979" d="M692.8,392.6c-2.9-1.2-1.8-5.9-5.6-6C694.1,383.7,692.3,389.2,692.8,392.6z"/>
			<path fill="#39708C" d="M700.5,379.3c-1.7,0-3-0.5-3.9-2.1c2.6-2.5,5.2-1.8,7.9,0c0.5,0.5,1.3,1.3,1.8,1.8
				C704.3,380.5,702.5,380.5,700.5,379.3z"/>
			<path fill="#D2C52A" d="M700.5,391.4c-1.7,5.1-4.7,4.2-7.9,1.7C695.4,393.1,698.3,393.2,700.5,391.4z"/>
			<path fill="#FCEE70" d="M631.2,352.1c0-0.5-0.4-1.3-0.8-1.7c1.6-1.8,2.9-3.8,4.3-5.6c13.5-3.4,27.4-1.8,41.1-1.3
				c1.2,5.9-0.1,7.3-6.8,7.9c-6.6,0.7-12.7-3.4-18.7-1.7c2.6,1.6,7.7-3.4,9.8,3c-1.3,1.3-2.9,1.8-4.6,2.2
				C647.6,354.2,638.9,357.7,631.2,352.1z"/>
			<path fill="#4A5F4B" d="M677.2,345c-14-0.1-28.2-0.1-42.3-0.4c1.3-2.5,3.8-1.7,5.9-2.1c11.3-1.8,22.5-0.4,33.7-0.8
				c3.4,1.3,8.3-3.3,10.7,2.6c-0.8,1.6-2.1,2.2-3.5,2.2C680.2,345.5,678.4,346.3,677.2,345z"/>
			<path fill="#123641" d="M692.8,340.8c-1.3,0.5-2.6,1.3-3.8,1.8c-2.9-0.1-5.9,0.4-5.9-3.9c5.1-6.8,10.3-5.1,15.3,0
				C697,340.7,694.9,340.8,692.8,340.8z"/>
			<path fill="#032B35" d="M675.4,342.4c-11.4,0-23.1,0-34.6,0.1c11.4-3.9,23.1-0.8,34.6-1.8c0.8,0.4,0.9,0.8,0.8,1.2
				C675.9,342.4,675.5,342.4,675.4,342.4z"/>
			<path fill="#082C49" d="M675.4,342.4c0-0.5,0-1.2,0-1.7c2.9,0.1,5.2-0.5,7.7-1.8c1.8,1.3,3.9,2.6,5.9,3.9
				c-1.3,0.5-2.6,1.2-3.9,1.6C682.3,341.7,678.5,343.2,675.4,342.4z"/>
			<path fill="#345A77" d="M692.8,340.8c1.3-2.1,3.5-1.8,5.9-2.1c0,1.3,0,2.6,0,3.8C696.3,342.8,694.4,342.9,692.8,340.8z"/>
			<path fill="#2E5F8E" d="M363,510.5c0.4-3.8,1.2-7.3,5.9-7.9c3.4,0.1,6.9-0.1,9.4,2.6c0.8,4.9-0.5,9-5.5,10.9
				C367.6,518,365.5,513.5,363,510.5z"/>
			<path fill="#0E3142" d="M420.9,493.2c2.6-1.3,5.1-2.6,7.7-3.8c4.3,3.5,1.8,9,3.4,13.4c0.1,0.9,0.4,1.8,0.4,2.9c0,0.4,0,0.9,0,1.3
				c0,0.5,0,1.2,0,1.7c2.1,2.6,5.6-0.5,7.7,1.8c0,0.5,0,1.3,0,1.8c3.4,1.8,6.9,0.9,10.3,0.9c49.5,0,99.3,0,149,0
				c3.4,0,7.2-0.9,10.3,0.9c0,0.5,0,1.3,0,1.8c-61.8,0-123.4,0-185.1,0c-2.5-4.9,0.1-10.3-1.2-14.8c-0.5,1.6,2.2,5.1-2.6,5.2
				C420.9,502.1,420.9,497.6,420.9,493.2z"/>
			<path fill="#0E323D" d="M420.9,506.7c3-2.5,1.2-6,3-9c-0.5,6.2,5.5,12,0.8,18.6c-1.3,0-2.5,0-3.8,0
				C420.9,513.1,420.9,509.8,420.9,506.7z"/>
			<path fill="#93BEE5" d="M355.3,508.5c0.5-1.3-1.3-4.2,1.8-3.5c1.3,0.1,4.6,0.4,3.5,3.3C359.5,511.8,357,508.9,355.3,508.5
				L355.3,508.5z"/>
			<path fill="#082D3F" d="M422.8,387.1c0,21.1,0,42.3,0,63.3c0,3.4,1.2,7.2-1.8,10c0-24.4,0-48.9,0.1-73.2
				C421.6,386.1,422.2,386.1,422.8,387.1z"/>
			<path fill="#062839" d="M422.8,387.1c-0.5,0-1.2,0-1.7,0c0-0.8-0.1-1.3-0.1-2.1c0.1-6.9,0.1-14,0.4-21.1c0.5,0,1.2,0,1.7,0
				C422.8,371.6,422.8,379.3,422.8,387.1z"/>
			<path fill="#06283B" d="M420.9,462.4c1.7,3.3,5.1,6.2,0.1,9.4C421.1,468.6,420.9,465.4,420.9,462.4z"/>
			<path fill="#A7DAE8" d="M599.1,552.3c2.5,0.5,3,2.1,3.5,3.5c1.2,3,4.9,5.9,1.7,9.4c-0.5,0.8-2.6,0.9-3.5,0.4
				c-3.8-2.1-3-5.9-3.3-9.2C597.7,555.2,598.6,553.8,599.1,552.3z"/>
			<path fill="#A7DAE8" d="M531.9,557.1c0.8,2.9,1.8,5.6-1.3,8.5C529,562.2,531,559.9,531.9,557.1z"/>
			<path fill="#8FC3D5" d="M546.7,478.9c-2.6-0.9-5.2-1.8-8.1-2.6c-3.8-1.2-7.7,1.2-6.4,4.3c3.9,10-3.3,11.7-9.2,14.7
				c-0.9,1.7-2.6,1.7-4.3,1.7c-2.6-0.1-4.6-1.2-4.3-4.2c-0.9-4.3-2.6-6.8-7.2-3.4c-0.5,0.8-1.3,1.6-1.8,2.2
				c-0.5,0.5-1.2,0.8-1.8,0.8c-1.2-0.1-1.8,0.4-2.6,1.2c-0.8,0.8-1.2,1.6-1.2,2.6c0.4,1.6,1.2,3-0.8,3.9c-1.7,0.1-3.4,0-5.1,0.1
				c-4.9,0.4-9.4-0.1-12.2-4.9c-1.6-2.9-4.3-3.4-7.2-3.5c-1.3-0.1-2.6-0.5-3.8-1.6c6-10.3-6.4-13.4-7.5-19.9
				c1.3,1.7,1.3,3.5-1.8,4.9c-5.1-1.3-10.3-0.8-15.6-1.7c-1.3-0.5-2.5-1.6-3.4-2.6c-1.7-2.6-2.6-5.2-1.7-8.3
				c1.3-2.9,3.9-4.3,6.6-5.6c2.6-1.2,5.5-1.8,8.3-2.2c3.5-0.1,6.4,1.2,8.6,3.9c3.3,3.8,5.9,8.3,11.3,9.8c1.6,0.8,3,1.7,4.3,2.9
				c3,3.3,7.2,4.2,11.1,5.1c8.3,1.8,16.1,1.8,23.7-2.6c0.8-0.5,1.6-0.9,2.2-1.3c4.3-1.8,8.3-4.3,11.3-8.1c0.5-0.5,1.2-1.3,1.7-1.8
				c2.6-2.1,4.7-4.7,5.2-8.1c1.3-3.5,3.8-6.8,4.2-10.7c1.3-3.3,3.8-5.9,5.1-8.8c0.9-1.6,2.5-2.5,3.9-3.3c2.1-0.8,4.2-1.6,6.4-0.9
				c0.8,0.1,1.6,0.8,2.2,1.2c1.3,1.6,2.9,2.9,4.7,3.9c-0.1,4.7,1.3,9.4-2.1,13.5c-1.6-1.3-0.9-3.3-0.9-4.9c-0.1,2.1-0.8,3.5-3,3.8
				c1.3,0,2.9-0.1,3.9,1.2c-0.9,2.2-3,1.8-4.9,1.8c-7.5,0.4-7.7,4.6-4.2,9.2c3,3.9,4.6,7.5,1.2,11.7
				C551,474.7,549.2,476.8,546.7,478.9z"/>
			<path fill="#113240" d="M629.8,398.9c1.2,3.3,6.4,3.4,5.9,7.7c-1.6,1.7-3,3.4-5.2,3.9c-3.5,0.5-6,2.5-6.9,6
				c-0.4,2.1-0.1,4.2-1.3,6c-0.4,0.1-0.8,0.5-1.2,0.8c-5.9,1.8-13.7-2.2-17.3,6c1.8,2.2,0.9,3.9-1.2,5.2c-2.2,1.3-4.7,1.6-6.4-1.2
				c-2.6,0-5.1,0-7.7,0c-2.9,0.5-3.9,3.5-6.6,4.3c-4.2,1.2-5.6-1.8-7.2-4.7c-4.3,1.6-8.5-2.9-12.7-0.5c-2.5,0.5-4.6,0.5-6-1.7h-0.1
				c-1.2-0.8-1.7-1.8-1.8-3.3c0-0.9,0-1.7,0.1-2.6c0.5-2.1,1.3-4.2,2.6-6c0.5-0.8,1.3-1.2,2.1-1.7c1.7-0.8,3.5-1.2,5.5-0.5
				c21.1,8.8,39.8-1.3,51.5-16.4c1.8-2.5,3-5.9,6.2-7.2c0.9-0.1,1.8-0.1,2.9-0.1C627.7,394.4,629,396.5,629.8,398.9z"/>
			<path fill="#F6ED70" d="M441.9,462.4c0.8,2.5,1.3,5.1,2.1,7.5c-0.1,1.6,0.8,1.8,1.8,1.8c5.1,0.1,11.1-5.1,15.2,2.1
				c1.6,1.8,0.5,3.8,0,5.6c-0.8,1.8-0.8,3.5,0.1,5.5c0.5,1.6,1.2,3.3,0.4,4.7c-3.9,2.9-7.9,5.2-12.2,7.2c-5.2,2.1-9.4,6.8-15.1,8.1
				c-3.9-3.8-3.3-8.1-1.7-12.6c3-1.2,3.3-2.9,3-7.3c-0.4-8.5-1.6-17,0.9-25.5c0.5-0.9,1.3-1.6,2.5-1.7
				C441.8,458.2,441.9,460.3,441.9,462.4z"/>
			<path fill="#F9D922" d="M449.6,496.9c3-4.3,7.5-6.4,12.2-8.1c2.2-1.3,3.8-0.1,5.2,1.3c0.5,0.5,1.2,1.2,1.6,1.8
				c0.8,0.9,1.3,1.8,1.8,3c0.8,1.3,1.3,2.9,1.3,4.3c-0.1,1.7-1.7,2.5-2.9,3.4c-6.2,5.2-7.3-5.5-12.4-3.8c-1.2,2.6,3,2.9,2.9,4.9
				C451.5,508,452.3,499.9,449.6,496.9z"/>
			<path fill="#F8D626" d="M469,495c-0.8-0.5-1.3-0.9-2.1-1.6c1.3-3.5,6-1.3,7.9-4.3c4.7-3.9,8.8-2.2,9.4,3c0.8,6.9,4.3,7.3,9.6,6.8
				c0.8,0.1,1.2,0.5,1.2,1.6c-8.8-1.6-16.8,5.6-25.7,2.2c0.5-1.3,1.3-2.6,1.8-3.8C471.2,497.1,470.1,496.2,469,495z"/>
			<path fill="#F6FA76" d="M434.4,491.2c0,4.6,0,9.2,0,13.7c0,0.5,0,0.9,0,1.6c-0.8,0.1-1.3,0.1-2.1,0.4l0.1-0.4
				c-1.3-1.8-2.1-3.9-1.8-6.4c0.4-18.7-1.3-37.6,0.9-56.3c2.9-2.6,3.8,0,4.7,1.8c1.6,3.3,0.9,6.8,0.8,10.1c-0.1,1.2-0.4,2.5-0.5,3.5
				C435.2,469.9,438.4,480.7,434.4,491.2z"/>
			<path fill="#EED22E" d="M596.4,433.6c4.3,1.8,7.5,1.7,7.7-4.2c1.3,2.9,6.2,6,0.9,8.6C602.4,439.5,596.1,440.8,596.4,433.6z"/>
			<path fill="#FCD526" d="M555.2,484.9c0.8-3.8-0.5-7.3,3-9.6c1.2-0.8,2.5,0.4,2.9,1.7C561.9,481.3,559.4,483.4,555.2,484.9z"/>
			<path fill="#FAD52C" d="M633.3,445.6c-0.1-0.1-0.5-0.4-0.8-0.5c-1.8-2.5-6.6-1.2-6.8-5.5c0-1.8,1.7-2.5,3.4-2.2
				C634.5,438.3,632.4,442.6,633.3,445.6L633.3,445.6z"/>
			<path fill="#F5D819" d="M631.1,421.8c0,1.3,0,2.6,0,3.9c-2.2,1.8-5.2,0.8-7.7,1.8c-0.8-1.3-1.6-2.6-2.2-4.2l0,0
				c1.7-2.5,2.6-5.9,6.8-4.2c0.9,0.1,1.7,0.8,2.5,1.3C630.4,421,630.8,421.4,631.1,421.8z"/>
			<path fill="#F3D727" d="M546.7,478.9c0-3.5,3.3-4.9,5.1-7.3C553.9,476.7,552,478.9,546.7,478.9z"/>
			<path fill="#95C7BF" d="M507.7,489.1c0.4-2.5,1.7-4.2,4.3-3.3c3,1.2,4.2,3.5,2.9,6.8C513.4,489,510.7,489,507.7,489.1z"/>
			<path fill="#8AC0D9" d="M556.1,431.2c2.1,0.5,4.2,1.2,6,1.7c-0.1,0.8-0.1,1.6-0.4,2.2C557.2,437.5,555.4,436.2,556.1,431.2z"/>
			<path fill="#F6D427" d="M623.4,427.7c2.1-2.6,5.1-1.7,7.7-1.8c0,0.5,0,1.3,0,1.8C628.5,428.3,626,434.4,623.4,427.7z"/>
			<path fill="#F1D61A" d="M582.6,437.1c0.5-3.5,2.9-4.3,6-3.5c-1.6,2.5-2.2,5.5-6,5.2c-0.5-0.4-0.8-0.8-0.5-1.2
				C582.2,437.4,582.5,437.1,582.6,437.1z"/>
			<path fill="#F4D625" d="M519.1,496.7c0.8-2.1,2.6-1.3,4.3-1.7c0.9,0.9,1.6,2.1,0.1,3C521.7,499.3,520.2,498.4,519.1,496.7z"/>
			<path fill="#25403F" d="M582.6,437.1c0.1,0.5,0.1,1.2,0,1.8c-4.6,0.8-7.5-0.5-7.7-5.6C577.4,434.9,579.1,437.9,582.6,437.1z"/>
			<path fill="#94C3D1" d="M494.7,500.5c-0.4-0.5-0.8-0.9-1.2-1.6c2.1-0.1,4.3-0.4,6.4-0.4c1.2-1.8,2.2-3,4.3-1.3
				c0.4,1.6,0.1,2.9-1.6,3.4C500.2,500.7,497.6,500.5,494.7,500.5z"/>
			<path fill="#F3D92B" d="M616.3,494.6c2.1,3.3,0.9,5.6,0.9,9C615,500.3,615.6,498,616.3,494.6z"/>
			<path fill="#F9D529" d="M513.8,502.5c-0.4-0.4-0.9-0.9-1.6-1.7c0.5-0.4,1.3-0.9,1.8-1.2c0.4,0,1.2,0.5,1.3,1.2
				C516.2,502.1,515.1,502.4,513.8,502.5z"/>
			<path fill="#FCDA13" d="M557.8,456.4c-0.5-0.1-1.3-0.1-1.6-0.4c-0.4-1.3,0-2.5,1.3-2.9c0.5-0.1,1.6,0.1,2.2,0.4
				C559.1,454.7,558.4,455.6,557.8,456.4z"/>
			<path fill="#F4D625" d="M503,500.7c0.4-1.3,0.5-2.5,0.9-3.8c-1.6-1.8-1.7-3.8,0.4-5.5c0.5-0.1,1.2-0.1,1.7-0.1
				C505.2,494.6,507.3,498.6,503,500.7z"/>
			<path fill="#FCFCFB" d="M744.8,516.2c4.7-6.4,2.5-14.4,5.6-21.2c0.4-3-2.6-3.8-3.8-5.9c-7.7-1.2-15.7,2.2-23.1-1.8
				c0.4-2.6,0.4-2.6-4.3-1.2c-3.3,0.8-6.2,1.7-9.4,2.1c-1.3-0.1-2.6-0.9-3.8-1.7c-9.8-6.2-3.8-16-5.6-22.8
				c-1.2,5.9,2.2,13.1-2.1,19.9c-2.1,2.1-4.7,3-7.2,4.6c-0.9,0.1-1.8,0.1-2.9,0c-4.3-2.2-2.9-5.9-2.2-9.2c0.9-5.1,2.6-10.1,1.7-15.2
				c-1.8-9.6,1.3-16.1,9.6-20.7c2.5-1.7,3.4-5.1,6.8-5.9c6-0.5,12-0.1,17.8,1.6c23.3,9.2,36.8,29.5,36,54.2c-1.7,3,0.5,6.6-1.7,9.4
				c-0.4,6.9-2.9,13-7.5,18.1C746.5,520.2,744.3,519.7,744.8,516.2z"/>
			<path fill="#FAFBFB" d="M744.8,516.2c1.3,1.6,2.6,2.9,4.2,4.3c-5.6,16.9-19.4,22.9-35,26.9c6.2-4.7,3.5-7.9-2.9-11.1
				C726.5,534.9,730.8,518,744.8,516.2z"/>
			<path fill="#A6D9EA" d="M722,438.8c-6.4,0-13,0.1-19.4,0.1c-1.7,0.9-3.8,0-5.2,1.3c-1.8,0.4-3.4,0-4.7-1.6
				c-0.5-1.2-1.3-2.2-1.8-3.4c7.2-0.1,14.3-0.4,21.5-0.5C715.3,436.5,719.1,436.2,722,438.8z"/>
			<path fill="#F1F4F3" d="M756.3,502.5c0.1-3.3-0.9-6.6,1.7-9.4C758.2,496.3,759.1,499.7,756.3,502.5z"/>
			<path fill="#FDFDFD" d="M692.7,439.1c1.8,0,3.8,0.1,5.6,0.1c1.8,1.3,1.7,3,0.5,4.9c-12.2,5.9-7.5,16.9-8.1,26.5
				c-0.4,5.6-4.7,10.9-1.8,16.8c3.2,4.7,1.3,9.2-0.5,13.7c-1.8,3.5-5.6,6-7.3,9.8c-0.8,1.7-0.5,3.8-1.8,5.5
				c-0.5,0.5-1.3,1.3-1.8,1.8c-1.8,0.9-3.9,0.9-5.9,1.8c0,0.5,0,1.3,0,1.8c-1.6,0-3.5,6-4.6-0.1c-0.4-2.6,0.9-5.5,1.7-10
				c-4.3,3.9-6.8,4.2-9.4-0.1c-1.2-1.8,0.4-9.6-6.6-5.2c-0.1,0.1-0.9-3,0-4.2c4.3-5.6,3.4-12,3-18.6c-3,2.1-0.4,7.5-5.5,7.5
				c0-7.9-0.8-16.1,7.5-21.2c2.2-3.4,2.6-7.5,4.2-11.3C670.9,450.1,681.4,443.9,692.7,439.1z"/>
			<path fill="#183962" d="M708.2,497.3c-2.6,4.3-6.8,5.9-11.7,5.5c-2.1,1.3-3.5,3.5-6.6,2.1c-1.6-0.9-2.5-2.2-2.1-4.3
				c0.9-2.9,0.9-6,3.4-8.1c1.3-0.4,2.5,0,3.5,0.4c1.2,0.4,2.2,0.9,3.4,0.9c2.5,0.1,4.9-0.5,7.3-0.4
				C707.5,494.2,709.3,494.9,708.2,497.3z"/>
			<path fill="#193956" d="M688.7,500.3c0.8,1.6,1.6,3,2.2,4.6c0.5,0.5,0.8,0.9,0.4,1.3c-0.1,0.1-0.5,0.4-0.8,0.4
				c-0.5,0.5-1.2,1.2-1.7,1.7c-2.1,4.9-4.7,7.9-9.6,2.6c-0.1-5.6,4.9-7.3,7.7-10.5C687.6,499.7,688.2,499.7,688.7,500.3z"/>
			<path fill="#F7F8F7" d="M679.2,511c4.6,3.8,6.6-1.2,9.6-2.6c1.6,8.3-3.9,8.1-9.6,8.1C678.4,514.5,677.8,512.7,679.2,511z"/>
			<path fill="#F1F4F3" d="M746.8,489.1c2.6,0.4,6-1.3,7.2,2.5c0.8,2.2-1.3,3-3.4,3.5C748.5,493.7,741.5,495.6,746.8,489.1z"/>
			<path fill="#F2CA35" d="M719.5,484.9c3.3-0.9,6.4-2.1,10.3-3.3c-0.4,5.2-5.2,3.3-6.2,5.6c-1.3,0-2.6,0-3.9,0
				C718.6,486.5,718.6,485.8,719.5,484.9z"/>
			<path fill="#F4CD47" d="M719.5,484.9c0,0.8,0.1,1.7,0.1,2.5c-2.6,1.3-5.1,2.5-7.7,3.8c-0.4,0.1-0.5,0.5-0.9,0.8
				c-0.9-0.1-1.6-0.8-1.8-1.6c-0.1-1.3,0-2.5,1.3-3.4C713.5,486.4,716.5,485.6,719.5,484.9z"/>
			<path fill="#F7F8F7" d="M690.6,506.4c0.1-0.5,0.1-1.2,0.4-1.7c2.2,0,2.9-4.3,5.6-2.1C696.2,506.8,694.5,508.5,690.6,506.4z"/>
			<path fill="#2F3F5D" d="M708.2,497.3c-0.8-1.6-2.1-2.1-3.8-2.2c-1.3-3.3,0.5-4.2,3-4.9c0.9,0,1.8,0.4,2.6,0.9h0.5
				c0.1,2.1,1.2,4.2-0.9,5.9C709.3,496.9,708.8,497.1,708.2,497.3z"/>
			<path fill="#EDF1F0" d="M710,496.9c0.4-1.8,0.5-3.8,0.9-5.9c0.4,0,0.8,0,1.3,0C711.3,492.9,718.1,497.6,710,496.9z"/>
			<path fill="#F7F8F7" d="M671.6,520.2c1.2-3,3.3-3.4,5.9-1.8C676.1,521.1,674.2,521.5,671.6,520.2z"/>
			<path fill="#F7D622" d="M673.5,381c-1.6,0.8-2.9,1.3-4.3,2.1c-2.1,0.1-4.2,0-5.5,1.8c-3.4,0.4-6.6,0.8-10,0
				c-1.8,0.5-3.8,1.3-5.6,1.8c-2.6-0.9-5.9,0.9-8.1-1.6c-0.8-1.3-0.9-2.6-0.4-4.2c6.2-8.3,16.4-10.9,24.1-17.3
				c4.6-1.6,8.6-4.9,13.9-2.9c1.6,1.6,1.8,3.4,1.8,5.2c0,2.2-0.9,4.6-1.3,6.8c-0.1,1.3-0.5,2.6-1.2,3.8
				C676.3,378.9,674.8,379.9,673.5,381z"/>
			<path fill="#13353B" d="M640.8,381.4c0.1,1.3,0.4,2.5,0.5,3.8c-0.5,1.2-1.6,1.8-2.9,1.8c-0.5,0-1.2,0-1.7,0.1
				c-1.7,0.9-3.4,1.7-5.5,1.2c-3.8-1.8-4.6-5.1-3.3-8.8c0.9-2.9,2.1-5.2,1.8-8.6c0-5.2,3.4-8.1,8.5-3
				C639.9,372.4,640.3,377,640.8,381.4z"/>
			<path fill="#F6D427" d="M629.1,409.1c2.1-0.8,4.3-1.7,6.4-2.5c1.2,5.9-1.7,10.5-4.6,15.1l0,0
				C627.8,417.9,625.1,414.1,629.1,409.1z"/>
			<path fill="#519BB3" d="M631.1,386.8c2.1,0.1,3.9,0.4,6,0.4c-1.2,1.3-2.2,2.6-3.3,3.9c-2.9,2.1-6,2.5-9.2,1.6
				c-2.2-0.1-4.2-1.2-5.2-3.3c-0.4-1.2-0.4-2.1,0.1-3c1.7-1.6,3.8-2.1,5.9-1.8C627.3,384.8,629.1,385.9,631.1,386.8z"/>
			<path fill="#162D3A" d="M623.4,390.9c3.4,0.1,6.9,0.1,10.3,0.4c-0.1,2.2,0,4.7-2.5,6c-0.9-3.4-4.6-0.4-6-2.5c-0.8,0-1.6,0-2.2,0
				C622,393.5,622.2,392.2,623.4,390.9z"/>
			<path fill="#9FCE8F" d="M638.6,387.1c0.9-0.5,1.8-1.3,2.9-1.8c2.5,0.1,5.2-0.9,6.9,1.8C645.1,388.9,641.7,390.2,638.6,387.1z"/>
			<path fill="#B8D27F" d="M654,385.1c3.4-2.5,6.6-1.8,10,0C660.6,387.6,657.3,388,654,385.1z"/>
			<path fill="#D2C52A" d="M702.5,398.5c-0.5,2.1-2.5,1.3-3.8,2.1c-1.8,2.2-4.3,2.5-6.9,1.8c-0.9-0.4-1.8-0.9-2.6-1.6
				C692.8,396.5,697.9,399.3,702.5,398.5z"/>
			<path fill="#173342" d="M689.1,401c0.5-0.1,1.2-0.1,1.7,0c2.9,3.8,0.9,7.3,0,11.1c0,0.8,0,1.3,0,2.1c-0.5,0.9-1.2,0.9-1.7,0.1
				l-0.5-0.5C688.7,409.5,688.9,405.3,689.1,401z"/>
			<path fill="#F7D331" d="M689.5,395.7c-3.8-0.5-5.9-0.9-7.9-1.2C683.9,393.1,685.9,392.3,689.5,395.7z"/>
			<path fill="#143641" d="M625.2,394.8c2.2,0,5.6-2.5,6,2.5c-0.5,0.5-1.2,1.2-1.7,1.7C627.7,398.1,626.1,396.8,625.2,394.8z"/>
			<path fill="#FED533" d="M680.5,389.8c-1.7,0.4-2.5,0.8-3,0.5c-0.8-0.1-1.7-0.8-2.1-1.6c-0.5-1.2,0.4-1.6,1.3-1.3
				C677.6,388.1,678.5,388.9,680.5,389.8z"/>
			<path fill="#002D42" d="M440.1,510.5c-2.2-1.8-6.6,4.3-7.7-1.8c61.2,0,122.5,0,183.4,0c0,0.5,0,1.3,0,1.8
				C557.4,510.5,498.9,510.5,440.1,510.5z"/>
			<path fill="#142A42" d="M609.9,514.4c-52.9,0-105.7,0-158.7,0c-3.8,0-7.7,1.3-11.1-1.8c52.9,0,105.7,0,158.7,0
				C602.5,512.5,606.6,511.1,609.9,514.4z"/>
			<path fill="#0F3142" d="M690.8,412.1c0-3.8,0-7.3,0-11.1c2.5-1.2,5.1-0.8,7.7-0.4c1.8,1.3,3.8,2.5,5.9,3.8c0,1.3,0,2.6,0,3.9
				C699.5,408,693.4,404.1,690.8,412.1z"/>
			<path fill="#11314A" d="M689.1,414.3c0.5,0,1.2-0.1,1.7-0.1c0.9,2.1,4.6-1.2,4.3,1.7c-0.1,2.1-2.6,3.9-4.9,3.5
				C686.2,418.8,689.5,416,689.1,414.3z"/>
			<path fill="#F2F8F9" d="M661.9,458.6c1.2,4.7,1.2,9-4.2,11.3c-0.1-1.2-0.1-2.1-0.4-3.3C658.5,463.8,659.2,460.7,661.9,458.6z"/>
			<path fill="#32669C" d="M415,392.8c3,2.9,1.8,6.6,1.8,10c0.1,18.6,0,37.1,0,55.6c-2.9-3.4-3.8-7.3-3.8-11.4c0-16,0-32,0-47.8
				C413.2,396.6,413.2,394.5,415,392.8z"/>
			<path fill="#687A4F" d="M432.7,443c0,21.2-0.1,42.3-0.1,63.4c-0.8-0.5-1.6-1.3-2.2-1.8c-0.4-30-2.5-60.3,0-90.4
				c0-0.8,0-1.6,0-2.2c-1.6-17.7-0.1-35.4-0.8-52.8c-0.1-3.4,0.9-7.2-0.9-10.3c-2.5-4.3,2.1-3.4,3.5-4.9c0.1,0.4,0.4,0.8,0.4,0.9
				c1.8,1.8,2.5,4.2,2.6,6.8c0,28.9,0.4,57.6-0.1,86.6C434.8,440,434,441.7,432.7,443z"/>
			<path fill="#012540" d="M430.2,414.3c0,30,0,60.3,0,90.4c-3.4-4.7-0.9-10.1-1.7-15.2c0-16.1,0-32.1,0-48.2
				c-2.6-3.9-2.6-7.7,0-11.7C429.2,424.4,426.8,418.9,430.2,414.3z"/>
			<path fill="#062041" d="M428.5,348.7c2.9,1.7,1.8,4.6,1.8,6.9c0,18.7-0.1,37.6-0.1,56.3c-3.5-6.6-1.3-13.7-1.6-20.4
				C428.3,377.2,428.5,363,428.5,348.7z"/>
			<path fill="#122F40" d="M428.5,429.5c0,3.9,0,7.7,0,11.7C422.6,437.1,422.6,433.2,428.5,429.5z"/>
			<path fill="#0D3040" d="M440.2,342.5c-1.3,0-2.6,0-3.9,0c-1.3-1.8-3.9-2.9-3.8-5.6c2.1,2.2,7.3-1.8,7.7,3.8
				c0.8,0.4,0.9,0.8,0.8,1.2C440.6,342.4,440.5,342.5,440.2,342.5z"/>
			<path fill="#122C44" d="M425.8,447.9c1.2,3.9,1.6,6.2-0.1,8.6C424.2,453.9,424.5,451.7,425.8,447.9z"/>
			<path fill="#0D303E" d="M538.5,375.4c-5.1-9.2,1.6-16.8,3.9-24.8c11.1-10.9,23.1-19,39.7-17.7c14,1.2,27.6,9.6,31.3,21.1
				c-2.6,3.8-6.4,3-10,2.5c-6-2.9-10.7-7.7-17.7-9.2c-7.2-1.7-13.7-1.3-19.9,2.6c-0.9,0.9-2.1,1.7-3.3,2.5c-3.5,1.6-6.6,3.5-7.9,7.5
				c-2.1,3-4.6,5.9-4.3,9.8c-0.5,3.5-2.9,5.2-5.9,6.4C542.4,376.6,540.3,377.5,538.5,375.4z"/>
			<path fill="#A4DEA7" d="M631.2,352.1c8.3,0.1,16.5,0.4,24.8,0.5c0.5,0.8,0.8,1.6,0.8,2.5c-6,6-13.9,2.6-20.7,4.3
				c-0.9,0-1.8,0-2.6-0.4s-1.6-1.2-1.8-1.8c-0.1-0.9-0.4-1.8,0-2.6C631.5,353.6,631.5,352.9,631.2,352.1z"/>
			<path fill="#4C909D" d="M602.1,353.8c3.8,0,7.5,0,11.3,0c0.8,0.1,1.6,0.4,2.2,0.5c0.5,1.2,0.1,2.1-0.5,2.9
				c-1.7,1.3-3.8,1.7-6,1.7c-3.8,0-7.3,0-11.1,0c-3-0.4-6.8,0.1-7.7-4.2c1.7-2.6,4.3-3,7.2-2.5C599.1,352.6,600.7,353.3,602.1,353.8
				z"/>
			<path fill="#62AEB8" d="M615.6,355.9c0-0.5,0-0.9,0-1.6c5.2,0,10.5,0,15.7,0c0.4,0.5,0.9,1.2,1.3,1.6c-2.2,2.9-5.5,3-8.6,3
				c-2.1,0-4.3,0-6.2-0.8C616.9,357.6,616.3,356.8,615.6,355.9z"/>
			<path fill="#032B35" d="M440.2,342.5c0-0.5,0-1.2,0-1.7c22.4,0,44.7,0,67.1,0c3.4,0,7.2-1.2,10,1.7
				C491.5,342.5,465.8,342.5,440.2,342.5z"/>
			<path fill="#163949" d="M538.5,375.4c1.8-0.8,3.8-1.3,5.6-2.1c1.3,0.4,2.2,1.2,3.2,2.1c2.1,3.3,2.6,6.9,4.7,10.1
				c1.3,3.4,3.5,6.2,5.5,9.4c1.6,2.5,3.8,4.2,5.9,6c0.5,0.8,0.9,1.6,1.2,2.2c0,0.9-0.4,1.7-1.2,2.2c-2.2,1.7-4.7,2.1-7.3,2.1
				c-0.9,0-1.7-0.1-2.5-0.4c-3.3-1.2-6.8-1.6-9.6-3.5c-3-3-6.6-5.9-3.4-10.7c1.3-4.2-2.1-5.6-4.6-7.3c-2.6-1.8-2.9-3.5-1.6-6.2
				C535.8,378,537.1,376.7,538.5,375.4z"/>
			<path fill="#A5D7E9" d="M546.3,402.7c1.8,2.5,6.8-1.2,7.5,3.8c0,10.3-8.1,10-14.8,11.4c-1.2-0.1-2.1-0.5-2.9-1.3
				c-0.9-1.6-0.9-3,0.1-4.3c0-3.3,0-6.4,0-9.6C539.8,399.6,543.2,404.1,546.3,402.7z"/>
			<path fill="#9DD0E0" d="M536.6,412.2c0,1.3,0,2.6,0,3.8c-0.8,0.5-1.6,0.9-2.6,1.2c-3.4-0.4-5.9-2.5-7.9-4.9
				c-5.6-6.8-14.3-8.8-21.1-14c0.9-3.5,2.5-5.6,6.4-3.3C519.9,400.6,528.1,406.3,536.6,412.2z"/>
			<path fill="#CDEDF5" d="M511.5,394.9c-2.9,0-4.7,1.3-5.9,3.8c-1.2,1.2-2.5,1.2-3.8,0.5c-0.5-0.8-0.9-1.6-1.2-2.5
				c0.9-5.1,6.4-5.9,9.2-9.2c1.2-0.8,2.5-1.3,3.8-0.5c2.2-1.6,4.9-2.1,7.5-2.2c0,1.3,0,2.5,0,3.8v0.5c-0.4,0.8-1.2,1.6-2.1,1.7
				C516.2,391.4,513.3,392.3,511.5,394.9z"/>
			<path fill="#2F586D" d="M546.3,402.7c-3.4,4.2-6.6-0.5-9.8-0.1c-3.5-2.9,1.6-4.9,0.5-7.5c0.1-0.9,0.5-1.6,1.6-1.7
				c0.5-0.1,1.2-0.1,1.8-0.4C541.1,397,542.5,400.6,546.3,402.7z"/>
			<path fill="#A4D8DB" d="M519.1,390.9c0.8-0.5,1.3-1.2,2.1-1.7c1.7,1.2,3.4,2.5,5.6,3.9C522.9,394.9,521,392.7,519.1,390.9z"/>
			<path fill="#A1D4E3" d="M538.6,393.2c-0.5,0.5-0.9,1.2-1.6,1.7c-1.3-0.4-3.3-0.1-3-2.5c0.1-0.8,0.8-2.1,1.6-2.1
				C537.3,390.2,537.9,391.9,538.6,393.2z"/>
			<path fill="#F6EF6E" d="M507.7,356.3c0,3.5-3.3,5.5-4.2,8.5c-1.2,3.9-0.1,6,4.2,3.3c2.5-0.8,3.5,0.9,4.7,2.5
				c0.4,1.6,0.1,3-0.8,4.2c-1.2,0.9-2.5,1.6-3.9,1.8c-3.5,0.9-7.3-0.4-10.9,0.9c-3.4,3.3-4.9,9-11.3,8.1c-3.8,0.1-5.5-5.2-10-3.9
				c-1.6,0.4-3,1.2-4.6,1.7c-0.8,0.4-1.6,0.5-2.2,0.9c-5.6,2.1-1.6,6.2-2.2,9.4c-0.1,0.9-0.4,1.8-0.9,2.6c-3,3.4-6,5.9-10,1.2
				c-0.8-1.3-1.2-2.9-1.8-4.2c-0.9-1.3-2.2-2.2-3.9-2.5c-12.2-1.3-12.6-1.3-12.6-13.4c0-9.4-2.9-19.1,2.6-28
				c6.4-3.3,13.1-1.6,19.9-1.7c12.4-0.1,25-0.1,37.3,0C503.2,347.8,507.7,349.3,507.7,356.3z"/>
			<path fill="#F5EE68" d="M507.7,356.3c-3.8-5.9-9.4-6-15.6-5.9c-17.3,0.1-34.6,0-52,0c-0.1-1.3,0.4-2.2,1.3-3
				c18.7-1.8,37.3-0.4,56.2-0.9c6-0.1,12,0.4,18.1-0.4c1.7-0.5,3.4-0.9,5.1,0.4c0.1,0.5,0.4,1.2,0.4,1.7
				C517.2,351.9,509.5,348.9,507.7,356.3z"/>
			<path fill="#F2EA5C" d="M511.6,373.3c0-1.3,0-2.5,0-3.8c-0.5-0.4-0.8-0.9-0.5-1.3c0.1-0.4,0.4-0.5,0.5-0.5c0.8,0,1.6-0.1,2.5-0.1
				c0.5,0.4,1.3,0.9,1.8,1.3c-1.6,3.4,3.4,3.4,3.2,5.6c-0.1,2.1,2.6,7.2-3.5,4.9C513.7,377.6,511.2,376.3,511.6,373.3z"/>
			<path fill="#F0F064" d="M511.5,367.7c0,0.5,0,1.3,0,1.8c-1.3-0.5-2.6-1.3-3.8-1.8c-1.2-2.6,1.7-3.8,2.6-3.8
				C512.4,364.1,511.1,366.4,511.5,367.7z"/>
			<path fill="#F3F273" d="M520.8,346.5c-1.2,0-2.5,0-3.5,0c-16.4,2.2-32.6,0.5-49,0.9c-8.6,0.1-17.3,0.1-26.1,0
				c-1.3-0.1-2.1-1.2-2.2-2.5c25.4-0.1,50.7-0.1,75.9-0.4C517.8,344.6,520.1,344.1,520.8,346.5z"/>
			<path fill="#F4F589" d="M440.1,345c0,0.5,0,1.2,0,1.6c-0.1,0.4-0.4,0.5-0.8,0.9c-1.6,1.3-2.9,2.6-4.7,3.4c-0.8,0.1-1.6,0-2.1-0.5
				c0-1.8-0.1-3.8-0.1-5.5C435,345,437.6,345,440.1,345z"/>
			<path fill="#A7D9EA" d="M469.2,381.6c0.5-0.1,1.2-0.4,1.7-0.4c1.2-0.8,3.3-0.1,3.8-2.1c6.2-5.1,6.8,1.8,9.4,4.6
				c9.8,3.5,7.9-5.6,10.7-9.8c4.2,0,8.5,0,12.6,0c2.2,1.6,7.2,0.4,6,5.6c-0.5,0.5-1.2,1.3-1.7,1.8c-1.7,2.6-1.7,5.1,0,7.7
				c-1.8,4.3-7.3,4.2-9.6,7.9c-1.2,0.9-2.2,1.7-3.8,1.8c-2.5,0.4-4.7-0.4-6.9-0.8c-5.5,0.4-10.1,2.9-14.7,5.6
				c-2.9,1.7-5.5,3-8.8,1.8c-4.6-2.5-5.9-5.9-2.6-10.3c0.1-0.8,0.4-1.3,0.8-2.1C466.4,389.2,462.6,383.8,469.2,381.6z"/>
			<path fill="#A7DAF2" d="M511.6,388.9c-6.8-2.6-1.6-5.1,0-7.7c0.8,1.8,1.3,3.8,2.1,5.6C512.9,387.6,512.1,388.4,511.6,388.9z"/>
			<path fill="#E2E98B" d="M513.3,379.3c-0.8-3.3-3.8-3.9-6-5.6c1.3-0.1,2.9-0.1,4.2-0.4c2.2,1.3,3.8,3.3,3.8,6
				C514.6,379.3,513.8,379.3,513.3,379.3z"/>
			<path fill="#EFEB6D" d="M677.2,345c1.7-0.4,3.5-0.5,4.2,1.7c-0.9,0.4-1.7,0.8-1.6,1.8c0.4,1.6,0.5,3-0.5,4.6
				c-0.8,0.8-1.7,1.2-2.9,1.6c-5.6,0-11.7,2.5-16.8-2.5c-5.1-3.8-11.3-0.1-16.8-3.5c7.9,0,15.7,0,23.8,0
				C670.9,348.5,675,349.1,677.2,345z"/>
			<path fill="#467F91" d="M679.7,352.3c0.1-1.3,0.1-2.5,0.4-3.8c6.4,4.2,14.3-0.5,20.4,3.8c-0.5,0.5-1.2,1.3-1.7,1.8
				C692.1,355.5,685.6,356.7,679.7,352.3z"/>
			<path fill="#073031" d="M703.9,364.1c0.4-2.5,0.5-5.1,0.9-7.5c4.7,2.2,3.9,7.9,6.9,11.3c-1.7,3.3-2.5,7.3-7.3,7.5
				c-1.8-0.8-2.5-2.5-2.9-4.3C701.4,368.5,700.8,365.6,703.9,364.1z"/>
			<path fill="#516656" d="M703.9,369.5c0.1,1.8,0.4,3.9,0.8,5.9c-0.1,0.8-0.1,1.3-0.4,2.1c-2.6,0-5.2,0-7.9,0
				c-0.5,0-1.2-0.1-1.7-0.1c-1.3-0.9-1.3-2.1-0.8-3.4C697.5,372.5,700.4,370.2,703.9,369.5z"/>
			<path fill="#32596B" d="M677.5,367.9c-0.4-2.1-0.5-3.9-0.9-6c-1.7-3-1.2-5.6,1.7-7.7c0.8-0.5,1.7-0.8,2.9-0.8
				c4.3,0.5,10.3-2.1,10.9,5.6c-1.6,3.9-3.8,7.9,0,12c0.8,2.1,1.6,4.2,0.8,6.4c0,0.8,0,1.3,0,2.1c-3.3,0.4-6,2.9-9.6,1.6
				c-1.6-1.2-2.2-2.9-2.5-4.7C683.1,372.1,677.5,371.1,677.5,367.9z"/>
			<path fill="#3A6065" d="M692.8,377.2c-0.8-1.8-1.3-3.8-2.1-5.6c-0.5-0.5-0.9-1.3-1.2-2.1c0.1-0.9,0.5-1.6,1.3-2.1
				c2.6-0.1,3.8,1.7,4.6,3.8c0.1,0.9,0,1.7-0.8,2.2c0,1.2,0.1,2.5,0.1,3.5C694.1,377.1,693.4,377.1,692.8,377.2z"/>
			<path fill="#FAD811" d="M673.5,381c0-1.7,0.8-3,2.2-3.9c3.8-1.6,6.6-1.7,5.5,3.8c-0.5,0.1-1.2,0.4-1.8,0.5
				C677.5,381.4,675.5,381.2,673.5,381z"/>
			<path fill="#5E775B" d="M681.4,381c0.1-4.3-3-3.5-5.5-3.8c-0.1-1.2-0.4-2.5-0.4-3.5c3.3-1.3,5.5,0,7.5,2.2c0,1.7,0.1,3.4,0.1,5.2
				C682.6,380.9,681.9,381,681.4,381z"/>
			<path fill="#F9DB24" d="M694.7,373.3c-0.1-0.5-0.4-1.2-0.4-1.7c0.5-4.2-1.2-7.9-0.9-12c0.8-2.5,1.8-4.3,4.9-3.8
				c5.9,0,3.9,5.2,5.5,8.1c-1.7,1.8-1.3,3.5,0,5.5C703,375.5,700.1,377.6,694.7,373.3z"/>
			<path fill="#509CAC" d="M698.4,356c-1.2,1.3-2.5,2.6-3.5,4.2c-0.5,0.5-1.2,0.9-2.1,0.9c-0.4,0-0.8-0.1-1.2-0.1
				c-0.4-0.1-0.5-0.5-0.9-0.8c-0.8-7.5-6.8-5.2-11.3-6c-0.5-0.1-0.9-0.5-0.9-0.9c0-0.5,0.1-0.8,0.1-0.8h0.5c6.4,0.4,13-1.3,19,1.8
				C698.4,355,698.4,355.5,698.4,356z"/>
			<path fill="#92D9BE" d="M678.9,352.5c0.4,0.5,0.5,1.2,0.5,1.7h-0.9c-7.5,4.6-15.2,5.2-22.8,0c0-0.5,0-1.2,0-1.7
				c1.3-0.1,2.5-0.4,3.8-0.5C666.3,352.3,672.7,352.3,678.9,352.5z"/>
			<path fill="#3B6E9D" d="M371.1,509.3c0.1,1.6,0.1,2.9-1.6,2.1c-0.9-0.4-1.7-1.7-1.8-2.9c-0.1-0.5,0.5-2.1,1.2-2.2
				C371.3,505.8,370.4,508.4,371.1,509.3z"/>
			<path fill="#A7D9E8" d="M465.2,395.2c-0.8,3.9,0.9,6.9,3.8,9.4c2.9,5.9-3.4,8.5-4.6,12.7c-5.5,8.3-7.7,17-4.9,27
				c1.3,4.7,3.4,10.3-4.2,12.2c-2.6,0.8-5.1,1.3-7.7,2.1c-2.9,0.5-5.5-0.4-7.9-1.6c-0.9-1.7-0.4-3.3,0.4-4.9
				c1.6-2.1,2.2-4.3,1.6-6.8c-0.8-3.9-5.6-3.8-6.9-6.9c-0.9-3.3-0.5-6.6-0.4-9.8c0.1-0.9,0.4-1.8,0.9-2.6c0.8-0.5,1.6-0.9,2.5-0.8
				c3.5,2.6,13.7-0.5,13.9-4.3c0.1-3.4-3-0.8-4.2-1.8c-4.2-2.1-6.9-4.9-6.9-9.8c0.5-4.3,3.8-7.3,5.5-11.3c0.8-1.3,1.7-2.2,3-3
				c3.4-1.8,6.4-1.8,8.5,2.1C461,400.7,462.6,394.9,465.2,395.2z"/>
			<path fill="#90C3D6" d="M478.7,472c-1.3-0.5-2.6-1.3-3.9-1.8c-4.7-3.3-9-6.8-10.9-12.4c0-3,1.7-4.3,4.6-4.6
				c5.9,1.2,7.9,7.2,12.7,9.6c3.4,1.7,6.4,4.3,10.3,4.6c4.6,0.1,9.2,0.1,13.7,0c3-0.4,5.9-1.3,8.5-2.6c1.6-0.9,3-1.7,4.3-2.6
				c3.9-2.2,6.2-6.4,10.5-8.3c0.9-0.1,1.8-0.1,2.9-0.1c0.9,0.4,1.7,0.9,2.2,1.7c1.8,3.9-1.3,6.4-3,9.2l0,0
				c-4.3,3.4-8.6,7.2-13.5,9.6l0,0c-7.9,3.8-16.1,5.5-25,3.5C487.6,476,482.4,476.3,478.7,472z"/>
			<path fill="#90C3D5" d="M538.5,416c5.6-2.2,12.6-2.9,15.3-9.8c0.5,0.1,1.2,0.4,1.6,0.5c2.2,1.2,3.4,3.3,4.3,5.2
				c0.8,2.6,2.2,5.2-0.4,7.7c-0.5,0-1.2,0.1-1.6,0.8c-2.1,1.2-2.6,2.9-1.2,4.9c-0.4,0.5-0.9,1.3-1.3,1.8c-1.2,2.5-4.3,3.4-5.2,6
				c-1.3,0.5-2.6,0.9-4.2,1.6c-0.4,1.2-1.2,1.6-2.1,1.6C536.2,431.2,537.3,423.6,538.5,416z"/>
			<path fill="#8FC2DB" d="M459.1,479.4c0.8-1.8,1.6-3.8,2.2-5.6c4.6-5.6-4.2-4.9-3.9-8.5c1.6-1.8,3.9-1.6,4.7-0.1
				c2.6,3.9,5.2,7.2,9.8,9.8c7.7,4.3,6.8,10-0.8,14.4c0.4,3-1.7,2.6-3.5,2.5c-3.5-2.9-0.5-9.6-6.6-11.1
				C460.1,480.6,459.6,480.2,459.1,479.4z"/>
			<path fill="#98CCDD" d="M469,454.7c-2.5,0.1-3.5,1.6-3.8,3.8c-0.1,1.2-0.8,1.7-1.8,1.8c-2.2-2.1-4.2-4.6-7.7-3.9
				c5.2-3.8,2.1-8.5,1.2-12.7c-2.1-10.3-1.6-19.9,6.6-27.8c0.4,0.4,0.8,0.8,0.9,1.2c1.6,7.3-3.3,14-2.2,21.6
				c0.5,4.9,1.6,8.6,6.4,10.7C469.9,450.9,470.9,452.6,469,454.7z"/>
			<path fill="#9ACEDF" d="M492.2,475.6c8.6,3,16.8-2.1,25.2-1.8c-8.1,7.9-17.4,6.9-27,3.9C490.4,476.7,491.5,476.4,492.2,475.6z"/>
			<path fill="#9BCEE4" d="M463.4,460.3c0.5-0.5,1.3-1.3,1.8-1.8c3.3,3.9,6.4,7.7,9.8,11.7C468.6,469.6,466.1,464.6,463.4,460.3z"/>
			<path fill="#9AD9F1" d="M440.5,456.5c2.9-0.4,6.2-3.3,7.5,1.8c-1.8,1.3-3.9,2.6-5.9,3.9c-0.8-1.3-1.6-2.6-2.2-3.9
				C439.3,457.7,439.7,456.9,440.5,456.5z"/>
			<path fill="#99CEE2" d="M530.7,464.2c0.5-3.3,1.3-6.4,1.8-9.6c0.8-1.8,1.8-2.9,4.2-2.2c0.5,0.8,0.5,1.7-0.1,2.2
				C538.8,460.3,533.7,461.6,530.7,464.2z"/>
			<path fill="#9BD0E1" d="M517.2,473.8c3.9-4.2,7.9-8.1,13.5-9.6C527.6,469.3,523.4,472.9,517.2,473.8z"/>
			<path fill="#9CCADB" d="M536.6,454.4c0-0.8,0-1.3,0-2.1c-1.2-0.9-1.6-2.2-1.7-3.5c0-1.8,0.8-3.5,2.1-5.1c0.5-0.8,1.6-1.2,2.2-1.3
				c0.4,0.1,0.9,0.1,1.3,0.4C543.6,448.3,539.4,451.1,536.6,454.4z"/>
			<path fill="#9AD2E2" d="M492.2,475.6c-0.5,0.5-1.3,1.3-1.8,1.8c-4.6-0.8-9.6,0-11.4-5.9C483,473.7,487.4,475.6,492.2,475.6z"/>
			<path fill="#7FC5ED" d="M504.1,491.6c-0.1,1.8-0.1,3.5-0.4,5.5c-1.3,0.5-2.5,1.2-3.8,1.7c-1.3-1.2-2.6-2.5-3.9-3.5
				c1.7-1.6,4.7-1.2,5.6-3.8C502.8,489.8,503.3,490.6,504.1,491.6z"/>
			<path fill="#D0EEFA" d="M544.1,435.1c0.8-0.1,1.3-0.4,2.1-0.5c0,3.9-2.9,6.2-5.9,8.1l0,0c-0.8-0.5-1.2-1.3-1.6-2.2
				C538.6,436.8,541.5,436.1,544.1,435.1z"/>
			<path fill="#D7E2A4" d="M550.3,433.1c0-3.5,1.8-5.5,5.2-6c0.1,1.3,0.4,2.6,0.5,3.9C554,431.7,552.2,432.5,550.3,433.1z"/>
			<path fill="#BBCA8E" d="M467.1,490.3c1.6,0.5,2.9,0.5,3.9-0.9c1.3,0,2.5-0.1,3.8-0.1c-0.5,5.1-4.7,3.9-7.9,4.3
				c-0.1-0.4,0-0.8,0-1.2c-0.5-0.4-0.5-0.9-0.5-1.3C466.8,490.7,466.9,490.3,467.1,490.3z"/>
			<path fill="#F2F565" d="M445.8,472c-1.6,2.1-3.3,1.7-4.6-0.1c-0.4-0.5,0-1.6,0-2.5c0.9,0.1,1.8,0.4,2.9,0.5
				C444.8,470.6,445.3,471.2,445.8,472z"/>
			<path fill="#83C6DF" d="M559.7,448.8c-1.3-0.4-3.4,0.8-3.8-1.3c-0.1-0.8,1.7-2.6,2.5-2.5C560.5,445.2,559.3,447.5,559.7,448.8
				L559.7,448.8z"/>
			<path fill="#8FC5CB" d="M501.9,491.2c-0.1,3.8-3,3.8-5.6,3.8C496.3,491.2,500.3,493.3,501.9,491.2z"/>
			<path fill="#2C546B" d="M623.4,390.9c0,1.3-0.1,2.6-0.1,3.8c-9,15.2-21.1,26.3-39.4,28.3c-7.2,0.8-14.4,0.5-20.4-4.9
				c-0.8-2.1,0.4-3.4,1.8-4.6c0.4-0.1,0.9-0.1,1.3-0.4c0.9,0,1.8,0.1,2.6,0.5c17.7,4.2,31.7-1.8,42.6-16c2.1-3,2.9-6.9,5.6-9.4
				c0.9-0.4,1.8-0.1,2.6,0.5C621.1,389.4,622.2,390.2,623.4,390.9z"/>
			<path fill="#F4D41C" d="M629.1,409.1c0.5,4.2,1.3,8.5,1.8,12.6c-0.5,0-1.3,0-1.8,0c-2.2-2.5-6.4-2.1-7.7-5.9
				C621.7,411.3,623.4,407.8,629.1,409.1z"/>
			<path fill="#2D4A57" d="M556.8,425.3c-1.8-0.8-5.2,2.5-5.6-0.8c-0.5-4.3,3.5-4.2,6.8-4.2C558,422.2,558.5,424,556.8,425.3z"/>
			<path fill="#F6D427" d="M621.3,416c2.9,1.6,6.2,2.2,7.7,5.9c-3-0.9-5.6-0.4-8.1,1.8C622.4,421,619.4,418.4,621.3,416z"/>
			<path fill="#163949" d="M565.6,414.1c-0.8,1.3-1.7,2.6-2.5,3.9c-1.3,0.5-2.5,1.2-3.8,1.6c0.4-2.9-0.9-5.1-2.1-7.5
				C560.6,410.4,563.2,411.3,565.6,414.1z"/>
			<path fill="#F8ED6B" d="M434.4,491.2c0-10.9,0-21.8,0-32.9c1.3-1.2,2.6-0.9,3.8,0c1.2,11.4-2.6,23.5,3.3,35
				C438.8,492.5,436.5,491.9,434.4,491.2z"/>
			<path fill="#94C5D0" d="M467.1,490.3c0,0.5,0,1.3,0,1.8c-2.1-0.8-2.6-3.8-5.5-3.5c-0.8-1.2-1.6-2.5-2.1-3.5c0-2.1,0-4.2,1.7-5.6
				c1.8-1.2,3.8-2.2,5.6-3.4C464.7,481.3,469.7,485.8,467.1,490.3z"/>
			<path fill="#EAED79" d="M438.2,458.5c-1.3,0-2.6,0-3.8,0c0-0.5,0-1.3,0-1.8c1.2-1.2,0.9-2.9,1.6-4.3c0.8-1.7,1.3-3.9,3.5-3.5
				c2.1,0.4,2.6,2.5,3,4.3c-0.8,1.2-1.3,2.5-2.1,3.5c-0.1,0.5-0.4,1.3-0.5,1.8h-0.8H438.2z"/>
			<path fill="#83BFE7" d="M461.3,479.7c-0.5,1.8,3,5.1-1.7,5.6c-2.6-1.7-2.6-3.8-0.5-5.9C459.7,479.4,460.5,479.7,461.3,479.7z"/>
			<path fill="#F2DA1D" d="M469,495c1.7,0.4,4.3-0.8,4.7,1.8c0.1,1.6-1.6,1.7-2.9,1.8C470.3,497.6,469.7,496.3,469,495z"/>
			<path fill="#F8ED6B" d="M442.4,453c-6-6.2-5.2,3-8.1,3.5c-0.5-4.6,1.6-9.2-1.7-13.4c0-1.3,0-2.6,0-3.9c0.5-0.5,1.3-0.8,2.1-0.4
				c0.8,0.9,1.8,1.6,3,2.1c2.5,1.2,6.2-0.1,6.8,4.2C446.5,448.1,446.1,450.9,442.4,453z"/>
			<path fill="#05274A" d="M696.3,483.4c2.9-9.4,0.5-19,1.3-28.3c0.1-2.2-1.2-6,2.6-6s2.5,3.8,2.6,5.9c0.1,5.6,0.5,11.4,0,17
				c-0.5,5.9,0.9,10.3,5.1,14.3c-0.8,3.3-3.4,3.3-5.9,3.4c-1.6,0-3-0.5-4.3-1.3C696.6,486.9,695.4,485.6,696.3,483.4z"/>
			<path fill="#304963" d="M696.3,483.4c0.8,1.3,1.6,2.5,2.1,3.8c-0.1,0.8-0.1,1.6-0.5,2.5c-1.2,2.1-1.2,4.9-3.9,5.6
				c-0.5-0.8-1.2-1.7-1.7-2.5c-2.6-1.2-3.4-2.9-2.1-5.2C691.5,484.5,693.7,483.4,696.3,483.4z"/>
			<path fill="#FDFDFD" d="M695,471.2c0-5.2,0-10.5,0-16c0.4,0,0.5,0,0.9,0c0,5.2,0,10.5,0,15.7C695.7,471.2,695.3,471.2,695,471.2z
				"/>
			<path fill="#F7F8F7" d="M690.6,487.3c0,2.1-0.4,4.2,2.1,5.2c-3,1.7-0.9,5.9-3.8,7.7l-0.9,0.1l-0.9-0.1c0.5-4.3,1.3-8.6,1.8-13
				C689.5,487.3,690,487.3,690.6,487.3z"/>
			<path fill="#FCFCF0" d="M719.4,480c-4.2,1.2-8.3,2.9-12.4-1.6C711.8,479,715.6,479.7,719.4,480z"/>
			<path fill="#9D9754" d="M702.2,487.5c1.8-0.4,3.9-0.9,5.9-1.3c0.8,0.4,1.6,0.5,2.2,0.9c0,1.3-0.1,2.6-0.1,3.9c-0.8,0-1.3,0-2.1,0
				C706.2,489.9,702.2,492,702.2,487.5z"/>
			<path fill="#F7D04B" d="M702.2,487.5c1.8,1.2,3.8,2.2,5.9,3.5c-1.2,1.3-3.4,1.7-3.5,3.9c-1.8,3-4.9,1.6-7.3,1.7
				c-2.5-3-2.6-6.2,0.1-9.2c0.5,0,0.9-0.1,1.3-0.4C699.7,487.2,701.2,487.3,702.2,487.5z"/>
			<path fill="#B0BCBA" d="M697.4,487.5c0,3,0,6.2-0.1,9.2c-0.9-0.5-2.1-1.2-3-1.6C694.5,492.3,692.8,488.6,697.4,487.5z"/>
			<path fill="#F4ED6E" d="M656,354.3c7.5,0,15.2,0,22.8,0c-0.8,2.6-1.6,5.1-2.2,7.7c-4.3,0.8-7.9,4.6-12.6,4.2
				c-4.6,0.1-8.3,2.6-12.4,4.2c-2.6,0.9-6.6,0.5-5.9-2.1c1.6-6.8-2.9-5.5-6.4-6c-2.5-0.4-4.7-0.8-5.1-3.9
				C640.8,353.3,649.3,358,656,354.3z"/>
			<path fill="#F4ED71" d="M640.4,360.3c6.8-0.1,7.2,0.1,6.6,6.2c0,0.8,0.8,2.2,1.2,2.2c1.2,0,2.2-0.4,3.4-0.9
				c3.9-2.1,7.7-6.2,12.6-1.6c-6.4,7.2-15.3,10.3-23.3,15.3c-8.6-2.5-2.1-9.4-3.9-13.7c0.5-1.2,1.3-2.1,2.5-2.6
				c1.7-0.9,0.5-2.5,0.9-3.8C640.3,361.1,640.3,360.7,640.4,360.3z"/>
			<path fill="#2B5C75" d="M682.8,375.8c-2.5-0.8-5.1-1.6-7.5-2.2c-1.2-2.6,0.8-4.2,2.1-5.9C680.1,369.9,684.9,370.5,682.8,375.8z"
				/>
			<path fill="#0E3246" d="M640.6,366c-1.3,0.5-2.6,1.2-3.9,1.7c-2.1-1.7-3.4,0-4.9,0.9c5.6,6.4-5.9,11.8-0.9,18.1
				c-1.8,0.1-3.9,0.1-5.9,0.4c-3.9-7.2,0.1-15.1-1.7-22.4c1.2-3.3,3.3-5.2,6.6-6c0.9,0,2.1,0.1,3,0.5c2.2,2.2,5.9,0.9,8.3,2.6
				C641.7,363.4,641.7,364.9,640.6,366z"/>
			<path fill="#0E303F" d="M619.8,388.9c-0.8,0-1.6,0-2.2,0c-1.6,2.2-3.2,3.9-6.2,3.5c-3.3-0.5-5.9-1.8-6.2-5.6
				c2.2-7.3,2.5-14.7,0.8-22.1c-1.6-3.9-1.7-7.5,3.8-8.5c1.8-0.1,3.9-0.4,5.9-0.5c0.5,0.1,1.2,0.4,1.7,0.5
				c8.1,8.5,8.8,18.2,2.5,30.9C619.8,388,619.8,388.4,619.8,388.9z"/>
			<path fill="#2A546A" d="M619.8,387.5c1.2-10.5,2.9-21.1-2.5-30.9c2.1,0,3.9-0.1,6-0.1c0.5,0.5,1.2,1.2,1.7,1.8
				c1.2,1.8,1.3,3.8,0.4,5.9c2.6,7.7,0.9,15.6-0.1,23.3C623.4,387.2,621.7,387.5,619.8,387.5z"/>
			<path fill="#F5FB78" d="M434.3,439.1c-0.5,0-1.2,0-1.6,0c0-29.5,0-59.2,0-88.7c0.5,0,1.2,0,1.6,0c3.8,3.3,2.9,7.7,2.9,11.7
				c0.1,17.8-0.1,35.9,0.1,53.7c0.1,0.9,0.4,2.1,0.5,3c0.4,2.6-0.4,4.7-1.8,6.8c0,0.8,0,1.3,0,2.1
				C433.9,431.2,436.7,435.5,434.3,439.1z"/>
			<path fill="#123648" d="M598.2,353.9c-2.5,0.1-5.1,0.1-7.5,0.4c-0.4,0-0.9-0.1-1.3-0.1c-6.8-3.4-13.5-3.5-20.4-0.1
				c-2.1,0.9-4.3,2.1-4.9,4.6c-0.8,1.8-0.5,3.9-1.3,5.6c-0.9,1.8-2.5,3.3-3.9,4.7c-1.3,1.2-2.9,1.8-4.3,2.5c-1.3,0.4-2.5,0.4-3.8,0
				c-0.8-0.4-1.6-0.9-2.1-1.6c-2.5-6,2.5-8.3,5.6-11.4c1.7-3.5,4.7-5.6,7.7-7.7c0.5-0.5,1.3-1.3,1.8-1.8c10.7-5.2,21.5-5.1,31.7,0.9
				C597,350.6,598.6,351.7,598.2,353.9z"/>
			<path fill="#15384B" d="M548.3,369.5c0.5,0,0.9,0.1,1.6,0.1c5.1,1.7,4.6,6.6,5.9,10.3c1.2,6.8,5.1,11.8,10.5,15.7
				c0.8,0.5,1.3,1.3,1.7,2.1c0.4,0.9,0.4,1.7,0.1,2.6c-1.2,1.6-2.5,2.9-4.6,1.7l0,0c-2.6-1.7-5.1-3.9-7.7-5.9
				c-1.8-3.3-3.9-6.4-5.9-9.6c-1.8-3.8-0.8-8.3-4.2-11.4c-0.5-0.8-1.3-1.6-1.8-2.2C545.3,371.9,548.4,372.5,548.3,369.5z"/>
			<path fill="#204657" d="M598.2,353.9c-10.1-11.1-22.5-7.3-34.6-5.5c10.7-9,27.2-6.6,38.7,5.2
				C600.8,353.9,599.5,353.9,598.2,353.9z"/>
			<path fill="#1E4558" d="M561.5,350.4c-1.8,3.3-4.6,5.9-7.7,7.7C553.7,352.9,557.4,351.6,561.5,350.4z"/>
			<path fill="#012F41" d="M623.4,358.1c-0.1-0.5-0.1-1.3,0-1.8c3.3,0,6.4-0.1,9.6-0.1c0,0.5,0,1.3,0.1,1.8c0.5,0.5,0.8,0.9,0.5,1.6
				c-0.1,0.4-0.5,0.5-0.8,0.5c-0.5,0-1.2,0-1.7,0C628.6,358.9,625.4,361,623.4,358.1z"/>
			<path fill="#17343C" d="M632.8,360.1c0-0.8,0.1-1.3,0.1-2.1c0.4,0.1,0.8,0.4,1.3,0.4c1.3,3,3.9,1.7,6,2.1h-0.1
				c1.3,0.5,1.3,1.2,0,1.8C637.6,361.9,634.9,362.7,632.8,360.1z"/>
			<path fill="#224D60" d="M609.9,356.7c-3.8,1.7-2.2,4.7-2.1,7.3c-0.4,0.1-0.8,0.4-1.2,0.5c-2.5-0.1-4.6-1.7-7.2-1.6
				c-2.2-0.5-3.8-1.7-3.9-4.2c0.4-1.6,1.7-1.7,2.6-2.5C602.1,356.4,606.1,356.4,609.9,356.7z"/>
			<path fill="#4D828B" d="M598.3,356.3c-0.8,0.5-1.3,1.2-2.1,1.7c-1.2,1.6-2.1,2.9-3.9,3.4c-1.3,0.4-2.6,0.1-3.9-0.1
				c-2.2-1.6-4.7-2.6-6.2-4.9c-0.1-0.9,0-1.8,0.5-2.6c0.8-0.5,1.6-0.9,2.5-1.2c1.8-0.1,3.8,0.1,5.5,1.3l-0.1,0.5
				C592.7,356.9,595.7,355.9,598.3,356.3z"/>
			<path fill="#042B39" d="M565.6,414.1c-2.9-0.5-5.5-1.3-8.3-1.8c-2.2-1.3-1.3-3.5-1.8-5.5c2.2-2.2,5.5-1.6,8.1-2.5
				c1.7-0.8,2.5,0.4,2.9,1.7C561.8,408.3,567.3,411.7,565.6,414.1L565.6,414.1z"/>
			<path fill="#1E4251" d="M565.6,406.3c-0.5-0.8-1.3-1.3-1.8-2.1c0-0.5,0-1.3,0-1.8c1.3-0.5,2.6-1.3,3.8-1.8c3.5,0.5,6.6,1.7,6,6.2
				c-0.8,0.8-1.6,1.2-2.5,1.3C568.7,408.4,566.9,408,565.6,406.3z"/>
			<path fill="#224758" d="M545.9,375.5c5.5,2.5,3.8,7.3,4.2,11.4C547.2,383.7,546.6,379.7,545.9,375.5z"/>
			<path fill="#24475B" d="M555.9,396.6c3.8,0.1,6,2.6,7.7,5.9C559.7,402.3,557.6,399.8,555.9,396.6z"/>
			<path fill="#98CCE1" d="M544.1,435.1c-1.2,2.1-3.9,3.3-4.2,5.9c-3.8,2.1-4.9-0.9-4.6-3.4c0.9-6.8-2.2-13-2.2-19.5
				c0.1-0.9,0.8-1.7,1.3-2.2c0.5,0,1.3,0,1.8,0s1.3,0,1.8,0C542,421.9,538.6,429.9,544.1,435.1z"/>
			<path fill="#A5DAE3" d="M534.5,416c0,0.5,0,1.3,0,1.8c-1.3,2.5-1.3,6-5.5,6c-0.8-0.4-1.3-0.9-1.8-1.6c-1.6-2.5-3-4.7-5.1-6.8
				c-0.5-0.5-1.2-1.3-1.7-1.8c-5.9-7.2-15.1-6.9-22.4-11.1c-1.2-3.5,1.3-3.8,3.5-4.3c1.3,0,2.5,0,3.8,0.1
				c9.2-0.5,15.1,5.2,21.2,10.5C529.4,411.4,532,413.7,534.5,416z"/>
			<path fill="#C9E7F4" d="M501.9,398.5c-1.3,1.3-2.5,2.6-3.8,3.9c-0.4,0.1-0.8,0.4-1.3,0.5c-1.6-0.1-2.5-0.9-3.3-2.2
				c-0.5-3.4,3-2.6,4.3-3.9c1.3,0,2.6,0,3.8,0.1C501.9,397.4,501.9,397.9,501.9,398.5z"/>
			<path fill="#F6EC74" d="M436.3,421.8c0-0.8,0-1.3,0-2.1c0-21.8,0-43.4,0-65.1c0-2.2,0-4.6,2.1-6.2c0.5,0,1.2,0,1.8,0
				c0,0.5,0,1.3,0,1.8c0.4,10.5-0.1,21.1,0.5,31.7c0.4,5.9,0.8,7.7,6.8,5.6c4.6-1.6,9.2-1.3,10.1,5.2c-2.6,0.8-6,0-7.7,3.3
				c-0.8,0.9-1.3,1.7-2.1,2.6c-6.9,0.5-3.4,6.8-5.5,10c0.4,4.3,4.6,6,6.4,9.4c0.1,0.9,0,1.7-0.5,2.2c-0.8,0.4-1.6,0.5-2.2,0.5
				c-1.6,0-3-0.5-4.3,0.4c-0.9,0.5-2.1,1.2-3,1.6C437.6,422.7,436.9,422.3,436.3,421.8z"/>
			<path fill="#A8DBE3" d="M469.2,381.6c-1.3,3.4-2.1,6.8-0.4,10.5c0.5,1.6-1.6,1.2-2.6,0.8C463.4,388.1,458.4,382.7,469.2,381.6z"
				/>
			<path fill="#E2E98B" d="M494.7,373.7c-1.3,5.6,0.5,14.8-10.7,9.8C491.7,385,490.9,377,494.7,373.7z"/>
			<path fill="#F3EE73" d="M449.9,396.1c0.9-5.1,3.8-5.5,7.7-3.3c0,1.3,0,2.6,0,3.9C455.1,394.8,452.5,395.3,449.9,396.1z"/>
			<path fill="#A8DBE3" d="M474.8,379.2c0.4,1.7,2.6,3.5,0.5,4.9c-1.8,1.2-2.6-2.1-4.3-2.9C472.2,380.5,473.5,379.7,474.8,379.2z"/>
			<path fill="#FCEC73" d="M440.1,346.5c25.7,0,51.5,0,77.2,0c-2.9,3-6.6,1.8-10,1.8c-22.4,0-44.7,0-67.1,0l0,0
				c-0.8-0.4-0.9-0.9-0.8-1.3C439.7,346.7,439.8,346.5,440.1,346.5L440.1,346.5z"/>
			<path fill="#F9ED68" d="M440.1,346.5c0,0.5,0,1.3,0,1.8c-3.4,3.5-1.7,7.9-1.8,12c-1.2,19.8,2.2,39.8-2.1,59.3
				c-3-2.9-1.8-6.6-1.8-10c-0.1-19.9,0-39.7,0-59.5C434.6,346.7,437.2,346.5,440.1,346.5z"/>
			<path fill="#99CDDE" d="M463.4,416c-0.4-5.1,5.1-7.2,5.9-11.4c7.7-3,14-9.4,23.1-9.6c0.9,5.5-3.9,5.6-6.8,7.5
				c-5.1,1.8-9.2,5.1-13,8.8C469.9,413.7,467.8,417.5,463.4,416L463.4,416z"/>
			<path fill="#A4D6E3" d="M484.4,400.6c2.1-2.6,6.6-1.8,7.7-5.6c1.8,0.5,3.9,1.3,5.9,1.8c-1.3,1.3-2.6,2.6-3.9,3.8
				c-0.8,3.5-3.9,4.7-6.8,6.2c-2.1,0.9-4.2,1.6-6.6,0.9C474.6,401.7,484.4,403.6,484.4,400.6z"/>
			<path fill="#A6DCE1" d="M483,391.8c0,1.7-1.2,2.5-2.9,2.6c-1.3,0.1-2.6-0.1-2.6-1.7c-0.1-1.7,0.9-2.9,2.6-3
				C481.7,389.4,482.7,390.1,483,391.8z"/>
			<path fill="#A7DAF2" d="M505.8,387.5c-0.4,0.4-0.8,0.9-1.2,1.7c-0.5-0.9-1.2-1.8-1.6-3c-0.1-0.4,0.5-1.3,0.9-1.3
				C505.8,384.6,505.4,386.1,505.8,387.5z"/>
			<path fill="#9CD9F8" d="M498.9,378.4c0,0.9,0.1,2.1-1.2,2.1c-0.5,0-1.3-1.3-1.3-2.1c0-0.8,0.8-2.1,1.3-2.1
				C499,376.2,498.6,377.5,498.9,378.4z"/>
			<path fill="#4A9FAD" d="M690.6,369.8c0,0.5,0.1,1.2,0.1,1.8c-6.2-3.9-5.9-7.7,0-11.4l0,0C693.7,363.4,688.9,366.6,690.6,369.8z"
				/>
			<path fill="#F7D90B" d="M693.2,360.2c0.5,0,1.2,0,1.7-0.1c2.5,3.9,2.9,7.9-0.4,11.7c-1.2-1.3-2.2-2.6-3.4-3.9
				C690.2,364.7,690.8,362.3,693.2,360.2z"/>
			<path fill="#397190" d="M693.2,360.2c-0.8,2.5-1.6,4.9-2.2,7.5c-0.1,0.8-0.1,1.3-0.4,2.1c-3.3-3.4-1.3-6.6,0.1-9.8
				C691.5,360.2,692.4,360.2,693.2,360.2z"/>
			<path fill="#A5D7EC" d="M448.2,419.9c0.1-0.8,0.4-1.3,0.5-2.1c1.7-0.9,3.3-1.8,4.9-2.9c2.1,10-4.7,16.4-14.7,13.7
				c-0.5-0.1-0.4-2.2-0.5-3.5c0.8-4.9,4.7-3.8,7.9-4.2C446.6,420.9,447.4,420.5,448.2,419.9z"/>
			<path fill="#F3EE73" d="M442.2,408.4c0.5-4.2-3-7.7-1.2-13.1c1.8,2.2,3.3,6.2,6.8,3.3C447.4,402.8,444,405.3,442.2,408.4z"/>
			<path fill="#ACDDD5" d="M444.5,444.7c-2.1-3-6.4-0.8-8.5-3.8c-0.5-0.5-0.5-1.2-0.4-1.6s0.5-0.5,0.8-0.5
				C440.1,439.6,444.9,438.7,444.5,444.7z"/>
			<path fill="#E8EF8A" d="M447.8,421.8c-2.2,3.8-7.3,0.1-9.6,3.5c-0.8,0-1.3,0.1-2.1,0.1c-1.8-1.3,0-2.5,0.1-3.8
				c0.5,0,1.3-0.1,1.8-0.1C441.4,419.7,444.5,419.6,447.8,421.8z"/>
			<path fill="#9DDCEA" d="M450,443.8c2.9,3,4.3,5.1,3.9,8.3C449.9,450.9,449.9,448.3,450,443.8z"/>
			<path fill="#E8EF8A" d="M436.5,439.1c-0.1,0.8-0.4,1.3-0.4,2.1c-0.5-0.5-1.2-1.3-1.8-1.8c0.5-3.9-1.3-8.1,1.8-11.7
				C436.3,431.4,436.5,435.3,436.5,439.1z"/>
			<path fill="#CBEAF5" d="M469,454.7c-0.5-1.3-1.3-2.6-1.8-3.9c-2.1-2.1-4.2-4.2-2.6-7.3c0.8-0.8,1.6-1.2,2.5-0.9
				c3.4,1.2,4.7,4.3,6.4,6.9c3.8,8.8,13.1,11.3,19.4,17.4c0.1,1.7-1.2,2.2-2.2,2.9C480.8,468.2,474.8,461.5,469,454.7z"/>
			<path fill="#ABD9E1" d="M519.3,464.2c-1.3,0.8-2.6,1.3-3.9,2.1c-1.3-0.1-2.2-0.9-3-2.2c-0.5-2.6,0.8-5.6-1.6-8.1
				c0.8-4.6,3.8-6.8,7.7-8.3c0.9,0,1.7,0.1,2.6,0.5c2.1,3.3,0.4,6.9,1.2,10.1C521.9,460.7,520.4,462.4,519.3,464.2z"/>
			<path fill="#D7F0F3" d="M530.3,454.4c-0.5,0-1.2,0-1.6,0.1c-3,1.2-3.8-1.3-4.7-3c-0.1-0.8-0.4-1.7-0.1-2.6
				c0.5-2.6,1.8-4.9,4.3-6.2c0.8-0.4,1.7-0.5,2.6-0.4c0.9,0.4,1.6,0.8,2.2,1.3c0.5,0.8,1.2,1.6,1.3,2.2c0.4,1.7,0.4,3.5-0.1,5.2
				C533.4,452.7,532,453.7,530.3,454.4z"/>
			<path fill="#C8EDF6" d="M525.1,450.7c1.3,1.3,2.5,2.6,3.8,3.9c-2.6,3.9-5.6,7.2-9.6,9.6c0.5-1.8,1.3-3.8,1.8-5.9
				C521.2,455.2,521.7,452,525.1,450.7z"/>
			<path fill="#DBF3F5" d="M490.4,469.6c0.5-0.5,1.3-1.2,1.8-1.7c2.2-2.6,5.5-2.9,8.6-2.6c1.6,0,3,0.1,4.6,0.9
				c1.3,0.8,2.5,1.7,2.1,3.5C501.9,469.6,496,469.6,490.4,469.6z"/>
			<path fill="#C8EDF1" d="M507.4,469.9c-0.5-0.5-1.3-1.2-1.8-1.7c0.8-5.1,3.5-5.9,7.7-3.8c0.5,0.5,1.3,1.3,1.8,1.8
				C513.3,468.6,510,468.6,507.4,469.9z"/>
			<path fill="#8EBBCA" d="M530.3,454.4c0.8-1.3,1.6-2.5,2.2-3.8c1.2-1.2,1.7-3,3.9-2.1c0,1.3,0,2.6,0,3.9c-1.3,0.8-2.5,1.3-3.8,2.1
				C531.9,454.4,531.1,454.4,530.3,454.4z"/>
			<path fill="#A7D9E9" d="M465.5,443c0.5,2.6,1.2,5.1,1.8,7.7c-6.8,0.1-7.2-4.7-7.7-9.6c-1.3-8.8,2.2-16.8,3.9-25
				c7.7-4.3,11.3-14,21.2-15.3c2.1,4.2-5.9,1.7-3.8,5.9c1.2,3-1.3,4.3-2.6,6.2c-1.3,1.3-2.9,2.9-3.9,4.3c-1.6,1.8-2.9,3.9-3.8,6
				c-0.9,2.5-2.5,4.7-2.5,7.3C467.7,434.8,468.8,439.2,465.5,443z"/>
			<path fill="#90C3D5" d="M528.9,423.6c1.8-1.8,3.9-3.9,5.9-5.9c2.2,6.2,4.7,12.4,3,19.1c-0.4,1.7-0.5,3.9,2.5,4.2
				c0.1,0.5,0.4,1.2,0.5,1.7c-0.8,0.8-1.3,1.3-2.1,2.1c-1.8,1.3-3.8,1.7-5.6-0.1v0.1c-4.3-5.5-1.7-12.6-4.7-18.5c0-0.5,0-0.9,0-1.6
				C528.4,424.7,528.5,424,528.9,423.6z"/>
			<path fill="#BFE6F3" d="M532.8,444.7c1.8,0,3.8,0.1,5.6,0.1c-0.5,1.2-1.3,2.5-1.8,3.5c-1.3,0.8-2.6,1.6-3.9,2.1
				C532.7,448.6,532.8,446.8,532.8,444.7z"/>
			<path fill="#0E3040" d="M613.8,398.7c-6.8,13.9-30.8,23.8-44.3,18.5c-0.9-0.4-1.3-2.1-1.8-3c0.1-0.4,0.1-0.8,0.4-1.2
				c0.8-0.9,1.7-1.7,2.9-2.1c2.2-0.5,4.2-2.1,6-3.3c2.6-0.8,5.5-1.2,7.7-2.9c1.2-0.5,2.2-0.9,3.5-1.3c6.9-1.7,10.9-8.5,18.1-10
				C609.5,393.9,612.2,395.3,613.8,398.7z"/>
			<path fill="#0B2C37" d="M613.8,398.7c-3.4,0.1-5.1-2.9-7.9-3.9c-0.5-0.8-0.5-1.6-0.1-2.2c1.6-1.8,3.9-0.8,5.9-1.6
				c2.1-0.8,4.2-1.3,6.2-2.1C617.6,392.7,616.8,396.1,613.8,398.7z"/>
			<path fill="#092632" d="M565.6,406.3c1.8,0,3.9,0,5.9,0c1.7,3.9-3,4.9-3.9,7.7l0,0c-0.5,0-1.3,0-1.8,0
				C563.9,411.4,561.5,409.1,565.6,406.3z"/>
			<path fill="#E5E26C" d="M640.3,362c0.1-0.5,0-1.2,0-1.8c3.3,1.8,2.9,4.6,2.1,7.3c-0.4,1.2-1.7,1.2-0.9,0.1
				c0.1-0.1-0.4-1.2-0.5-1.7C640.6,364.7,640.4,363.4,640.3,362z"/>
			<path fill="#17343C" d="M623.4,358.1c2.6,0.1,5.6-0.8,7.7,1.8c-1.8,1.3-3.8,2.6-5.9,3.8C624.7,361.9,624.1,360.1,623.4,358.1z"/>
			<path fill="#24495B" d="M607.9,364c2.6,8.1,4.7,16.1-2.1,23.3c-0.4-0.4-0.5-0.8-0.9-1.3c-0.4-0.9-0.5-2.1-0.5-3
				C606.5,376.7,602.7,369.5,607.9,364L607.9,364z"/>
			<path fill="#427782" d="M611.3,391c-1.2,2.5-3.4,1.6-5.2,2.2c-1.8,0.4-2.6-0.5-3.3-2.1c0-2.1-0.1-4.2,3-3.8l0,0
				C607.8,388.5,609.5,389.7,611.3,391z"/>
			<path fill="#23495C" d="M590.7,353.8c-2.1,0.1-4.2,0.1-6,0.4c-3.3-1.3-6.2,1.8-9.4,0.9c-2.5,0-4.9-0.1-6.9-1.6
				c-0.4-0.4-0.5-0.8-0.9-1.2C575.4,347.4,583.4,346.1,590.7,353.8z"/>
			<path fill="#092533" d="M554,369.5c1.6-0.8,3-1.6,4.6-2.2c1.6,0.4,2.1,1.6,2.2,2.9c-0.4,3.9-0.4,7.7,2.1,11.1
				c0.4,1.3,0.4,2.6-0.1,4.2c-1.2,1.7-2.6,2.6-4.7,2.5c-2.1-1.3-3-3.3-3-5.6C554,377.9,552.6,373.8,554,369.5z"/>
			<path fill="#254554" d="M554,369.5c0.5,3.9,1.2,7.7,1.7,11.7c-0.5,1.2-1.2,0.9-1.7,0c-3.4-3-0.9-8.3-4.2-11.4
				C551.3,369.8,552.6,369.5,554,369.5z"/>
			<path fill="#ACBDC6" d="M559.4,369.4c-0.4-0.8-0.8-1.3-0.9-2.1c-1.6-3.4,1.2-3.4,3.3-3.9c0.9-0.4,1.8-0.1,2.6,0.8
				c1.6,2.5,0.5,4.9,0.1,7.3c-0.4,2.6-0.5,5.2-3.5,6.4C557.2,375.5,558.8,372.4,559.4,369.4z"/>
			<path fill="#042234" d="M563.6,363.2c-0.8,0.1-1.3,0.1-2.1,0.4c0.4-1.8-2.1-3.8,0.1-5.5c1.7-1.8,2.6-4.9,6-3.9
				c0.9,1.2,1.2,2.5,0.9,3.8c-0.4,1.8-1.3,3.4-2.6,4.6C565.3,362.8,564.5,363.2,563.6,363.2z"/>
			<path fill="#23495C" d="M567.4,354.3c-1.8,1.2-3.8,2.5-5.6,3.5c0-3.8,2.2-5.2,5.6-5.6l0,0c0.4,0.4,0.5,0.9,0.4,1.3
				C567.8,354.2,567.5,354.3,567.4,354.3z"/>
			<path fill="#214558" d="M553.9,381.2c0.5,0,1.2,0,1.7,0c0.8,1.8,1.3,3.9,2.1,5.9c4.2,1.3,7.2,3.8,8.8,7.9c0.1,1.6,0,2.6-1.3,3.5
				C559.4,394.2,553.9,389.7,553.9,381.2z"/>
			<path fill="#0A2A3F" d="M565.3,398.5c0-1.3,0-2.6,0-3.9c-0.4-1.7,0.5-2.5,2.1-3c2.5-0.4,4.7,0.4,6.9,1.7c1.3,0.9,1.8,2.2,1.7,3.9
				c-1.2,3-3.4,3.4-6,3c-0.9-0.4-1.7-0.9-2.5-1.7C566.6,398.7,566.1,398.7,565.3,398.5z"/>
			<path fill="#0A2D3F" d="M567.4,398.7c0.5,0,1.3,0,1.8,0c2.1,2.1,6.2,1.6,6.9,5.2c0,0.9-0.1,1.7-0.8,2.5c-0.9,0.4-1.7,0.4-2.2-0.4
				c-1.8-1.8-3.9-3.5-5.9-5.5C567.4,400,567.4,399.3,567.4,398.7z"/>
			<path fill="#1D3C4D" d="M592.3,359c1.2-1.3,2.5-1.3,3.9-1.2c0.8,1.8,2.1,3.3,3.8,3.9c2.2,0.5,3.4,2.1,4.2,4.2
				c2.6,9.2,1.7,17.8-5.1,25.4c-2.6,1.3-4.9,0.9-6.8-1.2c-0.5-0.8-0.9-1.7-0.9-2.6c0.1-1.3,0.8-2.6,1.6-3.8
				c4.2-5.6,3.2-11.1-0.5-16.4C591,364.5,590.5,361.9,592.3,359z"/>
			<path fill="#0F3547" d="M602.1,365.8c-0.5-1.3-1.3-2.6-1.8-3.8c4.7-8.1,4.6,3.8,7.7,1.8c-0.5,7.2,1.6,14.4-1.8,21.5
				c-4.6,0-3.4-3.5-2.5-5.2C606.5,374.6,604,370.3,602.1,365.8z"/>
			<path fill="#001A18" d="M592.3,359c0.8,3,1.6,5.9,2.2,8.8c-0.1,0.4-0.4,0.8-0.5,1.2c-0.9,0.9-2.2,1.6-3.8,1.3
				c-3.3-1.3-5.2-3.5-6.6-6.6c-0.4-1.6-0.1-2.9,0.5-3.9c1.2-0.9,2.5-1.2,3.9-0.4C589.6,359.3,591,359.3,592.3,359z"/>
			<path fill="#BEDADB" d="M588.2,359.4c-1.2,0-2.2,0-3.4,0.1c-2.5,0.8-4.9,0.8-6.4-1.8c0.5-2.5,2.2-2.9,4.3-2.1
				C585.5,355.9,587.7,356.3,588.2,359.4z"/>
			<path fill="#65787C" d="M582.9,355.6c-1.3,0.5-3.3,0.1-3.8,2.2c-1.8,1.6-3.5,0.8-5.2-0.1c-0.8-0.5-1.2-1.6-1.3-2.5
				c0.5-1.6,1.8-1.8,3.4-1.8c2.2,0.4,4.9-0.9,6.8,1.2C582.9,355,582.9,355.2,582.9,355.6z"/>
			<path fill="#0C1E40" d="M582.9,354.6c-2.6,0-5.1-0.1-7.7-0.1c-0.8-0.4-0.9-0.9-0.8-1.3c0.1-0.4,0.4-0.5,0.8-0.5
				c3.3,0.5,6.8-1.3,9.6,1.8C584.2,354.3,583.5,354.3,582.9,354.6z"/>
			<path fill="#9CB3BD" d="M573.2,406.1c0.5,0.1,1.2,0.4,1.8,0.5c0.5,0.4,0.8,0.9,0.5,1.6c0,0.5-0.1,0.8-0.4,0.8
				c-0.9,1.6-2.5,2.5-4.2,3c-1.3,0.8-2.5,1.3-3.8,2.1c-0.8-3.5,3-4.9,3.9-7.7C572.1,406.3,572.6,406.2,573.2,406.1z"/>
			<path fill="#90C4D6" d="M528.9,421.5c0,0.8,0,1.3,0,2.1l0,0c-1.3,2.6-3,4.7-6.2,5.2c-0.9,0.1-1.8,0-2.9-0.1
				c-1.2-0.4-2.5-0.9-3.3-1.8c-7.2-10-17-10.9-28-9.4c-3.4-0.9-6.2-2.6-6.8-6.6c0.8-3.4,3.8-3.9,6-5.2c0.9-0.4,1.7-0.5,2.6-0.4
				c5.1,2.2,10.3,0.5,15.6,1.2c0.9,0.1,1.7,0.4,2.5,0.8c2.6,2.1,5.6,3.3,9.2,3.4c1.8,0.9,3.9,1.8,5.5,3.5l0,0
				C524.7,416.7,526.9,419.2,528.9,421.5z"/>
			<path fill="#C9E7F4" d="M523,414.1c-1.8-0.8-3.8-1.3-5.9-2.1c-3.3-1.6-6.6-2.2-9.6-3.9l0,0c-4.9-2.5-10.1,0.5-15.1-1.2
				c-1.6-5.2,3-3.5,5.2-4.6l0.1-0.1C508.1,402.8,517.6,404.1,523,414.1z"/>
			<path fill="#CCEDED" d="M528.9,421.5c-3.3-1.6-5.6-3.8-5.9-7.7C526.3,415.6,528.5,417.9,528.9,421.5z"/>
			<path fill="#E3F4FB" d="M498,402.4c-1.8,1.2-3.9,2.2-5.9,3.4c-0.1,1.2-0.9,1.3-1.7,0.8c-0.5,0-1.3,0-1.8,0
				c-2.1,0.5-2.5-0.1-2.1-2.1c2.6-1.3,5.1-2.6,7.7-3.9C495.5,401.1,496.5,401.9,498,402.4z"/>
			<path fill="#FCE678" d="M440.2,419.7c1.8-5.6,3.8-3,5.9,0C444,421.3,442.2,421.3,440.2,419.7z"/>
			<path fill="#EDEF77" d="M440.2,419.7c1.8,0,3.8,0,5.9,0c0.8,0,1.6,0,2.1,0c-0.1,0.5-0.1,1.3-0.4,1.8c-3.3,0-6.4,0-9.6,0
				C438.9,421,439.5,420.5,440.2,419.7z"/>
			<path fill="#C8EAF8" d="M486.4,404.5c0.8,0.8,1.3,1.3,2.1,2.1c-1.8,1.3-3.9,2.5-5.9,3.8c-0.8,1.7-1.8,2.9-3.8,2.9
				c-0.9-0.1-1.6-0.5-2.2-1.2c0-2.9,2.9-3.8,4.2-5.6C482.7,405.8,484.6,405,486.4,404.5z"/>
			<path fill="#A6D9E5" d="M501.9,468c-3.3,0-6.4,0-9.6,0c-8.3-4.3-17.3-7.9-21.1-17.4c0.4-1.2,0.9-2.2,2.1-3
				c1.2-0.5,2.5-0.8,3.5-0.8c1.3,0,2.6,0.4,3.8,0.9c0.8,0.4,1.3,0.9,2.1,1.7c2.6,3.3,5.1,6.8,10,6.4c3.4,0.4,6.8,1.3,10.1,0.8
				c1.8,0,3.5,0.1,5.1,1.6C509.1,463.3,503.9,464.6,501.9,468z"/>
			<path fill="#93C4D6" d="M472.9,448.8c-0.5,0.5-1.2,1.2-1.7,1.7c-1.3-2.5-2.9-5.1-4.2-7.5c-1.7-3.5-0.8-7.3-0.8-11.1
				c0.8-0.9,1.7-1.2,2.9-0.9C471.8,436.6,474.4,442.2,472.9,448.8z"/>
			<path fill="#D8F3FD" d="M467.3,431.6c0,3.8,0,7.7-0.1,11.4c-0.5,0-1.2,0-1.7,0c0-5.1,0-10.1,0-15.2
				C468.6,427.7,468.2,429.5,467.3,431.6z"/>
			<path fill="#F6EF6E" d="M507.7,458.6c-1.8,0-3.8,0-5.6,0c-5.1-1.7-8.5-8.8-15.3-4.7c-3-0.4-3.9-3.4-6-5.1l0.1-0.1
				c-2.5-1.6,0.1-6.9-4.9-6.2c-1.7-2.5-1.7-5.1-0.9-7.9c3-4.3,4.9-9,6-14c1.7-2.9,3.5-5.6,7.5-4.6c13.9-4.7,24.6,0,32.5,11.7
				c4.7,8.8,4.2,14-2.1,21.1c-2.5,2.6-5.1,5.2-7.5,7.7C510.7,458.2,509.8,459.4,507.7,458.6z"/>
			<path fill="#A7D9E7" d="M507.7,458.6c1.3-0.8,2.5-1.6,3.8-2.2c13.4-0.8-2.9,6.4,2.1,7.9c-3,0.4-5.6,1.6-7.7,3.8
				c-1.3,0-2.6,0-3.8,0C500.7,462.9,506,462,507.7,458.6z"/>
			<path fill="#AEDCDC" d="M518.9,448.6c3-6.8,2.5-13.9,2.1-21.1c0.8,0,1.3-0.1,2.1-0.1c1.3,1.2,1.6,2.6,1.3,4.3
				c6,0,5.1,3.9,4.3,7.7c-1.6,2.5-3.5,4.6-4.3,7.3c-0.8,1.2-1.7,1.8-3.3,1.8C520.4,448.6,519.7,448.6,518.9,448.6z"/>
			<path fill="#A3D5EA" d="M521.2,448.8c0.5-0.5,1.3-1.3,1.8-1.8c1.2,0.1,1.8,0.8,2.1,2.1c0,0.5,0,1.3,0,1.8c-0.5,3-1.6,5.9-4.2,7.7
				C517.6,455.2,519.7,452,521.2,448.8z"/>
			<path fill="#DAECF5" d="M528.9,425.7c7.3,5.1,2.5,12.7,3.9,19.1c-0.8-0.8-1.3-1.3-2.1-2.1c-3.5-3.8-0.5-9-3-13
				C527.3,428.3,527.6,426.9,528.9,425.7z"/>
			<path fill="#A8E2F9" d="M525.1,448.8c-0.8-0.8-1.3-1.3-2.1-2.1c1.2-2.1-2.6-7.3,3.9-5.6c0.8,0.1,1.3,0.4,1.7,0.9
				c0,0.4,0.1,0.5,0.1,0.9C527.6,444.9,526.4,446.9,525.1,448.8z"/>
			<path fill="#AEDCDC" d="M528.9,429.3c3.4,4.2,1.3,9,1.8,13.5c-0.5,0-1.2,0.1-1.8,0.1h-0.1C527.6,438.3,527.2,433.8,528.9,429.3z"
				/>
			<path fill="#C7E7F0" d="M467.3,431.6c-0.5-1.3-1.3-2.5-1.8-3.8c1.2-2.1,2.5-4.2,3.5-6c1.6,0.1,2.5,1.2,2.9,2.5
				c0.1,2.9-0.1,5.5-2.9,6.9C468.4,431.2,467.8,431.4,467.3,431.6z"/>
			<path fill="#C9E5F3" d="M476.6,412.1c0.8,0,1.6,0,2.2,0.1c0.5,4.6-1.7,6.2-6,6.2c-0.9-0.8-0.9-1.7,0-2.5
				C473.1,413.5,474.3,412.2,476.6,412.1z"/>
			<path fill="#CEEEFB" d="M472.9,415.8c0,0.8,0.1,1.6,0.1,2.2c0.9,2.6,0,4.3-2.5,5.5c-0.5-0.5-1.2-1.3-1.7-1.8
				C469.2,418.9,470.5,417.1,472.9,415.8z"/>
			<path fill="#9FE0F7" d="M528.9,429.3c0,4.6,0,9,0,13.5c-0.5-0.5-1.3-1.2-1.8-1.8c2.6-5.6-5.2-8.3-3.9-13.5
				c1.8-1.3,3.9-2.6,5.9-3.8c0,0.8,0,1.3,0,2.1C528.9,427,528.9,428.2,528.9,429.3z"/>
			<path fill="#1D4457" d="M603.7,391c0.8,0.8,1.7,1.6,2.5,2.1c-0.1,0.5-0.1,1.2-0.1,1.6c-5.5,4.3-10.5,9.4-17.3,11.4
				c-0.5-0.5-0.9-1.3-0.9-2.2c1.3-4.6,5.6-5.9,8.6-8.5c1.6-1.2,3-2.5,4.3-3.9C601.4,391,602.5,390.5,603.7,391z"/>
			<path fill="#1B3B4C" d="M574.9,408c0.1-0.5,0.1-1.2,0.1-1.6c0-0.8,0-1.6,0.1-2.2c0.5-1.2,1.2-2.2,2.5-2.6c0.9,0,1.7,0.1,2.5,0.4
				c1.7,1.3,3.8,2.1,4.7,4.2c-1.7,3.9-4.6,3.9-7.7,1.8C576.2,408.8,575.7,408.8,574.9,408z"/>
			<path fill="#274C5F" d="M584.8,406.3c-2.9,0-5.5,0-5.9-3.8c0.5-0.8,1.6-1.2,2.5-1.2c2.9,0,5.5,0.5,7.3,3c0,0.5,0,1.2,0,1.8
				C587.3,406.2,586,406.3,584.8,406.3z"/>
			<path fill="#0B2A34" d="M574.9,408c0.8,0,1.6,0,2.2,0.1c-0.8,3.3-1.8,5.9-5.9,3.8C572.5,410.8,573.6,409.5,574.9,408z"/>
			<path fill="#234659" d="M603.7,391c-0.5,0.5-1.2,1.3-1.7,1.8c-1.3,0.5-2.5,0.1-3.4-0.8c-0.1-0.4-0.4-0.8-0.5-1.2
				c4.7-7.9,6.4-16.1,3.9-25.2c3.8,3.5,4.7,7.9,3.3,12.7c-0.8,2.5-1.7,4.7,0.8,6.8c0,0.8-0.1,1.3-0.1,2.1
				C605.1,388.5,604.4,389.8,603.7,391z"/>
			<path fill="#0D2B37" d="M575.1,352.3c0,0.5,0,1.3,0,1.8c-0.5,0.4-1.2,0.9-1.7,1.3c0.4,0.4,0.8,0.9,0.8,1.3c0,0.5,0,0.8-0.1,0.8
				c-2.2,1.6-4.6,1.8-6.6-0.1c0-1.2,0-2.1,0-3.3c0-0.5,0-1.3,0-1.8C570,352.3,572.6,352.3,575.1,352.3z"/>
			<path fill="#223948" d="M567.3,392.8c-0.5,0.5-1.3,1.3-1.8,1.8c-3.3-1.8-5.9-4.3-7.5-7.7c1.3-0.8,2.5-1.7,3.8-2.5
				s2.6-0.9,3.9-0.5c1.3,0.5,2.2,1.6,3,2.6c0.4,0.9,0.5,1.7,0.8,2.6C569.1,390.9,568.6,391.9,567.3,392.8z"/>
			<path fill="#182B36" d="M564.5,385c-1.2-0.1-2.1-0.4-3.3-0.5c0-0.9,0.1-2.1,0.1-3c-1.3-1.3-1.6-2.9-0.5-4.6
				c0.4-2.5,0.5-4.7,0.9-7.2c2.9-0.1,3.3,2.1,4.2,3.9C566.2,377.6,569.6,382,564.5,385z"/>
			<path fill="#758D9A" d="M561.1,377.1c0.1,1.6,0.4,3,0.5,4.6c-6.4-3-4.3-7.5-2.2-12.2C560.1,372,558.9,375,561.1,377.1z"/>
			<path fill="#364A53" d="M563.6,373.6c-0.5-1.2-1.2-2.5-1.6-3.5c0.5-2.2,0.9-4.6,1.6-6.8c0-0.5,0.1-0.9,0.9-1.2
				c0.8-0.4,1.6-0.1,2.2,0.1c0.8,0.5,1.2,1.2,1.7,1.8c0.4,0.8,0.4,1.6,0.4,2.5C567.9,369.4,568.6,373.6,563.6,373.6z"/>
			<path fill="#8CA3A8" d="M567.4,357.6c2.1-0.5,3.9-0.5,5.6,0.9c0.4,3.9-2.2,4.2-5.1,4.6c-0.9,0-1.7-0.4-2.2-1.2l-0.5-0.1l-0.5,0.4
				C565.6,360.6,564.9,358.1,567.4,357.6z"/>
			<path fill="#BFD6D6" d="M575.3,396.5c-0.5-0.8-1.3-1.6-1.8-2.1c-0.5-0.9-0.4-1.7,0.1-2.5c0.8-0.5,1.6-0.9,2.5-1.3
				c3.5-0.4,7.2-1.6,10.9-0.1c0.9,1.2,1.3,2.5,0.9,3.9c-0.4,1.3-1.3,2.5-2.5,3.4c-1.8,1.3-4.2,1.8-6.4,2.1
				C577,399.4,575.8,398.3,575.3,396.5z"/>
			<path fill="#1A3D4E" d="M575.3,396.5c1.3,0.8,2.5,1.6,3.8,2.2c0.9,1.8-0.4,2.6-1.7,3.4c-0.8,0.8-1.3,1.6-2.1,2.2
				c-1.8-1.8-3.9-3.8-5.9-5.9C571.5,398.5,573.8,398.7,575.3,396.5z"/>
			<path fill="#99B5B6" d="M573.2,393.1c0.1,0.4,0.1,0.8,0.1,1.3c-2.1-0.5-3.9-0.9-6-1.6c0-1.3,0-2.6,0-4.2
				C570.8,388.1,573.8,388.1,573.2,393.1z"/>
			<path fill="#374A47" d="M586.8,391c-3.8,2.1-7.7,1.7-11.7,1.3c-0.9-1.2-1.2-2.5-0.4-3.8c3.8-3,9.4-2.2,12.6-6.4
				c1.6-0.9,3.3-1.7,4.9-1.8c0.9,0,1.7,0.1,2.5,0.5c0.9,1.2,0.8,2.5,0,3.5c-0.9,0.9-1.7,1.8-2.6,2.9
				C591,389.7,590.3,392.6,586.8,391z"/>
			<path fill="#CFE5F0" d="M594.7,384.4c0.1-0.9,0.1-2.1,0.4-3c-1.7-4.6-2.1-9-0.4-13.5l0,0C601.6,373.6,599.9,378.9,594.7,384.4z"
				/>
			<path fill="#3B6F81" d="M592.6,388.9c1.8,0.8,3.8,1.3,5.6,2.1l0,0c2.6,5.1-1.7,4.9-4.6,6c-1.7,0.1-3.3-0.1-4.6-1.2
				C586.8,391.8,590.3,390.6,592.6,388.9z"/>
			<path fill="#AFC9CA" d="M592.6,388.9c-1.6,1.8-2.9,3.8-4.3,5.5c-0.5,0.8-1.2,0.5-1.7,0c0-1.2,0-2.2,0-3.5
				c1.7-1.3,3.5-2.5,5.2-3.8C592.2,387.7,592.3,388.4,592.6,388.9z"/>
			<path fill="#FEFE80" d="M592.7,381.2c-0.8,2.1-2.5,1.7-4.2,2.1c-2.1-0.4-3.3-1.8-3.9-3.5c-0.9-3.9-2.9-7.7-3.3-11.8
				c0.1-1.6,0.8-2.6,1.8-3.5c0.4-0.1,0.9-0.4,1.3-0.5c2.6,1.6,4.7,3.4,6.2,6.2C594.9,372.9,594.4,377,592.7,381.2z"/>
			<path fill="#1D3C4D" d="M592.7,381.2c-0.5-3.8-1.3-7.7-1.8-11.4c1.3-0.5,2.5-1.2,3.8-1.8c2.1,4.6,2.9,9,0.4,13.5
				C594.3,381.4,593.5,381.2,592.7,381.2z"/>
			<path fill="#0F2438" d="M575.1,356.3c1.3,0.5,2.6,1.2,4.2,1.7c1.8,0.5,4.2-0.1,5.6,1.7c0,1.3-0.1,2.6-0.1,4.2v0.8
				c-3,0.8-5.9,0.4-8.5-1.6C574.5,361,573.4,358.9,575.1,356.3z"/>
			<path fill="#1A272F" d="M575.1,356.3c0.5,1.7,1.3,3.4,1.8,5.1c-2.5,3.8-5.6,4.9-9.8,2.5h0.1c-0.5-0.4-0.8-0.8-0.4-1.2
				c0.1-0.1,0.4-0.4,0.8-0.4c1.7-1.3,3.5-2.6,5.2-3.9c0.1-0.9,0.4-1.8,0.4-2.9C574,355.9,574.5,356,575.1,356.3z"/>
			<path fill="#91C3D9" d="M470.7,423.6c0.8-1.8,1.6-3.8,2.5-5.5c1.8-2.1,3.9-3.9,5.9-6c1.3-0.5,2.6-1.3,3.8-1.8
				c1.8,1.8,3.8,3.8,5.9,5.6c-1.8,1.8-3.8,3.9-5.9,5.9c-2.6,2.5-2.2,6.6-4.9,9c-2.1,0.9-0.9,5.6-5.1,4.2c0,0-0.4-0.1-0.1-0.1
				c3.4,2.6,2.5,7.2,5.2,10c0.5,1.3,0.4,2.6-0.5,3.8c-1.3,0-2.9,0.1-4.2,0.1c-2.2-5.6-4.9-11.1-3.9-17.4
				C469.5,428.7,470.1,426.1,470.7,423.6z"/>
			<path fill="#8ABFCD" d="M490.4,406.6c0.5-0.1,1.2-0.4,1.7-0.8c5.1,1.2,10.9-1.6,15.6,2.2C501.9,407.5,495.6,412.4,490.4,406.6z"
				/>
			<path fill="#8EC2CB" d="M507.7,408.3c3.8-0.1,7.2,0.8,9.6,3.9C512.5,414.5,509.9,411.8,507.7,408.3z"/>
			<path fill="#F7EE6B" d="M486.4,452.6c4.9-3.3,10.7-1.8,16.8-3.3c-4.6,3-7.3,5.9-1.3,9c-3.4,2.5-6.4-0.4-9.8-0.4
				C490.4,456.1,485.7,457.4,486.4,452.6z"/>
			<path fill="#F4ED75" d="M477,448.6c-0.1-1.3-0.1-2.5-0.4-3.8c-0.9-0.9-0.8-1.7,0.5-1.8c1.7-2.2,3.5-4.7,6-8.1
				c0.8,6-3.8,9.4-2.6,13.7C479.5,448.6,478.2,448.6,477,448.6z"/>
			<path fill="#E3E791" d="M486.4,452.6c1.8,1.8,3.9,3.8,5.9,5.6c-6.6,0.1-9.8-3.8-11.7-9.4C483.7,448.5,484.4,451.4,486.4,452.6z"
				/>
			<path fill="#93C4D6" d="M477.3,443c-0.1,0.5-0.4,1.3-0.5,1.8c-0.4-0.4-0.9-0.9-1.3-1.6c-1.8-4.9-7.5-10,1.2-14
				c1.3,1.2,1.2,2.5,0.4,3.8C476.5,436.5,476.2,439.9,477.3,443z"/>
			<path fill="#F4ED75" d="M477,433.2c-0.1-1.3-0.1-2.5-0.4-3.8c1.7-2.9,2.9-6,5.9-7.7C481.2,426,483.4,431.6,477,433.2z"/>
			<path fill="#FAEA78" d="M503.7,421.8c1.2,0,4.3-1.6,2.9,0.9c-2.6,4.7-6.2,3.4-8.6-0.9C499.9,420.1,501.9,420.2,503.7,421.8z"/>
			<path fill="#EEF466" d="M503.7,421.8c-1.8,0-3.9,0-5.9,0C499.9,416,501.9,418.8,503.7,421.8z"/>
			<path fill="#153A4C" d="M588.6,404.5c-2.9-0.1-6,0.8-7.9-2.2c-0.4-3.3,1.7-3.9,4.2-4.6c2.6-1.2,5.2-2.1,8.1-1.8
				c1.8,0.1,3.8-0.5,5.5,0.9C594.9,399.3,591.8,401.9,588.6,404.5z"/>
			<path fill="#113D4D" d="M598.3,396.8c-2.1,0-3.9,0-6-0.1c-0.5-0.4-0.8-0.5-0.5-0.9c0.1-0.4,0.4-0.4,0.5-0.4
				c2.6-0.4,5.6-0.4,5.9-4.3c1.3,0.8,2.5,1.3,3.8,2.1C600.8,394.2,599.5,395.5,598.3,396.8z"/>
			<path fill="#ADC3C8" d="M584.3,398.5c-1.2,1.2-2.2,2.5-3.5,3.5c-0.5,0-1.3,0.1-1.8,0.5c-0.5-0.1-1.2-0.4-1.7-0.4
				c0.5-1.2,1.2-2.2,1.7-3.4c1.3-2.1,3.3-2.1,5.2-2.1c0.8,0.4,0.9,0.8,0.8,1.3C584.7,398.3,584.5,398.5,584.3,398.5z"/>
			<path fill="#FCEF80" d="M567.4,363.7c3.3-0.8,6.4-1.7,9.8-2.5c2.9,0.1,5.6,0.4,7.7,2.9c-0.8,1.3-1.3,2.6-2.1,3.8
				c-10.1,5.5-10.1,5.5-6,15.2c0.4,2.6-1.2,4.3-3,5.9c-2.6,1.3-4.2-1.2-6.4-1.6c-0.9-0.8-1.8-1.7-2.9-2.5c1.7-3.9-2.1-7.5-0.9-11.4
				C565.7,370.5,567.3,367.5,567.4,363.7z"/>
			<path fill="#1E303C" d="M567.4,387.6c2.2-1.7,3.8,1.3,5.9,1.2c0.9-0.5,1.6-0.1,1.8,0.8c0,0.9,0,1.8,0,2.9
				c-0.5,0.1-1.3,0.5-1.8,0.8c-1.8-1.6-3.9-2.9-5.9-4.3C567.4,388.4,567.4,388,567.4,387.6z"/>
			<path fill="#5A6D73" d="M567.8,362.4c0,0.5,0,0.9-0.1,1.6c-0.5-0.5-1.3-1.3-1.8-1.8C566.2,362,567,362.3,567.8,362.4z"/>
			<path fill="#082634" d="M584.3,398.5c0-0.5,0-1.3,0-1.8c0.8-0.8,1.7-1.6,2.5-2.1c0.5,0.1,1.2,0.1,1.7,0c1.3,0.1,2.6,0.4,3.9,0.8
				c0,0.5,0,0.9,0,1.6C589.6,397.2,586.9,397.9,584.3,398.5z"/>
			<path fill="#FDF567" d="M575.1,389.4c-0.5-0.1-1.3-0.5-1.8-0.8c0.5-1.8,1.2-3.5,1.8-5.5c3.3-3.3,6.9-5.1,11.4-4.3
				c0.8,1.6,1.6,2.9,2.1,4.3C585.8,388.8,580.8,389.8,575.1,389.4z"/>
			<path fill="#103654" d="M586.5,378.9c-3,3.5-6.9,5.1-11.4,4.3c-5.6-1.8-5.9-7.9-4.7-10.9c1.7-4.9,7.3-5.2,12.4-4.2
				C585.5,371.1,587.9,374.5,586.5,378.9z"/>
		</g>
	</g>
	<g id="Layer_2_1_">
	</g>
</g>
<rect x="29.9" y="486.8" fill="none" width="233.3" height="70.9"/>
</svg>
