<?xml version="1.0" encoding="utf-8"?>
<!-- Generator: Adobe Illustrator 18.1.0, SVG Export Plug-In . SVG Version: 6.00 Build 0)  -->
<svg version="1.1" id="Layer_1" xmlns="http://www.w3.org/2000/svg" xmlns:xlink="http://www.w3.org/1999/xlink" x="0px" y="0px"
	 viewBox="0 488 612 304" enable-background="new 0 488 612 304" xml:space="preserve">
<g id="Layer_1_1_">
</g>
<g id="Layer_2">
	<g id="U4X7JD_1_">
		<g>
			<polygon fill="#183964" points="1.2,770.7 260.8,774.2 291.9,719.3 613.1,713.8 613.1,792 260.3,792 1.2,792 			"/>
			<path fill="#FDFDFD" d="M411.4,742.3c-24.7,0-49.2,0-73.8,0c-3.2,0-6.4,0.4-9.2-1.4c-3-3.8-2.7-7.9-1.3-12.1
				c-0.7-6.4,2-7.9,8.6-7.9c44.3,0.3,88.7,0.1,133,0.1c2.7,0,5.3,0.3,8.1,0.6c3.2,2.2,5.9,4.3,10.3,4.3c5.8,0,11.4,9,11.3,16.3
				c-9.4,0.1-18.8,0.1-28.3,0.3c-1.3,0.7-2.5,1.6-3.9,1.7c-15.6,0.4-31.1,0.1-46.8,0.1C416.5,744.2,413.7,744.2,411.4,742.3z"/>
			<path fill="#0F303F" d="M498.1,742.2c-1.2-5.5-6.1-8.7-8.1-13.6c-0.9-2-3.3-1.7-4.5-1c-7.5,4.3-7.9-1-9-6.1
				c-0.3-1.4-1.4-1.7-2.6-2c-0.1-0.7,0-1.3,0.3-2c0.1-0.1,0.3-0.4,0.4-0.6c9.1-3.2,9.1-3.2,6.6-13.9c-0.6-6.1,0.1-12-6.8-16.3
				c-4.9-3,0.9-16.3,7.4-17.3c3.8-0.6,6.5-1.7,8.1-5.2c0.4-0.6,0.9-1.2,1.3-1.6c2-1.4,3.9-3,6.5-2.9c0.4,0.1,0.9,0.3,1.3,0.4
				c0.1-0.4-0.1-0.9-0.6-1.2c-1.6-2-2.3-4.6-3.6-6.8c-2.3-4.6-0.6-8.1,3.5-10.4c4.3-2.5,8.6-6.8,13.9-2.3c2.3,2,4.9,3,7.9,3.3
				c4.6,3.6,10.3,4.3,15.9,4.6c1.4,0.1,2.9,1.7,3.9-0.6c1.2-1.7,0.6-5.6,4.6-3.5c1.9,3.6,1.9,7.1,0.1,10.7c-1.9,2.6-5.1,2-7.5,3.2
				c-8.8,1.4-15.6,7.7-23.8,10.3c-1,1-1.9-2.7-2.7-0.1c-0.9,2.7-2.7,4.8-4.8,6.4c-2.5,1.9-2.5,3.9-1.3,6.4c0.1,4-1.6,7.7-2.2,11.4
				c-0.9,2.3-1,4.8-0.9,7.4c-0.3,8.1,2.2,15.3,5.9,22.3c1.3,2.3,2.7,4.6,4.9,6.4c3,3.2,6.2,6.2,10,8.6c2,1.6,4.5,2.3,6.9,3
				c2.5,0.9,4.9,1.6,7.1,2.9c0.9,0.4,1.6,1,2.5,1.6c1.9,1.7,5.1,1.3,6.4,3.9c0.4,4.8,2.9,7.7,7.8,8.2c2.2,1.4,1.9,2.9-0.1,4.2
				c-0.1,10.7-4.6,13.9-14.9,10.4c-2-0.7-1.6-2-2-3.3c-1.6-5.9-13.6-13.6-19.6-12.6c-0.9,0.1-1.6,1-2.5,1.4
				c-2.5,1.3-3.2,6.5-7.5,3.8c-4.2-2.7-9.7-4.8-8.4-11.6c2.5-1.6,3.5-3.5,1.4-6.1C498.9,741.9,498.6,741.9,498.1,742.2z"/>
			<path fill="#95BFE5" d="M289.9,667.8c4.6-10-4-8.6-9-10.4c0.7-1.2,2-0.4,2.9-1c-1.6,1.2-2.7-3.2-4.3-0.3c-2.2-3.6-0.9-7.7-1-11.4
				c-0.3-4,1.4-6.6,5.9-6.4c2.9,0.1,5.1-0.1,6.1-3.8c0.9-3.3,0-5.3-2.9-6.5c-5.2-2.2-4.3-5.6-2.5-9.4c0-3.3,1.9-5.9,3.8-8.4
				c1.9-2.3,4.3-4.2,6.8-0.4c3.8,3.6,6.8,3,9.2-1.4c0.7-3.5-4.3-4.3-3.3-7.8c3.6-4.5,10-5.6,13.4-10.4c3-2.5,4.5-0.1,5.8,2
				c1.4,2.5,2.9,4.5,6.2,4.3c1.4,1.2,1.6,2.6,1.3,4.2c-2.9,5.1-2.2,10.6-1.6,16c0,0.7-0.1,1.4-0.3,2.2c-7.4,6.6-14,13.6-14.9,24.3
				c-0.1,2.9-0.1,5.6,0,8.6c0.3,5.9,2.7,11,6.1,15.6c0.6,0.7,1.2,1.4,1.9,2.2c1.6,2,3.8,3.3,5.5,5.2c0.6,0.9,1,1.7,1.3,2.6
				c0.6,2.2,0.9,4.5,1.6,6.8c0,0.7,0,1.3-0.3,2c-1.9,3.5-1.7,7.1,0,10.6c0.1,0.7,0,1.3-0.4,1.9c-0.3,0-0.6,0-0.7,0.1
				c-9,7.5-9,7.5-20.1,1.4c-1.3,0.4-2-0.1-2.5-1.3c-0.7-2,0.1-3.6,0.7-5.6c2.5-6.6-0.4-10.3-6.6-7.5c-6.1,2.6-7.8-0.1-9.6-4.5
				c-1.4-3.5-6.4-6.1-3-10.8C287.5,670.6,289.2,670.1,289.9,667.8z"/>
			<path fill="#0D3040" d="M330,578.6c0-0.4,0.1-0.9,0.1-1.2c2.7-2.9,6.2-2.5,9.7-2.5c21.8,0,43.8,0,65.7,0c4.2,0,8.4-0.3,12.1-2.3
				c5.8-0.1,12.4,1.2,13.7-7.4c0.1-1.2,1.9-1.6,3-1c0.7,0.3,1.2,0.9,1.9,1.2c5.8,3.2,8.6-3.2,12.6-3.9c4-0.6,7.4,7.2,12.6,4
				c4.5-2.7,5.9-2.2,6.9,2.6c0.4,1.7,2.5,2.2,4,2.7c1.6-0.9,2.9,1.6,4.5,0.4c2.5-0.3,4.6,0.1,4,3.3c-0.6,3.2,1.9,2,3.2,2.5
				c7.4,4.8,7.4,4.8,3.3,14.7c-4.2,3.3-7.2,1.2-9.8-2.3c-5.6-7.2-12.6-12-22-13.7c-13-2.3-26.3,3-33.8,14.3
				c-5.8,6.4-5.8,14.9-7.8,22.6c-1,1.7-2.3,3-4,3.9c-1.2,0.3-2.2,0.3-3.3-0.3c-2.3-2.3-1.4-5.5-2.3-8.1c-0.1-0.7-0.3-1.3-0.3-2
				s0.1-1.3,0.3-1.9c0.9-1.7,0.6-3.6,0.3-5.5c0.4-3.2,1.9-6.4,0.4-9.6c-0.3-2.3-2.3-3.6-3.2-5.6c-1.7-3.5-5.1-2.5-7.8-2.5
				c-18.6,0-36.8,0-55.4,0c-1.2,0.1-2.3,0.3-3.3,1.2c-3.6,3.3-5.1,1.6-5.5-2.5C330,579.2,330,579,330,578.6z"/>
			<path fill="#0D3040" d="M554.3,630.8c0.6,3.8-2,9.1,4.3,10.1c5.8,0.9,11.8,8.4,17.3-0.4c1.7-2.7,3.9-2.7,6.1-0.7
				c3.9,3.8,13.7,5.1,5.6,13.9c-1.4,1.6-0.1,3.2,0.9,4.6c2.7,3.5,5.3,7.1,7.9,10.7c1.6,2.3,3.2,3.3,6.2,2.3c10-3.6,7.4,5.8,9.4,9.8
				c2.9,5.5-1.9,5.8-5.6,6.2c-3,1.2-2.5,3.8-2.5,6.1c-0.1,5.2,0.1,10.6-0.3,16.6c-3.5-1-3.9-3.2-4.2-5.5c-0.6-2.9-0.3-5.8-0.3-8.6
				c0.4-2.6,0.4-5.1-0.9-7.5c-3.8-12-9.7-22.6-19.3-30.8c-2.5-2.2-5.2-3.8-7.9-5.2c-1.3-0.4-2.6-1.2-3.8-2
				c-5.8-3.8-12.9-3.8-19.1-6.1c-2.9-2-6.2-4,0.3-5.3c3.5-0.7,2.2-3.9,3-5.5c-1.9,0.7,1.3,6.9-4.5,4.2c-0.3-0.7-0.6-1.3-0.7-2
				c0.1-3.5,0.9-6.8,2-10c0.4-0.7,1.2-1.2,1.9-1.3C555.3,624.4,555.6,627.1,554.3,630.8z"/>
			<path fill="#0E3041" d="M601.8,703.2c0.1,1.4,0.1,2.7,0.3,4.2c0.4,0,0.9,0,1.3,0c0-4.9,0-9.8,0-14.7c0-2.5-0.4-5.2,3.2-5.5
				c-3.8,6.6-0.9,13.9-1.6,20.8c-0.1,1.7,1.3,2.6,2.7,2.9c7.8,1.6,5.8,6.2,3.2,10.7c-1,1.7-1.9,3.5-1.6,5.5c0,0.6,0,1-0.1,1.6
				c-2-0.4-4-1-5.9-1.4c-1.9,0.7-3-0.4-4.3-1.4c-2.3,3.9-4.2,8.4-7.2,11.7c-3.6,4-4.9,6.4-0.7,11.4c3,3.6-2.5,5.9-5.5,7.9
				c-1.2,1.4-3.3,1.4-4.5,2.9c-9.4-7.5-18.8-1.2-28.3,0c0.3-1,1.4-2.2-0.1-3c0.1-3.5,3.2-3.3,5.3-4c21.7-7.2,35.3-21.6,40.1-44.1
				C598.5,706.5,598.2,703.5,601.8,703.2z"/>
			<path fill="#2C5871" d="M555.9,586c7.4,0.4,8.2,8.2,9.4,12c2,6.4-1.4,13.7-5.2,19.8c-1,1.7-2.7,1.7-4.5,0.9
				c-1.7,2.2-2.2,5.8-5.9,5.9l0,0c-0.3,0.6-0.7,0.7-1.3,0.9c-1-0.1-2-0.6-3-0.9c-0.7-0.1-1.6-0.3-2.3-0.3c-1.7,0.3-3.5,0.6-5.1-0.3
				c-0.4-0.4-0.9-0.9-1.3-1.3c-0.7-2-2.2-2.7-4.2-2.6c-1.9-0.3-3.3-1-4-3c0-0.7,0.3-1.4,0.9-2c2.3-1.6,4.8-1.3,7.4-1.3
				c2.3,0,4.5,0.1,6.5-1.3c1.4-0.6,3-0.7,4.3-1.3c1.7-0.7,3.3-1.6,4.8-2.7c1.6-1.3,2-2.9,1.9-4.9c-0.1-0.6-0.3-1.2-0.6-1.7
				c-1.4-3.8-3.6-6.6-7.5-8.1c-0.6-0.3-1.2-0.9-1.6-1.3c-1.2-2.5-3.3-4.8-2.2-7.8c3-2.9,6.4-4.8,10.4-2.2
				C554.3,583.1,554,585.4,555.9,586z"/>
			<path fill="#103345" d="M552.7,583.1c-3.8-2.2-6.8,2.2-10.4,1.4c-0.3-0.1-0.6-0.3-0.9-0.4c-0.7-0.6-1.2-1.4-1.9-2.2
				c-3.8-2.5-6.6-0.7-9.6,1.7c-2,1.3-4.3,1.6-6.6,1.6c-7.9,0.3-15.9-0.4-23.7,0.4c-1.6,0.7-3.3,0.9-4.8,2.2
				c-1.6,1.3-2.9,2.9-4.9,3.6c-1,0.1-2,0-2.7-0.9c-0.1-9.2-0.1-9.2-3-13.3c22.7,0,45.6,0,68.3,0l0,0c0.4,0.6,1,1,1.4,1.6
				C554.9,580.5,556.5,582.7,552.7,583.1z"/>
			<path fill="#93BEE5" d="M282.6,727.3c0-2.5-0.6-4.5-3.6-4.5c-7.2,0-7.5-2.7-3-7.5c0.6-0.6,0.3-1.9,0.3-2.9
				c0.3-0.1,0.6-0.3,0.9-0.4c0.7,0,1.3,0.3,1.7,0.6c1.7,1.6,3.8,0.7,5.6,0.7c7.2,3.8,7.2,3.8,10-4.6c3.5-4.2,7.8-5.5,13-3.8
				c-2,3.2-7.5,5.8-0.4,9.8c1.6,0.9,1.7,4.8-2.2,5.1c-2.7,0.1-5.1,0.9-4.2,4.3c1.9,6.6-2.9,5.2-5.6,4c-3.3-1.3-5.1-0.4-6.8,2
				C286.5,729.2,284.2,728.9,282.6,727.3z"/>
			<path fill="#002130" d="M474.1,718.2c0,0.4,0,0.7-0.1,1.2c-48.5,0-96.8,0-145.2,0c-0.4-1-0.1-1.7,0.7-2.3c1.3-0.7,2.6-0.9,4-1
				c44.1-0.1,88.2,0,132.4,0c2.5,0,4.9-0.1,7.2,1.2C473.4,717.5,473.8,718,474.1,718.2z"/>
			<path fill="#92BCE3" d="M307.6,705c-4.2,1.2-9,0.7-12,4.8c-2.6,1-5.1,0.3-7.4-1c-2-2.2-4-4.2-5.6-6.6c-2-3.2-1.2-5.1,2.9-4.8
				c0.4,0.1,0.9,0.3,1.4,0.1c1,0,2,0,2.9,0.1c3.3-2.6,6.8-6.8,8.7,1.4c1.3,5.6,3.3,1.7,5.1,0.1c0.9,0.4,1.6,0.9,2.5,1.3
				C306.6,701.9,307,703.4,307.6,705z"/>
			<path fill="#96C0EA" d="M285.5,697.2c-1.6,1.2-4,1.9-1.2,4.3c1.9,1.6,4.6,2.7,4,6.1c-0.6,2.7-2.3,4.6-4.5,6.1
				c-0.7,2.3-2.6,2.6-4.6,2.2s-1.2-2.3-1.3-3.5c0.4-0.1,0.7-0.4,1.2-0.7c-0.9-0.6-0.6,0.9-1.2,0.7c-0.6,0-1,0-1.6,0
				c-1.6-1.3-4.5-1.2-4.3-4.3c0.1-2.9,1.9-3.5,4.5-3.5c2.7,0.1,3-1.9,2.7-4C278.4,694,281.9,695.4,285.5,697.2z"/>
			<path fill="#184264" d="M328.5,718.2c0,0.4,0,0.7,0.1,1c-3.6-3.3-0.7-7.8-1.9-11.6c-1.3-1.9-0.7-3.9,0-5.8c0-1,0-2.2,0.1-3.2
				c0.1-0.4,0.1-0.9,0-1.3c-1.9-3.9-2-7.9,0.1-11.8c0-0.4,0-1,0-1.4c-1-2.2-0.7-4.5-1.3-6.6c-1.6-18-0.4-35.8-0.6-54
				c0-1.7,0.7-3.3,1.3-4.9c0.4-1,1-1.4,2.2-1.6c0.7,0.6,1.3,1.3,1.7,2.3c1.3,18.1,0.1,36.4,0.6,54.4c0.1,0.9,0.1,1.9,0.1,2.7
				c-0.3,2.6-0.4,5.3,0,7.9c0.4,5.2-0.1,10.6-0.3,15.7c0,3.5,0,7.1,0,10.6C330.8,713.5,330.5,716.2,328.5,718.2z"/>
			<path fill="#0D3040" d="M327.1,594.7c0.9-5.3-2.2-11.4,2.9-16.3l0.1,0.1c2.2,6.9,3.2,13.9,1.3,21c-0.4,0.7-1,1.3-1.9,1.6
				C326.1,600.1,328.8,596.7,327.1,594.7z"/>
			<path fill="#94BEE9" d="M315,590.2c-1,7.4-8.7,6.6-12.6,10.7c-1.3-0.1-1.4-0.6-0.6-1.6C305,594.4,310,592.2,315,590.2z"/>
			<path fill="#0D3141" d="M549.7,624.7c2.9-1.2,2.5-5.5,5.9-5.9c-0.6,4,1.3,8.2-1.4,12C554.3,627.6,553.6,625,549.7,624.7z"/>
			<path fill="#3B617B" d="M327.1,594.7c1.7,1.7,1.2,4,1.4,6.2c2.7,5.5,3.3,10.8-0.3,16.3c-0.3,0-0.6,0.1-1,0.3
				c-0.7-0.4-1.3-1-1.6-1.9c-0.3-4.9-1.2-9.8,0.9-14.6c0-1.4,0.1-2.9,0.1-4.3C326.9,596.1,327.1,595.4,327.1,594.7z"/>
			<path fill="#326394" d="M301.9,599.4c0.1,0.6,0.4,1,0.6,1.6c-0.4,2.9,6.5,3.5,2.5,7.5C303.8,605.5,294.6,605.1,301.9,599.4z"/>
			<path fill="#98C5EC" d="M279.5,656.1c0-1.4,0.1-2.9,0.3-6.1c1.9,4.8,4,6.9,9,4.9c-3,3.5-5.5,2-7.7,2.6
				C280.5,656.9,279.9,656.5,279.5,656.1z"/>
			<path fill="#95C2F0" d="M282.6,727.3c2.3,0.1,5.2-0.7,5.6,2.9C285.2,731.7,283.1,731.2,282.6,727.3z"/>
			<path fill="#97C2EA" d="M289.9,667.8c1.2,0.3,2.7,0.7,1.3,1.9c-1.6,1.3-3.5,3.6-5.9,0.9C286.5,668.9,288.2,668.3,289.9,667.8z"/>
			<path fill="#16415A" d="M552.7,583.1c1.6-1,1.4-2.7,1.4-4.3c2.5,2,1.2,4.8,1.7,7.2C551.7,588.4,553.3,584.7,552.7,583.1z"/>
			<path fill="#3A6B9B" d="M326.8,702.1c0,1.9,0,3.9,0,5.8C321.9,706,325.6,703.9,326.8,702.1z"/>
			<path fill="#A6D9EA" d="M466.4,742.4c1.2,0,2.3,0,3.5,0c1.6,5.8,3,11.6,4.6,17.3c-1.3,1.4-2.9,1.3-4.8,1.3
				c-17-0.9-34-0.1-51.1-0.4c-2.7,0-5.3,0.6-7.9,1.6c-1.4,0.3-2.7,0.1-3.8-1.2c2.2-3,2.5-6.6,2.9-10.3c-0.9-2.7,0-4.9,2-6.8
				c13-1.3,26-0.3,39-0.6C456.3,743.4,461.3,743.6,466.4,742.4z"/>
			<path fill="#EDEFF2" d="M407.1,761.1c1.2-0.1,2.2-0.1,3.3-0.3c3.8-1.6,7.8-1.2,11.7-1c18,0.6,35.8-1.4,53.8,1.2
				c2.6-0.1,5.3-0.4,6.8,2.6c0.6,1.2,0.1,2.2-0.7,3.2c-2,2.6-4.2,0.6-6.4,0.4c-4,1.6-8.2,0.7-12.3,0.7c-18.3,0.1-36.4,0.1-54.6,0
				c-2.5,0-4.9,0.7-7.2-0.9C398.1,760.2,403.2,761.3,407.1,761.1z"/>
			<path fill="#A7DAE8" d="M475.8,761.1c-21.8,0-43.7-0.1-65.4-0.1c1.2-1.9,2.9-2.5,5.1-2.5c17.6,0,35.1,0,52.7,0.1
				c2.2,0,4.3,0.7,6.5,1.2C474.9,760.2,475.4,760.7,475.8,761.1z"/>
			<path fill="#A7DAE8" d="M466.4,742.4c-3.6,2.3-7.7,2.6-12,2.6c-14.3-0.1-28.3,0-42.4,0c-0.7-0.3-1-0.7-0.7-1.4
				c0.1-0.4,0.1-0.9,0.1-1.3C429.8,742.3,448.2,742.4,466.4,742.4z"/>
			<path fill="#0C2E54" d="M401.4,767.2c24.7,0,49.4,0,74.1,0c-1,1.3-2.5,1.6-3.9,1.6c-22.8,0-45.7,0-68.7,0c-0.4,0-1,0-1.3-0.3
				C401.4,768.2,401.4,767.6,401.4,767.2z"/>
			<path fill="#0D2A53" d="M499.2,741.9c2.2-1,2.6,0.7,2.7,2c0.1,2.7-1.7,3.8-4.2,4C498.9,746.1,496.8,743.4,499.2,741.9z"/>
			<path fill="#103353" d="M581,760c0.3-2.9,2.3-3,4.5-2.9C585.2,759.8,583.2,760,581,760z"/>
			<path fill="#F8D61F" d="M492.2,663.8c-1.4,5.3-2.9,10.6-10.4,6.8c-1.4-0.7-2.9,0.1-3.5,1.9c-1.2,3.5-2.7,6.9-3.3,10.6
				c-0.9,5.3,4.6,3.8,6.9,5.6c1.4,1.2,3.2,1.9,1.9,4.6c-1.6,3.2-0.9,6.8-0.4,10.1c0.9,8.2,0.3,9.4-6.8,9.4
				c-44.7,0.1-89.2,0.3-134-0.1c-0.4,0-1-0.1-1.4-0.3c-0.9-0.3-1.6-0.7-2.3-1.3c1-6.4,6.6-7.1,11.1-9.1c2.9-0.7,4.2,5.3,8.2,1.6
				c1-0.9,4.6,2.9,7.8,2.6c6.5,1.3,12.4-3.5,19-2c1.9,0,3.8,0.1,5.5-0.4c2-1.3,1.4-3.9,2.7-5.5c0.6-0.9,1.4-1.4,2.3-1.9
				c2.3-0.7,4.2,0,5.6,1.9c0.9,1.3,1.7,2.7,3.3,3.2c1.3,0.1,1.9-0.7,2.7-1.6c2-2,4.8-2.9,5.6-6.2c2.3-8.7,2.7-8.8,11.3-7.1
				c3.2,1,3.9-0.9,3.9-3.5c0.1-2.2-0.3-4.3-1-6.4c-2.6-7.4-1.9-8.7,5.9-11.6c0.4-0.4,1-0.9,1.3-1.3c1.2-2.7,0.1-5.9,1.2-8.7
				c0.3-0.7,0.6-1.3,1-1.9c3.5-2.9,6.9-1.7,10.4-0.1c1.9,1.2,2.9,3.6,5.6,3.3c2.3-0.4,3.5-2.7,5.6-3.5c1.7-0.6,3.3-0.4,5.1,0.3
				c1.7,0.4,1.9,3.9,4.5,2.6c2-1,0.9-3,1-4.6c3.8-6.9,5.2-7.4,13.9-5.1c1.2,0.6,2.2,1.4,3,2.3c1.7,1.9,3.2-0.6,4.8-0.3
				c2.6-0.4,3.6,2.6,5.9,2.7c2.6,2,3.2,4.6,3,7.7c0.1,1.3-0.3,2-1.6,1.7C495.5,660.8,495.1,664.6,492.2,663.8
				c-0.4-0.9-0.9-1.6-1.3-2.2C491.2,662.5,491.8,663.2,492.2,663.8z"/>
			<path fill="#2C5770" d="M601.8,703.2c-2.5,5.6-2.3,11.8-4.8,17.6c-8.6,19.8-24.1,30.7-44.3,36.1c-9.2,1.9-9.4-3.9-8.8-10.3
				c-1.9-0.9-4-0.1-5.8-1.4c-0.6-0.4-1-0.9-1.6-1.4c4.6-4.5,10.6-1.3,15.6-2.7c0.7-0.3,1.3-0.4,2-0.7c11.1-2.7,20.6-7.9,25.4-19
				c2.6-4.6,4.6-9.4,5.8-14.6c1.2-2.2,1-4.5,1-6.6c-0.9-18.6-9.4-31.8-26.4-39.4c-2.6-1.3-5.3-2.2-8.1-3.2c-2.5-1.4-6.2-0.1-8.1-3.2
				c0-3.9,0.1-7.8,0.1-11.6c0.3-0.3,0.4-0.4,0.7-0.7c1.3-0.1,2.6-0.3,3.8,0.6c7.2,0.9,14.4,1.9,20.7,6.1c-2,2.3-5.1,1.2-6.5,1.9
				c2.5-1.6,6.1,1.3,9.6-0.3c15.3,7.9,23.3,21.3,28.3,37.1c1.7,2.3-0.1,5.3,1.4,7.7C601.8,697.6,601.8,700.5,601.8,703.2z"/>
			<path fill="#FEFEFE" d="M528.9,741c-2.9-0.1-5.3-1-7.4-3.2c1-5.8,5.3-3.8,8.6-3.9c-2.3-3.8-6.2-6.4-9.2-9.8
				c-0.1-0.6-0.1-1.3-0.1-2c0.9-2,3.2-2,4.5-3.3c0.7-0.6,1.6-1,2.5-1.4c2.9-0.9,5.2-2.2,6.1-5.3c0.4-0.9,1.2-1.6,2-2
				c1.9-0.4,3.3-1.6,4.8-2.9c2.7-1.6,5.8-2.6,8.4-4.5c0.6-0.3,1.2-0.4,1.6-0.6c2.5-0.7,0-3,1.3-4c1.4-2.5,3.9-2.9,6.4-3.6
				c1-0.3,2.2-0.3,3.2-0.3c5.6,2.9,12.4-1.2,17.8,2.9c-1.4,3.8,3.5,3.2,3.8,5.8c0.3,5.8-0.1,11.3-3.6,16.3
				c-7.4,3.2-12.6,9.4-18.6,14.3c-1.3,1-5.9,0-2.5,4.6c2,2.7-2.9,2.9-4.2,4.6l0.1-0.1c-3.6,1-6.2-0.4-7.9-3.5c-0.7-1.3-1-2.9-3-1.6
				c-0.6,0.4-1.2,0.7-1.7,1C537.7,740.3,533.1,739.7,528.9,741z"/>
			<path fill="#F8D71F" d="M496.5,651.1c-2.7,3.2-3.8-2.2-6.1-1.2c-0.4-0.4-0.9-1-1.2-1.7c-0.3-1-0.3-2,0-3
				c0.7-3.8,3.5-7.1,2.3-11.1c-0.9-2-2.9-3.3-3.2-5.6c0-1,0.3-1.9,0.7-2.7c0.7-1.4,1.3-2.9,2-4.3c0.9-1.4,2-2.6,3.6-3.3
				c0.6-0.1,1.3-0.3,1.9-0.3c2.3,0.6,4.5,0.1,6.5-0.9c1.6-0.6,3.2-1,4.8-0.9c2.6,0.6,5.1,0.9,7.2-0.9c1.6-0.9,3.5-1,5.2-0.7
				c2.7,1,6.1,0.3,8.4,2.7c1.4,0.9,2.6,2.9,4.8,1.3c3.5-0.4,2.9,3,4.3,4.6l-0.1,0.4c2.3,1.2,4.3,0.7,6.1-1.3
				c1.2-0.4,1.6,0.3,1.9,1.3c0.9,1.4,1,2.9,0.3,4.3c-2,2.9-6.2,1.2-8.2,4c-1.3,2.6-0.3,5.8-2.5,8.1c-4.6,3.5-10,4.2-15.6,4
				c-2.5,0.1-4.9,2.6-6.9-1c-1.6-2.9-4-5.6-7.4-2.7C501.9,643,493.9,643,496.5,651.1z"/>
			<path fill="#0F313A" d="M338.9,710.7c36.1,0.1,72.5,0.3,108.7,0.3c9.4,0,18.8-0.4,28,0.1c6.4,0.4,8.4-1.9,7.5-7.8
				c1.6,1.6,1.2,3.6,1.3,5.5c1.3,8.7,1.3,8.7-7.8,8.4c-0.9,0-1.9,0.6-2.7,1l0,0c-0.7-0.6-1.6-1-2.5-1.3c-39.4-0.4-78.8,0-118.2-0.3
				c-3.2,0-6.4,0.6-9.6-0.9c-0.9-0.7-1-1.4-0.4-2.5c9.8-0.9,19.6-0.4,29.6-0.4c33.4-0.1,66.8,0,100.2,0c-38.7,0-77.4,0-116.1,0
				c-5.9,0-11.8-0.3-17.6,0.7c-0.9-0.3-1.7-0.7-2.3-1.4C337.2,711.3,337.8,710.7,338.9,710.7z"/>
			<path fill="#FAFBFB" d="M521.7,722.7c6.2,1.9,6.8,10.7,15.3,11.1c-5.8,2.6-11.4,0.1-15.6,4c-4.2-2.2-7.7-5.1-10.4-9
				c-1.4-2.5-3-4.8-4-7.4c-2.9-6.6-6.5-13-4.6-20.7c0.4-1,1-1.9,1.6-2.7c2.9-1.2,1.6-7.8,5.6-5.9c3.5,1.6,3,7.1,1.4,10.1
				c-2.7,5.3,1.6,7.9,3,11.7c0.3,0.7,0.9,1.4,1.6,1.2c6.5-1.7,4.6,2.6,4.5,5.8C520.4,721.7,521,722.3,521.7,722.7z"/>
			<path fill="#0F313A" d="M519.8,643.8c4.5-2.9,9.6-3.8,14.7-4.6c0.6,0,1,0.4,1.2,1c0.4,0.9,0.4,0.9,0.1-0.1
				c-0.3-0.9,0.3,0.3,0-0.7c0-0.6,0.1-1.3,0.3-1.9c1.3-7.7,6.1-5.3,10.7-3.8c0.6,0.4,1,0.9,1.6,1.3c0,0.4,0,1,0,1.4
				c-0.9,2.5-5.5,2-4.5,5.9l0,0c-2.3,2.2-1.2,4.9-1.4,7.4c-2.3,1-3.9-1-5.9-1.4C530.2,649.5,524.4,649.1,519.8,643.8z"/>
			<path fill="#A8D6E6" d="M512.9,666.3c7.5-4.3,14.4-9.8,23.6-10.7c0.3,0.1,0.6,0.4,0.9,0.6c0.9,1.2,1.4,2.3,1,3.9
				c-7.7,4.9-15.9,8.8-22.4,15.3c-2.2,1.4-3,4.9-6.4,5.1c-2-0.4-3.3-1.4-3.9-3.5C506.1,671.9,509,668.8,512.9,666.3z"/>
			<path fill="#FAFBFB" d="M528.9,741c3.3-5.1,9.6-2.3,13.7-4.6c0.3,0.3,0.6,0.7,0.9,1c-0.3-0.3-0.6-0.7-0.9-1c0-2,0.9-3.5,3.2-2.7
				c1.3,0.3,3.6,1,3.2,2.5c-1.7,5.5,3,4.8,5.5,6.2c-5.8,3.2-12,0.9-18.1,1.4C534,742.7,531.4,741.9,528.9,741z"/>
			<path fill="#A9D8E5" d="M506.5,676.1c1.4,1.3,2.9,2.7,4.3,4c1.2,1.2,1.2,2.5,0.6,3.8c-3.2,4.6-4.3,10-6.1,15
				c-0.4,0.4-1,1-1.4,1.4c-2,0.6-3-0.6-3.6-2.3c0-2.5-0.3-4.9,0.4-7.4c-0.3-4,1.6-7.5,3-11.1C503.2,677.3,504.3,676.3,506.5,676.1z"
				/>
			<path fill="#A8D6E2" d="M500.9,698.9c1,0.4,2,1,3,1.4c0.4,6.8,0,13.7,5.6,19.1c0.1,0.1-0.6,1.2-0.9,1.9c-0.7,0.6-1,1.6-2,1.9
				c-5.6-7.1-7.1-15.6-6.9-24.1C499.9,698.2,500.4,698.2,500.9,698.9z"/>
			<path fill="#0C313C" d="M506.5,676.1c-1,1.2-1.9,2.3-2.9,3.6c-5.3-2-2.9-4.6-0.1-6.5c3.9-2.7,6.5-6.2,6.4-11.3
				c3,0.4,1,3.6,2.9,4.5C510.6,669.6,507.6,672.2,506.5,676.1z"/>
			<path fill="#588992" d="M543.9,654.2c3,0.6,6.4-0.7,9.1,1.6c-5.3,3.8-10.8,2.7-16.6,0.4l0.1-0.6
				C538.6,653.8,541.3,654.6,543.9,654.2z"/>
			<path fill="#04313B" d="M497.9,660.5c0.6-0.6,1.2-1.2,1.6-1.7c1.7,0.3,3.6-2.2,5.2,0c0.3,0.4,0.1,1.6-0.3,1.9
				C502.2,662.2,499.9,662.2,497.9,660.5z"/>
			<path fill="#B6D9E3" d="M506.5,723.2c0.7-0.6,1.3-1.3,2-1.9c0.9,2.5,1.7,5.1,2.6,7.5C508.6,727.6,507.6,725.6,506.5,723.2z"/>
			<path fill="#132E4B" d="M536.5,648.4c2.5-1.6,3.9,1.2,5.9,1.4C539.6,652.8,538,650.8,536.5,648.4z"/>
			<path fill="#062838" d="M538,745c2,0.3,4.3-0.6,5.8,1.4C541.5,747.7,539.6,747.1,538,745z"/>
			<path fill="#9ECCDC" d="M500.9,698.9c-0.4,0-0.9,0-1.3,0c-0.3-2.7-0.4-5.6,1-8.2C500.6,693.5,500.6,696.3,500.9,698.9z"/>
			<path fill="#0C344A" d="M502.5,648.8c0.6,1,1,1.4,1,2c0,0.7-0.4,1.3-1.3,0.9c-0.3-0.1-0.7-0.7-0.7-1
				C501.6,650.1,501.9,649.5,502.5,648.8z"/>
			<path fill="#336697" d="M309.3,642.5c1.2-10.8,6.5-19,16.3-24c1.6,2,0,4-0.3,5.9c-0.4,16.3-1.3,32.6,0.6,48.8
				c0.3,1.7-0.3,2.5-2,2c-2.6-0.7-4.3-2.3-5.6-4.6c0-0.9-0.6-1.4-1.4-1.6c-4.5-4.5-7.1-9.8-7.4-16.3
				C310.3,649.4,310.5,645.9,309.3,642.5z"/>
			<path fill="#396896" d="M324,623.2c0.4-1.6,0.9-3.2,1.4-4.6c0.1-0.3,0.3-0.7,0.3-1.2c0.3-0.6,0.7-0.7,1.2-0.3l0.6,0.3
				c-0.1,20.3-0.3,40.4-0.6,60.8c-1,0.7-2,1-2.9-0.4c-0.1-0.9-0.3-1.6-0.4-2.5c0.6-0.6,1.2-1.2,1.9-1.7c-2.9-10.6-1-21.4-1.4-32.1
				C323.9,635.5,324,629.3,324,623.2z"/>
			<path fill="#99C2EA" d="M326.9,617.2c-0.4,0.1-0.7,0.3-1.2,0.3c-2.3-5.6-3.6-11.3,1-16.6C326.8,606.5,326.8,611.8,326.9,617.2z"
				/>
			<path fill="#99C2E8" d="M326.9,685.6c0,3.9,0,7.9-0.1,11.8C322.5,693.5,322.3,689.5,326.9,685.6z"/>
			<path fill="#93BCE7" d="M317,619.2c-0.6-0.9-1.4-2-2.2-3c0.6-0.3,1.4-0.9,1.6-0.7c0.9,0.7,1.7,1.6,2.3,2.6
				C319,618.5,318.3,619.2,317,619.2z"/>
			<path fill="#2E5E8D" d="M309.3,642.5c2.3,3.5,2.2,6.9,0,10.3C308.6,649.4,308.6,645.9,309.3,642.5z"/>
			<path fill="#99C2E8" d="M324,677.8c1,0.1,1.9,0.3,2.9,0.4c0,2,0,3.9,0,5.9C323.2,683.3,325.9,679.5,324,677.8z"/>
			<path fill="#346592" d="M316.7,669.1c0.1-0.9,0.1-2.2,1.4-1.6c1.6,0.9,1.4,2.2,0,3.2C317.5,670.2,317,669.6,316.7,669.1z"/>
			<path fill="#0E323D" d="M330,601c0-7.4,0-14.7,0.1-22.1c2.2,5.9,3.9-0.4,5.9-0.1c0.7,0.7,1.6,0.9,2.3,1.4
				c1.4,1.3,2.9,2.5,2.5,4.8c-0.7,1.2-1.7,1.9-2.7,2.6c-2.2,1.3-1.6,3.3-1.4,5.2c0.6,14.7-0.6,29.6,0.6,44.3
				c0.1,0.9,0.3,1.6,0.3,2.5c-1.2,3.8-0.3,7.9-1.6,11.7c-3.5,3.9-1.3,7.5,0.4,11.3c0.3,11.4,1,23-0.3,34.4c-1.7,2.6-3.3,5.6-7.4,3.8
				c0-5.5,0.1-11,0.1-16.6c1.3-2.5,0.9-4.9-0.1-7.2c0-0.6,0-1,0-1.6c1.6-13,0.4-26,0.7-39.1c0.1-5.6,0-11.4,0-17
				C329.7,613,328.4,606.8,330,601z"/>
			<path fill="#2D556A" d="M487.5,590.5c0.9,0,1.7-0.1,2.6-0.1c0.7,0.6,1,1.2,1,2c-0.1,0.9-0.6,1.6-1.3,2c-3.5,1.7-7.1,1-10.7,0.9
				c-0.7-0.1-1.4-0.4-2.2-0.9c-6.4-8.7-14.3-14.7-25.7-15c-7.7-0.1-14.6,1.9-20.6,6.6c-2.5,2-4.5,4.6-7.9,4.9c-1.3-0.1-2-1-2.3-2.2
				c13-21,42.7-21.4,58.9-0.9C481.8,591.1,483.5,593.7,487.5,590.5z"/>
			<path fill="#0E3042" d="M337.3,580.1c-0.4-0.4-1-1-1.4-1.4c20.1,0,40.3,0,60.5,0c4.2,0,8.2,0,7.9,5.9c-0.7,0.6-1.6,0.9-2.5,0.9
				c-18.6-0.4-37.1,0.3-55.9-0.3C342.7,584,339.9,582.4,337.3,580.1z"/>
			<path fill="#A8D7E8" d="M410.1,615.2c-0.4-2.5,1.4-2.5,3-2.7c0.9-0.7,1.9-0.7,2.9-0.3c1.4,3.6,6.1,5.6,5.3,10.4
				c-0.3,0.6-0.7,1-1.3,1.2c-1.2,0-1.9,0.1-1.3,1.6c0.4,2.2,0.3,4.3,0.7,6.4c0.3,2.2,0.1,4.3-1.3,6.1c-0.6,0.4-1.4,0.9-2,0.6
				c-6.6-3.8-13.6-7.5-18.6-13.7c0.4-3.2,2.7-4,5.5-4.2c0.6,0.1,1.2,0.3,1.7,0.6c0.4,0.1,0.6,0.1,0.6,0.1c-1,0.3,0-1.6-0.1-0.6
				c0-0.6,0.1-1,0.4-1.4C406.5,617.2,409.1,617.2,410.1,615.2z"/>
			<path fill="#F2EC6F" d="M407.2,589c3.3,4,0.1,7.1-1.6,10.3c-0.1,1.4-1,2.2-2,3c-1.3,0.9-2.5,1.9-4,2.2c-0.6,0-1.2-0.1-1.7-0.6
				c-2.2-1.7-1.9,0.9-2.7,1.4c-4.5,1.2-5.2-1.3-4.5-4.9c0.4-2.5,2.3-4.3,3.2-6.6c1.9-5.3,6.5-5.8,11.3-5.9
				C405.9,588.2,406.6,588.5,407.2,589z"/>
			<path fill="#4A5F4C" d="M407.2,589c-0.4,0-0.9-0.1-1.3-0.1c-0.9-0.1-1.7-0.3-2.6-0.4c-19.4-0.3-38.8,0-58.2-0.1
				c-2.2-0.1-4.3,0.1-6.4-0.9c-0.7-0.4-1.3-1-1.6-1.9c1-0.3,2-0.7,3.2-1c1.2-1,2.6-0.7,4-0.6c17,0,34,0,51.1,0
				c2.5,0,4.9-0.6,7.2,0.6c0.6,0,1,0,1.6,0C407.2,584.7,407.4,586.7,407.2,589z"/>
			<path fill="#2F5770" d="M416,612.8c-1-0.1-1.9-0.1-2.9-0.3c0.3-8.6,1.4-16.8,7.4-23.6c0.6,0.6,1.2,1.2,1.7,1.7
				c1.3,6.6-3.3,12.7-1.9,19.4C419.4,612,418.5,613.7,416,612.8z"/>
			<path fill="#E1E475" d="M405.5,605.8c0,0.4,0.1,0.9,0.3,1.2c1.2,2.6,0.3,5.3,0.6,7.9c0.1,0.7,0,1.6-0.1,2.3
				c-1.6,2-3.8,2.6-6.2,2.3c-1.9-0.9-2.9-2.3-2.7-4.3c0.1-1,0.7-1.9,1.6-2.6c0.4-0.4,1-0.7,1.6-1.2c2.5-1.9-1.9-5.2,1.4-6.8
				C403.3,604.1,404.6,604.2,405.5,605.8z"/>
			<path fill="#132D53" d="M402.9,601c0.9-0.6,1.7-1,2.6-1.6c3,1.4,3.2,2.9,0.1,4.5c-1.2,0.9-2.3,0.9-3.2-0.3
				C401.9,602.7,402.2,601.8,402.9,601z"/>
			<path fill="#2F443B" d="M402.9,601c0,1.9,1,2.7,2.7,2.9c0,0.6-0.1,1.2-0.1,1.7c-1.3-0.3-2.6-0.6-3.9-1c-0.7,0-1.3-0.3-1.4-1
				C400.4,602.2,401.6,601.5,402.9,601z"/>
			<path fill="#152830" d="M405.6,616c0.1-3,0.1-6.1,0.3-9.1c2.3,2.6,1,5.6,1.3,8.6C407,616.2,406.3,616.2,405.6,616z"/>
			<path fill="#EAFEFE" d="M405.6,616c0.6-0.1,1-0.4,1.6-0.6c1,0,1.9-0.1,2.9-0.1c-0.6,2.3-2.3,3.6-4.3,4.6c-0.9-1-0.9-1.9,0-2.9
				C405.8,616.7,405.8,616.2,405.6,616z"/>
			<path fill="#12304E" d="M411.4,580.5c-1.3,1.2-2.6,1.2-4,0.4C408.5,579.2,410.1,580.7,411.4,580.5z"/>
			<path fill="#0F3142" d="M543.9,642.5c-1.9-4.5,1.9-4.8,4.5-5.9c3.3-0.4,1.4-4.6,4.3-5.9c-0.1,4.2,2,9-5.2,9.2
				c-1.4,0,0.7,1.6,0.9,2.6C546.9,642.5,545.5,642.5,543.9,642.5z"/>
			<path fill="#2A5776" d="M572,650.1c-4,4.5-8.7-0.6-12.9,1.3c3-2.2,6.4-3,9.8-2.9C570,649.1,571,649.5,572,650.1z"/>
			<path fill="#0D2F4E" d="M548.3,635.1c-0.4,0-1,0-1.4,0c-0.9-0.9-1.3-1.9-1.4-3.2c0.7-2.6,1-5.3,2.9-7.4c0.4,0,0.9,0,1.3,0.1
				C550.3,628.3,549.3,631.6,548.3,635.1z"/>
			<path fill="#0E3041" d="M601.8,694.7c-2-2.3-1.2-5.1-1.4-7.7C602.7,689.2,601.6,692.1,601.8,694.7z"/>
			<path fill="#33586E" d="M542.5,584.4c1.3,2.3,3.5,4.3,2.9,7.4c-0.6,0.6-1.2,1-2,1.2c-5.2-1.2-11,1.3-15.6-2.9c-0.7-1-0.7-2,0-3
				c1-1,2.2-1.6,3.5-2.2c1.2-0.6,2.3-1.2,3.5-1.7c1.2-0.6,2.3-1,3.8-1C540,582.4,541.3,583.4,542.5,584.4L542.5,584.4z"/>
			<path fill="#153A4F" d="M546.9,592.1c5.3,1.3,7.7,5.2,8.8,10.1c-0.6,1.4-1.7,2.2-3.3,2.2c-3.9-2-4.2-6.2-6.4-9.4
				C545.9,593.8,545.9,592.8,546.9,592.1z"/>
			<path fill="#122830" d="M548.5,624.5c0,2.6-0.1,5.2-1.6,7.5c-2.5,1-4,0-4.8-2.5c0.4-1.7,2.5-0.9,3.3-2c0.1-1.4,0.3-2.9,0.4-4.3
				C546.7,623.7,547.5,624.1,548.5,624.5z"/>
			<path fill="#27546A" d="M552.7,604c1-0.6,1.9-1.2,2.9-1.6l0.3,0.4c-0.3,2.7-1.4,5.2-3.2,7.4c-1.4,0.9-2.9,1.7-4.3,2.7
				c-0.9-0.4-1.9-0.9-2.2-1.9c0-0.7,0.1-1.3,0.6-1.9C548.7,607.2,550,604.8,552.7,604z"/>
			<path fill="#3B6979" d="M543.9,612.8c-0.7,3.9-3.6,2.7-6.1,2.7c-0.6-0.7-1-1.6-1-2.6c0.1-0.7,0.3-1.3,0.7-1.7s1-0.7,1.7-0.9
				c0.6,0,1.3,0,1.9,0.1C542.2,610.8,543.3,611.5,543.9,612.8z"/>
			<path fill="#B8D372" d="M528.9,617.2c-3-0.4-6.4,1.4-9-1.4c0.4-1.6,1.6-2.3,3-2.9c1.4-0.4,2.9-0.3,4.3,0.3c1,0.6,1.6,1.4,1.7,2.6
				C528.9,616.2,528.9,616.7,528.9,617.2z"/>
			<path fill="#66AEBF" d="M529,615.9c-0.4-0.4-0.9-0.9-1.3-1.3c0.3-0.6,0.9-1.2,1.4-1.4c0.6-0.3,1.3-0.6,1.9-0.7
				c2.3-0.3,4.6-1.4,6.8,0.4c0,0.9-0.1,1.9-0.1,2.7C534.8,615.7,531.9,615.7,529,615.9z"/>
			<path fill="#4C6349" d="M546.9,592.1c0.1,1,0.3,2.2,0.4,3.2c0.7,1.7,1.3,3.3,0.3,5.2c-4.3,1.7-3.8-2.7-5.5-4.3
				c-0.3-0.6-0.4-1.3-0.3-2c0.3-1.2,1.2-1.6,2.2-2c0.6,0,1-0.1,1.6-0.1C545.9,592,546.5,592,546.9,592.1z"/>
			<path fill="#4D8CA4" d="M552.7,610.1c0.3-2.9,1.6-5.2,3.2-7.4C557.6,606.2,556.2,608.5,552.7,610.1z"/>
			<path fill="#3B6979" d="M538,623c-2.2-0.9-1.4-4.5-4.3-4.6C539,616.2,537.6,620.4,538,623z"/>
			<path fill="#39708C" d="M543.9,612.8c-1.3,0-2.3-0.4-3-1.6c2-1.9,4-1.4,6.1,0c0.4,0.4,1,1,1.4,1.4
				C546.9,613.7,545.5,613.7,543.9,612.8z"/>
			<path fill="#D2C52A" d="M543.9,622.1c-1.3,3.9-3.6,3.2-6.1,1.3C540,623.4,542.2,623.5,543.9,622.1z"/>
			<path fill="#FCEE70" d="M490.5,591.8c0-0.4-0.3-1-0.6-1.3c1.2-1.4,2.2-2.9,3.3-4.3c10.4-2.6,21.1-1.4,31.7-1
				c0.9,4.5-0.1,5.6-5.2,6.1c-5.1,0.5-9.8-2.6-14.4-1.3c2,1.2,5.9-2.6,7.5,2.3c-1,1-2.2,1.4-3.5,1.7
				C503.2,593.4,496.5,596.1,490.5,591.8z"/>
			<path fill="#4A5F4B" d="M526,586.3c-10.8-0.1-21.7-0.1-32.6-0.3c1-1.9,2.9-1.3,4.5-1.6c8.7-1.4,17.3-0.3,26-0.6
				c2.6,1,6.4-2.5,8.2,2c-0.6,1.2-1.6,1.7-2.7,1.7C528.3,586.7,526.9,587.3,526,586.3z"/>
			<path fill="#123641" d="M538,583.1c-1,0.4-2,1-2.9,1.4c-2.2-0.1-4.5,0.3-4.5-3c3.9-5.2,7.9-3.9,11.8,0
				C541.2,583,539.6,583.1,538,583.1z"/>
			<path fill="#032B35" d="M524.6,584.3c-8.8,0-17.8,0-26.7,0.1c8.8-3,17.8-0.6,26.7-1.4c0.6,0.3,0.7,0.6,0.6,0.9
				C525,584.3,524.7,584.3,524.6,584.3z"/>
			<path fill="#082C49" d="M524.6,584.3c0-0.4,0-0.9,0-1.3c2.2,0.1,4-0.4,5.9-1.4c1.4,1,3,2,4.5,3c-1,0.4-2,0.9-3,1.2
				C529.9,583.8,527,585,524.6,584.3z"/>
			<path fill="#345A77" d="M538,583.1c1-1.6,2.7-1.4,4.5-1.6c0,1,0,2,0,2.9C540.7,584.7,539.2,584.7,538,583.1z"/>
			<path fill="#2E5F8E" d="M283.9,713.8c0.3-2.9,0.9-5.6,4.5-6.1c2.6,0.1,5.3-0.1,7.2,2c0.6,3.8-0.4,6.9-4.2,8.4
				C287.5,719.6,285.8,716.2,283.9,713.8z"/>
			<path fill="#0E3142" d="M328.5,700.5c2-1,3.9-2,5.9-2.9c3.3,2.7,1.4,6.9,2.6,10.3c0.1,0.7,0.3,1.4,0.3,2.2c0,0.3,0,0.7,0,1
				c0,0.4,0,0.9,0,1.3c1.6,2,4.3-0.4,5.9,1.4c0,0.4,0,1,0,1.4c2.6,1.4,5.3,0.7,7.9,0.7c38.1,0,76.5,0,114.8,0c2.6,0,5.5-0.7,7.9,0.7
				c0,0.4,0,1,0,1.4c-47.6,0-95.1,0-142.6,0c-1.9-3.8,0.1-7.9-0.9-11.4c-0.4,1.2,1.7,3.9-2,4C328.5,707.4,328.5,703.9,328.5,700.5z"
				/>
			<path fill="#0E323D" d="M328.5,710.9c2.3-1.9,0.9-4.6,2.3-6.9c-0.4,4.8,4.2,9.2,0.6,14.3c-1,0-1.9,0-2.9,0
				C328.5,715.9,328.5,713.3,328.5,710.9z"/>
			<path fill="#93BEE5" d="M278,712.3c0.4-1-1-3.2,1.4-2.7c1,0.1,3.5,0.3,2.7,2.5C281.2,714.8,279.3,712.6,278,712.3L278,712.3z"/>
			<path fill="#082D3F" d="M330,618.8c0,16.3,0,32.6,0,48.8c0,2.6,0.9,5.5-1.4,7.7c0-18.8,0-37.7,0.1-56.4
				C329.1,618,329.5,618,330,618.8z"/>
			<path fill="#062839" d="M330,618.8c-0.4,0-0.9,0-1.3,0c0-0.6-0.1-1-0.1-1.6c0.1-5.3,0.1-10.8,0.3-16.3c0.4,0,0.9,0,1.3,0
				C330,606.8,330,612.8,330,618.8z"/>
			<path fill="#06283B" d="M328.5,676.8c1.3,2.5,3.9,4.8,0.1,7.2C328.7,681.6,328.5,679.1,328.5,676.8z"/>
			<path fill="#A7DAE8" d="M465.8,746.1c1.9,0.4,2.3,1.6,2.7,2.7c0.9,2.3,3.8,4.5,1.3,7.2c-0.4,0.6-2,0.7-2.7,0.3
				c-2.9-1.6-2.3-4.5-2.5-7.1C464.7,748.3,465.4,747.2,465.8,746.1z"/>
			<path fill="#A7DAE8" d="M414,749.7c0.6,2.2,1.4,4.3-1,6.5C411.8,753.7,413.3,751.9,414,749.7z"/>
			<path fill="#8FC3D5" d="M425.4,689.5c-2-0.7-4-1.4-6.2-2c-2.9-0.9-5.9,0.9-4.9,3.3c3,7.7-2.5,9-7.1,11.3c-0.7,1.3-2,1.3-3.3,1.3
				c-2-0.1-3.5-0.9-3.3-3.2c-0.7-3.3-2-5.2-5.5-2.6c-0.4,0.6-1,1.2-1.4,1.7c-0.4,0.4-0.9,0.6-1.4,0.6c-0.9-0.1-1.4,0.3-2,0.9
				c-0.6,0.6-0.9,1.2-0.9,2c0.3,1.2,0.9,2.3-0.6,3c-1.3,0.1-2.6,0-3.9,0.1c-3.8,0.3-7.2-0.1-9.4-3.8c-1.2-2.2-3.3-2.6-5.5-2.7
				c-1-0.1-2-0.4-2.9-1.2c4.6-7.9-4.9-10.3-5.8-15.3c1,1.3,1,2.7-1.4,3.8c-3.9-1-7.9-0.6-12-1.3c-1-0.4-1.9-1.2-2.6-2
				c-1.3-2-2-4-1.3-6.4c1-2.2,3-3.3,5.1-4.3c2-0.9,4.2-1.4,6.4-1.7c2.7-0.1,4.9,0.9,6.6,3c2.5,2.9,4.5,6.4,8.7,7.5
				c1.2,0.6,2.3,1.3,3.3,2.2c2.3,2.5,5.5,3.2,8.6,3.9c6.4,1.4,12.4,1.4,18.3-2c0.6-0.4,1.2-0.7,1.7-1c3.3-1.4,6.4-3.3,8.7-6.2
				c0.4-0.4,0.9-1,1.3-1.4c2-1.6,3.6-3.6,4-6.2c1-2.7,2.9-5.2,3.2-8.2c1-2.5,2.9-4.5,3.9-6.8c0.7-1.2,1.9-1.9,3-2.5
				c1.6-0.6,3.2-1.2,4.9-0.7c0.6,0.1,1.2,0.6,1.7,0.9c1,1.2,2.2,2.2,3.6,3c-0.1,3.6,1,7.2-1.6,10.4c-1.2-1-0.7-2.5-0.7-3.8
				c-0.1,1.6-0.6,2.7-2.3,2.9c1,0,2.2-0.1,3,0.9c-0.7,1.7-2.3,1.4-3.8,1.4c-5.8,0.3-5.9,3.5-3.2,7.1c2.3,3,3.5,5.8,0.9,9
				C428.8,686.3,427.4,687.9,425.4,689.5z"/>
			<path fill="#113240" d="M489.5,627.9c0.9,2.5,4.9,2.6,4.5,5.9c-1.2,1.3-2.3,2.6-4,3c-2.7,0.4-4.6,1.9-5.3,4.6
				c-0.3,1.6-0.1,3.2-1,4.6c-0.3,0.1-0.6,0.4-0.9,0.6c-4.5,1.4-10.6-1.7-13.3,4.6c1.4,1.7,0.7,3-0.9,4c-1.7,1-3.6,1.2-4.9-0.9
				c-2,0-3.9,0-5.9,0c-2.2,0.4-3,2.7-5.1,3.3c-3.2,0.9-4.3-1.4-5.5-3.6c-3.3,1.2-6.5-2.2-9.8-0.4c-1.9,0.4-3.5,0.4-4.6-1.3h-0.1
				c-0.9-0.6-1.3-1.4-1.4-2.5c0-0.7,0-1.3,0.1-2c0.4-1.6,1-3.2,2-4.6c0.4-0.6,1-0.9,1.6-1.3c1.3-0.6,2.7-0.9,4.2-0.4
				c16.3,6.8,30.7-1,39.7-12.6c1.4-1.9,2.3-4.5,4.8-5.5c0.7-0.1,1.4-0.1,2.2-0.1C487.8,624.4,488.8,626,489.5,627.9z"/>
			<path fill="#F6ED70" d="M344.7,676.8c0.6,1.9,1,3.9,1.6,5.8c-0.1,1.2,0.6,1.4,1.4,1.4c3.9,0.1,8.6-3.9,11.7,1.6
				c1.2,1.4,0.4,2.9,0,4.3c-0.6,1.4-0.6,2.7,0.1,4.2c0.4,1.2,0.9,2.5,0.3,3.6c-3,2.2-6.1,4-9.4,5.5c-4,1.6-7.2,5.2-11.6,6.2
				c-3-2.9-2.5-6.2-1.3-9.7c2.3-0.9,2.5-2.2,2.3-5.6c-0.3-6.5-1.2-13.1,0.7-19.6c0.4-0.7,1-1.2,1.9-1.3
				C344.6,673.6,344.7,675.2,344.7,676.8z"/>
			<path fill="#F9D922" d="M350.6,703.4c2.3-3.3,5.8-4.9,9.4-6.2c1.7-1,2.9-0.1,4,1c0.4,0.4,0.9,0.9,1.2,1.4c0.6,0.7,1,1.4,1.4,2.3
				c0.6,1,1,2.2,1,3.3c-0.1,1.3-1.3,1.9-2.2,2.6c-4.8,4-5.6-4.2-9.6-2.9c-0.9,2,2.3,2.2,2.2,3.8
				C352.1,711.9,352.7,705.7,350.6,703.4z"/>
			<path fill="#F8D626" d="M365.6,701.9c-0.6-0.4-1-0.7-1.6-1.2c1-2.7,4.6-1,6.1-3.3c3.6-3,6.8-1.7,7.2,2.3c0.6,5.3,3.3,5.6,7.4,5.2
				c0.6,0.1,0.9,0.4,0.9,1.2c-6.8-1.2-12.9,4.3-19.8,1.7c0.4-1,1-2,1.4-2.9C367.3,703.5,366.4,702.8,365.6,701.9z"/>
			<path fill="#F6FA76" d="M338.9,699c0,3.5,0,7.1,0,10.6c0,0.4,0,0.7,0,1.2c-0.6,0.1-1,0.1-1.6,0.3l0.1-0.3c-1-1.4-1.6-3-1.4-4.9
				c0.3-14.4-1-29,0.7-43.4c2.2-2,2.9,0,3.6,1.4c1.2,2.5,0.7,5.2,0.6,7.8c-0.1,0.9-0.3,1.9-0.4,2.7C339.5,682.6,342,690.9,338.9,699
				z"/>
			<path fill="#EED22E" d="M463.7,654.6c3.3,1.4,5.8,1.3,5.9-3.2c1,2.2,4.8,4.6,0.7,6.6C468.4,659.2,463.5,660.2,463.7,654.6z"/>
			<path fill="#FCD526" d="M432,694.1c0.6-2.9-0.4-5.6,2.3-7.4c0.9-0.6,1.9,0.3,2.2,1.3C437.2,691.4,435.2,693,432,694.1z"/>
			<path fill="#FAD52C" d="M492.2,663.8c-0.1-0.1-0.4-0.3-0.6-0.4c-1.4-1.9-5.1-0.9-5.2-4.2c0-1.4,1.3-1.9,2.6-1.7
				C493.1,658.2,491.5,661.5,492.2,663.8L492.2,663.8z"/>
			<path fill="#F5D819" d="M490.5,645.5c0,1,0,2,0,3c-1.7,1.4-4,0.6-5.9,1.4c-0.6-1-1.2-2-1.7-3.2l0,0c1.3-1.9,2-4.5,5.2-3.2
				c0.7,0.1,1.3,0.6,1.9,1C489.9,644.9,490.2,645.2,490.5,645.5z"/>
			<path fill="#F3D727" d="M425.4,689.5c0-2.7,2.5-3.8,3.9-5.6C431,687.8,429.5,689.5,425.4,689.5z"/>
			<path fill="#95C7BF" d="M395.4,697.4c0.3-1.9,1.3-3.2,3.3-2.5c2.3,0.9,3.2,2.7,2.2,5.2C399.8,697.3,397.7,697.3,395.4,697.4z"/>
			<path fill="#8AC0D9" d="M432.7,652.8c1.6,0.4,3.2,0.9,4.6,1.3c-0.1,0.6-0.1,1.2-0.3,1.7C433.5,657.6,432.1,656.6,432.7,652.8z"/>
			<path fill="#F6D427" d="M484.5,650.1c1.6-2,3.9-1.3,5.9-1.4c0,0.4,0,1,0,1.4C488.5,650.5,486.5,655.2,484.5,650.1z"/>
			<path fill="#F1D61A" d="M453.1,657.3c0.4-2.7,2.2-3.3,4.6-2.7c-1.2,1.9-1.7,4.2-4.6,4c-0.4-0.3-0.6-0.6-0.4-0.9
				C452.8,657.5,453,657.3,453.1,657.3z"/>
			<path fill="#F4D625" d="M404.2,703.2c0.6-1.6,2-1,3.3-1.3c0.7,0.7,1.2,1.6,0.1,2.3C406.2,705.2,405,704.5,404.2,703.2z"/>
			<path fill="#25403F" d="M453.1,657.3c0.1,0.4,0.1,0.9,0,1.4c-3.5,0.6-5.8-0.4-5.9-4.3C449.1,655.6,450.4,657.9,453.1,657.3z"/>
			<path fill="#94C3D1" d="M385.4,706.1c-0.3-0.4-0.6-0.7-0.9-1.2c1.6-0.1,3.3-0.3,4.9-0.3c0.9-1.4,1.7-2.3,3.3-1
				c0.3,1.2,0.1,2.2-1.2,2.6C389.6,706.3,387.6,706.1,385.4,706.1z"/>
			<path fill="#F3D92B" d="M479.1,701.6c1.6,2.5,0.7,4.3,0.7,6.9C478.1,706,478.5,704.2,479.1,701.6z"/>
			<path fill="#F9D529" d="M400.1,707.7c-0.3-0.3-0.7-0.7-1.2-1.3c0.4-0.3,1-0.7,1.4-0.9c0.3,0,0.9,0.4,1,0.9
				C401.9,707.4,401.1,707.6,400.1,707.7z"/>
			<path fill="#FCDA13" d="M434,672.2c-0.4-0.1-1-0.1-1.2-0.3c-0.3-1,0-1.9,1-2.2c0.4-0.1,1.2,0.1,1.7,0.3
				C435,670.9,434.5,671.6,434,672.2z"/>
			<path fill="#F4D625" d="M391.8,706.3c0.3-1,0.4-1.9,0.7-2.9c-1.2-1.4-1.3-2.9,0.3-4.2c0.4-0.1,0.9-0.1,1.3-0.1
				C393.5,701.6,395.1,704.7,391.8,706.3z"/>
			<path fill="#FCFCFB" d="M578.1,718.2c3.6-4.9,1.9-11.1,4.3-16.3c0.3-2.3-2-2.9-2.9-4.5c-5.9-0.9-12.1,1.7-17.8-1.4
				c0.3-2,0.3-2-3.3-0.9c-2.5,0.6-4.8,1.3-7.2,1.6c-1-0.1-2-0.7-2.9-1.3c-7.5-4.8-2.9-12.3-4.3-17.6c-0.9,4.5,1.7,10.1-1.6,15.3
				c-1.6,1.6-3.6,2.3-5.5,3.5c-0.7,0.1-1.4,0.1-2.2,0c-3.3-1.7-2.2-4.5-1.7-7.1c0.7-3.9,2-7.8,1.3-11.7c-1.4-7.4,1-12.4,7.4-15.9
				c1.9-1.3,2.6-3.9,5.2-4.5c4.6-0.4,9.2-0.1,13.7,1.2c18,7.1,28.4,22.7,27.7,41.8c-1.3,2.3,0.4,5.1-1.3,7.2
				c-0.3,5.3-2.2,10-5.8,13.9C579.4,721.3,577.7,720.9,578.1,718.2z"/>
			<path fill="#FAFBFB" d="M578.1,718.2c1,1.2,2,2.2,3.2,3.3c-4.3,13-14.9,17.6-27,20.7c4.8-3.6,2.7-6.1-2.2-8.6
				C564,732.6,567.3,719.6,578.1,718.2z"/>
			<path fill="#A6D9EA" d="M560.5,658.6c-4.9,0-10,0.1-14.9,0.1c-1.3,0.7-2.9,0-4,1c-1.4,0.3-2.6,0-3.6-1.2c-0.4-0.9-1-1.7-1.4-2.6
				c5.5-0.1,11-0.3,16.6-0.4C555.3,656.8,558.3,656.6,560.5,658.6z"/>
			<path fill="#F1F4F3" d="M586.9,707.7c0.1-2.5-0.7-5.1,1.3-7.2C588.4,702.9,589.1,705.5,586.9,707.7z"/>
			<path fill="#FDFDFD" d="M537.9,658.8c1.4,0,2.9,0.1,4.3,0.1c1.4,1,1.3,2.3,0.4,3.8c-9.4,4.5-5.8,13-6.2,20.4
				c-0.3,4.3-3.6,8.4-1.4,12.9c2.5,3.6,1,7.1-0.4,10.6c-1.4,2.7-4.3,4.6-5.6,7.5c-0.6,1.3-0.4,2.9-1.4,4.2c-0.4,0.4-1,1-1.4,1.4
				c-1.4,0.7-3,0.7-4.5,1.4c0,0.4,0,1,0,1.4c-1.2,0-2.7,4.6-3.5-0.1c-0.3-2,0.7-4.2,1.3-7.7c-3.3,3-5.2,3.2-7.2-0.1
				c-0.9-1.4,0.3-7.4-5.1-4c-0.1,0.1-0.7-2.3,0-3.2c3.3-4.3,2.6-9.2,2.3-14.3c-2.3,1.6-0.3,5.8-4.2,5.8c0-6.1-0.6-12.4,5.8-16.3
				c1.7-2.6,2-5.8,3.2-8.7C521.1,667.3,529.2,662.5,537.9,658.8z"/>
			<path fill="#183962" d="M549.9,703.7c-2,3.3-5.2,4.5-9,4.2c-1.6,1-2.7,2.7-5.1,1.6c-1.2-0.7-1.9-1.7-1.6-3.3
				c0.7-2.2,0.7-4.6,2.6-6.2c1-0.3,1.9,0,2.7,0.3c0.9,0.3,1.7,0.7,2.6,0.7c1.9,0.1,3.8-0.4,5.6-0.3
				C549.3,701.3,550.7,701.8,549.9,703.7z"/>
			<path fill="#193956" d="M534.8,706c0.6,1.2,1.2,2.3,1.7,3.5c0.4,0.4,0.6,0.7,0.3,1c-0.1,0.1-0.4,0.3-0.6,0.3
				c-0.4,0.4-0.9,0.9-1.3,1.3c-1.6,3.8-3.6,6.1-7.4,2c-0.1-4.3,3.8-5.6,5.9-8.1C534,705.5,534.5,705.5,534.8,706z"/>
			<path fill="#F7F8F7" d="M527.5,714.2c3.5,2.9,5.1-0.9,7.4-2c1.2,6.4-3,6.2-7.4,6.2C526.9,716.9,526.4,715.5,527.5,714.2z"/>
			<path fill="#F1F4F3" d="M579.6,697.4c2,0.3,4.6-1,5.5,1.9c0.6,1.7-1,2.3-2.6,2.7C580.9,700.9,575.5,702.4,579.6,697.4z"/>
			<path fill="#F2CA35" d="M558.6,694.1c2.5-0.7,4.9-1.6,7.9-2.5c-0.3,4-4,2.5-4.8,4.3c-1,0-2,0-3,0
				C557.9,695.4,557.9,694.8,558.6,694.1z"/>
			<path fill="#F4CD47" d="M558.6,694.1c0,0.6,0.1,1.3,0.1,1.9c-2,1-3.9,1.9-5.9,2.9c-0.3,0.1-0.4,0.4-0.7,0.6
				c-0.7-0.1-1.2-0.6-1.4-1.2c-0.1-1,0-1.9,1-2.6C553.9,695.3,556.3,694.7,558.6,694.1z"/>
			<path fill="#F7F8F7" d="M536.3,710.7c0.1-0.4,0.1-0.9,0.3-1.3c1.7,0,2.2-3.3,4.3-1.6C540.6,711,539.3,712.3,536.3,710.7z"/>
			<path fill="#2F3F5D" d="M549.9,703.7c-0.6-1.2-1.6-1.6-2.9-1.7c-1-2.5,0.4-3.2,2.3-3.8c0.7,0,1.4,0.3,2,0.7h0.4
				c0.1,1.6,0.9,3.2-0.7,4.5C550.7,703.4,550.3,703.5,549.9,703.7z"/>
			<path fill="#EDF1F0" d="M551.2,703.4c0.3-1.4,0.4-2.9,0.7-4.5c0.3,0,0.6,0,1,0C552.2,700.3,557.5,703.9,551.2,703.4z"/>
			<path fill="#F7F8F7" d="M521.7,721.3c0.9-2.3,2.5-2.6,4.5-1.4C525.1,722,523.7,722.3,521.7,721.3z"/>
			<path fill="#F7D622" d="M523.1,614.1c-1.2,0.6-2.2,1-3.3,1.6c-1.6,0.1-3.2,0-4.2,1.4c-2.6,0.3-5.1,0.6-7.7,0
				c-1.4,0.4-2.9,1-4.3,1.4c-2-0.7-4.5,0.7-6.2-1.2c-0.6-1-0.7-2-0.3-3.2c4.8-6.4,12.6-8.4,18.6-13.3c3.5-1.2,6.6-3.8,10.7-2.2
				c1.2,1.2,1.4,2.6,1.4,4c0,1.7-0.7,3.5-1,5.2c-0.1,1-0.4,2-0.9,2.9C525.3,612.5,524.1,613.2,523.1,614.1z"/>
			<path fill="#13353B" d="M497.9,614.4c0.1,1,0.3,1.9,0.4,2.9c-0.4,0.9-1.2,1.4-2.2,1.4c-0.4,0-0.9,0-1.3,0.1
				c-1.3,0.7-2.6,1.3-4.2,0.9c-2.9-1.4-3.5-3.9-2.5-6.8c0.7-2.2,1.6-4,1.4-6.6c0-4,2.6-6.2,6.5-2.3
				C497.2,607.5,497.5,611,497.9,614.4z"/>
			<path fill="#F6D427" d="M488.9,635.7c1.6-0.6,3.3-1.3,4.9-1.9c0.9,4.5-1.3,8.1-3.5,11.6l0,0C487.9,642.5,485.8,639.6,488.9,635.7
				z"/>
			<path fill="#519BB3" d="M490.5,618.6c1.6,0.1,3,0.3,4.6,0.3c-0.9,1-1.7,2-2.5,3c-2.2,1.6-4.6,1.9-7.1,1.2c-1.7-0.1-3.2-0.9-4-2.5
				c-0.3-0.9-0.3-1.6,0.1-2.3c1.3-1.2,2.9-1.6,4.5-1.4C487.5,617,488.9,617.9,490.5,618.6z"/>
			<path fill="#162D3A" d="M484.5,621.7c2.6,0.1,5.3,0.1,7.9,0.3c-0.1,1.7,0,3.6-1.9,4.6c-0.7-2.6-3.5-0.3-4.6-1.9
				c-0.6,0-1.2,0-1.7,0C483.5,623.7,483.6,622.7,484.5,621.7z"/>
			<path fill="#9FCE8F" d="M496.2,618.8c0.7-0.4,1.4-1,2.2-1.4c1.9,0.1,4-0.7,5.3,1.4C501.2,620.2,498.6,621.2,496.2,618.8z"/>
			<path fill="#B8D27F" d="M508.1,617.2c2.6-1.9,5.1-1.4,7.7,0C513.2,619.2,510.6,619.5,508.1,617.2z"/>
			<path fill="#D2C52A" d="M545.5,627.6c-0.4,1.6-1.9,1-2.9,1.6c-1.4,1.7-3.3,1.9-5.3,1.4c-0.7-0.3-1.4-0.7-2-1.2
				C538,626,541.9,628.2,545.5,627.6z"/>
			<path fill="#173342" d="M535.1,629.5c0.4-0.1,0.9-0.1,1.3,0c2.2,2.9,0.7,5.6,0,8.6c0,0.6,0,1,0,1.6c-0.4,0.7-0.9,0.7-1.3,0.1
				l-0.4-0.4C534.8,636,535,632.8,535.1,629.5z"/>
			<path fill="#F7D331" d="M535.5,625.4c-2.9-0.4-4.5-0.7-6.1-0.9C531.1,623.4,532.7,622.8,535.5,625.4z"/>
			<path fill="#143641" d="M485.9,624.7c1.7,0,4.3-1.9,4.6,1.9c-0.4,0.4-0.9,0.9-1.3,1.3C487.8,627.3,486.6,626.3,485.9,624.7z"/>
			<path fill="#FED533" d="M528.5,620.9c-1.3,0.3-1.9,0.6-2.3,0.4c-0.6-0.1-1.3-0.6-1.6-1.2c-0.4-0.9,0.3-1.2,1-1
				C526.3,619.6,527,620.2,528.5,620.9z"/>
			<path fill="#002D42" d="M343.3,713.8c-1.7-1.4-5.1,3.3-5.9-1.4c47.1,0,94.4,0,141.3,0c0,0.4,0,1,0,1.4
				C433.7,713.8,388.6,713.8,343.3,713.8z"/>
			<path fill="#142A42" d="M474.1,716.9c-40.8,0-81.4,0-122.3,0c-2.9,0-5.9,1-8.6-1.4c40.8,0,81.4,0,122.3,0
				C468.4,715.4,471.6,714.3,474.1,716.9z"/>
			<path fill="#0F3142" d="M536.5,638c0-2.9,0-5.6,0-8.6c1.9-0.9,3.9-0.6,5.9-0.3c1.4,1,2.9,1.9,4.5,2.9c0,1,0,2,0,3
				C543.2,634.9,538.5,631.9,536.5,638z"/>
			<path fill="#11314A" d="M535.1,639.7c0.4,0,0.9-0.1,1.3-0.1c0.7,1.6,3.5-0.9,3.3,1.3c-0.1,1.6-2,3-3.8,2.7
				C532.9,643.2,535.5,641,535.1,639.7z"/>
			<path fill="#F2F8F9" d="M514.2,673.9c0.9,3.6,0.9,6.9-3.2,8.7c-0.1-0.9-0.1-1.6-0.3-2.5C511.6,677.9,512.1,675.5,514.2,673.9z"/>
			<path fill="#32669C" d="M324,623.2c2.3,2.2,1.4,5.1,1.4,7.7c0.1,14.3,0,28.6,0,42.8c-2.2-2.6-2.9-5.6-2.9-8.8
				c0-12.3,0-24.7,0-36.8C322.6,626.1,322.6,624.5,324,623.2z"/>
			<path fill="#687A4F" d="M337.6,661.8c0,16.3-0.1,32.6-0.1,48.8c-0.6-0.4-1.2-1-1.7-1.4c-0.3-23.1-1.9-46.5,0-69.6
				c0-0.6,0-1.2,0-1.7c-1.2-13.6-0.1-27.3-0.6-40.7c-0.1-2.6,0.7-5.5-0.7-7.9c-1.9-3.3,1.6-2.6,2.7-3.8c0.1,0.3,0.3,0.6,0.3,0.7
				c1.4,1.4,1.9,3.2,2,5.2c0,22.3,0.3,44.4-0.1,66.7C339.2,659.5,338.6,660.8,337.6,661.8z"/>
			<path fill="#012540" d="M335.7,639.7c0,23.1,0,46.5,0,69.6c-2.6-3.6-0.7-7.8-1.3-11.7c0-12.4,0-24.7,0-37.1c-2-3-2-5.9,0-9
				C334.9,647.5,333.1,643.3,335.7,639.7z"/>
			<path fill="#062041" d="M334.4,589.2c2.2,1.3,1.4,3.5,1.4,5.3c0,14.4-0.1,29-0.1,43.4c-2.7-5.1-1-10.6-1.2-15.7
				C334.2,611.2,334.4,600.2,334.4,589.2z"/>
			<path fill="#122F40" d="M334.4,651.4c0,3,0,5.9,0,9C329.8,657.3,329.8,654.3,334.4,651.4z"/>
			<path fill="#0D3040" d="M343.4,584.4c-1,0-2,0-3,0c-1-1.4-3-2.2-2.9-4.3c1.6,1.7,5.6-1.4,5.9,2.9c0.6,0.3,0.7,0.6,0.6,0.9
				C343.7,584.3,343.6,584.4,343.4,584.4z"/>
			<path fill="#122C44" d="M332.3,665.6c0.9,3,1.2,4.8-0.1,6.6C331.1,670.2,331.3,668.5,332.3,665.6z"/>
			<path fill="#0D303E" d="M419.1,609.8c-3.9-7.1,1.2-12.9,3-19.1c8.6-8.4,17.8-14.6,30.6-13.6c10.8,0.9,21.3,7.4,24.1,16.3
				c-2,2.9-4.9,2.3-7.7,1.9c-4.6-2.2-8.2-5.9-13.6-7.1c-5.5-1.3-10.6-1-15.3,2c-0.7,0.7-1.6,1.3-2.5,1.9c-2.7,1.2-5.1,2.7-6.1,5.8
				c-1.6,2.3-3.5,4.5-3.3,7.5c-0.4,2.7-2.2,4-4.5,4.9C422.1,610.7,420.5,611.4,419.1,609.8z"/>
			<path fill="#A4DEA7" d="M490.5,591.8c6.4,0.1,12.7,0.3,19.1,0.4c0.4,0.6,0.6,1.2,0.6,1.9c-4.6,4.6-10.7,2-15.9,3.3
				c-0.7,0-1.4,0-2-0.3c-0.6-0.3-1.2-0.9-1.4-1.4c-0.1-0.7-0.3-1.4,0-2C490.8,593,490.8,592.4,490.5,591.8z"/>
			<path fill="#4C909D" d="M468.1,593.1c2.9,0,5.8,0,8.7,0c0.6,0.1,1.2,0.3,1.7,0.4c0.4,0.9,0.1,1.6-0.4,2.2c-1.3,1-2.9,1.3-4.6,1.3
				c-2.9,0-5.6,0-8.6,0c-2.3-0.3-5.2,0.1-5.9-3.2c1.3-2,3.3-2.3,5.5-1.9C465.8,592.2,467,592.7,468.1,593.1z"/>
			<path fill="#62AEB8" d="M478.5,594.7c0-0.4,0-0.7,0-1.2c4,0,8.1,0,12.1,0c0.3,0.4,0.7,0.9,1,1.2c-1.7,2.2-4.2,2.3-6.6,2.3
				c-1.6,0-3.3,0-4.8-0.6C479.5,596.1,479.1,595.4,478.5,594.7z"/>
			<path fill="#032B35" d="M343.4,584.4c0-0.4,0-0.9,0-1.3c17.3,0,34.4,0,51.7,0c2.6,0,5.5-0.9,7.7,1.3
				C382.9,584.4,363.1,584.4,343.4,584.4z"/>
			<path fill="#163949" d="M419.1,609.8c1.4-0.6,2.9-1,4.3-1.6c1,0.3,1.7,0.9,2.5,1.6c1.6,2.5,2,5.3,3.6,7.8c1,2.6,2.7,4.8,4.2,7.2
				c1.2,1.9,2.9,3.2,4.5,4.6c0.4,0.6,0.7,1.2,0.9,1.7c0,0.7-0.3,1.3-0.9,1.7c-1.7,1.3-3.6,1.6-5.6,1.6c-0.7,0-1.3-0.1-1.9-0.3
				c-2.5-0.9-5.2-1.2-7.4-2.7c-2.3-2.3-5.1-4.5-2.6-8.2c1-3.2-1.6-4.3-3.5-5.6c-2-1.4-2.2-2.7-1.2-4.8
				C417,611.8,418,610.8,419.1,609.8z"/>
			<path fill="#A5D7E9" d="M425.1,630.8c1.4,1.9,5.2-0.9,5.8,2.9c0,7.9-6.2,7.7-11.4,8.8c-0.9-0.1-1.6-0.4-2.2-1
				c-0.7-1.2-0.7-2.3,0.1-3.3c0-2.5,0-4.9,0-7.4C420.1,628.4,422.7,631.9,425.1,630.8z"/>
			<path fill="#9DD0E0" d="M417.7,638.1c0,1,0,2,0,2.9c-0.6,0.4-1.2,0.7-2,0.9c-2.6-0.3-4.5-1.9-6.1-3.8c-4.3-5.2-11-6.8-16.3-10.8
				c0.7-2.7,1.9-4.3,4.9-2.5C404.8,629.2,411.1,633.6,417.7,638.1z"/>
			<path fill="#CDEDF5" d="M398.3,624.8c-2.2,0-3.6,1-4.5,2.9c-0.9,0.9-1.9,0.9-2.9,0.4c-0.4-0.6-0.7-1.2-0.9-1.9
				c0.7-3.9,4.9-4.5,7.1-7.1c0.9-0.6,1.9-1,2.9-0.4c1.7-1.2,3.8-1.6,5.8-1.7c0,1,0,1.9,0,2.9v0.4c-0.3,0.6-0.9,1.2-1.6,1.3
				C401.9,622.1,399.7,622.8,398.3,624.8z"/>
			<path fill="#2F586D" d="M425.1,630.8c-2.6,3.2-5.1-0.4-7.5-0.1c-2.7-2.2,1.2-3.8,0.4-5.8c0.1-0.7,0.4-1.2,1.2-1.3
				c0.4-0.1,0.9-0.1,1.4-0.3C421.1,626.4,422.2,629.2,425.1,630.8z"/>
			<path fill="#A4D8DB" d="M404.2,621.7c0.6-0.4,1-0.9,1.6-1.3c1.3,0.9,2.6,1.9,4.3,3C407.1,624.8,405.6,623.1,404.2,621.7z"/>
			<path fill="#A1D4E3" d="M419.2,623.5c-0.4,0.4-0.7,0.9-1.2,1.3c-1-0.3-2.5-0.1-2.3-1.9c0.1-0.6,0.6-1.6,1.2-1.6
				C418.2,621.2,418.7,622.5,419.2,623.5z"/>
			<path fill="#F6EF6E" d="M395.4,595.1c0,2.7-2.5,4.2-3.2,6.5c-0.9,3-0.1,4.6,3.2,2.5c1.9-0.6,2.7,0.7,3.6,1.9
				c0.3,1.2,0.1,2.3-0.6,3.2c-0.9,0.7-1.9,1.2-3,1.4c-2.7,0.7-5.6-0.3-8.4,0.7c-2.6,2.5-3.8,6.9-8.7,6.2c-2.9,0.1-4.2-4-7.7-3
				c-1.2,0.3-2.3,0.9-3.5,1.3c-0.6,0.3-1.2,0.4-1.7,0.7c-4.3,1.6-1.2,4.8-1.7,7.2c-0.1,0.7-0.3,1.4-0.7,2c-2.3,2.6-4.6,4.5-7.7,0.9
				c-0.6-1-0.9-2.2-1.4-3.2c-0.7-1-1.7-1.7-3-1.9c-9.4-1-9.7-1-9.7-10.3c0-7.2-2.2-14.7,2-21.6c4.9-2.5,10.1-1.2,15.3-1.3
				c9.6-0.1,19.3-0.1,28.7,0C391.9,588.5,395.4,589.7,395.4,595.1z"/>
			<path fill="#F5EE68" d="M395.4,595.1c-2.9-4.5-7.2-4.6-12-4.5c-13.3,0.1-26.7,0-40.1,0c-0.1-1,0.3-1.7,1-2.3
				c14.4-1.4,28.7-0.3,43.3-0.7c4.6-0.1,9.2,0.3,13.9-0.3c1.3-0.4,2.6-0.7,3.9,0.3c0.1,0.4,0.3,0.9,0.3,1.3
				C402.7,591.7,396.8,589.4,395.4,595.1z"/>
			<path fill="#F2EA5C" d="M398.4,608.2c0-1,0-1.9,0-2.9c-0.4-0.3-0.6-0.7-0.4-1c0.1-0.3,0.3-0.4,0.4-0.4c0.6,0,1.2-0.1,1.9-0.1
				c0.4,0.3,1,0.7,1.4,1c-1.2,2.6,2.6,2.6,2.5,4.3c-0.1,1.6,2,5.5-2.7,3.8C400,611.5,398.1,610.5,398.4,608.2z"/>
			<path fill="#F0F064" d="M398.3,603.8c0,0.4,0,1,0,1.4c-1-0.4-2-1-2.9-1.4c-0.9-2,1.3-2.9,2-2.9C399,601.1,398,602.8,398.3,603.8z
				"/>
			<path fill="#F3F273" d="M405.5,587.5c-0.9,0-1.9,0-2.7,0c-12.6,1.7-25.1,0.4-37.7,0.7c-6.6,0.1-13.3,0.1-20.1,0
				c-1-0.1-1.6-0.9-1.7-1.9c19.6-0.1,39.1-0.1,58.5-0.3C403.2,586,404.9,585.7,405.5,587.5z"/>
			<path fill="#F4F589" d="M343.3,586.3c0,0.4,0,0.9,0,1.2c-0.1,0.3-0.3,0.4-0.6,0.7c-1.2,1-2.2,2-3.6,2.6c-0.6,0.1-1.2,0-1.6-0.4
				c0-1.4-0.1-2.9-0.1-4.2C339.4,586.3,341.4,586.3,343.3,586.3z"/>
			<path fill="#A7D9EA" d="M365.7,614.5c0.4-0.1,0.9-0.3,1.3-0.3c0.9-0.6,2.5-0.1,2.9-1.6c4.8-3.9,5.2,1.4,7.2,3.5
				c7.5,2.7,6.1-4.3,8.2-7.5c3.2,0,6.5,0,9.7,0c1.7,1.2,5.5,0.3,4.6,4.3c-0.4,0.4-0.9,1-1.3,1.4c-1.3,2-1.3,3.9,0,5.9
				c-1.4,3.3-5.6,3.2-7.4,6.1c-0.9,0.7-1.7,1.3-2.9,1.4c-1.9,0.3-3.6-0.3-5.3-0.6c-4.2,0.3-7.8,2.2-11.3,4.3
				c-2.2,1.3-4.2,2.3-6.8,1.4c-3.5-1.9-4.5-4.5-2-7.9c0.1-0.6,0.3-1,0.6-1.6C363.6,620.4,360.7,616.2,365.7,614.5z"/>
			<path fill="#A7DAF2" d="M398.4,620.2c-5.2-2-1.2-3.9,0-5.9c0.6,1.4,1,2.9,1.6,4.3C399.4,619.2,398.8,619.8,398.4,620.2z"/>
			<path fill="#E2E98B" d="M399.7,612.8c-0.6-2.5-2.9-3-4.6-4.3c1-0.1,2.2-0.1,3.2-0.3c1.7,1,2.9,2.5,2.9,4.6
				C400.7,612.8,400.1,612.8,399.7,612.8z"/>
			<path fill="#EFEB6D" d="M526,586.3c1.3-0.3,2.7-0.4,3.2,1.3c-0.7,0.3-1.3,0.6-1.2,1.4c0.3,1.2,0.4,2.3-0.4,3.5
				c-0.6,0.6-1.3,0.9-2.2,1.2c-4.3,0-9,1.9-12.9-1.9c-3.9-2.9-8.7-0.1-12.9-2.7c6.1,0,12.1,0,18.3,0
				C521.1,589,524.3,589.5,526,586.3z"/>
			<path fill="#467F91" d="M527.9,592c0.1-1,0.1-1.9,0.3-2.9c4.9,3.2,11-0.4,15.7,2.9c-0.4,0.4-0.9,1-1.3,1.4
				C537.5,594.4,532.4,595.4,527.9,592z"/>
			<path fill="#073031" d="M546.5,601.1c0.3-1.9,0.4-3.9,0.7-5.8c3.6,1.7,3,6.1,5.3,8.7c-1.3,2.5-1.9,5.6-5.6,5.8
				c-1.4-0.6-1.9-1.9-2.2-3.3C544.6,604.5,544.2,602.2,546.5,601.1z"/>
			<path fill="#516656" d="M546.5,605.2c0.1,1.4,0.3,3,0.6,4.5c-0.1,0.6-0.1,1-0.3,1.6c-2,0-4,0-6.1,0c-0.4,0-0.9-0.1-1.3-0.1
				c-1-0.7-1-1.6-0.6-2.6C541.6,607.5,543.9,605.8,546.5,605.2z"/>
			<path fill="#32596B" d="M526.2,604c-0.3-1.6-0.4-3-0.7-4.6c-1.3-2.3-0.9-4.3,1.3-5.9c0.6-0.4,1.3-0.6,2.2-0.6
				c3.3,0.4,7.9-1.6,8.4,4.3c-1.2,3-2.9,6.1,0,9.2c0.6,1.6,1.2,3.2,0.6,4.9c0,0.6,0,1,0,1.6c-2.5,0.3-4.6,2.2-7.4,1.2
				c-1.2-0.9-1.7-2.2-1.9-3.6C530.5,607.2,526.2,606.5,526.2,604z"/>
			<path fill="#3A6065" d="M538,611.2c-0.6-1.4-1-2.9-1.6-4.3c-0.4-0.4-0.7-1-0.9-1.6c0.1-0.7,0.4-1.2,1-1.6c2-0.1,2.9,1.3,3.5,2.9
				c0.1,0.7,0,1.3-0.6,1.7c0,0.9,0.1,1.9,0.1,2.7C539,611.1,538.5,611.1,538,611.2z"/>
			<path fill="#FAD811" d="M523.1,614.1c0-1.3,0.6-2.3,1.7-3c2.9-1.2,5.1-1.3,4.2,2.9c-0.4,0.1-0.9,0.3-1.4,0.4
				C526.2,614.4,524.7,614.2,523.1,614.1z"/>
			<path fill="#5E775B" d="M529.2,614.1c0.1-3.3-2.3-2.7-4.2-2.9c-0.1-0.9-0.3-1.9-0.3-2.7c2.5-1,4.2,0,5.8,1.7c0,1.3,0.1,2.6,0.1,4
				C530.1,614,529.6,614.1,529.2,614.1z"/>
			<path fill="#F9DB24" d="M539.5,608.2c-0.1-0.4-0.3-0.9-0.3-1.3c0.4-3.2-0.9-6.1-0.7-9.2c0.6-1.9,1.4-3.3,3.8-2.9
				c4.5,0,3,4,4.2,6.2c-1.3,1.4-1,2.7,0,4.2C545.9,609.8,543.6,611.5,539.5,608.2z"/>
			<path fill="#509CAC" d="M542.3,594.8c-0.9,1-1.9,2-2.7,3.2c-0.4,0.4-0.9,0.7-1.6,0.7c-0.3,0-0.6-0.1-0.9-0.1
				c-0.3-0.1-0.4-0.4-0.7-0.6c-0.6-5.8-5.2-4-8.7-4.6c-0.4-0.1-0.7-0.4-0.7-0.7c0-0.4,0.1-0.6,0.1-0.6h0.4c4.9,0.3,10-1,14.6,1.4
				C542.3,594.1,542.3,594.4,542.3,594.8z"/>
			<path fill="#92D9BE" d="M527.3,592.1c0.3,0.4,0.4,0.9,0.4,1.3H527c-5.8,3.5-11.7,4-17.6,0c0-0.4,0-0.9,0-1.3
				c1-0.1,1.9-0.3,2.9-0.4C517.6,592,522.5,592,527.3,592.1z"/>
			<path fill="#3B6E9D" d="M290.2,712.9c0.1,1.2,0.1,2.2-1.2,1.6c-0.7-0.3-1.3-1.3-1.4-2.2c-0.1-0.4,0.4-1.6,0.9-1.7
				C290.3,710.2,289.6,712.2,290.2,712.9z"/>
			<path fill="#A7D9E8" d="M362.7,625c-0.6,3,0.7,5.3,2.9,7.2c2.2,4.5-2.6,6.5-3.5,9.8c-4.2,6.4-5.9,13.1-3.8,20.8
				c1,3.6,2.6,7.9-3.2,9.4c-2,0.6-3.9,1-5.9,1.6c-2.2,0.4-4.2-0.3-6.1-1.2c-0.7-1.3-0.3-2.5,0.3-3.8c1.2-1.6,1.7-3.3,1.2-5.2
				c-0.6-3-4.3-2.9-5.3-5.3c-0.7-2.5-0.4-5.1-0.3-7.5c0.1-0.7,0.3-1.4,0.7-2c0.6-0.4,1.2-0.7,1.9-0.6c2.7,2,10.6-0.4,10.7-3.3
				c0.1-2.6-2.3-0.6-3.2-1.4c-3.2-1.6-5.3-3.8-5.3-7.5c0.4-3.3,2.9-5.6,4.2-8.7c0.6-1,1.3-1.7,2.3-2.3c2.6-1.4,4.9-1.4,6.5,1.6
				C359.4,629.3,360.7,624.8,362.7,625z"/>
			<path fill="#90C3D6" d="M373.1,684.2c-1-0.4-2-1-3-1.4c-3.6-2.5-6.9-5.2-8.4-9.6c0-2.3,1.3-3.3,3.5-3.5c4.5,0.9,6.1,5.5,9.8,7.4
				c2.6,1.3,4.9,3.3,7.9,3.5c3.5,0.1,7.1,0.1,10.6,0c2.3-0.3,4.5-1,6.5-2c1.2-0.7,2.3-1.3,3.3-2c3-1.7,4.8-4.9,8.1-6.4
				c0.7-0.1,1.4-0.1,2.2-0.1c0.7,0.3,1.3,0.7,1.7,1.3c1.4,3-1,4.9-2.3,7.1l0,0c-3.3,2.6-6.6,5.5-10.4,7.4l0,0
				c-6.1,2.9-12.4,4.2-19.3,2.7C379.9,687.3,375.9,687.5,373.1,684.2z"/>
			<path fill="#90C3D5" d="M419.1,641c4.3-1.7,9.7-2.2,11.8-7.5c0.4,0.1,0.9,0.3,1.2,0.4c1.7,0.9,2.6,2.5,3.3,4c0.6,2,1.7,4-0.3,5.9
				c-0.4,0-0.9,0.1-1.2,0.6c-1.6,0.9-2,2.2-0.9,3.8c-0.3,0.4-0.7,1-1,1.4c-0.9,1.9-3.3,2.6-4,4.6c-1,0.4-2,0.7-3.2,1.2
				c-0.3,0.9-0.9,1.2-1.6,1.2C417.4,652.8,418.2,646.9,419.1,641z"/>
			<path fill="#8FC2DB" d="M358,689.9c0.6-1.4,1.2-2.9,1.7-4.3c3.5-4.3-3.2-3.8-3-6.5c1.2-1.4,3-1.2,3.6-0.1c2,3,4,5.5,7.5,7.5
				c5.9,3.3,5.2,7.7-0.6,11.1c0.3,2.3-1.3,2-2.7,1.9c-2.7-2.2-0.4-7.4-5.1-8.6C358.7,690.8,358.3,690.5,358,689.9z"/>
			<path fill="#98CCDD" d="M365.6,670.9c-1.9,0.1-2.7,1.2-2.9,2.9c-0.1,0.9-0.6,1.3-1.4,1.4c-1.7-1.6-3.2-3.5-5.9-3
				c4-2.9,1.6-6.5,0.9-9.8c-1.6-7.9-1.2-15.3,5.1-21.4c0.3,0.3,0.6,0.6,0.7,0.9c1.2,5.6-2.5,10.8-1.7,16.6c0.4,3.8,1.2,6.6,4.9,8.2
				C366.3,667.9,367,669.2,365.6,670.9z"/>
			<path fill="#9ACEDF" d="M383.5,687c6.6,2.3,12.9-1.6,19.4-1.4c-6.2,6.1-13.4,5.3-20.8,3C382.1,687.8,382.9,687.6,383.5,687z"/>
			<path fill="#9BCEE4" d="M361.3,675.2c0.4-0.4,1-1,1.4-1.4c2.5,3,4.9,5.9,7.5,9C365.3,682.3,363.3,678.5,361.3,675.2z"/>
			<path fill="#9AD9F1" d="M343.6,672.2c2.2-0.3,4.8-2.5,5.8,1.4c-1.4,1-3,2-4.5,3c-0.6-1-1.2-2-1.7-3
				C342.7,673.2,343,672.6,343.6,672.2z"/>
			<path fill="#99CEE2" d="M413.1,678.2c0.4-2.5,1-4.9,1.4-7.4c0.6-1.4,1.4-2.2,3.2-1.7c0.4,0.6,0.4,1.3-0.1,1.7
				C419.4,675.2,415.4,676.2,413.1,678.2z"/>
			<path fill="#9BD0E1" d="M402.7,685.6c3-3.2,6.1-6.2,10.4-7.4C410.7,682.1,407.5,684.9,402.7,685.6z"/>
			<path fill="#9CCADB" d="M417.7,670.6c0-0.6,0-1,0-1.6c-0.9-0.7-1.2-1.7-1.3-2.7c0-1.4,0.6-2.7,1.6-3.9c0.4-0.6,1.2-0.9,1.7-1
				c0.3,0.1,0.7,0.1,1,0.3C423.1,665.9,419.8,668.1,417.7,670.6z"/>
			<path fill="#9AD2E2" d="M383.5,687c-0.4,0.4-1,1-1.4,1.4c-3.5-0.6-7.4,0-8.8-4.5C376.4,685.5,379.8,687,383.5,687z"/>
			<path fill="#7FC5ED" d="M392.6,699.3c-0.1,1.4-0.1,2.7-0.3,4.2c-1,0.4-1.9,0.9-2.9,1.3c-1-0.9-2-1.9-3-2.7
				c1.3-1.2,3.6-0.9,4.3-2.9C391.6,697.9,392,698.5,392.6,699.3z"/>
			<path fill="#D0EEFA" d="M423.4,655.8c0.6-0.1,1-0.3,1.6-0.4c0,3-2.2,4.8-4.5,6.2l0,0c-0.6-0.4-0.9-1-1.2-1.7
				C419.2,657.1,421.4,656.5,423.4,655.8z"/>
			<path fill="#D7E2A4" d="M428.2,654.2c0-2.7,1.4-4.2,4-4.6c0.1,1,0.3,2,0.4,3C431.1,653.1,429.7,653.8,428.2,654.2z"/>
			<path fill="#BBCA8E" d="M364.1,698.3c1.2,0.4,2.2,0.4,3-0.7c1,0,1.9-0.1,2.9-0.1c-0.4,3.9-3.6,3-6.1,3.3c-0.1-0.3,0-0.6,0-0.9
				c-0.4-0.3-0.4-0.7-0.4-1C363.9,698.6,364,698.3,364.1,698.3z"/>
			<path fill="#F2F565" d="M347.7,684.2c-1.2,1.6-2.5,1.3-3.5-0.1c-0.3-0.4,0-1.2,0-1.9c0.7,0.1,1.4,0.3,2.2,0.4
				C346.9,683.1,347.3,683.6,347.7,684.2z"/>
			<path fill="#83C6DF" d="M435.5,666.3c-1-0.3-2.6,0.6-2.9-1c-0.1-0.6,1.3-2,1.9-1.9C436.1,663.5,435.1,665.3,435.5,666.3
				L435.5,666.3z"/>
			<path fill="#8FC5CB" d="M390.9,699c-0.1,2.9-2.3,2.9-4.3,2.9C386.6,699,389.7,700.6,390.9,699z"/>
			<path fill="#2C546B" d="M484.5,621.7c0,1-0.1,2-0.1,2.9c-6.9,11.7-16.3,20.3-30.4,21.8c-5.5,0.6-11.1,0.4-15.7-3.8
				c-0.6-1.6,0.3-2.6,1.4-3.5c0.3-0.1,0.7-0.1,1-0.3c0.7,0,1.4,0.1,2,0.4c13.6,3.2,24.4-1.4,32.8-12.3c1.6-2.3,2.2-5.3,4.3-7.2
				c0.7-0.3,1.4-0.1,2,0.4C482.8,620.6,483.6,621.2,484.5,621.7z"/>
			<path fill="#F4D41C" d="M488.9,635.7c0.4,3.2,1,6.5,1.4,9.7c-0.4,0-1,0-1.4,0c-1.7-1.9-4.9-1.6-5.9-4.5
				C483.2,637.4,484.5,634.7,488.9,635.7z"/>
			<path fill="#2D4A57" d="M433.2,648.2c-1.4-0.6-4,1.9-4.3-0.6c-0.4-3.3,2.7-3.2,5.2-3.2C434.1,645.8,434.5,647.2,433.2,648.2z"/>
			<path fill="#F6D427" d="M482.9,641c2.2,1.2,4.8,1.7,5.9,4.5c-2.3-0.7-4.3-0.3-6.2,1.4C483.8,644.9,481.4,642.9,482.9,641z"/>
			<path fill="#163949" d="M440,639.6c-0.6,1-1.3,2-1.9,3c-1,0.4-1.9,0.9-2.9,1.2c0.3-2.2-0.7-3.9-1.6-5.8
				C436.1,636.7,438.2,637.4,440,639.6z"/>
			<path fill="#F8ED6B" d="M338.9,699c0-8.4,0-16.8,0-25.3c1-0.9,2-0.7,2.9,0c0.9,8.8-2,18.1,2.5,27
				C342.3,700,340.5,699.5,338.9,699z"/>
			<path fill="#94C5D0" d="M364.1,698.3c0,0.4,0,1,0,1.4c-1.6-0.6-2-2.9-4.2-2.7c-0.6-0.9-1.2-1.9-1.6-2.7c0-1.6,0-3.2,1.3-4.3
				c1.4-0.9,2.9-1.7,4.3-2.6C362.3,691.4,366.1,694.8,364.1,698.3z"/>
			<path fill="#EAED79" d="M341.9,673.8c-1,0-2,0-2.9,0c0-0.4,0-1,0-1.4c0.9-0.9,0.7-2.2,1.2-3.3c0.6-1.3,1-3,2.7-2.7
				c1.6,0.3,2,1.9,2.3,3.3c-0.6,0.9-1,1.9-1.6,2.7c-0.1,0.4-0.3,1-0.4,1.4h-0.6H341.9z"/>
			<path fill="#83BFE7" d="M359.6,690.1c-0.4,1.4,2.3,3.9-1.3,4.3c-2-1.3-2-2.9-0.4-4.5C358.4,689.9,359,690.1,359.6,690.1z"/>
			<path fill="#F2DA1D" d="M365.6,701.9c1.3,0.3,3.3-0.6,3.6,1.4c0.1,1.2-1.2,1.3-2.2,1.4C366.6,703.9,366.1,702.9,365.6,701.9z"/>
			<path fill="#F8ED6B" d="M345.1,669.6c-4.6-4.8-4,2.3-6.2,2.7c-0.4-3.5,1.2-7.1-1.3-10.3c0-1,0-2,0-3c0.4-0.4,1-0.6,1.6-0.3
				c0.6,0.7,1.4,1.2,2.3,1.6c1.9,0.9,4.8-0.1,5.2,3.2C348.2,665.8,347.9,667.9,345.1,669.6z"/>
			<path fill="#05274A" d="M540.7,693c2.2-7.2,0.4-14.6,1-21.8c0.1-1.7-0.9-4.6,2-4.6s1.9,2.9,2,4.5c0.1,4.3,0.4,8.8,0,13.1
				c-0.4,4.5,0.7,7.9,3.9,11c-0.6,2.5-2.6,2.5-4.5,2.6c-1.2,0-2.3-0.4-3.3-1C540.9,695.7,540,694.7,540.7,693z"/>
			<path fill="#304963" d="M540.7,693c0.6,1,1.2,1.9,1.6,2.9c-0.1,0.6-0.1,1.2-0.4,1.9c-0.9,1.6-0.9,3.8-3,4.3
				c-0.4-0.6-0.9-1.3-1.3-1.9c-2-0.9-2.6-2.2-1.6-4C537,693.8,538.7,693,540.7,693z"/>
			<path fill="#FDFDFD" d="M539.7,683.6c0-4,0-8.1,0-12.3c0.3,0,0.4,0,0.7,0c0,4,0,8.1,0,12.1C540.2,683.6,539.9,683.6,539.7,683.6z
				"/>
			<path fill="#F7F8F7" d="M536.3,696c0,1.6-0.3,3.2,1.6,4c-2.3,1.3-0.7,4.5-2.9,5.9l-0.7,0.1l-0.7-0.1c0.4-3.3,1-6.6,1.4-10
				C535.5,696,535.8,696,536.3,696z"/>
			<path fill="#FCFCF0" d="M558.5,690.4c-3.2,0.9-6.4,2.2-9.6-1.2C552.6,689.6,555.6,690.1,558.5,690.4z"/>
			<path fill="#9D9754" d="M545.2,696.1c1.4-0.3,3-0.7,4.5-1c0.6,0.3,1.2,0.4,1.7,0.7c0,1-0.1,2-0.1,3c-0.6,0-1,0-1.6,0
				C548.3,698,545.2,699.6,545.2,696.1z"/>
			<path fill="#F7D04B" d="M545.2,696.1c1.4,0.9,2.9,1.7,4.5,2.7c-0.9,1-2.6,1.3-2.7,3c-1.4,2.3-3.8,1.2-5.6,1.3
				c-1.9-2.3-2-4.8,0.1-7.1c0.4,0,0.7-0.1,1-0.3C543.3,695.9,544.5,696,545.2,696.1z"/>
			<path fill="#B0BCBA" d="M541.5,696.1c0,2.3,0,4.8-0.1,7.1c-0.7-0.4-1.6-0.9-2.3-1.2C539.3,699.8,538,697,541.5,696.1z"/>
			<path fill="#F4ED6E" d="M509.6,593.5c5.8,0,11.7,0,17.6,0c-0.6,2-1.2,3.9-1.7,5.9c-3.3,0.6-6.1,3.5-9.7,3.2
				c-3.5,0.1-6.4,2-9.6,3.2c-2,0.7-5.1,0.4-4.5-1.6c1.2-5.2-2.2-4.2-4.9-4.6c-1.9-0.3-3.6-0.6-3.9-3
				C497.9,592.7,504.5,596.4,509.6,593.5z"/>
			<path fill="#F4ED71" d="M497.6,598.1c5.2-0.1,5.5,0.1,5.1,4.8c0,0.6,0.6,1.7,0.9,1.7c0.9,0,1.7-0.3,2.6-0.7
				c3-1.6,5.9-4.8,9.7-1.2c-4.9,5.5-11.8,7.9-18,11.8c-6.6-1.9-1.6-7.2-3-10.6c0.4-0.9,1-1.6,1.9-2c1.3-0.7,0.4-1.9,0.7-2.9
				C497.5,598.8,497.5,598.4,497.6,598.1z"/>
			<path fill="#2B5C75" d="M530.3,610.1c-1.9-0.6-3.9-1.2-5.8-1.7c-0.9-2,0.6-3.2,1.6-4.5C528.2,605.5,531.9,606,530.3,610.1z"/>
			<path fill="#0E3246" d="M497.8,602.5c-1,0.4-2,0.9-3,1.3c-1.6-1.3-2.6,0-3.8,0.7c4.3,4.9-4.5,9.1-0.7,13.9
				c-1.4,0.1-3,0.1-4.5,0.3c-3-5.5,0.1-11.6-1.3-17.3c0.9-2.5,2.5-4,5.1-4.6c0.7,0,1.6,0.1,2.3,0.4c1.7,1.7,4.5,0.7,6.4,2
				C498.6,600.5,498.6,601.7,497.8,602.5z"/>
			<path fill="#0E303F" d="M481.8,620.2c-0.6,0-1.2,0-1.7,0c-1.2,1.7-2.5,3-4.8,2.7c-2.5-0.4-4.5-1.4-4.8-4.3
				c1.7-5.6,1.9-11.3,0.6-17c-1.2-3-1.3-5.8,2.9-6.5c1.4-0.1,3-0.3,4.5-0.4c0.4,0.1,0.9,0.3,1.3,0.4c6.2,6.5,6.8,14,1.9,23.8
				C481.8,619.5,481.8,619.8,481.8,620.2z"/>
			<path fill="#2A546A" d="M481.8,619.1c0.9-8.1,2.2-16.3-1.9-23.8c1.6,0,3-0.1,4.6-0.1c0.4,0.4,0.9,0.9,1.3,1.4
				c0.9,1.4,1,2.9,0.3,4.5c2,5.9,0.7,12-0.1,18C484.5,618.9,483.2,619.1,481.8,619.1z"/>
			<path fill="#F5FB78" d="M338.8,658.8c-0.4,0-0.9,0-1.2,0c0-22.7,0-45.6,0-68.3c0.4,0,0.9,0,1.2,0c2.9,2.5,2.2,5.9,2.2,9
				c0.1,13.7-0.1,27.7,0.1,41.4c0.1,0.7,0.3,1.6,0.4,2.3c0.3,2-0.3,3.6-1.4,5.2c0,0.6,0,1,0,1.6
				C338.5,652.8,340.7,656.1,338.8,658.8z"/>
			<path fill="#123648" d="M465.1,593.2c-1.9,0.1-3.9,0.1-5.8,0.3c-0.3,0-0.7-0.1-1-0.1c-5.2-2.6-10.4-2.7-15.7-0.1
				c-1.6,0.7-3.3,1.6-3.8,3.5c-0.6,1.4-0.4,3-1,4.3c-0.7,1.4-1.9,2.5-3,3.6c-1,0.9-2.2,1.4-3.3,1.9c-1,0.3-1.9,0.3-2.9,0
				c-0.6-0.3-1.2-0.7-1.6-1.2c-1.9-4.6,1.9-6.4,4.3-8.8c1.3-2.7,3.6-4.3,5.9-5.9c0.4-0.4,1-1,1.4-1.4c8.2-4,16.6-3.9,24.4,0.7
				C464.2,590.7,465.4,591.5,465.1,593.2z"/>
			<path fill="#15384B" d="M426.7,605.2c0.4,0,0.7,0.1,1.2,0.1c3.9,1.3,3.5,5.1,4.5,7.9c0.9,5.2,3.9,9.1,8.1,12.1
				c0.6,0.4,1,1,1.3,1.6c0.3,0.7,0.3,1.3,0.1,2c-0.9,1.2-1.9,2.2-3.5,1.3l0,0c-2-1.3-3.9-3-5.9-4.5c-1.4-2.5-3-4.9-4.5-7.4
				c-1.4-2.9-0.6-6.4-3.2-8.8c-0.4-0.6-1-1.2-1.4-1.7C424.4,607.1,426.8,607.5,426.7,605.2z"/>
			<path fill="#204657" d="M465.1,593.2c-7.8-8.6-17.3-5.6-26.7-4.2c8.2-6.9,21-5.1,29.8,4C467.1,593.2,466.1,593.2,465.1,593.2z"/>
			<path fill="#1E4558" d="M436.8,590.5c-1.4,2.5-3.5,4.5-5.9,5.9C430.8,592.4,433.7,591.4,436.8,590.5z"/>
			<path fill="#012F41" d="M484.5,596.4c-0.1-0.4-0.1-1,0-1.4c2.5,0,4.9-0.1,7.4-0.1c0,0.4,0,1,0.1,1.4c0.4,0.4,0.6,0.7,0.4,1.2
				c-0.1,0.3-0.4,0.4-0.6,0.4c-0.4,0-0.9,0-1.3,0C488.5,597.1,486.1,598.7,484.5,596.4z"/>
			<path fill="#17343C" d="M491.8,598c0-0.6,0.1-1,0.1-1.6c0.3,0.1,0.6,0.3,1,0.3c1,2.3,3,1.3,4.6,1.6h-0.1c1,0.4,1,0.9,0,1.4
				C495.5,599.4,493.4,600,491.8,598z"/>
			<path fill="#224D60" d="M474.1,595.4c-2.9,1.3-1.7,3.6-1.6,5.6c-0.3,0.1-0.6,0.3-0.9,0.4c-1.9-0.1-3.5-1.3-5.5-1.2
				c-1.7-0.4-2.9-1.3-3-3.2c0.3-1.2,1.3-1.3,2-1.9C468.1,595.1,471.2,595.1,474.1,595.4z"/>
			<path fill="#4D828B" d="M465.2,595.1c-0.6,0.4-1,0.9-1.6,1.3c-0.9,1.2-1.6,2.2-3,2.6c-1,0.3-2,0.1-3-0.1c-1.7-1.2-3.6-2-4.8-3.8
				c-0.1-0.7,0-1.4,0.4-2c0.6-0.4,1.2-0.7,1.9-0.9c1.4-0.1,2.9,0.1,4.2,1l-0.1,0.4C460.9,595.5,463.2,594.7,465.2,595.1z"/>
			<path fill="#042B39" d="M440,639.6c-2.2-0.4-4.2-1-6.4-1.4c-1.7-1-1-2.7-1.4-4.2c1.7-1.7,4.2-1.2,6.2-1.9
				c1.3-0.6,1.9,0.3,2.2,1.3C437.1,635.1,441.3,637.7,440,639.6L440,639.6z"/>
			<path fill="#1E4251" d="M440,633.6c-0.4-0.6-1-1-1.4-1.6c0-0.4,0-1,0-1.4c1-0.4,2-1,2.9-1.4c2.7,0.4,5.1,1.3,4.6,4.8
				c-0.6,0.6-1.2,0.9-1.9,1C442.4,635.2,441,634.9,440,633.6z"/>
			<path fill="#224758" d="M424.8,609.8c4.2,1.9,2.9,5.6,3.2,8.8C425.8,616.2,425.4,613.1,424.8,609.8z"/>
			<path fill="#24475B" d="M432.5,626.1c2.9,0.1,4.6,2,5.9,4.5C435.5,630.5,433.8,628.6,432.5,626.1z"/>
			<path fill="#98CCE1" d="M423.4,655.8c-0.9,1.6-3,2.5-3.2,4.5c-2.9,1.6-3.8-0.7-3.5-2.6c0.7-5.2-1.7-10-1.7-15
				c0.1-0.7,0.6-1.3,1-1.7c0.4,0,1,0,1.4,0s1,0,1.4,0C421.8,645.6,419.2,651.8,423.4,655.8z"/>
			<path fill="#A5DAE3" d="M416,641c0,0.4,0,1,0,1.4c-1,1.9-1,4.6-4.2,4.6c-0.6-0.3-1-0.7-1.4-1.2c-1.2-1.9-2.3-3.6-3.9-5.2
				c-0.4-0.4-0.9-1-1.3-1.4c-4.5-5.5-11.6-5.3-17.3-8.6c-0.9-2.7,1-2.9,2.7-3.3c1,0,1.9,0,2.9,0.1c7.1-0.4,11.6,4,16.3,8.1
				C412.1,637.5,414.1,639.3,416,641z"/>
			<path fill="#C9E7F4" d="M390.9,627.6c-1,1-1.9,2-2.9,3c-0.3,0.1-0.6,0.3-1,0.4c-1.2-0.1-1.9-0.7-2.5-1.7c-0.4-2.6,2.3-2,3.3-3
				c1,0,2,0,2.9,0.1C390.9,626.7,390.9,627.1,390.9,627.6z"/>
			<path fill="#F6EC74" d="M340.4,645.5c0-0.6,0-1,0-1.6c0-16.8,0-33.4,0-50.2c0-1.7,0-3.5,1.6-4.8c0.4,0,0.9,0,1.4,0
				c0,0.4,0,1,0,1.4c0.3,8.1-0.1,16.3,0.4,24.4c0.3,4.5,0.6,5.9,5.2,4.3c3.5-1.2,7.1-1,7.8,4c-2,0.6-4.6,0-5.9,2.5
				c-0.6,0.7-1,1.3-1.6,2c-5.3,0.4-2.6,5.2-4.2,7.7c0.3,3.3,3.5,4.6,4.9,7.2c0.1,0.7,0,1.3-0.4,1.7c-0.6,0.3-1.2,0.4-1.7,0.4
				c-1.2,0-2.3-0.4-3.3,0.3c-0.7,0.4-1.6,0.9-2.3,1.2C341.4,646.2,340.9,645.9,340.4,645.5z"/>
			<path fill="#A8DBE3" d="M365.7,614.5c-1,2.6-1.6,5.2-0.3,8.1c0.4,1.2-1.2,0.9-2,0.6C361.3,619.6,357.4,615.4,365.7,614.5z"/>
			<path fill="#E2E98B" d="M385.4,608.5c-1,4.3,0.4,11.4-8.2,7.5C383.1,617.2,382.5,611,385.4,608.5z"/>
			<path fill="#F3EE73" d="M350.9,625.7c0.7-3.9,2.9-4.2,5.9-2.5c0,1,0,2,0,3C354.9,624.7,352.9,625.1,350.9,625.7z"/>
			<path fill="#A8DBE3" d="M370,612.7c0.3,1.3,2,2.7,0.4,3.8c-1.4,0.9-2-1.6-3.3-2.2C368,613.7,369,613.1,370,612.7z"/>
			<path fill="#FCEC73" d="M343.3,587.5c19.8,0,39.7,0,59.5,0c-2.2,2.3-5.1,1.4-7.7,1.4c-17.3,0-34.4,0-51.7,0l0,0
				c-0.6-0.3-0.7-0.7-0.6-1C343,587.7,343.1,587.5,343.3,587.5L343.3,587.5z"/>
			<path fill="#F9ED68" d="M343.3,587.5c0,0.4,0,1,0,1.4c-2.6,2.7-1.3,6.1-1.4,9.2c-0.9,15.3,1.7,30.7-1.6,45.7
				c-2.3-2.2-1.4-5.1-1.4-7.7c-0.1-15.3,0-30.6,0-45.8C339.1,587.7,341.1,587.5,343.3,587.5z"/>
			<path fill="#99CDDE" d="M361.3,641c-0.3-3.9,3.9-5.5,4.5-8.8c5.9-2.3,10.8-7.2,17.8-7.4c0.7,4.2-3,4.3-5.2,5.8
				c-3.9,1.4-7.1,3.9-10,6.8C366.3,639.3,364.7,642.2,361.3,641L361.3,641z"/>
			<path fill="#A4D6E3" d="M377.4,629.2c1.6-2,5.1-1.4,5.9-4.3c1.4,0.4,3,1,4.5,1.4c-1,1-2,2-3,2.9c-0.6,2.7-3,3.6-5.2,4.8
				c-1.6,0.7-3.2,1.2-5.1,0.7C369.9,630,377.4,631.5,377.4,629.2z"/>
			<path fill="#A6DCE1" d="M376.4,622.4c0,1.3-0.9,1.9-2.2,2c-1,0.1-2-0.1-2-1.3c-0.1-1.3,0.7-2.2,2-2.3
				C375.4,620.6,376.1,621.1,376.4,622.4z"/>
			<path fill="#A7DAF2" d="M393.9,619.1c-0.3,0.3-0.6,0.7-0.9,1.3c-0.4-0.7-0.9-1.4-1.2-2.3c-0.1-0.3,0.4-1,0.7-1
				C393.9,616.9,393.6,618,393.9,619.1z"/>
			<path fill="#9CD9F8" d="M388.6,612.1c0,0.7,0.1,1.6-0.9,1.6c-0.4,0-1-1-1-1.6s0.6-1.6,1-1.6C388.7,610.4,388.4,611.4,388.6,612.1
				z"/>
			<path fill="#4A9FAD" d="M536.3,605.5c0,0.4,0.1,0.9,0.1,1.4c-4.8-3-4.5-5.9,0-8.8l0,0C538.7,600.5,535,603,536.3,605.5z"/>
			<path fill="#F7D90B" d="M538.3,598.1c0.4,0,0.9,0,1.3-0.1c1.9,3,2.2,6.1-0.3,9c-0.9-1-1.7-2-2.6-3
				C536,601.5,536.5,599.7,538.3,598.1z"/>
			<path fill="#397190" d="M538.3,598.1c-0.6,1.9-1.2,3.8-1.7,5.8c-0.1,0.6-0.1,1-0.3,1.6c-2.5-2.6-1-5.1,0.1-7.5
				C537,598.1,537.7,598.1,538.3,598.1z"/>
			<path fill="#A5D7EC" d="M349.6,644.1c0.1-0.6,0.3-1,0.4-1.6c1.3-0.7,2.5-1.4,3.8-2.2c1.6,7.7-3.6,12.6-11.3,10.6
				c-0.4-0.1-0.3-1.7-0.4-2.7c0.6-3.8,3.6-2.9,6.1-3.2C348.3,644.8,348.9,644.5,349.6,644.1z"/>
			<path fill="#F3EE73" d="M344.9,635.2c0.4-3.2-2.3-5.9-0.9-10.1c1.4,1.7,2.5,4.8,5.2,2.5C348.9,630.9,346.3,632.8,344.9,635.2z"/>
			<path fill="#ACDDD5" d="M346.7,663.2c-1.6-2.3-4.9-0.6-6.5-2.9c-0.4-0.4-0.4-0.9-0.3-1.2c0.1-0.3,0.4-0.4,0.6-0.4
				C343.3,659.2,347,658.5,346.7,663.2z"/>
			<path fill="#E8EF8A" d="M349.2,645.5c-1.7,2.9-5.6,0.1-7.4,2.7c-0.6,0-1,0.1-1.6,0.1c-1.4-1,0-1.9,0.1-2.9c0.4,0,1-0.1,1.4-0.1
				C344.3,643.9,346.7,643.8,349.2,645.5z"/>
			<path fill="#9DDCEA" d="M350.9,662.5c2.2,2.3,3.3,3.9,3,6.4C350.9,667.9,350.9,665.9,350.9,662.5z"/>
			<path fill="#E8EF8A" d="M340.5,658.8c-0.1,0.6-0.3,1-0.3,1.6c-0.4-0.4-0.9-1-1.4-1.4c0.4-3-1-6.2,1.4-9
				C340.4,652.9,340.5,655.9,340.5,658.8z"/>
			<path fill="#CBEAF5" d="M365.6,670.9c-0.4-1-1-2-1.4-3c-1.6-1.6-3.2-3.2-2-5.6c0.6-0.6,1.2-0.9,1.9-0.7c2.6,0.9,3.6,3.3,4.9,5.3
				c2.9,6.8,10.1,8.7,14.9,13.4c0.1,1.3-0.9,1.7-1.7,2.2C374.7,681.3,370,676.1,365.6,670.9z"/>
			<path fill="#ABD9E1" d="M404.3,678.2c-1,0.6-2,1-3,1.6c-1-0.1-1.7-0.7-2.3-1.7c-0.4-2,0.6-4.3-1.2-6.2c0.6-3.5,2.9-5.2,5.9-6.4
				c0.7,0,1.3,0.1,2,0.4c1.6,2.5,0.3,5.3,0.9,7.8C406.3,675.5,405.2,676.8,404.3,678.2z"/>
			<path fill="#D7F0F3" d="M412.8,670.6c-0.4,0-0.9,0-1.2,0.1c-2.3,0.9-2.9-1-3.6-2.3c-0.1-0.6-0.3-1.3-0.1-2c0.4-2,1.4-3.8,3.3-4.8
				c0.6-0.3,1.3-0.4,2-0.3c0.7,0.3,1.2,0.6,1.7,1c0.4,0.6,0.9,1.2,1,1.7c0.3,1.3,0.3,2.7-0.1,4C415.2,669.3,414.1,670.1,412.8,670.6
				z"/>
			<path fill="#C8EDF6" d="M408.8,667.8c1,1,1.9,2,2.9,3c-2,3-4.3,5.5-7.4,7.4c0.4-1.4,1-2.9,1.4-4.5
				C405.8,671.2,406.2,668.8,408.8,667.8z"/>
			<path fill="#DBF3F5" d="M382.1,682.3c0.4-0.4,1-0.9,1.4-1.3c1.7-2,4.2-2.2,6.6-2c1.2,0,2.3,0.1,3.5,0.7c1,0.6,1.9,1.3,1.6,2.7
				C390.9,682.3,386.4,682.3,382.1,682.3z"/>
			<path fill="#C8EDF1" d="M395.2,682.6c-0.4-0.4-1-0.9-1.4-1.3c0.6-3.9,2.7-4.5,5.9-2.9c0.4,0.4,1,1,1.4,1.4
				C399.7,681.6,397.2,681.6,395.2,682.6z"/>
			<path fill="#8EBBCA" d="M412.8,670.6c0.6-1,1.2-1.9,1.7-2.9c0.9-0.9,1.3-2.3,3-1.6c0,1,0,2,0,3c-1,0.6-1.9,1-2.9,1.6
				C414,670.6,413.4,670.6,412.8,670.6z"/>
			<path fill="#A7D9E9" d="M362.9,661.8c0.4,2,0.9,3.9,1.4,5.9c-5.2,0.1-5.5-3.6-5.9-7.4c-1-6.8,1.7-12.9,3-19.3
				c5.9-3.3,8.7-10.8,16.3-11.8c1.6,3.2-4.5,1.3-2.9,4.5c0.9,2.3-1,3.3-2,4.8c-1,1-2.2,2.2-3,3.3c-1.2,1.4-2.2,3-2.9,4.6
				c-0.7,1.9-1.9,3.6-1.9,5.6C364.6,655.5,365.4,658.9,362.9,661.8z"/>
			<path fill="#90C3D5" d="M411.7,646.9c1.4-1.4,3-3,4.5-4.5c1.7,4.8,3.6,9.6,2.3,14.7c-0.3,1.3-0.4,3,1.9,3.2
				c0.1,0.4,0.3,0.9,0.4,1.3c-0.6,0.6-1,1-1.6,1.6c-1.4,1-2.9,1.3-4.3-0.1v0.1c-3.3-4.2-1.3-9.7-3.6-14.3c0-0.4,0-0.7,0-1.2
				C411.3,647.7,411.4,647.2,411.7,646.9z"/>
			<path fill="#BFE6F3" d="M414.7,663.2c1.4,0,2.9,0.1,4.3,0.1c-0.4,0.9-1,1.9-1.4,2.7c-1,0.6-2,1.2-3,1.6
				C414.7,666.2,414.7,664.8,414.7,663.2z"/>
			<path fill="#0E3040" d="M477.1,627.7c-5.2,10.7-23.7,18.3-34.1,14.3c-0.7-0.3-1-1.6-1.4-2.3c0.1-0.3,0.1-0.6,0.3-0.9
				c0.6-0.7,1.3-1.3,2.2-1.6c1.7-0.4,3.2-1.6,4.6-2.5c2-0.6,4.2-0.9,5.9-2.2c0.9-0.4,1.7-0.7,2.7-1c5.3-1.3,8.4-6.5,13.9-7.7
				C473.8,624,475.9,625.1,477.1,627.7z"/>
			<path fill="#0B2C37" d="M477.1,627.7c-2.6,0.1-3.9-2.2-6.1-3c-0.4-0.6-0.4-1.2-0.1-1.7c1.2-1.4,3-0.6,4.5-1.2
				c1.6-0.6,3.2-1,4.8-1.6C480.1,623.1,479.4,625.7,477.1,627.7z"/>
			<path fill="#092632" d="M440,633.6c1.4,0,3,0,4.5,0c1.3,3-2.3,3.8-3,5.9l0,0c-0.4,0-1,0-1.4,0C438.7,637.5,436.8,635.7,440,633.6
				z"/>
			<path fill="#E5E26C" d="M497.5,599.4c0.1-0.4,0-0.9,0-1.4c2.5,1.4,2.2,3.5,1.6,5.6c-0.3,0.9-1.3,0.9-0.7,0.1
				c0.1-0.1-0.3-0.9-0.4-1.3C497.8,601.5,497.6,600.5,497.5,599.4z"/>
			<path fill="#17343C" d="M484.5,596.4c2,0.1,4.3-0.6,5.9,1.4c-1.4,1-2.9,2-4.5,2.9C485.5,599.4,485.1,598,484.5,596.4z"/>
			<path fill="#24495B" d="M472.6,601c2,6.2,3.6,12.4-1.6,18c-0.3-0.3-0.4-0.6-0.7-1c-0.3-0.7-0.4-1.6-0.4-2.3
				C471.5,610.8,468.6,605.2,472.6,601L472.6,601z"/>
			<path fill="#427782" d="M475.2,621.8c-0.9,1.9-2.6,1.2-4,1.7c-1.4,0.3-2-0.4-2.5-1.6c0-1.6-0.1-3.2,2.3-2.9l0,0
				C472.5,619.9,473.8,620.8,475.2,621.8z"/>
			<path fill="#23495C" d="M459.3,593.1c-1.6,0.1-3.2,0.1-4.6,0.3c-2.5-1-4.8,1.4-7.2,0.7c-1.9,0-3.8-0.1-5.3-1.2
				c-0.3-0.3-0.4-0.6-0.7-0.9C447.6,588.2,453.7,587.2,459.3,593.1z"/>
			<path fill="#092533" d="M431.1,605.2c1.2-0.6,2.3-1.2,3.5-1.7c1.2,0.3,1.6,1.2,1.7,2.2c-0.3,3-0.3,5.9,1.6,8.6
				c0.3,1,0.3,2-0.1,3.2c-0.9,1.3-2,2-3.6,1.9c-1.6-1-2.3-2.5-2.3-4.3C431.1,611.7,430,608.5,431.1,605.2z"/>
			<path fill="#254554" d="M431.1,605.2c0.4,3,0.9,5.9,1.3,9c-0.4,0.9-0.9,0.7-1.3,0c-2.6-2.3-0.7-6.4-3.2-8.8
				C429,605.5,430,605.2,431.1,605.2z"/>
			<path fill="#ACBDC6" d="M435.2,605.1c-0.3-0.6-0.6-1-0.7-1.6c-1.2-2.6,0.9-2.6,2.5-3c0.7-0.3,1.4-0.1,2,0.6
				c1.2,1.9,0.4,3.8,0.1,5.6c-0.3,2-0.4,4-2.7,4.9C433.5,609.8,434.8,607.5,435.2,605.1z"/>
			<path fill="#042234" d="M438.5,600.4c-0.6,0.1-1,0.1-1.6,0.3c0.3-1.4-1.6-2.9,0.1-4.2c1.3-1.4,2-3.8,4.6-3
				c0.7,0.9,0.9,1.9,0.7,2.9c-0.3,1.4-1,2.6-2,3.5C439.8,600.1,439.2,600.4,438.5,600.4z"/>
			<path fill="#23495C" d="M441.4,593.5c-1.4,0.9-2.9,1.9-4.3,2.7c0-2.9,1.7-4,4.3-4.3l0,0c0.3,0.3,0.4,0.7,0.3,1
				C441.7,593.4,441.5,593.5,441.4,593.5z"/>
			<path fill="#214558" d="M431,614.2c0.4,0,0.9,0,1.3,0c0.6,1.4,1,3,1.6,4.5c3.2,1,5.5,2.9,6.8,6.1c0.1,1.2,0,2-1,2.7
				C435.2,624.3,431,620.8,431,614.2z"/>
			<path fill="#0A2A3F" d="M439.8,627.6c0-1,0-2,0-3c-0.3-1.3,0.4-1.9,1.6-2.3c1.9-0.3,3.6,0.3,5.3,1.3c1,0.7,1.4,1.7,1.3,3
				c-0.9,2.3-2.6,2.6-4.6,2.3c-0.7-0.3-1.3-0.7-1.9-1.3C440.8,627.7,440.4,627.7,439.8,627.6z"/>
			<path fill="#0A2D3F" d="M441.4,627.7c0.4,0,1,0,1.4,0c1.6,1.6,4.8,1.2,5.3,4c0,0.7-0.1,1.3-0.6,1.9c-0.7,0.3-1.3,0.3-1.7-0.3
				c-1.4-1.4-3-2.7-4.5-4.2C441.4,628.7,441.4,628.2,441.4,627.7z"/>
			<path fill="#1D3C4D" d="M460.6,597.1c0.9-1,1.9-1,3-0.9c0.6,1.4,1.6,2.5,2.9,3c1.7,0.4,2.6,1.6,3.2,3.2c2,7.1,1.3,13.7-3.9,19.6
				c-2,1-3.8,0.7-5.2-0.9c-0.4-0.6-0.7-1.3-0.7-2c0.1-1,0.6-2,1.2-2.9c3.2-4.3,2.5-8.6-0.4-12.6
				C459.6,601.4,459.2,599.4,460.6,597.1z"/>
			<path fill="#0F3547" d="M468.1,602.4c-0.4-1-1-2-1.4-2.9c3.6-6.2,3.5,2.9,5.9,1.4c-0.4,5.5,1.2,11.1-1.4,16.6
				c-3.5,0-2.6-2.7-1.9-4C471.5,609.2,469.6,605.8,468.1,602.4z"/>
			<path fill="#001A18" d="M460.6,597.1c0.6,2.3,1.2,4.5,1.7,6.8c-0.1,0.3-0.3,0.6-0.4,0.9c-0.7,0.7-1.7,1.2-2.9,1
				c-2.5-1-4-2.7-5.1-5.1c-0.3-1.2-0.1-2.2,0.4-3c0.9-0.7,1.9-0.9,3-0.3C458.5,597.4,459.6,597.4,460.6,597.1z"/>
			<path fill="#BEDADB" d="M457.4,597.4c-0.9,0-1.7,0-2.6,0.1c-1.9,0.6-3.8,0.6-4.9-1.4c0.4-1.9,1.7-2.2,3.3-1.6
				C455.3,594.7,457,595.1,457.4,597.4z"/>
			<path fill="#65787C" d="M453.3,594.5c-1,0.4-2.5,0.1-2.9,1.7c-1.4,1.2-2.7,0.6-4-0.1c-0.6-0.4-0.9-1.2-1-1.9
				c0.4-1.2,1.4-1.4,2.6-1.4c1.7,0.3,3.8-0.7,5.2,0.9C453.3,594.1,453.3,594.2,453.3,594.5z"/>
			<path fill="#0C1E40" d="M453.3,593.7c-2,0-3.9-0.1-5.9-0.1c-0.6-0.3-0.7-0.7-0.6-1c0.1-0.3,0.3-0.4,0.6-0.4
				c2.5,0.4,5.2-1,7.4,1.4C454.3,593.5,453.8,593.5,453.3,593.7z"/>
			<path fill="#9CB3BD" d="M445.9,633.4c0.4,0.1,0.9,0.3,1.4,0.4c0.4,0.3,0.6,0.7,0.4,1.2c0,0.4-0.1,0.6-0.3,0.6
				c-0.7,1.2-1.9,1.9-3.2,2.3c-1,0.6-1.9,1-2.9,1.6c-0.6-2.7,2.3-3.8,3-5.9C445,633.6,445.4,633.5,445.9,633.4z"/>
			<path fill="#90C4D6" d="M411.7,645.3c0,0.6,0,1,0,1.6l0,0c-1,2-2.3,3.6-4.8,4c-0.7,0.1-1.4,0-2.2-0.1c-0.9-0.3-1.9-0.7-2.5-1.4
				c-5.5-7.7-13.1-8.4-21.6-7.2c-2.6-0.7-4.8-2-5.2-5.1c0.6-2.6,2.9-3,4.6-4c0.7-0.3,1.3-0.4,2-0.3c3.9,1.7,7.9,0.4,12,0.9
				c0.7,0.1,1.3,0.3,1.9,0.6c2,1.6,4.3,2.5,7.1,2.6c1.4,0.7,3,1.4,4.2,2.7l0,0C408.5,641.6,410.2,643.5,411.7,645.3z"/>
			<path fill="#C9E7F4" d="M407.2,639.6c-1.4-0.6-2.9-1-4.5-1.6c-2.5-1.2-5.1-1.7-7.4-3l0,0c-3.8-1.9-7.8,0.4-11.6-0.9
				c-1.2-4,2.3-2.7,4-3.5l0.1-0.1C395.7,630.9,403,631.9,407.2,639.6z"/>
			<path fill="#CCEDED" d="M411.7,645.3c-2.5-1.2-4.3-2.9-4.5-5.9C409.7,640.7,411.4,642.5,411.7,645.3z"/>
			<path fill="#E3F4FB" d="M387.9,630.6c-1.4,0.9-3,1.7-4.5,2.6c-0.1,0.9-0.7,1-1.3,0.6c-0.4,0-1,0-1.4,0c-1.6,0.4-1.9-0.1-1.6-1.6
				c2-1,3.9-2,5.9-3C386,629.6,386.8,630.2,387.9,630.6z"/>
			<path fill="#FCE678" d="M343.4,643.9c1.4-4.3,2.9-2.3,4.5,0C346.3,645.1,344.9,645.1,343.4,643.9z"/>
			<path fill="#EDEF77" d="M343.4,643.9c1.4,0,2.9,0,4.5,0c0.6,0,1.2,0,1.6,0c-0.1,0.4-0.1,1-0.3,1.4c-2.5,0-4.9,0-7.4,0
				C342.4,644.9,342.9,644.5,343.4,643.9z"/>
			<path fill="#C8EAF8" d="M379,632.2c0.6,0.6,1,1,1.6,1.6c-1.4,1-3,1.9-4.5,2.9c-0.6,1.3-1.4,2.2-2.9,2.2c-0.7-0.1-1.2-0.4-1.7-0.9
				c0-2.2,2.2-2.9,3.2-4.3C376.1,633.2,377.6,632.6,379,632.2z"/>
			<path fill="#A6D9E5" d="M390.9,681.1c-2.5,0-4.9,0-7.4,0c-6.4-3.3-13.3-6.1-16.3-13.4c0.3-0.9,0.7-1.7,1.6-2.3
				c0.9-0.4,1.9-0.6,2.7-0.6c1,0,2,0.3,2.9,0.7c0.6,0.3,1,0.7,1.6,1.3c2,2.5,3.9,5.2,7.7,4.9c2.6,0.3,5.2,1,7.8,0.6
				c1.4,0,2.7,0.1,3.9,1.2C396.5,677.5,392.5,678.5,390.9,681.1z"/>
			<path fill="#93C4D6" d="M368.6,666.3c-0.4,0.4-0.9,0.9-1.3,1.3c-1-1.9-2.2-3.9-3.2-5.8c-1.3-2.7-0.6-5.6-0.6-8.6
				c0.6-0.7,1.3-0.9,2.2-0.7C367.7,656.9,369.7,661.2,368.6,666.3z"/>
			<path fill="#D8F3FD" d="M364.3,653.1c0,2.9,0,5.9-0.1,8.8c-0.4,0-0.9,0-1.3,0c0-3.9,0-7.8,0-11.7
				C365.3,650.1,365,651.4,364.3,653.1z"/>
			<path fill="#F6EF6E" d="M395.4,673.9c-1.4,0-2.9,0-4.3,0c-3.9-1.3-6.5-6.8-11.8-3.6c-2.3-0.3-3-2.6-4.6-3.9l0.1-0.1
				c-1.9-1.2,0.1-5.3-3.8-4.8c-1.3-1.9-1.3-3.9-0.7-6.1c2.3-3.3,3.8-6.9,4.6-10.8c1.3-2.2,2.7-4.3,5.8-3.5c10.7-3.6,19,0,25,9
				c3.6,6.8,3.2,10.8-1.6,16.3c-1.9,2-3.9,4-5.8,5.9C397.7,673.6,397,674.5,395.4,673.9z"/>
			<path fill="#A7D9E7" d="M395.4,673.9c1-0.6,1.9-1.2,2.9-1.7c10.3-0.6-2.2,4.9,1.6,6.1c-2.3,0.3-4.3,1.2-5.9,2.9c-1,0-2,0-2.9,0
				C390,677.2,394.1,676.5,395.4,673.9z"/>
			<path fill="#AEDCDC" d="M404,666.2c2.3-5.2,1.9-10.7,1.6-16.3c0.6,0,1-0.1,1.6-0.1c1,0.9,1.2,2,1,3.3c4.6,0,3.9,3,3.3,5.9
				c-1.2,1.9-2.7,3.5-3.3,5.6c-0.6,0.9-1.3,1.4-2.5,1.4C405.2,666.2,404.6,666.2,404,666.2z"/>
			<path fill="#A3D5EA" d="M405.8,666.3c0.4-0.4,1-1,1.4-1.4c0.9,0.1,1.4,0.6,1.6,1.6c0,0.4,0,1,0,1.4c-0.4,2.3-1.2,4.5-3.2,5.9
				C403,671.2,404.6,668.8,405.8,666.3z"/>
			<path fill="#DAECF5" d="M411.7,648.5c5.6,3.9,1.9,9.8,3,14.7c-0.6-0.6-1-1-1.6-1.6c-2.7-2.9-0.4-6.9-2.3-10
				C410.5,650.5,410.7,649.4,411.7,648.5z"/>
			<path fill="#A8E2F9" d="M408.8,666.3c-0.6-0.6-1-1-1.6-1.6c0.9-1.6-2-5.6,3-4.3c0.6,0.1,1,0.3,1.3,0.7c0,0.3,0.1,0.4,0.1,0.7
				C410.7,663.3,409.8,664.9,408.8,666.3z"/>
			<path fill="#AEDCDC" d="M411.7,651.3c2.6,3.2,1,6.9,1.4,10.4c-0.4,0-0.9,0.1-1.4,0.1h-0.1C410.7,658.2,410.4,654.8,411.7,651.3z"
				/>
			<path fill="#C7E7F0" d="M364.3,653.1c-0.4-1-1-1.9-1.4-2.9c0.9-1.6,1.9-3.2,2.7-4.6c1.2,0.1,1.9,0.9,2.2,1.9
				c0.1,2.2-0.1,4.2-2.2,5.3C365.1,652.8,364.7,652.9,364.3,653.1z"/>
			<path fill="#C9E5F3" d="M371.4,638c0.6,0,1.2,0,1.7,0.1c0.4,3.5-1.3,4.8-4.6,4.8c-0.7-0.6-0.7-1.3,0-1.9
				C368.7,639.1,369.7,638.1,371.4,638z"/>
			<path fill="#CEEEFB" d="M368.6,640.9c0,0.6,0.1,1.2,0.1,1.7c0.7,2,0,3.3-1.9,4.2c-0.4-0.4-0.9-1-1.3-1.4
				C365.7,643.3,366.7,641.9,368.6,640.9z"/>
			<path fill="#9FE0F7" d="M411.7,651.3c0,3.5,0,6.9,0,10.4c-0.4-0.4-1-0.9-1.4-1.4c2-4.3-4-6.4-3-10.4c1.4-1,3-2,4.5-2.9
				c0,0.6,0,1,0,1.6C411.7,649.5,411.7,650.4,411.7,651.3z"/>
			<path fill="#1D4457" d="M469.4,621.8c0.6,0.6,1.3,1.2,1.9,1.6c-0.1,0.4-0.1,0.9-0.1,1.2c-4.2,3.3-8.1,7.2-13.3,8.8
				c-0.4-0.4-0.7-1-0.7-1.7c1-3.5,4.3-4.5,6.6-6.5c1.2-0.9,2.3-1.9,3.3-3C467.6,621.8,468.4,621.4,469.4,621.8z"/>
			<path fill="#1B3B4C" d="M447.2,634.9c0.1-0.4,0.1-0.9,0.1-1.2c0-0.6,0-1.2,0.1-1.7c0.4-0.9,0.9-1.7,1.9-2c0.7,0,1.3,0.1,1.9,0.3
				c1.3,1,2.9,1.6,3.6,3.2c-1.3,3-3.5,3-5.9,1.4C448.2,635.5,447.8,635.5,447.2,634.9z"/>
			<path fill="#274C5F" d="M454.8,633.6c-2.2,0-4.2,0-4.5-2.9c0.4-0.6,1.2-0.9,1.9-0.9c2.2,0,4.2,0.4,5.6,2.3c0,0.4,0,0.9,0,1.4
				C456.7,633.5,455.7,633.6,454.8,633.6z"/>
			<path fill="#0B2A34" d="M447.2,634.9c0.6,0,1.2,0,1.7,0.1c-0.6,2.5-1.4,4.5-4.5,2.9C445.3,637,446.2,636,447.2,634.9z"/>
			<path fill="#234659" d="M469.4,621.8c-0.4,0.4-0.9,1-1.3,1.4c-1,0.4-1.9,0.1-2.6-0.6c-0.1-0.3-0.3-0.6-0.4-0.9
				c3.6-6.1,4.9-12.4,3-19.4c2.9,2.7,3.6,6.1,2.5,9.8c-0.6,1.9-1.3,3.6,0.6,5.2c0,0.6-0.1,1-0.1,1.6
				C470.4,619.9,469.9,620.9,469.4,621.8z"/>
			<path fill="#0D2B37" d="M447.3,592c0,0.4,0,1,0,1.4c-0.4,0.3-0.9,0.7-1.3,1c0.3,0.3,0.6,0.7,0.6,1c0,0.4,0,0.6-0.1,0.6
				c-1.7,1.2-3.5,1.4-5.1-0.1c0-0.9,0-1.6,0-2.5c0-0.4,0-1,0-1.4C443.4,592,445.4,592,447.3,592z"/>
			<path fill="#223948" d="M441.3,623.2c-0.4,0.4-1,1-1.4,1.4c-2.5-1.4-4.5-3.3-5.8-5.9c1-0.6,1.9-1.3,2.9-1.9c1-0.6,2-0.7,3-0.4
				c1,0.4,1.7,1.2,2.3,2c0.3,0.7,0.4,1.3,0.6,2C442.7,621.7,442.3,622.5,441.3,623.2z"/>
			<path fill="#182B36" d="M439.2,617.2c-0.9-0.1-1.6-0.3-2.5-0.4c0-0.7,0.1-1.6,0.1-2.3c-1-1-1.2-2.2-0.4-3.5
				c0.3-1.9,0.4-3.6,0.7-5.5c2.2-0.1,2.5,1.6,3.2,3C440.5,611.5,443.1,614.9,439.2,617.2z"/>
			<path fill="#758D9A" d="M436.5,611.1c0.1,1.2,0.3,2.3,0.4,3.5c-4.9-2.3-3.3-5.8-1.7-9.4C435.8,607.1,434.8,609.5,436.5,611.1z"/>
			<path fill="#364A53" d="M438.5,608.4c-0.4-0.9-0.9-1.9-1.2-2.7c0.4-1.7,0.7-3.5,1.2-5.2c0-0.4,0.1-0.7,0.7-0.9
				c0.6-0.3,1.2-0.1,1.7,0.1c0.6,0.4,0.9,0.9,1.3,1.4c0.3,0.6,0.3,1.2,0.3,1.9C441.8,605.1,442.3,608.4,438.5,608.4z"/>
			<path fill="#8CA3A8" d="M441.4,596.1c1.6-0.4,3-0.4,4.3,0.7c0.3,3-1.7,3.2-3.9,3.5c-0.7,0-1.3-0.3-1.7-0.9l-0.4-0.1l-0.4,0.3
				C440,598.4,439.5,596.4,441.4,596.1z"/>
			<path fill="#BFD6D6" d="M447.5,626c-0.4-0.6-1-1.2-1.4-1.6c-0.4-0.7-0.3-1.3,0.1-1.9c0.6-0.4,1.2-0.7,1.9-1
				c2.7-0.3,5.5-1.2,8.4-0.1c0.7,0.9,1,1.9,0.7,3c-0.3,1-1,1.9-1.9,2.6c-1.4,1-3.2,1.4-4.9,1.6C448.8,628.3,447.9,627.4,447.5,626z"
				/>
			<path fill="#1A3D4E" d="M447.5,626c1,0.6,1.9,1.2,2.9,1.7c0.7,1.4-0.3,2-1.3,2.6c-0.6,0.6-1,1.2-1.6,1.7c-1.4-1.4-3-2.9-4.5-4.5
				C444.5,627.6,446.3,627.7,447.5,626z"/>
			<path fill="#99B5B6" d="M445.9,623.4c0.1,0.3,0.1,0.6,0.1,1c-1.6-0.4-3-0.7-4.6-1.2c0-1,0-2,0-3.2
				C444,619.6,446.3,619.6,445.9,623.4z"/>
			<path fill="#374A47" d="M456.3,621.8c-2.9,1.6-5.9,1.3-9,1c-0.7-0.9-0.9-1.9-0.3-2.9c2.9-2.3,7.2-1.7,9.7-4.9
				c1.2-0.7,2.5-1.3,3.8-1.4c0.7,0,1.3,0.1,1.9,0.4c0.7,0.9,0.6,1.9,0,2.7c-0.7,0.7-1.3,1.4-2,2.2C459.6,620.8,459,623,456.3,621.8z
				"/>
			<path fill="#CFE5F0" d="M462.4,616.7c0.1-0.7,0.1-1.6,0.3-2.3c-1.3-3.5-1.6-6.9-0.3-10.4l0,0
				C467.7,608.4,466.4,612.5,462.4,616.7z"/>
			<path fill="#3B6F81" d="M460.8,620.2c1.4,0.6,2.9,1,4.3,1.6l0,0c2,3.9-1.3,3.8-3.5,4.6c-1.3,0.1-2.5-0.1-3.5-0.9
				C456.3,622.4,459,621.5,460.8,620.2z"/>
			<path fill="#AFC9CA" d="M460.8,620.2c-1.2,1.4-2.2,2.9-3.3,4.2c-0.4,0.6-0.9,0.4-1.3,0c0-0.9,0-1.7,0-2.7c1.3-1,2.7-1.9,4-2.9
				C460.5,619.2,460.6,619.8,460.8,620.2z"/>
			<path fill="#FEFE80" d="M460.9,614.2c-0.6,1.6-1.9,1.3-3.2,1.6c-1.6-0.3-2.5-1.4-3-2.7c-0.7-3-2.2-5.9-2.5-9.1
				c0.1-1.2,0.6-2,1.4-2.7c0.3-0.1,0.7-0.3,1-0.4c2,1.2,3.6,2.6,4.8,4.8C462.6,607.8,462.2,611,460.9,614.2z"/>
			<path fill="#1D3C4D" d="M460.9,614.2c-0.4-2.9-1-5.9-1.4-8.8c1-0.4,1.9-0.9,2.9-1.4c1.6,3.5,2.2,6.9,0.3,10.4
				C462.1,614.4,461.5,614.2,460.9,614.2z"/>
			<path fill="#0F2438" d="M447.3,595.1c1,0.4,2,0.9,3.2,1.3c1.4,0.4,3.2-0.1,4.3,1.3c0,1-0.1,2-0.1,3.2v0.6
				c-2.3,0.6-4.5,0.3-6.5-1.2C446.9,598.7,446,597.1,447.3,595.1z"/>
			<path fill="#1A272F" d="M447.3,595.1c0.4,1.3,1,2.6,1.4,3.9c-1.9,2.9-4.3,3.8-7.5,1.9h0.1c-0.4-0.3-0.6-0.6-0.3-0.9
				c0.1-0.1,0.3-0.3,0.6-0.3c1.3-1,2.7-2,4-3c0.1-0.7,0.3-1.4,0.3-2.2C446.5,594.7,446.9,594.8,447.3,595.1z"/>
			<path fill="#91C3D9" d="M366.9,646.9c0.6-1.4,1.2-2.9,1.9-4.2c1.4-1.6,3-3,4.5-4.6c1-0.4,2-1,2.9-1.4c1.4,1.4,2.9,2.9,4.5,4.3
				c-1.4,1.4-2.9,3-4.5,4.5c-2,1.9-1.7,5.1-3.8,6.9c-1.6,0.7-0.7,4.3-3.9,3.2c0,0-0.3-0.1-0.1-0.1c2.6,2,1.9,5.5,4,7.7
				c0.4,1,0.3,2-0.4,2.9c-1,0-2.2,0.1-3.2,0.1c-1.7-4.3-3.8-8.6-3-13.4C366,650.8,366.4,648.8,366.9,646.9z"/>
			<path fill="#8ABFCD" d="M382.1,633.8c0.4-0.1,0.9-0.3,1.3-0.6c3.9,0.9,8.4-1.2,12,1.7C390.9,634.5,386.1,638.3,382.1,633.8z"/>
			<path fill="#8EC2CB" d="M395.4,635.1c2.9-0.1,5.5,0.6,7.4,3C399.1,639.9,397.1,637.8,395.4,635.1z"/>
			<path fill="#F7EE6B" d="M379,669.2c3.8-2.5,8.2-1.4,12.9-2.5c-3.5,2.3-5.6,4.5-1,6.9c-2.6,1.9-4.9-0.3-7.5-0.3
				C382.1,671.9,378.4,672.9,379,669.2z"/>
			<path fill="#F4ED75" d="M371.7,666.2c-0.1-1-0.1-1.9-0.3-2.9c-0.7-0.7-0.6-1.3,0.4-1.4c1.3-1.7,2.7-3.6,4.6-6.2
				c0.6,4.6-2.9,7.2-2,10.6C373.7,666.2,372.7,666.2,371.7,666.2z"/>
			<path fill="#E3E791" d="M379,669.2c1.4,1.4,3,2.9,4.5,4.3c-5.1,0.1-7.5-2.9-9-7.2C376.9,666.1,377.4,668.3,379,669.2z"/>
			<path fill="#93C4D6" d="M372,661.8c-0.1,0.4-0.3,1-0.4,1.4c-0.3-0.3-0.7-0.7-1-1.2c-1.4-3.8-5.8-7.7,0.9-10.8
				c1,0.9,0.9,1.9,0.3,2.9C371.4,656.8,371.1,659.5,372,661.8z"/>
			<path fill="#F4ED75" d="M371.7,654.3c-0.1-1-0.1-1.9-0.3-2.9c1.3-2.2,2.2-4.6,4.5-5.9C375,648.8,376.7,653.1,371.7,654.3z"/>
			<path fill="#FAEA78" d="M392.3,645.5c0.9,0,3.3-1.2,2.2,0.7c-2,3.6-4.8,2.6-6.6-0.7C389.4,644.2,390.9,644.3,392.3,645.5z"/>
			<path fill="#EEF466" d="M392.3,645.5c-1.4,0-3,0-4.5,0C389.4,641,390.9,643.2,392.3,645.5z"/>
			<path fill="#153A4C" d="M457.7,632.2c-2.2-0.1-4.6,0.6-6.1-1.7c-0.3-2.5,1.3-3,3.2-3.5c2-0.9,4-1.6,6.2-1.4
				c1.4,0.1,2.9-0.4,4.2,0.7C462.6,628.2,460.2,630.2,457.7,632.2z"/>
			<path fill="#113D4D" d="M465.2,626.3c-1.6,0-3,0-4.6-0.1c-0.4-0.3-0.6-0.4-0.4-0.7c0.1-0.3,0.3-0.3,0.4-0.3
				c2-0.3,4.3-0.3,4.5-3.3c1,0.6,1.9,1,2.9,1.6C467.1,624.3,466.1,625.3,465.2,626.3z"/>
			<path fill="#ADC3C8" d="M454.4,627.6c-0.9,0.9-1.7,1.9-2.7,2.7c-0.4,0-1,0.1-1.4,0.4c-0.4-0.1-0.9-0.3-1.3-0.3
				c0.4-0.9,0.9-1.7,1.3-2.6c1-1.6,2.5-1.6,4-1.6c0.6,0.3,0.7,0.6,0.6,1C454.7,627.4,454.6,627.6,454.4,627.6z"/>
			<path fill="#FCEF80" d="M441.4,600.8c2.5-0.6,4.9-1.3,7.5-1.9c2.2,0.1,4.3,0.3,5.9,2.2c-0.6,1-1,2-1.6,2.9
				c-7.8,4.2-7.8,4.2-4.6,11.7c0.3,2-0.9,3.3-2.3,4.5c-2,1-3.2-0.9-4.9-1.2c-0.7-0.6-1.4-1.3-2.2-1.9c1.3-3-1.6-5.8-0.7-8.8
				C440.1,606,441.3,603.7,441.4,600.8z"/>
			<path fill="#1E303C" d="M441.4,619.2c1.7-1.3,2.9,1,4.5,0.9c0.7-0.4,1.2-0.1,1.4,0.6c0,0.7,0,1.4,0,2.2c-0.4,0.1-1,0.4-1.4,0.6
				c-1.4-1.2-3-2.2-4.5-3.3C441.4,619.8,441.4,619.5,441.4,619.2z"/>
			<path fill="#5A6D73" d="M441.7,599.8c0,0.4,0,0.7-0.1,1.2c-0.4-0.4-1-1-1.4-1.4C440.5,599.4,441.1,599.7,441.7,599.8z"/>
			<path fill="#082634" d="M454.4,627.6c0-0.4,0-1,0-1.4c0.6-0.6,1.3-1.2,1.9-1.6c0.4,0.1,0.9,0.1,1.3,0c1,0.1,2,0.3,3,0.6
				c0,0.4,0,0.7,0,1.2C458.5,626.6,456.4,627.1,454.4,627.6z"/>
			<path fill="#FDF567" d="M447.3,620.6c-0.4-0.1-1-0.4-1.4-0.6c0.4-1.4,0.9-2.7,1.4-4.2c2.5-2.5,5.3-3.9,8.8-3.3
				c0.6,1.2,1.2,2.2,1.6,3.3C455.6,620.1,451.7,620.9,447.3,620.6z"/>
			<path fill="#103654" d="M456.1,612.5c-2.3,2.7-5.3,3.9-8.8,3.3c-4.3-1.4-4.5-6.1-3.6-8.4c1.3-3.8,5.6-4,9.6-3.2
				C455.3,606.5,457.2,609.1,456.1,612.5z"/>
		</g>
	</g>
	<g id="Layer_2_1_">
	</g>
</g>
<rect x="22.1" y="727.5" fill="none" width="179.7" height="54.6"/>
</svg>
