<?xml version="1.0" encoding="utf-8"?>
<!-- Generator: Adobe Illustrator 18.1.0, SVG Export Plug-In . SVG Version: 6.00 Build 0)  -->
<svg version="1.1" id="Layer_1" xmlns="http://www.w3.org/2000/svg" xmlns:xlink="http://www.w3.org/1999/xlink" x="0px" y="0px"
	 viewBox="0 0 500 500" enable-background="new 0 0 500 500" xml:space="preserve">
<g id="Layer_3">
	<path fill="#2178A9" d="M36.3,45.7c0,0,76.7,10,208.5-45.7c0,0,118.6,56.8,204.7,45.5c0,0,78,333.8-205.4,454.5
		C244.1,500-27.1,411.1,36.3,45.7z"/>
	<path fill="none" stroke="#FFFFFF" stroke-width="9" stroke-miterlimit="10" d="M247.6,463.2c0,0-231.9-69.8-183.8-391.1
		c0,0,95.2,2.3,177.9-45.1c0,0,71.7,28.9,103.8,32.2"/>
	<polygon fill="#EDFF00" points="250,141.6 282,206.3 353.5,216.8 301.7,267.2 314,338.4 250,305 186,338.4 198.3,267.2 
		146.5,216.8 218,206.3 	"/>
	<polygon fill="#FFFFFF" points="124.7,94.1 136.6,118 163,122 143.9,140.6 148.4,167 124.7,154.6 101,167 105.6,140.6 86.4,122 
		112.8,118 	"/>
	<polygon fill="#FFFFFF" points="383.9,94.1 395.8,118 422.2,122 403.1,140.6 407.6,167 383.9,154.6 360.2,167 364.8,140.6 
		345.6,122 372,118 	"/>
</g>
<g id="Layer_2">
</g>
</svg>
