<?xml version="1.0" encoding="utf-8"?>
<!-- Generator: Adobe Illustrator 18.1.0, SVG Export Plug-In . SVG Version: 6.00 Build 0)  -->
<svg version="1.1" id="Layer_1" xmlns="http://www.w3.org/2000/svg" xmlns:xlink="http://www.w3.org/1999/xlink" x="0px" y="0px"
	 viewBox="1 189.8 611.1 248.7" enable-background="new 1 189.8 611.1 248.7" xml:space="preserve">
<g id="Layer_1_1_">
</g>
<g id="Layer_2">
	<g id="U4X7JD_1_">
		<g>
			<polygon fill="#183964" points="1,417.2 260.2,420.7 291.2,365.9 612,360.4 612,438.5 259.7,438.5 1,438.5 			"/>
			<path fill="#FDFDFD" d="M410.6,388.8c-24.6,0-49.1,0-73.7,0c-3.2,0-6.4,0.4-9.2-1.4c-3-3.8-2.7-7.9-1.3-12.1
				c-0.7-6.4,2-7.9,8.5-7.9c44.2,0.3,88.6,0.1,132.8,0.1c2.7,0,5.3,0.3,8.1,0.6c3.2,2.2,5.9,4.3,10.3,4.3c5.8,0,11.4,9,11.3,16.3
				c-9.4,0.1-18.8,0.1-28.2,0.3c-1.3,0.7-2.5,1.6-3.9,1.7c-15.6,0.4-31.1,0.1-46.7,0.1C415.7,390.7,412.9,390.7,410.6,388.8z"/>
			<path fill="#0F303F" d="M497.1,388.7c-1.2-5.5-6.1-8.7-8.1-13.6c-0.9-2-3.3-1.7-4.5-1c-7.5,4.3-7.9-1-9-6.1
				c-0.3-1.4-1.4-1.7-2.6-2c-0.1-0.7,0-1.3,0.3-2c0.1-0.1,0.3-0.4,0.4-0.6c9.1-3.2,9.1-3.2,6.6-13.9c-0.6-6.1,0.1-12-6.8-16.3
				c-4.9-3,0.9-16.3,7.4-17.2c3.8-0.6,6.5-1.7,8.1-5.2c0.4-0.6,0.9-1.2,1.3-1.6c2-1.4,3.9-3,6.5-2.9c0.4,0.1,0.9,0.3,1.3,0.4
				c0.1-0.4-0.1-0.9-0.6-1.2c-1.6-2-2.3-4.6-3.6-6.8c-2.3-4.6-0.6-8.1,3.5-10.4c4.3-2.5,8.5-6.8,13.9-2.3c2.3,2,4.9,3,7.9,3.3
				c4.6,3.6,10.3,4.3,15.9,4.6c1.4,0.1,2.9,1.7,3.9-0.6c1.2-1.7,0.6-5.6,4.6-3.5c1.9,3.6,1.9,7.1,0.1,10.7c-1.9,2.6-5.1,2-7.5,3.2
				c-8.8,1.4-15.5,7.7-23.8,10.3c-1,1-1.9-2.7-2.7-0.1c-0.9,2.7-2.7,4.8-4.8,6.4c-2.5,1.9-2.5,3.9-1.3,6.4c0.1,4-1.6,7.7-2.2,11.4
				c-0.9,2.3-1,4.8-0.9,7.4c-0.3,8.1,2.2,15.3,5.9,22.2c1.3,2.3,2.7,4.6,4.9,6.4c3,3.2,6.2,6.2,10,8.5c2,1.6,4.5,2.3,6.9,3
				c2.5,0.9,4.9,1.6,7.1,2.9c0.9,0.4,1.6,1,2.5,1.6c1.9,1.7,5.1,1.3,6.4,3.9c0.4,4.8,2.9,7.7,7.8,8.2c2.2,1.4,1.9,2.9-0.1,4.2
				c-0.1,10.7-4.6,13.9-14.9,10.4c-2-0.7-1.6-2-2-3.3c-1.6-5.9-13.6-13.6-19.6-12.6c-0.9,0.1-1.6,1-2.5,1.4
				c-2.5,1.3-3.2,6.5-7.5,3.8c-4.2-2.7-9.7-4.8-8.4-11.6c2.5-1.6,3.5-3.5,1.4-6.1C498,388.4,497.6,388.4,497.1,388.7z"/>
			<path fill="#95BFE5" d="M289.3,314.4c4.6-10-4-8.5-9-10.4c0.7-1.2,2-0.4,2.9-1c-1.6,1.2-2.7-3.2-4.3-0.3c-2.2-3.6-0.9-7.7-1-11.4
				c-0.3-4,1.4-6.6,5.9-6.4c2.9,0.1,5.1-0.1,6.1-3.8c0.9-3.3,0-5.3-2.9-6.5c-5.2-2.2-4.3-5.6-2.5-9.4c0-3.3,1.9-5.9,3.8-8.4
				c1.9-2.3,4.3-4.2,6.8-0.4c3.8,3.6,6.8,3,9.2-1.4c0.7-3.5-4.3-4.3-3.3-7.8c3.6-4.5,10-5.6,13.4-10.4c3-2.5,4.5-0.1,5.8,2
				c1.4,2.5,2.9,4.5,6.2,4.3c1.4,1.2,1.6,2.6,1.3,4.2c-2.9,5.1-2.2,10.5-1.6,16c0,0.7-0.1,1.4-0.3,2.2c-7.4,6.6-14,13.6-14.9,24.3
				c-0.1,2.9-0.1,5.6,0,8.5c0.3,5.9,2.7,11,6.1,15.6c0.6,0.7,1.2,1.4,1.9,2.2c1.6,2,3.8,3.3,5.5,5.2c0.6,0.9,1,1.7,1.3,2.6
				c0.6,2.2,0.9,4.5,1.6,6.8c0,0.7,0,1.3-0.3,2c-1.9,3.5-1.7,7.1,0,10.5c0.1,0.7,0,1.3-0.4,1.9c-0.3,0-0.6,0-0.7,0.1
				c-9,7.5-9,7.5-20.1,1.4c-1.3,0.4-2-0.1-2.5-1.3c-0.7-2,0.1-3.6,0.7-5.6c2.5-6.6-0.4-10.3-6.6-7.5c-6.1,2.6-7.8-0.1-9.5-4.5
				c-1.4-3.5-6.4-6.1-3-10.8C286.8,317.3,288.5,316.7,289.3,314.4z"/>
			<path fill="#0D3040" d="M329.3,225.4c0-0.4,0.1-0.9,0.1-1.2c2.7-2.9,6.2-2.5,9.7-2.5c21.8,0,43.8,0,65.6,0
				c4.2,0,8.4-0.3,12.1-2.3c5.8-0.1,12.4,1.2,13.7-7.4c0.1-1.2,1.9-1.6,3-1c0.7,0.3,1.2,0.9,1.9,1.2c5.8,3.2,8.5-3.2,12.6-3.9
				c4-0.6,7.4,7.2,12.6,4c4.5-2.7,5.9-2.2,6.9,2.6c0.4,1.7,2.5,2.2,4,2.7c1.6-0.9,2.9,1.6,4.5,0.4c2.5-0.3,4.6,0.1,4,3.3
				c-0.6,3.2,1.9,2,3.2,2.5c7.4,4.8,7.4,4.8,3.3,14.7c-4.2,3.3-7.2,1.2-9.8-2.3c-5.6-7.2-12.6-12-22-13.7c-13-2.3-26.3,3-33.8,14.2
				c-5.8,6.4-5.8,14.9-7.8,22.5c-1,1.7-2.3,3-4,3.9c-1.2,0.3-2.2,0.3-3.3-0.3c-2.3-2.3-1.4-5.5-2.3-8.1c-0.1-0.7-0.3-1.3-0.3-2
				c0-0.7,0.1-1.3,0.3-1.9c0.9-1.7,0.6-3.6,0.3-5.5c0.4-3.2,1.9-6.4,0.4-9.5c-0.3-2.3-2.3-3.6-3.2-5.6c-1.7-3.5-5.1-2.5-7.8-2.5
				c-18.5,0-36.8,0-55.3,0c-1.2,0.1-2.3,0.3-3.3,1.2c-3.6,3.3-5.1,1.6-5.5-2.5C329.3,226,329.3,225.7,329.3,225.4z"/>
			<path fill="#0D3040" d="M553.3,277.5c0.6,3.8-2,9.1,4.3,10.1c5.8,0.9,11.8,8.4,17.3-0.4c1.7-2.7,3.9-2.7,6.1-0.7
				c3.9,3.8,13.7,5.1,5.6,13.9c-1.4,1.6-0.1,3.2,0.9,4.6c2.7,3.5,5.3,7.1,7.9,10.7c1.6,2.3,3.2,3.3,6.2,2.3c10-3.6,7.4,5.8,9.4,9.8
				c2.9,5.5-1.9,5.8-5.6,6.2c-3,1.2-2.5,3.8-2.5,6.1c-0.1,5.2,0.1,10.5-0.3,16.5c-3.5-1-3.9-3.2-4.2-5.5c-0.6-2.9-0.3-5.8-0.3-8.5
				c0.4-2.6,0.4-5.1-0.9-7.5c-3.8-12-9.7-22.5-19.2-30.8c-2.5-2.2-5.2-3.8-7.9-5.2c-1.3-0.4-2.6-1.2-3.8-2
				c-5.8-3.8-12.9-3.8-19.1-6.1c-2.9-2-6.2-4,0.3-5.3c3.5-0.7,2.2-3.9,3-5.5c-1.9,0.7,1.3,6.9-4.5,4.2c-0.3-0.7-0.6-1.3-0.7-2
				c0.1-3.5,0.9-6.8,2-10c0.4-0.7,1.2-1.2,1.9-1.3C554.3,271.1,554.6,273.8,553.3,277.5z"/>
			<path fill="#0E3041" d="M600.7,349.8c0.1,1.4,0.1,2.7,0.3,4.2c0.4,0,0.9,0,1.3,0c0-4.9,0-9.8,0-14.7c0-2.5-0.4-5.2,3.2-5.5
				c-3.8,6.6-0.9,13.9-1.6,20.8c-0.1,1.7,1.3,2.6,2.7,2.9c7.8,1.6,5.8,6.2,3.2,10.7c-1,1.7-1.9,3.5-1.6,5.5c0,0.6,0,1-0.1,1.6
				c-2-0.4-4-1-5.9-1.4c-1.9,0.7-3-0.4-4.3-1.4c-2.3,3.9-4.2,8.4-7.2,11.7c-3.6,4-4.9,6.4-0.7,11.4c3,3.6-2.5,5.9-5.5,7.9
				c-1.2,1.4-3.3,1.4-4.5,2.9c-9.4-7.5-18.8-1.2-28.2,0c0.3-1,1.4-2.2-0.1-3c0.1-3.5,3.2-3.3,5.3-4c21.7-7.2,35.2-21.5,40-44.1
				C597.4,353.1,597.1,350.1,600.7,349.8z"/>
			<path fill="#2C5871" d="M554.9,232.8c7.4,0.4,8.2,8.2,9.4,12c2,6.4-1.4,13.7-5.2,19.8c-1,1.7-2.7,1.7-4.5,0.9
				c-1.7,2.2-2.2,5.8-5.9,5.9l0,0c-0.3,0.6-0.7,0.7-1.3,0.9c-1-0.1-2-0.6-3-0.9c-0.7-0.1-1.6-0.3-2.3-0.3c-1.7,0.3-3.5,0.6-5.1-0.3
				c-0.4-0.4-0.9-0.9-1.3-1.3c-0.7-2-2.2-2.7-4.2-2.6c-1.9-0.3-3.3-1-4-3c0-0.7,0.3-1.4,0.9-2c2.3-1.6,4.8-1.3,7.4-1.3
				c2.3,0,4.5,0.1,6.5-1.3c1.4-0.6,3-0.7,4.3-1.3c1.7-0.7,3.3-1.6,4.8-2.7c1.6-1.3,2-2.9,1.9-4.9c-0.1-0.6-0.3-1.2-0.6-1.7
				c-1.4-3.8-3.6-6.6-7.5-8.1c-0.6-0.3-1.2-0.9-1.6-1.3c-1.2-2.5-3.3-4.8-2.2-7.8c3-2.9,6.4-4.8,10.4-2.2
				C553.3,229.9,553,232.2,554.9,232.8z"/>
			<path fill="#103345" d="M551.7,229.9c-3.8-2.2-6.8,2.2-10.4,1.4c-0.3-0.1-0.6-0.3-0.9-0.4c-0.7-0.6-1.2-1.4-1.9-2.2
				c-3.8-2.5-6.6-0.7-9.5,1.7c-2,1.3-4.3,1.6-6.6,1.6c-7.9,0.3-15.9-0.4-23.7,0.4c-1.6,0.7-3.3,0.9-4.8,2.2
				c-1.6,1.3-2.9,2.9-4.9,3.6c-1,0.1-2,0-2.7-0.9c-0.1-9.2-0.1-9.2-3-13.3c22.7,0,45.5,0,68.2,0l0,0c0.4,0.6,1,1,1.4,1.6
				C553.9,227.3,555.4,229.5,551.7,229.9z"/>
			<path fill="#93BEE5" d="M282,373.8c0-2.5-0.6-4.5-3.6-4.5c-7.2,0-7.5-2.7-3-7.5c0.6-0.6,0.3-1.9,0.3-2.9c0.3-0.1,0.6-0.3,0.9-0.4
				c0.7,0,1.3,0.3,1.7,0.6c1.7,1.6,3.8,0.7,5.6,0.7c7.2,3.8,7.2,3.8,10-4.6c3.5-4.2,7.8-5.5,13-3.8c-2,3.2-7.5,5.8-0.4,9.8
				c1.6,0.9,1.7,4.8-2.2,5.1c-2.7,0.1-5.1,0.9-4.2,4.3c1.9,6.6-2.9,5.2-5.6,4c-3.3-1.3-5.1-0.4-6.8,2
				C285.8,375.7,283.6,375.4,282,373.8z"/>
			<path fill="#002130" d="M473.2,364.8c0,0.4,0,0.7-0.1,1.2c-48.4,0-96.6,0-145,0c-0.4-1-0.1-1.7,0.7-2.3c1.3-0.7,2.6-0.9,4-1
				c44.1-0.1,88.1,0,132.2,0c2.5,0,4.9-0.1,7.2,1.2C472.4,364.1,472.9,364.6,473.2,364.8z"/>
			<path fill="#92BCE3" d="M306.9,351.6c-4.2,1.2-9,0.7-12,4.8c-2.6,1-5.1,0.3-7.4-1c-2-2.2-4-4.2-5.6-6.6c-2-3.2-1.2-5.1,2.9-4.8
				c0.4,0.1,0.9,0.3,1.4,0.1c1,0,2,0,2.9,0.1c3.3-2.6,6.8-6.8,8.7,1.4c1.3,5.6,3.3,1.7,5.1,0.1c0.9,0.4,1.6,0.9,2.5,1.3
				C305.9,348.5,306.4,350,306.9,351.6z"/>
			<path fill="#96C0EA" d="M284.9,343.8c-1.6,1.2-4,1.9-1.2,4.3c1.9,1.6,4.6,2.7,4,6.1c-0.6,2.7-2.3,4.6-4.5,6.1
				c-0.7,2.3-2.6,2.6-4.6,2.2c-2-0.4-1.2-2.3-1.3-3.5c0.4-0.1,0.7-0.4,1.2-0.7c-0.9-0.6-0.6,0.9-1.2,0.7c-0.6,0-1,0-1.6,0
				c-1.6-1.3-4.5-1.2-4.3-4.3c0.1-2.9,1.9-3.5,4.5-3.5c2.7,0.1,3-1.9,2.7-4C277.8,340.6,281.3,342,284.9,343.8z"/>
			<path fill="#184264" d="M327.8,364.8c0,0.4,0,0.7,0.1,1c-3.6-3.3-0.7-7.8-1.9-11.6c-1.3-1.9-0.7-3.9,0-5.8c0-1,0-2.2,0.1-3.2
				c0.1-0.4,0.1-0.9,0-1.3c-1.9-3.9-2-7.9,0.1-11.8c0-0.4,0-1,0-1.4c-1-2.2-0.7-4.5-1.3-6.6c-1.6-17.9-0.4-35.8-0.6-53.9
				c0-1.7,0.7-3.3,1.3-4.9c0.4-1,1-1.4,2.2-1.6c0.7,0.6,1.3,1.3,1.7,2.3c1.3,18.1,0.1,36.3,0.6,54.3c0.1,0.9,0.1,1.9,0.1,2.7
				c-0.3,2.6-0.4,5.3,0,7.9c0.4,5.2-0.1,10.5-0.3,15.7c0,3.5,0,7.1,0,10.5C330.1,360.1,329.8,362.7,327.8,364.8z"/>
			<path fill="#0D3040" d="M326.4,241.5c0.9-5.3-2.2-11.4,2.9-16.2l0.1,0.1c2.2,6.9,3.2,13.9,1.3,20.9c-0.4,0.7-1,1.3-1.9,1.6
				C325.4,246.8,328.1,243.4,326.4,241.5z"/>
			<path fill="#94BEE9" d="M314.4,237c-1,7.4-8.7,6.6-12.6,10.7c-1.3-0.1-1.4-0.6-0.6-1.6C304.3,241.2,309.3,239,314.4,237z"/>
			<path fill="#0D3141" d="M548.7,271.4c2.9-1.2,2.5-5.5,5.9-5.9c-0.6,4,1.3,8.2-1.4,12C553.3,274.3,552.6,271.7,548.7,271.4z"/>
			<path fill="#3B617B" d="M326.4,241.5c1.7,1.7,1.2,4,1.4,6.2c2.7,5.5,3.3,10.8-0.3,16.2c-0.3,0-0.6,0.1-1,0.3
				c-0.7-0.4-1.3-1-1.6-1.9c-0.3-4.9-1.2-9.8,0.9-14.6c0-1.4,0.1-2.9,0.1-4.3C326.2,242.8,326.4,242.2,326.4,241.5z"/>
			<path fill="#326394" d="M301.2,246.1c0.1,0.6,0.4,1,0.6,1.6c-0.4,2.9,6.5,3.5,2.5,7.5C303.1,252.2,294,251.9,301.2,246.1z"/>
			<path fill="#98C5EC" d="M278.9,302.7c0-1.4,0.1-2.9,0.3-6.1c1.9,4.8,4,6.9,9,4.9c-3,3.5-5.5,2-7.7,2.6
				C279.9,303.6,279.3,303.2,278.9,302.7z"/>
			<path fill="#95C2F0" d="M282,373.8c2.3,0.1,5.2-0.7,5.6,2.9C284.5,378.3,282.5,377.7,282,373.8z"/>
			<path fill="#97C2EA" d="M289.3,314.4c1.2,0.3,2.7,0.7,1.3,1.9c-1.6,1.3-3.5,3.6-5.9,0.9C285.8,315.6,287.5,315,289.3,314.4z"/>
			<path fill="#16415A" d="M551.7,229.9c1.6-1,1.4-2.7,1.4-4.3c2.5,2,1.2,4.8,1.7,7.2C550.7,235.1,552.3,231.4,551.7,229.9z"/>
			<path fill="#3A6B9B" d="M326.1,348.7c0,1.9,0,3.9,0,5.8C321.2,352.6,324.9,350.5,326.1,348.7z"/>
			<path fill="#A6D9EA" d="M465.5,389c1.2,0,2.3,0,3.5,0c1.6,5.8,3,11.6,4.6,17.3c-1.3,1.4-2.9,1.3-4.8,1.3c-17-0.9-33.9-0.1-51-0.4
				c-2.7,0-5.3,0.6-7.9,1.6c-1.4,0.3-2.7,0.1-3.8-1.2c2.2-3,2.5-6.6,2.9-10.3c-0.9-2.7,0-4.9,2-6.8c13-1.3,26-0.3,38.9-0.6
				C455.4,390,460.4,390.1,465.5,389z"/>
			<path fill="#EDEFF2" d="M406.3,407.6c1.2-0.1,2.2-0.1,3.3-0.3c3.8-1.6,7.8-1.2,11.7-1c17.9,0.6,35.8-1.4,53.7,1.2
				c2.6-0.1,5.3-0.4,6.8,2.6c0.6,1.2,0.1,2.2-0.7,3.2c-2,2.6-4.2,0.6-6.4,0.4c-4,1.6-8.2,0.7-12.3,0.7c-18.2,0.1-36.3,0.1-54.5,0
				c-2.5,0-4.9,0.7-7.2-0.9C397.3,406.7,402.4,407.8,406.3,407.6z"/>
			<path fill="#A7DAE8" d="M474.9,407.6c-21.8,0-43.6-0.1-65.3-0.1c1.2-1.9,2.9-2.5,5.1-2.5c17.5,0,35.1,0,52.6,0.1
				c2.2,0,4.3,0.7,6.5,1.2C474,406.7,474.5,407.2,474.9,407.6z"/>
			<path fill="#A7DAE8" d="M465.5,389c-3.6,2.3-7.7,2.6-12,2.6c-14.2-0.1-28.2,0-42.3,0c-0.7-0.3-1-0.7-0.7-1.4
				c0.1-0.4,0.1-0.9,0.1-1.3C428.9,388.8,447.3,389,465.5,389z"/>
			<path fill="#0C2E54" d="M400.6,413.7c24.7,0,49.3,0,74,0c-1,1.3-2.5,1.6-3.9,1.6c-22.8,0-45.6,0-68.6,0c-0.4,0-1,0-1.3-0.3
				C400.6,414.7,400.6,414.1,400.6,413.7z"/>
			<path fill="#0D2A53" d="M498.3,388.4c2.2-1,2.6,0.7,2.7,2c0.1,2.7-1.7,3.8-4.2,4C498,392.6,495.8,390,498.3,388.4z"/>
			<path fill="#103353" d="M579.9,406.5c0.3-2.9,2.3-3,4.5-2.9C584.1,406.3,582.1,406.5,579.9,406.5z"/>
			<path fill="#F8D61F" d="M491.2,310.5c-1.4,5.3-2.9,10.5-10.4,6.8c-1.4-0.7-2.9,0.1-3.5,1.9c-1.2,3.5-2.7,6.9-3.3,10.5
				c-0.9,5.3,4.6,3.8,6.9,5.6c1.4,1.2,3.2,1.9,1.9,4.6c-1.6,3.2-0.9,6.8-0.4,10.1c0.9,8.2,0.3,9.4-6.8,9.4
				c-44.6,0.1-89.1,0.3-133.8-0.1c-0.4,0-1-0.1-1.4-0.3c-0.9-0.3-1.6-0.7-2.3-1.3c1-6.4,6.6-7.1,11.1-9.1c2.9-0.7,4.2,5.3,8.2,1.6
				c1-0.9,4.6,2.9,7.8,2.6c6.5,1.3,12.4-3.5,18.9-2c1.9,0,3.8,0.1,5.5-0.4c2-1.3,1.4-3.9,2.7-5.5c0.6-0.9,1.4-1.4,2.3-1.9
				c2.3-0.7,4.2,0,5.6,1.9c0.9,1.3,1.7,2.7,3.3,3.2c1.3,0.1,1.9-0.7,2.7-1.6c2-2,4.8-2.9,5.6-6.2c2.3-8.7,2.7-8.8,11.3-7.1
				c3.2,1,3.9-0.9,3.9-3.5c0.1-2.2-0.3-4.3-1-6.4c-2.6-7.4-1.9-8.7,5.9-11.6c0.4-0.4,1-0.9,1.3-1.3c1.2-2.7,0.1-5.9,1.2-8.7
				c0.3-0.7,0.6-1.3,1-1.9c3.5-2.9,6.9-1.7,10.4-0.1c1.9,1.2,2.9,3.6,5.6,3.3c2.3-0.4,3.5-2.7,5.6-3.5c1.7-0.6,3.3-0.4,5.1,0.3
				c1.7,0.4,1.9,3.9,4.5,2.6c2-1,0.9-3,1-4.6c3.8-6.9,5.2-7.4,13.9-5.1c1.2,0.6,2.2,1.4,3,2.3c1.7,1.9,3.2-0.6,4.8-0.3
				c2.6-0.4,3.6,2.6,5.9,2.7c2.6,2,3.2,4.6,3,7.7c0.1,1.3-0.3,2-1.6,1.7C494.5,307.4,494.1,311.3,491.2,310.5
				c-0.4-0.9-0.9-1.6-1.3-2.2C490.3,309.1,490.8,309.8,491.2,310.5z"/>
			<path fill="#2C5770" d="M600.7,349.8c-2.5,5.6-2.3,11.8-4.8,17.5c-8.5,19.8-24.1,30.6-44.2,36c-9.2,1.9-9.4-3.9-8.8-10.3
				c-1.9-0.9-4-0.1-5.8-1.4c-0.6-0.4-1-0.9-1.6-1.4c4.6-4.5,10.5-1.3,15.6-2.7c0.7-0.3,1.3-0.4,2-0.7c11.1-2.7,20.5-7.9,25.4-18.9
				c2.6-4.6,4.6-9.4,5.8-14.6c1.2-2.2,1-4.5,1-6.6c-0.9-18.5-9.4-31.8-26.4-39.3c-2.6-1.3-5.3-2.2-8.1-3.2c-2.5-1.4-6.2-0.1-8.1-3.2
				c0-3.9,0.1-7.8,0.1-11.6c0.3-0.3,0.4-0.4,0.7-0.7c1.3-0.1,2.6-0.3,3.8,0.6c7.2,0.9,14.4,1.9,20.7,6.1c-2,2.3-5.1,1.2-6.5,1.9
				c2.5-1.6,6.1,1.3,9.5-0.3c15.2,7.9,23.3,21.2,28.2,37c1.7,2.3-0.1,5.3,1.4,7.7C600.7,344.2,600.7,347.1,600.7,349.8z"/>
			<path fill="#FEFEFE" d="M527.9,387.5c-2.9-0.1-5.3-1-7.4-3.2c1-5.8,5.3-3.8,8.5-3.9c-2.3-3.8-6.2-6.4-9.2-9.8
				c-0.1-0.6-0.1-1.3-0.1-2c0.9-2,3.2-2,4.5-3.3c0.7-0.6,1.6-1,2.5-1.4c2.9-0.9,5.2-2.2,6.1-5.3c0.4-0.9,1.2-1.6,2-2
				c1.9-0.4,3.3-1.6,4.8-2.9c2.7-1.6,5.8-2.6,8.4-4.5c0.6-0.3,1.2-0.4,1.6-0.6c2.5-0.7,0-3,1.3-4c1.4-2.5,3.9-2.9,6.4-3.6
				c1-0.3,2.2-0.3,3.2-0.3c5.6,2.9,12.4-1.2,17.8,2.9c-1.4,3.8,3.5,3.2,3.8,5.8c0.3,5.8-0.1,11.3-3.6,16.2
				c-7.4,3.2-12.6,9.4-18.6,14.2c-1.3,1-5.9,0-2.5,4.6c2,2.7-2.9,2.9-4.2,4.6l0.1-0.1c-3.6,1-6.2-0.4-7.9-3.5c-0.7-1.3-1-2.9-3-1.6
				c-0.6,0.4-1.2,0.7-1.7,1C536.7,386.8,532.1,386.2,527.9,387.5z"/>
			<path fill="#F8D71F" d="M495.5,297.8c-2.7,3.2-3.8-2.2-6.1-1.2c-0.4-0.4-0.9-1-1.2-1.7c-0.3-1-0.3-2,0-3
				c0.7-3.8,3.5-7.1,2.3-11.1c-0.9-2-2.9-3.3-3.2-5.6c0-1,0.3-1.9,0.7-2.7c0.7-1.4,1.3-2.9,2-4.3c0.9-1.4,2-2.6,3.6-3.3
				c0.6-0.1,1.3-0.3,1.9-0.3c2.3,0.6,4.5,0.1,6.5-0.9c1.6-0.6,3.2-1,4.8-0.9c2.6,0.6,5.1,0.9,7.2-0.9c1.6-0.9,3.5-1,5.2-0.7
				c2.7,1,6.1,0.3,8.4,2.7c1.4,0.9,2.6,2.9,4.8,1.3c3.5-0.4,2.9,3,4.3,4.6l-0.1,0.4c2.3,1.2,4.3,0.7,6.1-1.3
				c1.2-0.4,1.6,0.3,1.9,1.3c0.9,1.4,1,2.9,0.3,4.3c-2,2.9-6.2,1.2-8.2,4c-1.3,2.6-0.3,5.8-2.5,8.1c-4.6,3.5-10,4.2-15.5,4
				c-2.5,0.1-4.9,2.6-6.9-1c-1.6-2.9-4-5.6-7.4-2.7C500.9,289.7,492.9,289.7,495.5,297.8z"/>
			<path fill="#0F313A" d="M338.2,357.3c36.1,0.1,72.4,0.3,108.5,0.3c9.4,0,18.8-0.4,28,0.1c6.4,0.4,8.4-1.9,7.5-7.8
				c1.6,1.6,1.2,3.6,1.3,5.5c1.3,8.7,1.3,8.7-7.8,8.4c-0.9,0-1.9,0.6-2.7,1l0,0c-0.7-0.6-1.6-1-2.5-1.3c-39.3-0.4-78.7,0-118-0.3
				c-3.2,0-6.4,0.6-9.5-0.9c-0.9-0.7-1-1.4-0.4-2.5c9.8-0.9,19.6-0.4,29.5-0.4c33.4-0.1,66.7,0,100.1,0c-38.6,0-77.3,0-115.9,0
				c-5.9,0-11.8-0.3-17.6,0.7c-0.9-0.3-1.7-0.7-2.3-1.4C336.5,357.9,337.1,357.3,338.2,357.3z"/>
			<path fill="#FAFBFB" d="M520.7,369.3c6.2,1.9,6.8,10.7,15.3,11.1c-5.8,2.6-11.4,0.1-15.5,4c-4.2-2.2-7.7-5.1-10.4-9
				c-1.4-2.5-3-4.8-4-7.4c-2.9-6.6-6.5-13-4.6-20.7c0.4-1,1-1.9,1.6-2.7c2.9-1.2,1.6-7.8,5.6-5.9c3.5,1.6,3,7.1,1.4,10.1
				c-2.7,5.3,1.6,7.9,3,11.7c0.3,0.7,0.9,1.4,1.6,1.2c6.5-1.7,4.6,2.6,4.5,5.8C519.4,368.3,520,368.9,520.7,369.3z"/>
			<path fill="#0F313A" d="M518.8,290.5c4.5-2.9,9.5-3.8,14.7-4.6c0.6,0,1,0.4,1.2,1c0.4,0.9,0.4,0.9,0.1-0.1
				c-0.3-0.9,0.3,0.3,0-0.7c0-0.6,0.1-1.3,0.3-1.9c1.3-7.7,6.1-5.3,10.7-3.8c0.6,0.4,1,0.9,1.6,1.3c0,0.4,0,1,0,1.4
				c-0.9,2.5-5.5,2-4.5,5.9l0,0c-2.3,2.2-1.2,4.9-1.4,7.4c-2.3,1-3.9-1-5.9-1.4C529.2,296.2,523.4,295.7,518.8,290.5z"/>
			<path fill="#A8D6E6" d="M511.9,313c7.5-4.3,14.4-9.8,23.5-10.7c0.3,0.1,0.6,0.4,0.9,0.6c0.9,1.2,1.4,2.3,1,3.9
				c-7.7,4.9-15.9,8.8-22.4,15.2c-2.2,1.4-3,4.9-6.4,5.1c-2-0.4-3.3-1.4-3.9-3.5C505.1,318.6,508,315.4,511.9,313z"/>
			<path fill="#FAFBFB" d="M527.9,387.5c3.3-5.1,9.5-2.3,13.7-4.6c0.3,0.3,0.6,0.7,0.9,1c-0.3-0.3-0.6-0.7-0.9-1
				c0-2,0.9-3.5,3.2-2.7c1.3,0.3,3.6,1,3.2,2.5c-1.7,5.5,3,4.8,5.5,6.2c-5.8,3.2-12,0.9-18.1,1.4C533,389.3,530.4,388.4,527.9,387.5
				z"/>
			<path fill="#A9D8E5" d="M505.5,322.7c1.4,1.3,2.9,2.7,4.3,4c1.2,1.2,1.2,2.5,0.6,3.8c-3.2,4.6-4.3,10-6.1,15
				c-0.4,0.4-1,1-1.4,1.4c-2,0.6-3-0.6-3.6-2.3c0-2.5-0.3-4.9,0.4-7.4c-0.3-4,1.6-7.5,3-11.1C502.2,324,503.3,323,505.5,322.7z"/>
			<path fill="#A8D6E2" d="M499.9,345.5c1,0.4,2,1,3,1.4c0.4,6.8,0,13.7,5.6,19.1c0.1,0.1-0.6,1.2-0.9,1.9c-0.7,0.6-1,1.6-2,1.9
				c-5.6-7.1-7.1-15.5-6.9-24.1C499,344.8,499.4,344.8,499.9,345.5z"/>
			<path fill="#0C313C" d="M505.5,322.7c-1,1.2-1.9,2.3-2.9,3.6c-5.3-2-2.9-4.6-0.1-6.5c3.9-2.7,6.5-6.2,6.4-11.3
				c3,0.4,1,3.6,2.9,4.5C509.7,316.2,506.7,318.9,505.5,322.7z"/>
			<path fill="#588992" d="M542.8,300.9c3,0.6,6.4-0.7,9.1,1.6c-5.3,3.8-10.8,2.7-16.5,0.4l0.1-0.6
				C537.6,300.4,540.3,301.3,542.8,300.9z"/>
			<path fill="#04313B" d="M497,307.2c0.6-0.6,1.2-1.2,1.6-1.7c1.7,0.3,3.6-2.2,5.2,0c0.3,0.4,0.1,1.6-0.3,1.9
				C501.3,308.9,499,308.9,497,307.2z"/>
			<path fill="#B6D9E3" d="M505.5,369.8c0.7-0.6,1.3-1.3,2-1.9c0.9,2.5,1.7,5.1,2.6,7.5C507.7,374.2,506.7,372.1,505.5,369.8z"/>
			<path fill="#132E4B" d="M535.4,295.1c2.5-1.6,3.9,1.2,5.9,1.4C538.6,299.4,537,297.5,535.4,295.1z"/>
			<path fill="#062838" d="M537,391.6c2,0.3,4.3-0.6,5.8,1.4C540.5,394.3,538.6,393.6,537,391.6z"/>
			<path fill="#9ECCDC" d="M499.9,345.5c-0.4,0-0.9,0-1.3,0c-0.3-2.7-0.4-5.6,1-8.2C499.7,340.1,499.7,342.9,499.9,345.5z"/>
			<path fill="#0C344A" d="M501.5,295.4c0.6,1,1,1.4,1,2c0,0.7-0.4,1.3-1.3,0.9c-0.3-0.1-0.7-0.7-0.7-1
				C500.6,296.7,500.9,296.2,501.5,295.4z"/>
			<path fill="#336697" d="M308.6,289.2c1.2-10.8,6.5-18.9,16.2-24c1.6,2,0,4-0.3,5.9c-0.4,16.3-1.3,32.5,0.6,48.7
				c0.3,1.7-0.3,2.5-2,2c-2.6-0.7-4.3-2.3-5.6-4.6c0-0.9-0.6-1.4-1.4-1.6c-4.5-4.5-7.1-9.8-7.4-16.2
				C309.6,296.1,309.8,292.6,308.6,289.2z"/>
			<path fill="#396896" d="M323.3,269.9c0.4-1.6,0.9-3.2,1.4-4.6c0.1-0.3,0.3-0.7,0.3-1.2c0.3-0.6,0.7-0.7,1.2-0.3l0.6,0.3
				c-0.1,20.2-0.3,40.4-0.6,60.7c-1,0.7-2,1-2.9-0.4c-0.1-0.9-0.3-1.6-0.4-2.5c0.6-0.6,1.2-1.2,1.9-1.7c-2.9-10.5-1-21.4-1.4-32.1
				C323.2,282.2,323.3,276,323.3,269.9z"/>
			<path fill="#99C2EA" d="M326.2,263.9c-0.4,0.1-0.7,0.3-1.2,0.3c-2.3-5.6-3.6-11.3,1-16.5C326.1,253.2,326.1,258.5,326.2,263.9z"
				/>
			<path fill="#99C2E8" d="M326.2,332.2c0,3.9,0,7.9-0.1,11.8C321.8,340.1,321.6,336.1,326.2,332.2z"/>
			<path fill="#93BCE7" d="M316.3,265.9c-0.6-0.9-1.4-2-2.2-3c0.6-0.3,1.4-0.9,1.6-0.7c0.9,0.7,1.7,1.6,2.3,2.6
				C318.3,265.2,317.6,265.9,316.3,265.9z"/>
			<path fill="#2E5E8D" d="M308.6,289.2c2.3,3.5,2.2,6.9,0,10.3C307.9,296.1,307.9,292.6,308.6,289.2z"/>
			<path fill="#99C2E8" d="M323.3,324.4c1,0.1,1.9,0.3,2.9,0.4c0,2,0,3.9,0,5.9C322.5,329.9,325.2,326.1,323.3,324.4z"/>
			<path fill="#346592" d="M316,315.7c0.1-0.9,0.1-2.2,1.4-1.6c1.6,0.9,1.4,2.2,0,3.2C316.8,316.9,316.4,316.3,316,315.7z"/>
			<path fill="#0E323D" d="M329.3,247.7c0-7.4,0-14.7,0.1-22.1c2.2,5.9,3.9-0.4,5.9-0.1c0.7,0.7,1.6,0.9,2.3,1.4
				c1.4,1.3,2.9,2.5,2.5,4.8c-0.7,1.2-1.7,1.9-2.7,2.6c-2.2,1.3-1.6,3.3-1.4,5.2c0.6,14.7-0.6,29.5,0.6,44.2
				c0.1,0.9,0.3,1.6,0.3,2.5c-1.2,3.8-0.3,7.9-1.6,11.7c-3.5,3.9-1.3,7.5,0.4,11.3c0.3,11.4,1,23-0.3,34.4c-1.7,2.6-3.3,5.6-7.4,3.8
				c0-5.5,0.1-11,0.1-16.5c1.3-2.5,0.9-4.9-0.1-7.2c0-0.6,0-1,0-1.6c1.6-13,0.4-26,0.7-39.1c0.1-5.6,0-11.4,0-17
				C329,259.7,327.7,253.6,329.3,247.7z"/>
			<path fill="#2D556A" d="M486.6,237.3c0.9,0,1.7-0.1,2.6-0.1c0.7,0.6,1,1.2,1,2c-0.1,0.9-0.6,1.6-1.3,2c-3.5,1.7-7.1,1-10.7,0.9
				c-0.7-0.1-1.4-0.4-2.2-0.9c-6.4-8.7-14.3-14.7-25.6-15c-7.7-0.1-14.6,1.9-20.5,6.6c-2.5,2-4.5,4.6-7.9,4.9c-1.3-0.1-2-1-2.3-2.2
				c13-20.9,42.6-21.4,58.8-0.9C480.8,237.9,482.5,240.5,486.6,237.3z"/>
			<path fill="#0E3042" d="M336.6,226.9c-0.4-0.4-1-1-1.4-1.4c20.1,0,40.2,0,60.4,0c4.2,0,8.2,0,7.9,5.9c-0.7,0.6-1.6,0.9-2.5,0.9
				c-18.6-0.4-37.1,0.3-55.8-0.3C342,230.8,339.2,229.2,336.6,226.9z"/>
			<path fill="#A8D7E8" d="M409.3,262c-0.4-2.5,1.4-2.5,3-2.7c0.9-0.7,1.9-0.7,2.9-0.3c1.4,3.6,6.1,5.6,5.3,10.4
				c-0.3,0.6-0.7,1-1.3,1.2c-1.2,0-1.9,0.1-1.3,1.6c0.4,2.2,0.3,4.3,0.7,6.4c0.3,2.2,0.1,4.3-1.3,6.1c-0.6,0.4-1.4,0.9-2,0.6
				c-6.6-3.8-13.6-7.5-18.5-13.7c0.4-3.2,2.7-4,5.5-4.2c0.6,0.1,1.2,0.3,1.7,0.6c0.4,0.1,0.6,0.1,0.6,0.1c-1,0.3,0-1.6-0.1-0.6
				c0-0.6,0.1-1,0.4-1.4C405.7,263.9,408.3,263.9,409.3,262z"/>
			<path fill="#F2EC6F" d="M406.4,235.8c3.3,4,0.1,7.1-1.6,10.3c-0.1,1.4-1,2.2-2,3c-1.3,0.9-2.5,1.9-4,2.2c-0.6,0-1.2-0.1-1.7-0.6
				c-2.2-1.7-1.9,0.9-2.7,1.4c-4.5,1.2-5.2-1.3-4.5-4.9c0.4-2.5,2.3-4.3,3.2-6.6c1.9-5.3,6.5-5.8,11.3-5.9
				C405.1,235,405.8,235.3,406.4,235.8z"/>
			<path fill="#4A5F4C" d="M406.4,235.8c-0.4,0-0.9-0.1-1.3-0.1c-0.9-0.1-1.7-0.3-2.6-0.4c-19.4-0.3-38.7,0-58.1-0.1
				c-2.2-0.1-4.3,0.1-6.4-0.9c-0.7-0.4-1.3-1-1.6-1.9c1-0.3,2-0.7,3.2-1c1.2-1,2.6-0.7,4-0.6c17,0,33.9,0,51,0
				c2.5,0,4.9-0.6,7.2,0.6c0.6,0,1,0,1.6,0C406.4,231.5,406.6,233.5,406.4,235.8z"/>
			<path fill="#2F5770" d="M415.2,259.5c-1-0.1-1.9-0.1-2.9-0.3c0.3-8.5,1.4-16.8,7.4-23.5c0.6,0.6,1.2,1.2,1.7,1.7
				c1.3,6.6-3.3,12.7-1.9,19.4C418.5,258.7,417.7,260.4,415.2,259.5z"/>
			<path fill="#E1E475" d="M404.7,252.5c0,0.4,0.1,0.9,0.3,1.2c1.2,2.6,0.3,5.3,0.6,7.9c0.1,0.7,0,1.6-0.1,2.3
				c-1.6,2-3.8,2.6-6.2,2.3c-1.9-0.9-2.9-2.3-2.7-4.3c0.1-1,0.7-1.9,1.6-2.6c0.4-0.4,1-0.7,1.6-1.2c2.5-1.9-1.9-5.2,1.4-6.8
				C402.5,250.9,403.8,251,404.7,252.5z"/>
			<path fill="#132D53" d="M402.1,247.7c0.9-0.6,1.7-1,2.6-1.6c3,1.4,3.2,2.9,0.1,4.5c-1.2,0.9-2.3,0.9-3.2-0.3
				C401.1,249.4,401.4,248.6,402.1,247.7z"/>
			<path fill="#2F443B" d="M402.1,247.7c0,1.9,1,2.7,2.7,2.9c0,0.6-0.1,1.2-0.1,1.7c-1.3-0.3-2.6-0.6-3.9-1c-0.7,0-1.3-0.3-1.4-1
				C399.6,249,400.8,248.3,402.1,247.7z"/>
			<path fill="#152830" d="M404.8,262.7c0.1-3,0.1-6.1,0.3-9.1c2.3,2.6,1,5.6,1.3,8.5C406.1,262.9,405.5,263,404.8,262.7z"/>
			<path fill="#EAFEFE" d="M404.8,262.7c0.6-0.1,1-0.4,1.6-0.6c1,0,1.9-0.1,2.9-0.1c-0.6,2.3-2.3,3.6-4.3,4.6c-0.9-1-0.9-1.9,0-2.9
				C405,263.4,405,263,404.8,262.7z"/>
			<path fill="#12304E" d="M410.6,227.3c-1.3,1.2-2.6,1.2-4,0.4C407.7,226,409.3,227.5,410.6,227.3z"/>
			<path fill="#0F3142" d="M542.9,289.2c-1.9-4.5,1.9-4.8,4.5-5.9c3.3-0.4,1.4-4.6,4.3-5.9c-0.1,4.2,2,9-5.2,9.2
				c-1.4,0,0.7,1.6,0.9,2.6C545.8,289.2,544.4,289.2,542.9,289.2z"/>
			<path fill="#2A5776" d="M571,296.7c-4,4.5-8.7-0.6-12.9,1.3c3-2.2,6.4-3,9.8-2.9C568.9,295.7,569.9,296.2,571,296.7z"/>
			<path fill="#0D2F4E" d="M547.3,281.8c-0.4,0-1,0-1.4,0c-0.9-0.9-1.3-1.9-1.4-3.2c0.7-2.6,1-5.3,2.9-7.4c0.4,0,0.9,0,1.3,0.1
				C549.3,275,548.3,278.3,547.3,281.8z"/>
			<path fill="#0E3041" d="M600.7,341.3c-2-2.3-1.2-5.1-1.4-7.7C601.6,335.8,600.4,338.7,600.7,341.3z"/>
			<path fill="#33586E" d="M541.5,231.2c1.3,2.3,3.5,4.3,2.9,7.4c-0.6,0.6-1.2,1-2,1.2c-5.2-1.2-11,1.3-15.6-2.9c-0.7-1-0.7-2,0-3
				c1-1,2.2-1.6,3.5-2.2c1.2-0.6,2.3-1.2,3.5-1.7c1.2-0.6,2.3-1,3.8-1C539,229.2,540.3,230.2,541.5,231.2L541.5,231.2z"/>
			<path fill="#153A4F" d="M545.8,238.9c5.3,1.3,7.7,5.2,8.8,10.1c-0.6,1.4-1.7,2.2-3.3,2.2c-3.9-2-4.2-6.2-6.4-9.4
				C544.8,240.6,544.9,239.6,545.8,238.9z"/>
			<path fill="#122830" d="M547.4,271.2c0,2.6-0.1,5.2-1.6,7.5c-2.5,1-4,0-4.8-2.5c0.4-1.7,2.5-0.9,3.3-2c0.1-1.4,0.3-2.9,0.4-4.3
				C545.7,270.4,546.5,270.8,547.4,271.2z"/>
			<path fill="#27546A" d="M551.7,250.7c1-0.6,1.9-1.2,2.9-1.6l0.3,0.4c-0.3,2.7-1.4,5.2-3.2,7.4c-1.4,0.9-2.9,1.7-4.3,2.7
				c-0.9-0.4-1.9-0.9-2.2-1.9c0-0.7,0.1-1.3,0.6-1.9C547.7,254,549,251.6,551.7,250.7z"/>
			<path fill="#3B6979" d="M542.9,259.5c-0.7,3.9-3.6,2.7-6.1,2.7c-0.6-0.7-1-1.6-1-2.6c0.1-0.7,0.3-1.3,0.7-1.7
				c0.4-0.4,1-0.7,1.7-0.9c0.6,0,1.3,0,1.9,0.1C541.2,257.5,542.3,258.2,542.9,259.5z"/>
			<path fill="#B8D372" d="M527.9,263.9c-3-0.4-6.4,1.4-9-1.4c0.4-1.6,1.6-2.3,3-2.9c1.4-0.4,2.9-0.3,4.3,0.3c1,0.6,1.6,1.4,1.7,2.6
				C527.9,263,527.9,263.4,527.9,263.9z"/>
			<path fill="#66AEBF" d="M528,262.6c-0.4-0.4-0.9-0.9-1.3-1.3c0.3-0.6,0.9-1.2,1.4-1.4c0.6-0.3,1.3-0.6,1.9-0.7
				c2.3-0.3,4.6-1.4,6.8,0.4c0,0.9-0.1,1.9-0.1,2.7C533.8,262.4,530.9,262.4,528,262.6z"/>
			<path fill="#4C6349" d="M545.8,238.9c0.1,1,0.3,2.2,0.4,3.2c0.7,1.7,1.3,3.3,0.3,5.2c-4.3,1.7-3.8-2.7-5.5-4.3
				c-0.3-0.6-0.4-1.3-0.3-2c0.3-1.2,1.2-1.6,2.2-2c0.6,0,1-0.1,1.6-0.1C544.8,238.7,545.4,238.7,545.8,238.9z"/>
			<path fill="#4D8CA4" d="M551.7,256.8c0.3-2.9,1.6-5.2,3.2-7.4C556.5,253,555.1,255.3,551.7,256.8z"/>
			<path fill="#3B6979" d="M537,269.7c-2.2-0.9-1.4-4.5-4.3-4.6C538,262.9,536.6,267.1,537,269.7z"/>
			<path fill="#39708C" d="M542.9,259.5c-1.3,0-2.3-0.4-3-1.6c2-1.9,4-1.4,6.1,0c0.4,0.4,1,1,1.4,1.4
				C545.8,260.4,544.4,260.4,542.9,259.5z"/>
			<path fill="#D2C52A" d="M542.9,268.8c-1.3,3.9-3.6,3.2-6.1,1.3C539,270.1,541.2,270.2,542.9,268.8z"/>
			<path fill="#FCEE70" d="M489.6,238.6c0-0.4-0.3-1-0.6-1.3c1.2-1.4,2.2-2.9,3.3-4.3c10.4-2.6,21.1-1.4,31.6-1
				c0.9,4.5-0.1,5.6-5.2,6.1s-9.8-2.6-14.4-1.3c2,1.2,5.9-2.6,7.5,2.3c-1,1-2.2,1.4-3.5,1.7C502.2,240.2,495.5,242.9,489.6,238.6z"
				/>
			<path fill="#4A5F4B" d="M525,233.1c-10.8-0.1-21.7-0.1-32.5-0.3c1-1.9,2.9-1.3,4.5-1.6c8.7-1.4,17.3-0.3,25.9-0.6
				c2.6,1,6.4-2.5,8.2,2c-0.6,1.2-1.6,1.7-2.7,1.7C527.3,233.5,525.9,234.1,525,233.1z"/>
			<path fill="#123641" d="M537,229.9c-1,0.4-2,1-2.9,1.4c-2.2-0.1-4.5,0.3-4.5-3c3.9-5.2,7.9-3.9,11.8,0
				C540.2,229.8,538.6,229.9,537,229.9z"/>
			<path fill="#032B35" d="M523.6,231.1c-8.8,0-17.8,0-26.6,0.1c8.8-3,17.8-0.6,26.6-1.4c0.6,0.3,0.7,0.6,0.6,0.9
				C524,231.1,523.7,231.1,523.6,231.1z"/>
			<path fill="#082C49" d="M523.6,231.1c0-0.4,0-0.9,0-1.3c2.2,0.1,4-0.4,5.9-1.4c1.4,1,3,2,4.5,3c-1,0.4-2,0.9-3,1.2
				C528.9,230.6,526,231.7,523.6,231.1z"/>
			<path fill="#345A77" d="M537,229.9c1-1.6,2.7-1.4,4.5-1.6c0,1,0,2,0,2.9C539.7,231.4,538.2,231.5,537,229.9z"/>
			<path fill="#2E5F8E" d="M283.3,360.4c0.3-2.9,0.9-5.6,4.5-6.1c2.6,0.1,5.3-0.1,7.2,2c0.6,3.8-0.4,6.9-4.2,8.4
				C286.8,366.2,285.2,362.7,283.3,360.4z"/>
			<path fill="#0E3142" d="M327.8,347.1c2-1,3.9-2,5.9-2.9c3.3,2.7,1.4,6.9,2.6,10.3c0.1,0.7,0.3,1.4,0.3,2.2c0,0.3,0,0.7,0,1
				c0,0.4,0,0.9,0,1.3c1.6,2,4.3-0.4,5.9,1.4c0,0.4,0,1,0,1.4c2.6,1.4,5.3,0.7,7.9,0.7c38.1,0,76.4,0,114.6,0c2.6,0,5.5-0.7,7.9,0.7
				c0,0.4,0,1,0,1.4c-47.5,0-94.9,0-142.4,0c-1.9-3.8,0.1-7.9-0.9-11.4c-0.4,1.2,1.7,3.9-2,4C327.8,354,327.8,350.5,327.8,347.1z"/>
			<path fill="#0E323D" d="M327.8,357.5c2.3-1.9,0.9-4.6,2.3-6.9c-0.4,4.8,4.2,9.2,0.6,14.3c-1,0-1.9,0-2.9,0
				C327.8,362.4,327.8,359.9,327.8,357.5z"/>
			<path fill="#93BEE5" d="M277.4,358.9c0.4-1-1-3.2,1.4-2.7c1,0.1,3.5,0.3,2.7,2.5C280.6,361.4,278.7,359.2,277.4,358.9
				L277.4,358.9z"/>
			<path fill="#082D3F" d="M329.3,265.5c0,16.2,0,32.5,0,48.7c0,2.6,0.9,5.5-1.4,7.7c0-18.8,0-37.6,0.1-56.3
				C328.4,264.7,328.8,264.7,329.3,265.5z"/>
			<path fill="#062839" d="M329.3,265.5c-0.4,0-0.9,0-1.3,0c0-0.6-0.1-1-0.1-1.6c0.1-5.3,0.1-10.8,0.3-16.2c0.4,0,0.9,0,1.3,0
				C329.3,253.6,329.3,259.5,329.3,265.5z"/>
			<path fill="#06283B" d="M327.8,323.4c1.3,2.5,3.9,4.8,0.1,7.2C328,328.2,327.8,325.7,327.8,323.4z"/>
			<path fill="#A7DAE8" d="M464.9,392.6c1.9,0.4,2.3,1.6,2.7,2.7c0.9,2.3,3.8,4.5,1.3,7.2c-0.4,0.6-2,0.7-2.7,0.3
				c-2.9-1.6-2.3-4.5-2.5-7.1C463.8,394.8,464.5,393.7,464.9,392.6z"/>
			<path fill="#A7DAE8" d="M413.2,396.3c0.6,2.2,1.4,4.3-1,6.5C411,400.2,412.5,398.4,413.2,396.3z"/>
			<path fill="#8FC3D5" d="M424.6,336.1c-2-0.7-4-1.4-6.2-2c-2.9-0.9-5.9,0.9-4.9,3.3c3,7.7-2.5,9-7.1,11.3c-0.7,1.3-2,1.3-3.3,1.3
				c-2-0.1-3.5-0.9-3.3-3.2c-0.7-3.3-2-5.2-5.5-2.6c-0.4,0.6-1,1.2-1.4,1.7c-0.4,0.4-0.9,0.6-1.4,0.6c-0.9-0.1-1.4,0.3-2,0.9
				c-0.6,0.6-0.9,1.2-0.9,2c0.3,1.2,0.9,2.3-0.6,3c-1.3,0.1-2.6,0-3.9,0.1c-3.8,0.3-7.2-0.1-9.4-3.8c-1.2-2.2-3.3-2.6-5.5-2.7
				c-1-0.1-2-0.4-2.9-1.2c4.6-7.9-4.9-10.3-5.8-15.3c1,1.3,1,2.7-1.4,3.8c-3.9-1-7.9-0.6-12-1.3c-1-0.4-1.9-1.2-2.6-2
				c-1.3-2-2-4-1.3-6.4c1-2.2,3-3.3,5.1-4.3c2-0.9,4.2-1.4,6.4-1.7c2.7-0.1,4.9,0.9,6.6,3c2.5,2.9,4.5,6.4,8.7,7.5
				c1.2,0.6,2.3,1.3,3.3,2.2c2.3,2.5,5.5,3.2,8.5,3.9c6.4,1.4,12.4,1.4,18.2-2c0.6-0.4,1.2-0.7,1.7-1c3.3-1.4,6.4-3.3,8.7-6.2
				c0.4-0.4,0.9-1,1.3-1.4c2-1.6,3.6-3.6,4-6.2c1-2.7,2.9-5.2,3.2-8.2c1-2.5,2.9-4.5,3.9-6.8c0.7-1.2,1.9-1.9,3-2.5
				c1.6-0.6,3.2-1.2,4.9-0.7c0.6,0.1,1.2,0.6,1.7,0.9c1,1.2,2.2,2.2,3.6,3c-0.1,3.6,1,7.2-1.6,10.4c-1.2-1-0.7-2.5-0.7-3.8
				c-0.1,1.6-0.6,2.7-2.3,2.9c1,0,2.2-0.1,3,0.9c-0.7,1.7-2.3,1.4-3.8,1.4c-5.8,0.3-5.9,3.5-3.2,7.1c2.3,3,3.5,5.8,0.9,9
				C427.9,332.9,426.5,334.5,424.6,336.1z"/>
			<path fill="#113240" d="M488.5,274.6c0.9,2.5,4.9,2.6,4.5,5.9c-1.2,1.3-2.3,2.6-4,3c-2.7,0.4-4.6,1.9-5.3,4.6
				c-0.3,1.6-0.1,3.2-1,4.6c-0.3,0.1-0.6,0.4-0.9,0.6c-4.5,1.4-10.5-1.7-13.3,4.6c1.4,1.7,0.7,3-0.9,4c-1.7,1-3.6,1.2-4.9-0.9
				c-2,0-3.9,0-5.9,0c-2.2,0.4-3,2.7-5.1,3.3c-3.2,0.9-4.3-1.4-5.5-3.6c-3.3,1.2-6.5-2.2-9.8-0.4c-1.9,0.4-3.5,0.4-4.6-1.3h-0.1
				c-0.9-0.6-1.3-1.4-1.4-2.5c0-0.7,0-1.3,0.1-2c0.4-1.6,1-3.2,2-4.6c0.4-0.6,1-0.9,1.6-1.3c1.3-0.6,2.7-0.9,4.2-0.4
				c16.2,6.8,30.6-1,39.6-12.6c1.4-1.9,2.3-4.5,4.8-5.5c0.7-0.1,1.4-0.1,2.2-0.1C486.9,271.1,487.9,272.7,488.5,274.6z"/>
			<path fill="#F6ED70" d="M344,323.4c0.6,1.9,1,3.9,1.6,5.8c-0.1,1.2,0.6,1.4,1.4,1.4c3.9,0.1,8.5-3.9,11.7,1.6
				c1.2,1.4,0.4,2.9,0,4.3c-0.6,1.4-0.6,2.7,0.1,4.2c0.4,1.2,0.9,2.5,0.3,3.6c-3,2.2-6.1,4-9.4,5.5c-4,1.6-7.2,5.2-11.6,6.2
				c-3-2.9-2.5-6.2-1.3-9.7c2.3-0.9,2.5-2.2,2.3-5.6c-0.3-6.5-1.2-13.1,0.7-19.6c0.4-0.7,1-1.2,1.9-1.3
				C343.9,320.2,344,321.8,344,323.4z"/>
			<path fill="#F9D922" d="M349.9,350c2.3-3.3,5.8-4.9,9.4-6.2c1.7-1,2.9-0.1,4,1c0.4,0.4,0.9,0.9,1.2,1.4c0.6,0.7,1,1.4,1.4,2.3
				c0.6,1,1,2.2,1,3.3c-0.1,1.3-1.3,1.9-2.2,2.6c-4.8,4-5.6-4.2-9.5-2.9c-0.9,2,2.3,2.2,2.2,3.8C351.4,358.5,352,352.3,349.9,350z"
				/>
			<path fill="#F8D626" d="M364.8,348.5c-0.6-0.4-1-0.7-1.6-1.2c1-2.7,4.6-1,6.1-3.3c3.6-3,6.8-1.7,7.2,2.3c0.6,5.3,3.3,5.6,7.4,5.2
				c0.6,0.1,0.9,0.4,0.9,1.2c-6.8-1.2-12.9,4.3-19.8,1.7c0.4-1,1-2,1.4-2.9C366.5,350.1,365.7,349.4,364.8,348.5z"/>
			<path fill="#F6FA76" d="M338.2,345.6c0,3.5,0,7.1,0,10.5c0,0.4,0,0.7,0,1.2c-0.6,0.1-1,0.1-1.6,0.3l0.1-0.3c-1-1.4-1.6-3-1.4-4.9
				c0.3-14.4-1-28.9,0.7-43.3c2.2-2,2.9,0,3.6,1.4c1.2,2.5,0.7,5.2,0.6,7.8c-0.1,0.9-0.3,1.9-0.4,2.7
				C338.8,329.2,341.3,337.5,338.2,345.6z"/>
			<path fill="#EED22E" d="M462.8,301.3c3.3,1.4,5.8,1.3,5.9-3.2c1,2.2,4.8,4.6,0.7,6.6C467.4,305.8,462.6,306.8,462.8,301.3z"/>
			<path fill="#FCD526" d="M431.1,340.7c0.6-2.9-0.4-5.6,2.3-7.4c0.9-0.6,1.9,0.3,2.2,1.3C436.3,338,434.4,339.6,431.1,340.7z"/>
			<path fill="#FAD52C" d="M491.2,310.5c-0.1-0.1-0.4-0.3-0.6-0.4c-1.4-1.9-5.1-0.9-5.2-4.2c0-1.4,1.3-1.9,2.6-1.7
				C492.1,304.9,490.5,308.2,491.2,310.5L491.2,310.5z"/>
			<path fill="#F5D819" d="M489.5,292.2c0,1,0,2,0,3c-1.7,1.4-4,0.6-5.9,1.4c-0.6-1-1.2-2-1.7-3.2l0,0c1.3-1.9,2-4.5,5.2-3.2
				c0.7,0.1,1.3,0.6,1.9,1C489,291.6,489.3,291.9,489.5,292.2z"/>
			<path fill="#F3D727" d="M424.6,336.1c0-2.7,2.5-3.8,3.9-5.6C430.1,334.4,428.7,336.1,424.6,336.1z"/>
			<path fill="#95C7BF" d="M394.6,344c0.3-1.9,1.3-3.2,3.3-2.5c2.3,0.9,3.2,2.7,2.2,5.2C399,343.9,396.9,343.9,394.6,344z"/>
			<path fill="#8AC0D9" d="M431.8,299.4c1.6,0.4,3.2,0.9,4.6,1.3c-0.1,0.6-0.1,1.2-0.3,1.7C432.7,304.3,431.3,303.3,431.8,299.4z"/>
			<path fill="#F6D427" d="M483.6,296.7c1.6-2,3.9-1.3,5.9-1.4c0,0.4,0,1,0,1.4C487.5,297.2,485.6,301.9,483.6,296.7z"/>
			<path fill="#F1D61A" d="M452.2,304c0.4-2.7,2.2-3.3,4.6-2.7c-1.2,1.9-1.7,4.2-4.6,4c-0.4-0.3-0.6-0.6-0.4-0.9
				C451.9,304.2,452.1,304,452.2,304z"/>
			<path fill="#F4D625" d="M403.4,349.8c0.6-1.6,2-1,3.3-1.3c0.7,0.7,1.2,1.6,0.1,2.3C405.4,351.8,404.2,351.1,403.4,349.8z"/>
			<path fill="#25403F" d="M452.2,304c0.1,0.4,0.1,0.9,0,1.4c-3.5,0.6-5.8-0.4-5.9-4.3C448.2,302.3,449.5,304.6,452.2,304z"/>
			<path fill="#94C3D1" d="M384.6,352.7c-0.3-0.4-0.6-0.7-0.9-1.2c1.6-0.1,3.3-0.3,4.9-0.3c0.9-1.4,1.7-2.3,3.3-1
				c0.3,1.2,0.1,2.2-1.2,2.6C388.8,352.9,386.8,352.7,384.6,352.7z"/>
			<path fill="#F3D92B" d="M478.1,348.2c1.6,2.5,0.7,4.3,0.7,6.9C477.1,352.6,477.6,350.8,478.1,348.2z"/>
			<path fill="#F9D529" d="M399.3,354.3c-0.3-0.3-0.7-0.7-1.2-1.3c0.4-0.3,1-0.7,1.4-0.9c0.3,0,0.9,0.4,1,0.9
				C401.1,354,400.3,354.2,399.3,354.3z"/>
			<path fill="#FCDA13" d="M433.1,318.8c-0.4-0.1-1-0.1-1.2-0.3c-0.3-1,0-1.9,1-2.2c0.4-0.1,1.2,0.1,1.7,0.3
				C434.1,317.5,433.6,318.2,433.1,318.8z"/>
			<path fill="#F4D625" d="M391,352.9c0.3-1,0.4-1.9,0.7-2.9c-1.2-1.4-1.3-2.9,0.3-4.2c0.4-0.1,0.9-0.1,1.3-0.1
				C392.7,348.2,394.3,351.3,391,352.9z"/>
			<path fill="#FCFCFB" d="M577,364.8c3.6-4.9,1.9-11.1,4.3-16.3c0.3-2.3-2-2.9-2.9-4.5c-5.9-0.9-12.1,1.7-17.8-1.4
				c0.3-2,0.3-2-3.3-0.9c-2.5,0.6-4.8,1.3-7.2,1.6c-1-0.1-2-0.7-2.9-1.3c-7.5-4.8-2.9-12.3-4.3-17.5c-0.9,4.5,1.7,10.1-1.6,15.3
				c-1.6,1.6-3.6,2.3-5.5,3.5c-0.7,0.1-1.4,0.1-2.2,0c-3.3-1.7-2.2-4.5-1.7-7.1c0.7-3.9,2-7.8,1.3-11.7c-1.4-7.4,1-12.4,7.4-15.9
				c1.9-1.3,2.6-3.9,5.2-4.5c4.6-0.4,9.2-0.1,13.7,1.2c17.9,7.1,28.3,22.7,27.7,41.7c-1.3,2.3,0.4,5.1-1.3,7.2
				c-0.3,5.3-2.2,10-5.8,13.9C578.3,367.9,576.6,367.5,577,364.8z"/>
			<path fill="#FAFBFB" d="M577,364.8c1,1.2,2,2.2,3.2,3.3c-4.3,13-14.9,17.6-26.9,20.7c4.8-3.6,2.7-6.1-2.2-8.5
				C562.9,379.2,566.2,366.2,577,364.8z"/>
			<path fill="#A6D9EA" d="M559.4,305.3c-4.9,0-10,0.1-14.9,0.1c-1.3,0.7-2.9,0-4,1c-1.4,0.3-2.6,0-3.6-1.2c-0.4-0.9-1-1.7-1.4-2.6
				c5.5-0.1,11-0.3,16.5-0.4C554.3,303.5,557.2,303.3,559.4,305.3z"/>
			<path fill="#F1F4F3" d="M585.8,354.3c0.1-2.5-0.7-5.1,1.3-7.2C587.3,349.5,588,352.1,585.8,354.3z"/>
			<path fill="#FDFDFD" d="M536.9,305.5c1.4,0,2.9,0.1,4.3,0.1c1.4,1,1.3,2.3,0.4,3.8c-9.4,4.5-5.8,13-6.2,20.4
				c-0.3,4.3-3.6,8.4-1.4,12.9c2.5,3.6,1,7.1-0.4,10.5c-1.4,2.7-4.3,4.6-5.6,7.5c-0.6,1.3-0.4,2.9-1.4,4.2c-0.4,0.4-1,1-1.4,1.4
				c-1.4,0.7-3,0.7-4.5,1.4c0,0.4,0,1,0,1.4c-1.2,0-2.7,4.6-3.5-0.1c-0.3-2,0.7-4.2,1.3-7.7c-3.3,3-5.2,3.2-7.2-0.1
				c-0.9-1.4,0.3-7.4-5.1-4c-0.1,0.1-0.7-2.3,0-3.2c3.3-4.3,2.6-9.2,2.3-14.3c-2.3,1.6-0.3,5.8-4.2,5.8c0-6.1-0.6-12.4,5.8-16.3
				c1.7-2.6,2-5.8,3.2-8.7C520.1,314,528.2,309.2,536.9,305.5z"/>
			<path fill="#183962" d="M548.8,350.3c-2,3.3-5.2,4.5-9,4.2c-1.6,1-2.7,2.7-5.1,1.6c-1.2-0.7-1.9-1.7-1.6-3.3
				c0.7-2.2,0.7-4.6,2.6-6.2c1-0.3,1.9,0,2.7,0.3c0.9,0.3,1.7,0.7,2.6,0.7c1.9,0.1,3.8-0.4,5.6-0.3
				C548.3,347.9,549.7,348.4,548.8,350.3z"/>
			<path fill="#193956" d="M533.8,352.6c0.6,1.2,1.2,2.3,1.7,3.5c0.4,0.4,0.6,0.7,0.3,1c-0.1,0.1-0.4,0.3-0.6,0.3
				c-0.4,0.4-0.9,0.9-1.3,1.3c-1.6,3.8-3.6,6.1-7.4,2c-0.1-4.3,3.8-5.6,5.9-8.1C533,352.1,533.4,352.1,533.8,352.6z"/>
			<path fill="#F7F8F7" d="M526.5,360.8c3.5,2.9,5.1-0.9,7.4-2c1.2,6.4-3,6.2-7.4,6.2C525.9,363.5,525.4,362.1,526.5,360.8z"/>
			<path fill="#F1F4F3" d="M578.5,344c2,0.3,4.6-1,5.5,1.9c0.6,1.7-1,2.3-2.6,2.7C579.8,347.5,574.4,349,578.5,344z"/>
			<path fill="#F2CA35" d="M557.5,340.7c2.5-0.7,4.9-1.6,7.9-2.5c-0.3,4-4,2.5-4.8,4.3c-1,0-2,0-3,0
				C556.8,342,556.8,341.4,557.5,340.7z"/>
			<path fill="#F4CD47" d="M557.5,340.7c0,0.6,0.1,1.3,0.1,1.9c-2,1-3.9,1.9-5.9,2.9c-0.3,0.1-0.4,0.4-0.7,0.6
				c-0.7-0.1-1.2-0.6-1.4-1.2c-0.1-1,0-1.9,1-2.6C552.9,341.9,555.2,341.3,557.5,340.7z"/>
			<path fill="#F7F8F7" d="M535.3,357.3c0.1-0.4,0.1-0.9,0.3-1.3c1.7,0,2.2-3.3,4.3-1.6C539.6,357.6,538.3,358.9,535.3,357.3z"/>
			<path fill="#2F3F5D" d="M548.8,350.3c-0.6-1.2-1.6-1.6-2.9-1.7c-1-2.5,0.4-3.2,2.3-3.8c0.7,0,1.4,0.3,2,0.7h0.4
				c0.1,1.6,0.9,3.2-0.7,4.5C549.7,350,549.3,350.1,548.8,350.3z"/>
			<path fill="#EDF1F0" d="M550.2,350c0.3-1.4,0.4-2.9,0.7-4.5c0.3,0,0.6,0,1,0C551.2,346.9,556.4,350.5,550.2,350z"/>
			<path fill="#F7F8F7" d="M520.7,367.9c0.9-2.3,2.5-2.6,4.5-1.4C524.1,368.6,522.7,368.9,520.7,367.9z"/>
			<path fill="#F7D622" d="M522.1,260.8c-1.2,0.6-2.2,1-3.3,1.6c-1.6,0.1-3.2,0-4.2,1.4c-2.6,0.3-5.1,0.6-7.7,0
				c-1.4,0.4-2.9,1-4.3,1.4c-2-0.7-4.5,0.7-6.2-1.2c-0.6-1-0.7-2-0.3-3.2c4.8-6.4,12.6-8.4,18.5-13.3c3.5-1.2,6.6-3.8,10.7-2.2
				c1.2,1.2,1.4,2.6,1.4,4c0,1.7-0.7,3.5-1,5.2c-0.1,1-0.4,2-0.9,2.9C524.3,259.2,523.1,260,522.1,260.8z"/>
			<path fill="#13353B" d="M497,261.1c0.1,1,0.3,1.9,0.4,2.9c-0.4,0.9-1.2,1.4-2.2,1.4c-0.4,0-0.9,0-1.3,0.1
				c-1.3,0.7-2.6,1.3-4.2,0.9c-2.9-1.4-3.5-3.9-2.5-6.8c0.7-2.2,1.6-4,1.4-6.6c0-4,2.6-6.2,6.5-2.3
				C496.3,254.2,496.6,257.7,497,261.1z"/>
			<path fill="#F6D427" d="M488,282.4c1.6-0.6,3.3-1.3,4.9-1.9c0.9,4.5-1.3,8.1-3.5,11.6l0,0C487,289.2,484.9,286.3,488,282.4z"/>
			<path fill="#519BB3" d="M489.5,265.3c1.6,0.1,3,0.3,4.6,0.3c-0.9,1-1.7,2-2.5,3c-2.2,1.6-4.6,1.9-7.1,1.2c-1.7-0.1-3.2-0.9-4-2.5
				c-0.3-0.9-0.3-1.6,0.1-2.3c1.3-1.2,2.9-1.6,4.5-1.4C486.6,263.7,488,264.6,489.5,265.3z"/>
			<path fill="#162D3A" d="M483.6,268.4c2.6,0.1,5.3,0.1,7.9,0.3c-0.1,1.7,0,3.6-1.9,4.6c-0.7-2.6-3.5-0.3-4.6-1.9
				c-0.6,0-1.2,0-1.7,0C482.5,270.4,482.7,269.4,483.6,268.4z"/>
			<path fill="#9FCE8F" d="M495.3,265.5c0.7-0.4,1.4-1,2.2-1.4c1.9,0.1,4-0.7,5.3,1.4C500.3,266.9,497.7,267.9,495.3,265.5z"/>
			<path fill="#B8D27F" d="M507.1,264c2.6-1.9,5.1-1.4,7.7,0C512.2,265.9,509.7,266.2,507.1,264z"/>
			<path fill="#D2C52A" d="M544.4,274.3c-0.4,1.6-1.9,1-2.9,1.6c-1.4,1.7-3.3,1.9-5.3,1.4c-0.7-0.3-1.4-0.7-2-1.2
				C537,272.7,540.9,274.9,544.4,274.3z"/>
			<path fill="#173342" d="M534.1,276.2c0.4-0.1,0.9-0.1,1.3,0c2.2,2.9,0.7,5.6,0,8.5c0,0.6,0,1,0,1.6c-0.4,0.7-0.9,0.7-1.3,0.1
				l-0.4-0.4C533.8,282.7,534,279.5,534.1,276.2z"/>
			<path fill="#F7D331" d="M534.4,272.1c-2.9-0.4-4.5-0.7-6.1-0.9C530.1,270.1,531.7,269.5,534.4,272.1z"/>
			<path fill="#143641" d="M485,271.4c1.7,0,4.3-1.9,4.6,1.9c-0.4,0.4-0.9,0.9-1.3,1.3C486.9,274,485.7,273,485,271.4z"/>
			<path fill="#FED533" d="M527.5,267.6c-1.3,0.3-1.9,0.6-2.3,0.4c-0.6-0.1-1.3-0.6-1.6-1.2c-0.4-0.9,0.3-1.2,1-1
				C525.3,266.3,526,266.9,527.5,267.6z"/>
			<path fill="#002D42" d="M342.6,360.4c-1.7-1.4-5.1,3.3-5.9-1.4c47.1,0,94.2,0,141.1,0c0,0.4,0,1,0,1.4
				C432.8,360.4,387.8,360.4,342.6,360.4z"/>
			<path fill="#142A42" d="M473.2,363.4c-40.7,0-81.3,0-122.1,0c-2.9,0-5.9,1-8.5-1.4c40.7,0,81.3,0,122.1,0
				C467.5,362,470.7,360.9,473.2,363.4z"/>
			<path fill="#0F3142" d="M535.4,284.7c0-2.9,0-5.6,0-8.5c1.9-0.9,3.9-0.6,5.9-0.3c1.4,1,2.9,1.9,4.5,2.9c0,1,0,2,0,3
				C542.1,281.6,537.4,278.6,535.4,284.7z"/>
			<path fill="#11314A" d="M534.1,286.4c0.4,0,0.9-0.1,1.3-0.1c0.7,1.6,3.5-0.9,3.3,1.3c-0.1,1.6-2,3-3.8,2.7
				C531.9,289.9,534.4,287.7,534.1,286.4z"/>
			<path fill="#F2F8F9" d="M513.2,320.5c0.9,3.6,0.9,6.9-3.2,8.7c-0.1-0.9-0.1-1.6-0.3-2.5C510.6,324.5,511.1,322.1,513.2,320.5z"/>
			<path fill="#32669C" d="M323.3,269.9c2.3,2.2,1.4,5.1,1.4,7.7c0.1,14.3,0,28.5,0,42.8c-2.2-2.6-2.9-5.6-2.9-8.8
				c0-12.3,0-24.6,0-36.8C321.9,272.8,321.9,271.2,323.3,269.9z"/>
			<path fill="#687A4F" d="M336.9,308.5c0,16.3-0.1,32.5-0.1,48.8c-0.6-0.4-1.2-1-1.7-1.4c-0.3-23.1-1.9-46.4,0-69.5
				c0-0.6,0-1.2,0-1.7c-1.2-13.6-0.1-27.2-0.6-40.6c-0.1-2.6,0.7-5.5-0.7-7.9c-1.9-3.3,1.6-2.6,2.7-3.8c0.1,0.3,0.3,0.6,0.3,0.7
				c1.4,1.4,1.9,3.2,2,5.2c0,22.2,0.3,44.3-0.1,66.6C338.5,306.2,337.9,307.5,336.9,308.5z"/>
			<path fill="#012540" d="M335,286.4c0,23.1,0,46.4,0,69.5c-2.6-3.6-0.7-7.8-1.3-11.7c0-12.4,0-24.7,0-37.1c-2-3-2-5.9,0-9
				C334.2,294.2,332.4,290,335,286.4z"/>
			<path fill="#062041" d="M333.7,236c2.2,1.3,1.4,3.5,1.4,5.3c0,14.4-0.1,28.9-0.1,43.3c-2.7-5.1-1-10.5-1.2-15.7
				C333.5,257.9,333.7,247,333.7,236z"/>
			<path fill="#122F40" d="M333.7,298.1c0,3,0,5.9,0,9C329.1,304,329.1,301,333.7,298.1z"/>
			<path fill="#0D3040" d="M342.7,231.2c-1,0-2,0-3,0c-1-1.4-3-2.2-2.9-4.3c1.6,1.7,5.6-1.4,5.9,2.9c0.6,0.3,0.7,0.6,0.6,0.9
				C343,231.1,342.9,231.2,342.7,231.2z"/>
			<path fill="#122C44" d="M331.6,312.3c0.9,3,1.2,4.8-0.1,6.6C330.4,316.9,330.6,315.2,331.6,312.3z"/>
			<path fill="#0D303E" d="M418.3,256.5c-3.9-7.1,1.2-12.9,3-19.1c8.5-8.4,17.8-14.6,30.5-13.6c10.8,0.9,21.2,7.4,24.1,16.2
				c-2,2.9-4.9,2.3-7.7,1.9c-4.6-2.2-8.2-5.9-13.6-7.1c-5.5-1.3-10.5-1-15.3,2c-0.7,0.7-1.6,1.3-2.5,1.9c-2.7,1.2-5.1,2.7-6.1,5.8
				c-1.6,2.3-3.5,4.5-3.3,7.5c-0.4,2.7-2.2,4-4.5,4.9C421.3,257.4,419.7,258.1,418.3,256.5z"/>
			<path fill="#A4DEA7" d="M489.6,238.6c6.4,0.1,12.7,0.3,19.1,0.4c0.4,0.6,0.6,1.2,0.6,1.9c-4.6,4.6-10.7,2-15.9,3.3
				c-0.7,0-1.4,0-2-0.3c-0.6-0.3-1.2-0.9-1.4-1.4c-0.1-0.7-0.3-1.4,0-2C489.8,239.7,489.8,239.2,489.6,238.6z"/>
			<path fill="#4C909D" d="M467.2,239.9c2.9,0,5.8,0,8.7,0c0.6,0.1,1.2,0.3,1.7,0.4c0.4,0.9,0.1,1.6-0.4,2.2c-1.3,1-2.9,1.3-4.6,1.3
				c-2.9,0-5.6,0-8.5,0c-2.3-0.3-5.2,0.1-5.9-3.2c1.3-2,3.3-2.3,5.5-1.9C464.9,239,466.1,239.5,467.2,239.9z"/>
			<path fill="#62AEB8" d="M477.6,241.5c0-0.4,0-0.7,0-1.2c4,0,8.1,0,12.1,0c0.3,0.4,0.7,0.9,1,1.2c-1.7,2.2-4.2,2.3-6.6,2.3
				c-1.6,0-3.3,0-4.8-0.6C478.6,242.8,478.1,242.2,477.6,241.5z"/>
			<path fill="#032B35" d="M342.7,231.2c0-0.4,0-0.9,0-1.3c17.2,0,34.4,0,51.6,0c2.6,0,5.5-0.9,7.7,1.3
				C382.1,231.2,362.4,231.2,342.7,231.2z"/>
			<path fill="#163949" d="M418.3,256.5c1.4-0.6,2.9-1,4.3-1.6c1,0.3,1.7,0.9,2.5,1.6c1.6,2.5,2,5.3,3.6,7.8c1,2.6,2.7,4.8,4.2,7.2
				c1.2,1.9,2.9,3.2,4.5,4.6c0.4,0.6,0.7,1.2,0.9,1.7c0,0.7-0.3,1.3-0.9,1.7c-1.7,1.3-3.6,1.6-5.6,1.6c-0.7,0-1.3-0.1-1.9-0.3
				c-2.5-0.9-5.2-1.2-7.4-2.7c-2.3-2.3-5.1-4.5-2.6-8.2c1-3.2-1.6-4.3-3.5-5.6c-2-1.4-2.2-2.7-1.2-4.8
				C416.2,258.5,417.2,257.5,418.3,256.5z"/>
			<path fill="#A5D7E9" d="M424.3,277.5c1.4,1.9,5.2-0.9,5.8,2.9c0,7.9-6.2,7.7-11.4,8.8c-0.9-0.1-1.6-0.4-2.2-1
				c-0.7-1.2-0.7-2.3,0.1-3.3c0-2.5,0-4.9,0-7.4C419.3,275.1,421.9,278.6,424.3,277.5z"/>
			<path fill="#9DD0E0" d="M416.8,284.8c0,1,0,2,0,2.9c-0.6,0.4-1.2,0.7-2,0.9c-2.6-0.3-4.5-1.9-6.1-3.8c-4.3-5.2-11-6.8-16.2-10.8
				c0.7-2.7,1.9-4.3,4.9-2.5C404,275.9,410.3,280.3,416.8,284.8z"/>
			<path fill="#CDEDF5" d="M397.5,271.5c-2.2,0-3.6,1-4.5,2.9c-0.9,0.9-1.9,0.9-2.9,0.4c-0.4-0.6-0.7-1.2-0.9-1.9
				c0.7-3.9,4.9-4.5,7.1-7.1c0.9-0.6,1.9-1,2.9-0.4c1.7-1.2,3.8-1.6,5.8-1.7c0,1,0,1.9,0,2.9v0.4c-0.3,0.6-0.9,1.2-1.6,1.3
				C401.1,268.8,398.9,269.5,397.5,271.5z"/>
			<path fill="#2F586D" d="M424.3,277.5c-2.6,3.2-5.1-0.4-7.5-0.1c-2.7-2.2,1.2-3.8,0.4-5.8c0.1-0.7,0.4-1.2,1.2-1.3
				c0.4-0.1,0.9-0.1,1.4-0.3C420.3,273.1,421.4,275.9,424.3,277.5z"/>
			<path fill="#A4D8DB" d="M403.4,268.4c0.6-0.4,1-0.9,1.6-1.3c1.3,0.9,2.6,1.9,4.3,3C406.3,271.5,404.8,269.8,403.4,268.4z"/>
			<path fill="#A1D4E3" d="M418.4,270.2c-0.4,0.4-0.7,0.9-1.2,1.3c-1-0.3-2.5-0.1-2.3-1.9c0.1-0.6,0.6-1.6,1.2-1.6
				C417.4,267.9,417.8,269.2,418.4,270.2z"/>
			<path fill="#F6EF6E" d="M394.6,241.8c0,2.7-2.5,4.2-3.2,6.5c-0.9,3-0.1,4.6,3.2,2.5c1.9-0.6,2.7,0.7,3.6,1.9
				c0.3,1.2,0.1,2.3-0.6,3.2c-0.9,0.7-1.9,1.2-3,1.4c-2.7,0.7-5.6-0.3-8.4,0.7c-2.6,2.5-3.8,6.9-8.7,6.2c-2.9,0.1-4.2-4-7.7-3
				c-1.2,0.3-2.3,0.9-3.5,1.3c-0.6,0.3-1.2,0.4-1.7,0.7c-4.3,1.6-1.2,4.8-1.7,7.2c-0.1,0.7-0.3,1.4-0.7,2c-2.3,2.6-4.6,4.5-7.7,0.9
				c-0.6-1-0.9-2.2-1.4-3.2c-0.7-1-1.7-1.7-3-1.9c-9.4-1-9.7-1-9.7-10.3c0-7.2-2.2-14.7,2-21.5c4.9-2.5,10.1-1.2,15.3-1.3
				c9.5-0.1,19.2-0.1,28.7,0C391.1,235.3,394.6,236.4,394.6,241.8z"/>
			<path fill="#F5EE68" d="M394.6,241.8c-2.9-4.5-7.2-4.6-12-4.5c-13.3,0.1-26.6,0-40,0c-0.1-1,0.3-1.7,1-2.3
				c14.4-1.4,28.7-0.3,43.2-0.7c4.6-0.1,9.2,0.3,13.9-0.3c1.3-0.4,2.6-0.7,3.9,0.3c0.1,0.4,0.3,0.9,0.3,1.3
				C401.9,238.4,396,236.1,394.6,241.8z"/>
			<path fill="#F2EA5C" d="M397.6,254.9c0-1,0-1.9,0-2.9c-0.4-0.3-0.6-0.7-0.4-1c0.1-0.3,0.3-0.4,0.4-0.4c0.6,0,1.2-0.1,1.9-0.1
				c0.4,0.3,1,0.7,1.4,1c-1.2,2.6,2.6,2.6,2.5,4.3c-0.1,1.6,2,5.5-2.7,3.8C399.2,258.2,397.3,257.2,397.6,254.9z"/>
			<path fill="#F0F064" d="M397.5,250.6c0,0.4,0,1,0,1.4c-1-0.4-2-1-2.9-1.4c-0.9-2,1.3-2.9,2-2.9
				C398.2,247.8,397.2,249.6,397.5,250.6z"/>
			<path fill="#F3F273" d="M404.7,234.3c-0.9,0-1.9,0-2.7,0c-12.6,1.7-25.1,0.4-37.7,0.7c-6.6,0.1-13.3,0.1-20.1,0
				c-1-0.1-1.6-0.9-1.7-1.9c19.5-0.1,39-0.1,58.4-0.3C402.4,232.8,404.1,232.4,404.7,234.3z"/>
			<path fill="#F4F589" d="M342.6,233.1c0,0.4,0,0.9,0,1.2c-0.1,0.3-0.3,0.4-0.6,0.7c-1.2,1-2.2,2-3.6,2.6c-0.6,0.1-1.2,0-1.6-0.4
				c0-1.4-0.1-2.9-0.1-4.2C338.7,233.1,340.7,233.1,342.6,233.1z"/>
			<path fill="#A7D9EA" d="M365,261.3c0.4-0.1,0.9-0.3,1.3-0.3c0.9-0.6,2.5-0.1,2.9-1.6c4.8-3.9,5.2,1.4,7.2,3.5
				c7.5,2.7,6.1-4.3,8.2-7.5c3.2,0,6.5,0,9.7,0c1.7,1.2,5.5,0.3,4.6,4.3c-0.4,0.4-0.9,1-1.3,1.4c-1.3,2-1.3,3.9,0,5.9
				c-1.4,3.3-5.6,3.2-7.4,6.1c-0.9,0.7-1.7,1.3-2.9,1.4c-1.9,0.3-3.6-0.3-5.3-0.6c-4.2,0.3-7.8,2.2-11.3,4.3
				c-2.2,1.3-4.2,2.3-6.8,1.4c-3.5-1.9-4.5-4.5-2-7.9c0.1-0.6,0.3-1,0.6-1.6C362.8,267.1,359.9,263,365,261.3z"/>
			<path fill="#A7DAF2" d="M397.6,266.9c-5.2-2-1.2-3.9,0-5.9c0.6,1.4,1,2.9,1.6,4.3C398.6,265.9,398,266.5,397.6,266.9z"/>
			<path fill="#E2E98B" d="M398.9,259.5c-0.6-2.5-2.9-3-4.6-4.3c1-0.1,2.2-0.1,3.2-0.3c1.7,1,2.9,2.5,2.9,4.6
				C399.9,259.5,399.3,259.5,398.9,259.5z"/>
			<path fill="#EFEB6D" d="M525,233.1c1.3-0.3,2.7-0.4,3.2,1.3c-0.7,0.3-1.3,0.6-1.2,1.4c0.3,1.2,0.4,2.3-0.4,3.5
				c-0.6,0.6-1.3,0.9-2.2,1.2c-4.3,0-9,1.9-12.9-1.9c-3.9-2.9-8.7-0.1-12.9-2.7c6.1,0,12.1,0,18.3,0
				C520.1,235.8,523.3,236.3,525,233.1z"/>
			<path fill="#467F91" d="M526.9,238.7c0.1-1,0.1-1.9,0.3-2.9c4.9,3.2,11-0.4,15.7,2.9c-0.4,0.4-0.9,1-1.3,1.4
				C536.4,241.2,531.4,242.1,526.9,238.7z"/>
			<path fill="#073031" d="M545.5,247.8c0.3-1.9,0.4-3.9,0.7-5.8c3.6,1.7,3,6.1,5.3,8.7c-1.3,2.5-1.9,5.6-5.6,5.8
				c-1.4-0.6-1.9-1.9-2.2-3.3C543.6,251.2,543.1,249,545.5,247.8z"/>
			<path fill="#516656" d="M545.5,252c0.1,1.4,0.3,3,0.6,4.5c-0.1,0.6-0.1,1-0.3,1.6c-2,0-4,0-6.1,0c-0.4,0-0.9-0.1-1.3-0.1
				c-1-0.7-1-1.6-0.6-2.6C540.6,254.3,542.8,252.5,545.5,252z"/>
			<path fill="#32596B" d="M525.2,250.7c-0.3-1.6-0.4-3-0.7-4.6c-1.3-2.3-0.9-4.3,1.3-5.9c0.6-0.4,1.3-0.6,2.2-0.6
				c3.3,0.4,7.9-1.6,8.4,4.3c-1.2,3-2.9,6.1,0,9.2c0.6,1.6,1.2,3.2,0.6,4.9c0,0.6,0,1,0,1.6c-2.5,0.3-4.6,2.2-7.4,1.2
				c-1.2-0.9-1.7-2.2-1.9-3.6C529.5,254,525.2,253.2,525.2,250.7z"/>
			<path fill="#3A6065" d="M537,257.9c-0.6-1.4-1-2.9-1.6-4.3c-0.4-0.4-0.7-1-0.9-1.6c0.1-0.7,0.4-1.2,1-1.6c2-0.1,2.9,1.3,3.5,2.9
				c0.1,0.7,0,1.3-0.6,1.7c0,0.9,0.1,1.9,0.1,2.7C538,257.8,537.4,257.8,537,257.9z"/>
			<path fill="#FAD811" d="M522.1,260.8c0-1.3,0.6-2.3,1.7-3c2.9-1.2,5.1-1.3,4.2,2.9c-0.4,0.1-0.9,0.3-1.4,0.4
				C525.2,261.1,523.7,261,522.1,260.8z"/>
			<path fill="#5E775B" d="M528.2,260.8c0.1-3.3-2.3-2.7-4.2-2.9c-0.1-0.9-0.3-1.9-0.3-2.7c2.5-1,4.2,0,5.8,1.7c0,1.3,0.1,2.6,0.1,4
				C529.1,260.7,528.6,260.8,528.2,260.8z"/>
			<path fill="#F9DB24" d="M538.4,254.9c-0.1-0.4-0.3-0.9-0.3-1.3c0.4-3.2-0.9-6.1-0.7-9.2c0.6-1.9,1.4-3.3,3.8-2.9
				c4.5,0,3,4,4.2,6.2c-1.3,1.4-1,2.7,0,4.2C544.8,256.6,542.6,258.2,538.4,254.9z"/>
			<path fill="#509CAC" d="M541.3,241.6c-0.9,1-1.9,2-2.7,3.2c-0.4,0.4-0.9,0.7-1.6,0.7c-0.3,0-0.6-0.1-0.9-0.1
				c-0.3-0.1-0.4-0.4-0.7-0.6c-0.6-5.8-5.2-4-8.7-4.6c-0.4-0.1-0.7-0.4-0.7-0.7c0-0.4,0.1-0.6,0.1-0.6h0.4c4.9,0.3,10-1,14.6,1.4
				C541.3,240.8,541.3,241.2,541.3,241.6z"/>
			<path fill="#92D9BE" d="M526.3,238.9c0.3,0.4,0.4,0.9,0.4,1.3H526c-5.8,3.5-11.7,4-17.5,0c0-0.4,0-0.9,0-1.3
				c1-0.1,1.9-0.3,2.9-0.4C516.6,238.7,521.5,238.7,526.3,238.9z"/>
			<path fill="#3B6E9D" d="M289.5,359.5c0.1,1.2,0.1,2.2-1.2,1.6c-0.7-0.3-1.3-1.3-1.4-2.2c-0.1-0.4,0.4-1.6,0.9-1.7
				C289.7,356.8,289,358.8,289.5,359.5z"/>
			<path fill="#A7D9E8" d="M361.9,271.7c-0.6,3,0.7,5.3,2.9,7.2c2.2,4.5-2.6,6.5-3.5,9.8c-4.2,6.4-5.9,13.1-3.8,20.8
				c1,3.6,2.6,7.9-3.2,9.4c-2,0.6-3.9,1-5.9,1.6c-2.2,0.4-4.2-0.3-6.1-1.2c-0.7-1.3-0.3-2.5,0.3-3.8c1.2-1.6,1.7-3.3,1.2-5.2
				c-0.6-3-4.3-2.9-5.3-5.3c-0.7-2.5-0.4-5.1-0.3-7.5c0.1-0.7,0.3-1.4,0.7-2c0.6-0.4,1.2-0.7,1.9-0.6c2.7,2,10.5-0.4,10.7-3.3
				c0.1-2.6-2.3-0.6-3.2-1.4c-3.2-1.6-5.3-3.8-5.3-7.5c0.4-3.3,2.9-5.6,4.2-8.7c0.6-1,1.3-1.7,2.3-2.3c2.6-1.4,4.9-1.4,6.5,1.6
				C358.7,276,359.9,271.5,361.9,271.7z"/>
			<path fill="#90C3D6" d="M372.3,330.8c-1-0.4-2-1-3-1.4c-3.6-2.5-6.9-5.2-8.4-9.5c0-2.3,1.3-3.3,3.5-3.5c4.5,0.9,6.1,5.5,9.8,7.4
				c2.6,1.3,4.9,3.3,7.9,3.5c3.5,0.1,7.1,0.1,10.5,0c2.3-0.3,4.5-1,6.5-2c1.2-0.7,2.3-1.3,3.3-2c3-1.7,4.8-4.9,8.1-6.4
				c0.7-0.1,1.4-0.1,2.2-0.1c0.7,0.3,1.3,0.7,1.7,1.3c1.4,3-1,4.9-2.3,7.1l0,0c-3.3,2.6-6.6,5.5-10.4,7.4l0,0
				c-6.1,2.9-12.4,4.2-19.2,2.7C379.1,333.9,375.1,334.1,372.3,330.8z"/>
			<path fill="#90C3D5" d="M418.3,287.7c4.3-1.7,9.7-2.2,11.8-7.5c0.4,0.1,0.9,0.3,1.2,0.4c1.7,0.9,2.6,2.5,3.3,4
				c0.6,2,1.7,4-0.3,5.9c-0.4,0-0.9,0.1-1.2,0.6c-1.6,0.9-2,2.2-0.9,3.8c-0.3,0.4-0.7,1-1,1.4c-0.9,1.9-3.3,2.6-4,4.6
				c-1,0.4-2,0.7-3.2,1.2c-0.3,0.9-0.9,1.2-1.6,1.2C416.5,299.4,417.4,293.6,418.3,287.7z"/>
			<path fill="#8FC2DB" d="M357.2,336.5c0.6-1.4,1.2-2.9,1.7-4.3c3.5-4.3-3.2-3.8-3-6.5c1.2-1.4,3-1.2,3.6-0.1c2,3,4,5.5,7.5,7.5
				c5.9,3.3,5.2,7.7-0.6,11.1c0.3,2.3-1.3,2-2.7,1.9c-2.7-2.2-0.4-7.4-5.1-8.5C358,337.4,357.6,337.1,357.2,336.5z"/>
			<path fill="#98CCDD" d="M364.8,317.5c-1.9,0.1-2.7,1.2-2.9,2.9c-0.1,0.9-0.6,1.3-1.4,1.4c-1.7-1.6-3.2-3.5-5.9-3
				c4-2.9,1.6-6.5,0.9-9.8c-1.6-7.9-1.2-15.3,5.1-21.4c0.3,0.3,0.6,0.6,0.7,0.9c1.2,5.6-2.5,10.8-1.7,16.6c0.4,3.8,1.2,6.6,4.9,8.2
				C365.5,314.6,366.3,315.9,364.8,317.5z"/>
			<path fill="#9ACEDF" d="M382.7,333.6c6.6,2.3,12.9-1.6,19.4-1.4c-6.2,6.1-13.4,5.3-20.8,3C381.3,334.4,382.1,334.2,382.7,333.6z"
				/>
			<path fill="#9BCEE4" d="M360.5,321.8c0.4-0.4,1-1,1.4-1.4c2.5,3,4.9,5.9,7.5,9C364.5,329,362.6,325.1,360.5,321.8z"/>
			<path fill="#9AD9F1" d="M342.9,318.9c2.2-0.3,4.8-2.5,5.8,1.4c-1.4,1-3,2-4.5,3c-0.6-1-1.2-2-1.7-3
				C342,319.8,342.3,319.2,342.9,318.9z"/>
			<path fill="#99CEE2" d="M412.3,324.8c0.4-2.5,1-4.9,1.4-7.4c0.6-1.4,1.4-2.2,3.2-1.7c0.4,0.6,0.4,1.3-0.1,1.7
				C418.5,321.8,414.6,322.8,412.3,324.8z"/>
			<path fill="#9BD0E1" d="M401.9,332.2c3-3.2,6.1-6.2,10.4-7.4C409.9,328.7,406.7,331.5,401.9,332.2z"/>
			<path fill="#9CCADB" d="M416.8,317.3c0-0.6,0-1,0-1.6c-0.9-0.7-1.2-1.7-1.3-2.7c0-1.4,0.6-2.7,1.6-3.9c0.4-0.6,1.2-0.9,1.7-1
				c0.3,0.1,0.7,0.1,1,0.3C422.2,312.6,419,314.7,416.8,317.3z"/>
			<path fill="#9AD2E2" d="M382.7,333.6c-0.4,0.4-1,1-1.4,1.4c-3.5-0.6-7.4,0-8.8-4.5C375.6,332.1,379,333.6,382.7,333.6z"/>
			<path fill="#7FC5ED" d="M391.8,345.9c-0.1,1.4-0.1,2.7-0.3,4.2c-1,0.4-1.9,0.9-2.9,1.3c-1-0.9-2-1.9-3-2.7
				c1.3-1.2,3.6-0.9,4.3-2.9C390.8,344.5,391.2,345.1,391.8,345.9z"/>
			<path fill="#D0EEFA" d="M422.6,302.4c0.6-0.1,1-0.3,1.6-0.4c0,3-2.2,4.8-4.5,6.2l0,0c-0.6-0.4-0.9-1-1.2-1.7
				C418.4,303.7,420.6,303.2,422.6,302.4z"/>
			<path fill="#D7E2A4" d="M427.4,300.9c0-2.7,1.4-4.2,4-4.6c0.1,1,0.3,2,0.4,3C430.2,299.8,428.8,300.4,427.4,300.9z"/>
			<path fill="#BBCA8E" d="M363.4,344.9c1.2,0.4,2.2,0.4,3-0.7c1,0,1.9-0.1,2.9-0.1c-0.4,3.9-3.6,3-6.1,3.3c-0.1-0.3,0-0.6,0-0.9
				c-0.4-0.3-0.4-0.7-0.4-1C363.1,345.2,363.2,344.9,363.4,344.9z"/>
			<path fill="#F2F565" d="M347,330.8c-1.2,1.6-2.5,1.3-3.5-0.1c-0.3-0.4,0-1.2,0-1.9c0.7,0.1,1.4,0.3,2.2,0.4
				C346.2,329.7,346.6,330.2,347,330.8z"/>
			<path fill="#83C6DF" d="M434.6,313c-1-0.3-2.6,0.6-2.9-1c-0.1-0.6,1.3-2,1.9-1.9C435.2,310.2,434.3,312,434.6,313L434.6,313z"/>
			<path fill="#8FC5CB" d="M390.1,345.6c-0.1,2.9-2.3,2.9-4.3,2.9C385.8,345.6,388.9,347.2,390.1,345.6z"/>
			<path fill="#2C546B" d="M483.6,268.4c0,1-0.1,2-0.1,2.9c-6.9,11.7-16.2,20.2-30.3,21.8c-5.5,0.6-11.1,0.4-15.7-3.8
				c-0.6-1.6,0.3-2.6,1.4-3.5c0.3-0.1,0.7-0.1,1-0.3c0.7,0,1.4,0.1,2,0.4c13.6,3.2,24.4-1.4,32.8-12.3c1.6-2.3,2.2-5.3,4.3-7.2
				c0.7-0.3,1.4-0.1,2,0.4C481.8,267.3,482.7,267.9,483.6,268.4z"/>
			<path fill="#F4D41C" d="M488,282.4c0.4,3.2,1,6.5,1.4,9.7c-0.4,0-1,0-1.4,0c-1.7-1.9-4.9-1.6-5.9-4.5
				C482.3,284.1,483.6,281.4,488,282.4z"/>
			<path fill="#2D4A57" d="M432.4,294.9c-1.4-0.6-4,1.9-4.3-0.6c-0.4-3.3,2.7-3.2,5.2-3.2C433.3,292.5,433.7,293.9,432.4,294.9z"/>
			<path fill="#F6D427" d="M482,287.7c2.2,1.2,4.8,1.7,5.9,4.5c-2.3-0.7-4.3-0.3-6.2,1.4C482.8,291.6,480.5,289.6,482,287.7z"/>
			<path fill="#163949" d="M439.1,286.3c-0.6,1-1.3,2-1.9,3c-1,0.4-1.9,0.9-2.9,1.2c0.3-2.2-0.7-3.9-1.6-5.8
				C435.3,283.4,437.3,284.1,439.1,286.3z"/>
			<path fill="#F8ED6B" d="M338.2,345.6c0-8.4,0-16.8,0-25.3c1-0.9,2-0.7,2.9,0c0.9,8.8-2,18.1,2.5,26.9
				C341.6,346.6,339.8,346.1,338.2,345.6z"/>
			<path fill="#94C5D0" d="M363.4,344.9c0,0.4,0,1,0,1.4c-1.6-0.6-2-2.9-4.2-2.7c-0.6-0.9-1.2-1.9-1.6-2.7c0-1.6,0-3.2,1.3-4.3
				c1.4-0.9,2.9-1.7,4.3-2.6C361.5,338,365.4,341.4,363.4,344.9z"/>
			<path fill="#EAED79" d="M341.1,320.4c-1,0-2,0-2.9,0c0-0.4,0-1,0-1.4c0.9-0.9,0.7-2.2,1.2-3.3c0.6-1.3,1-3,2.7-2.7
				c1.6,0.3,2,1.9,2.3,3.3c-0.6,0.9-1,1.9-1.6,2.7c-0.1,0.4-0.3,1-0.4,1.4h-0.6H341.1z"/>
			<path fill="#83BFE7" d="M358.9,336.7c-0.4,1.4,2.3,3.9-1.3,4.3c-2-1.3-2-2.9-0.4-4.5C357.7,336.5,358.3,336.7,358.9,336.7z"/>
			<path fill="#F2DA1D" d="M364.8,348.5c1.3,0.3,3.3-0.6,3.6,1.4c0.1,1.2-1.2,1.3-2.2,1.4C365.8,350.5,365.4,349.5,364.8,348.5z"/>
			<path fill="#F8ED6B" d="M344.4,316.2c-4.6-4.8-4,2.3-6.2,2.7c-0.4-3.5,1.2-7.1-1.3-10.3c0-1,0-2,0-3c0.4-0.4,1-0.6,1.6-0.3
				c0.6,0.7,1.4,1.2,2.3,1.6c1.9,0.9,4.8-0.1,5.2,3.2C347.5,312.4,347.2,314.6,344.4,316.2z"/>
			<path fill="#05274A" d="M539.7,339.6c2.2-7.2,0.4-14.6,1-21.8c0.1-1.7-0.9-4.6,2-4.6c2.9,0,1.9,2.9,2,4.5c0.1,4.3,0.4,8.8,0,13.1
				c-0.4,4.5,0.7,7.9,3.9,11c-0.6,2.5-2.6,2.5-4.5,2.6c-1.2,0-2.3-0.4-3.3-1C539.9,342.3,539,341.3,539.7,339.6z"/>
			<path fill="#304963" d="M539.7,339.6c0.6,1,1.2,1.9,1.6,2.9c-0.1,0.6-0.1,1.2-0.4,1.9c-0.9,1.6-0.9,3.8-3,4.3
				c-0.4-0.6-0.9-1.3-1.3-1.9c-2-0.9-2.6-2.2-1.6-4C536,340.4,537.7,339.6,539.7,339.6z"/>
			<path fill="#FDFDFD" d="M538.7,330.2c0-4,0-8.1,0-12.3c0.3,0,0.4,0,0.7,0c0,4,0,8.1,0,12.1C539.2,330.2,538.9,330.2,538.7,330.2z
				"/>
			<path fill="#F7F8F7" d="M535.3,342.6c0,1.6-0.3,3.2,1.6,4c-2.3,1.3-0.7,4.5-2.9,5.9l-0.7,0.1l-0.7-0.1c0.4-3.3,1-6.6,1.4-10
				C534.4,342.6,534.8,342.6,535.3,342.6z"/>
			<path fill="#FCFCF0" d="M557.4,337c-3.2,0.9-6.4,2.2-9.5-1.2C551.6,336.2,554.5,336.7,557.4,337z"/>
			<path fill="#9D9754" d="M544.2,342.7c1.4-0.3,3-0.7,4.5-1c0.6,0.3,1.2,0.4,1.7,0.7c0,1-0.1,2-0.1,3c-0.6,0-1,0-1.6,0
				C547.3,344.6,544.2,346.2,544.2,342.7z"/>
			<path fill="#F7D04B" d="M544.2,342.7c1.4,0.9,2.9,1.7,4.5,2.7c-0.9,1-2.6,1.3-2.7,3c-1.4,2.3-3.8,1.2-5.6,1.3
				c-1.9-2.3-2-4.8,0.1-7.1c0.4,0,0.7-0.1,1-0.3C542.3,342.5,543.4,342.6,544.2,342.7z"/>
			<path fill="#B0BCBA" d="M540.5,342.7c0,2.3,0,4.8-0.1,7.1c-0.7-0.4-1.6-0.9-2.3-1.2C538.3,346.4,537,343.6,540.5,342.7z"/>
			<path fill="#F4ED6E" d="M508.7,240.3c5.8,0,11.7,0,17.5,0c-0.6,2-1.2,3.9-1.7,5.9c-3.3,0.6-6.1,3.5-9.7,3.2
				c-3.5,0.1-6.4,2-9.5,3.2c-2,0.7-5.1,0.4-4.5-1.6c1.2-5.2-2.2-4.2-4.9-4.6c-1.9-0.3-3.6-0.6-3.9-3
				C497,239.5,503.5,243.1,508.7,240.3z"/>
			<path fill="#F4ED71" d="M496.7,244.9c5.2-0.1,5.5,0.1,5.1,4.8c0,0.6,0.6,1.7,0.9,1.7c0.9,0,1.7-0.3,2.6-0.7
				c3-1.6,5.9-4.8,9.7-1.2c-4.9,5.5-11.8,7.9-17.9,11.8c-6.6-1.9-1.6-7.2-3-10.5c0.4-0.9,1-1.6,1.9-2c1.3-0.7,0.4-1.9,0.7-2.9
				C496.6,245.5,496.6,245.2,496.7,244.9z"/>
			<path fill="#2B5C75" d="M529.3,256.8c-1.9-0.6-3.9-1.2-5.8-1.7c-0.9-2,0.6-3.2,1.6-4.5C527.2,252.3,530.9,252.7,529.3,256.8z"/>
			<path fill="#0E3246" d="M496.8,249.3c-1,0.4-2,0.9-3,1.3c-1.6-1.3-2.6,0-3.8,0.7c4.3,4.9-4.5,9.1-0.7,13.9
				c-1.4,0.1-3,0.1-4.5,0.3c-3-5.5,0.1-11.6-1.3-17.2c0.9-2.5,2.5-4,5.1-4.6c0.7,0,1.6,0.1,2.3,0.4c1.7,1.7,4.5,0.7,6.4,2
				C497.7,247.3,497.7,248.4,496.8,249.3z"/>
			<path fill="#0E303F" d="M480.8,266.9c-0.6,0-1.2,0-1.7,0c-1.2,1.7-2.5,3-4.8,2.7c-2.5-0.4-4.5-1.4-4.8-4.3
				c1.7-5.6,1.9-11.3,0.6-17c-1.2-3-1.3-5.8,2.9-6.5c1.4-0.1,3-0.3,4.5-0.4c0.4,0.1,0.9,0.3,1.3,0.4c6.2,6.5,6.8,14,1.9,23.8
				C480.8,266.2,480.8,266.5,480.8,266.9z"/>
			<path fill="#2A546A" d="M480.8,265.8c0.9-8.1,2.2-16.2-1.9-23.8c1.6,0,3-0.1,4.6-0.1c0.4,0.4,0.9,0.9,1.3,1.4
				c0.9,1.4,1,2.9,0.3,4.5c2,5.9,0.7,12-0.1,17.9C483.6,265.6,482.3,265.8,480.8,265.8z"/>
			<path fill="#F5FB78" d="M338.1,305.5c-0.4,0-0.9,0-1.2,0c0-22.7,0-45.5,0-68.2c0.4,0,0.9,0,1.2,0c2.9,2.5,2.2,5.9,2.2,9
				c0.1,13.7-0.1,27.6,0.1,41.3c0.1,0.7,0.3,1.6,0.4,2.3c0.3,2-0.3,3.6-1.4,5.2c0,0.6,0,1,0,1.6C337.8,299.4,340,302.7,338.1,305.5z
				"/>
			<path fill="#123648" d="M464.2,240c-1.9,0.1-3.9,0.1-5.8,0.3c-0.3,0-0.7-0.1-1-0.1c-5.2-2.6-10.4-2.7-15.7-0.1
				c-1.6,0.7-3.3,1.6-3.8,3.5c-0.6,1.4-0.4,3-1,4.3c-0.7,1.4-1.9,2.5-3,3.6c-1,0.9-2.2,1.4-3.3,1.9c-1,0.3-1.9,0.3-2.9,0
				c-0.6-0.3-1.2-0.7-1.6-1.2c-1.9-4.6,1.9-6.4,4.3-8.8c1.3-2.7,3.6-4.3,5.9-5.9c0.4-0.4,1-1,1.4-1.4c8.2-4,16.5-3.9,24.4,0.7
				C463.3,237.4,464.5,238.3,464.2,240z"/>
			<path fill="#15384B" d="M425.8,252c0.4,0,0.7,0.1,1.2,0.1c3.9,1.3,3.5,5.1,4.5,7.9c0.9,5.2,3.9,9.1,8.1,12.1c0.6,0.4,1,1,1.3,1.6
				c0.3,0.7,0.3,1.3,0.1,2c-0.9,1.2-1.9,2.2-3.5,1.3l0,0c-2-1.3-3.9-3-5.9-4.5c-1.4-2.5-3-4.9-4.5-7.4c-1.4-2.9-0.6-6.4-3.2-8.8
				c-0.4-0.6-1-1.2-1.4-1.7C423.5,253.8,425.9,254.3,425.8,252z"/>
			<path fill="#204657" d="M464.2,240c-7.8-8.5-17.3-5.6-26.6-4.2c8.2-6.9,20.9-5.1,29.8,4C466.2,240,465.2,240,464.2,240z"/>
			<path fill="#1E4558" d="M436,237.3c-1.4,2.5-3.5,4.5-5.9,5.9C430,239.2,432.8,238.2,436,237.3z"/>
			<path fill="#012F41" d="M483.6,243.2c-0.1-0.4-0.1-1,0-1.4c2.5,0,4.9-0.1,7.4-0.1c0,0.4,0,1,0.1,1.4c0.4,0.4,0.6,0.7,0.4,1.2
				c-0.1,0.3-0.4,0.4-0.6,0.4c-0.4,0-0.9,0-1.3,0C487.6,243.8,485.1,245.4,483.6,243.2z"/>
			<path fill="#17343C" d="M490.8,244.7c0-0.6,0.1-1,0.1-1.6c0.3,0.1,0.6,0.3,1,0.3c1,2.3,3,1.3,4.6,1.6h-0.1c1,0.4,1,0.9,0,1.4
				C494.5,246.1,492.4,246.7,490.8,244.7z"/>
			<path fill="#224D60" d="M473.2,242.1c-2.9,1.3-1.7,3.6-1.6,5.6c-0.3,0.1-0.6,0.3-0.9,0.4c-1.9-0.1-3.5-1.3-5.5-1.2
				c-1.7-0.4-2.9-1.3-3-3.2c0.3-1.2,1.3-1.3,2-1.9C467.2,241.9,470.3,241.9,473.2,242.1z"/>
			<path fill="#4D828B" d="M464.3,241.8c-0.6,0.4-1,0.9-1.6,1.3c-0.9,1.2-1.6,2.2-3,2.6c-1,0.3-2,0.1-3-0.1c-1.7-1.2-3.6-2-4.8-3.8
				c-0.1-0.7,0-1.4,0.4-2c0.6-0.4,1.2-0.7,1.9-0.9c1.4-0.1,2.9,0.1,4.2,1l-0.1,0.4C460,242.3,462.3,241.5,464.3,241.8z"/>
			<path fill="#042B39" d="M439.1,286.3c-2.2-0.4-4.2-1-6.4-1.4c-1.7-1-1-2.7-1.4-4.2c1.7-1.7,4.2-1.2,6.2-1.9
				c1.3-0.6,1.9,0.3,2.2,1.3C436.2,281.8,440.4,284.4,439.1,286.3L439.1,286.3z"/>
			<path fill="#1E4251" d="M439.1,280.3c-0.4-0.6-1-1-1.4-1.6c0-0.4,0-1,0-1.4c1-0.4,2-1,2.9-1.4c2.7,0.4,5.1,1.3,4.6,4.8
				c-0.6,0.6-1.2,0.9-1.9,1C441.5,281.9,440.1,281.6,439.1,280.3z"/>
			<path fill="#224758" d="M424,256.6c4.2,1.9,2.9,5.6,3.2,8.8C425,262.9,424.5,259.8,424,256.6z"/>
			<path fill="#24475B" d="M431.7,272.8c2.9,0.1,4.6,2,5.9,4.5C434.6,277.2,433,275.3,431.7,272.8z"/>
			<path fill="#98CCE1" d="M422.6,302.4c-0.9,1.6-3,2.5-3.2,4.5c-2.9,1.6-3.8-0.7-3.5-2.6c0.7-5.2-1.7-10-1.7-15
				c0.1-0.7,0.6-1.3,1-1.7c0.4,0,1,0,1.4,0c0.4,0,1,0,1.4,0C421,292.3,418.4,298.4,422.6,302.4z"/>
			<path fill="#A5DAE3" d="M415.2,287.7c0,0.4,0,1,0,1.4c-1,1.9-1,4.6-4.2,4.6c-0.6-0.3-1-0.7-1.4-1.2c-1.2-1.9-2.3-3.6-3.9-5.2
				c-0.4-0.4-0.9-1-1.3-1.4c-4.5-5.5-11.6-5.3-17.2-8.5c-0.9-2.7,1-2.9,2.7-3.3c1,0,1.9,0,2.9,0.1c7.1-0.4,11.6,4,16.3,8.1
				C411.3,284.2,413.3,286,415.2,287.7z"/>
			<path fill="#C9E7F4" d="M390.1,274.3c-1,1-1.9,2-2.9,3c-0.3,0.1-0.6,0.3-1,0.4c-1.2-0.1-1.9-0.7-2.5-1.7c-0.4-2.6,2.3-2,3.3-3
				c1,0,2,0,2.9,0.1C390.1,273.4,390.1,273.8,390.1,274.3z"/>
			<path fill="#F6EC74" d="M339.7,292.2c0-0.6,0-1,0-1.6c0-16.8,0-33.4,0-50.1c0-1.7,0-3.5,1.6-4.8c0.4,0,0.9,0,1.4,0
				c0,0.4,0,1,0,1.4c0.3,8.1-0.1,16.2,0.4,24.4c0.3,4.5,0.6,5.9,5.2,4.3c3.5-1.2,7.1-1,7.8,4c-2,0.6-4.6,0-5.9,2.5
				c-0.6,0.7-1,1.3-1.6,2c-5.3,0.4-2.6,5.2-4.2,7.7c0.3,3.3,3.5,4.6,4.9,7.2c0.1,0.7,0,1.3-0.4,1.7c-0.6,0.3-1.2,0.4-1.7,0.4
				c-1.2,0-2.3-0.4-3.3,0.3c-0.7,0.4-1.6,0.9-2.3,1.2C340.7,292.9,340.1,292.6,339.7,292.2z"/>
			<path fill="#A8DBE3" d="M365,261.3c-1,2.6-1.6,5.2-0.3,8.1c0.4,1.2-1.2,0.9-2,0.6C360.5,266.3,356.7,262.1,365,261.3z"/>
			<path fill="#E2E98B" d="M384.6,255.2c-1,4.3,0.4,11.4-8.2,7.5C382.3,263.9,381.7,257.7,384.6,255.2z"/>
			<path fill="#F3EE73" d="M350.1,272.4c0.7-3.9,2.9-4.2,5.9-2.5c0,1,0,2,0,3C354.1,271.4,352.1,271.8,350.1,272.4z"/>
			<path fill="#A8DBE3" d="M369.3,259.4c0.3,1.3,2,2.7,0.4,3.8c-1.4,0.9-2-1.6-3.3-2.2C367.3,260.4,368.3,259.8,369.3,259.4z"/>
			<path fill="#FCEC73" d="M342.6,234.3c19.8,0,39.6,0,59.4,0c-2.2,2.3-5.1,1.4-7.7,1.4c-17.2,0-34.4,0-51.6,0l0,0
				c-0.6-0.3-0.7-0.7-0.6-1C342.3,234.4,342.4,234.3,342.6,234.3L342.6,234.3z"/>
			<path fill="#F9ED68" d="M342.6,234.3c0,0.4,0,1,0,1.4c-2.6,2.7-1.3,6.1-1.4,9.2c-0.9,15.2,1.7,30.6-1.6,45.6
				c-2.3-2.2-1.4-5.1-1.4-7.7c-0.1-15.3,0-30.5,0-45.8C338.4,234.4,340.4,234.3,342.6,234.3z"/>
			<path fill="#99CDDE" d="M360.5,287.7c-0.3-3.9,3.9-5.5,4.5-8.8c5.9-2.3,10.8-7.2,17.8-7.4c0.7,4.2-3,4.3-5.2,5.8
				c-3.9,1.4-7.1,3.9-10,6.8C365.5,286,363.9,288.9,360.5,287.7L360.5,287.7z"/>
			<path fill="#A4D6E3" d="M376.7,275.9c1.6-2,5.1-1.4,5.9-4.3c1.4,0.4,3,1,4.5,1.4c-1,1-2,2-3,2.9c-0.6,2.7-3,3.6-5.2,4.8
				c-1.6,0.7-3.2,1.2-5.1,0.7C369.1,276.7,376.7,278.2,376.7,275.9z"/>
			<path fill="#A6DCE1" d="M375.6,269.1c0,1.3-0.9,1.9-2.2,2c-1,0.1-2-0.1-2-1.3c-0.1-1.3,0.7-2.2,2-2.3
				C374.6,267.3,375.4,267.8,375.6,269.1z"/>
			<path fill="#A7DAF2" d="M393.1,265.8c-0.3,0.3-0.6,0.7-0.9,1.3c-0.4-0.7-0.9-1.4-1.2-2.3c-0.1-0.3,0.4-1,0.7-1
				C393.1,263.6,392.8,264.7,393.1,265.8z"/>
			<path fill="#9CD9F8" d="M387.8,258.8c0,0.7,0.1,1.6-0.9,1.6c-0.4,0-1-1-1-1.6s0.6-1.6,1-1.6C387.9,257.1,387.6,258.1,387.8,258.8
				z"/>
			<path fill="#4A9FAD" d="M535.3,252.2c0,0.4,0.1,0.9,0.1,1.4c-4.8-3-4.5-5.9,0-8.8l0,0C537.7,247.3,534,249.7,535.3,252.2z"/>
			<path fill="#F7D90B" d="M537.3,244.8c0.4,0,0.9,0,1.3-0.1c1.9,3,2.2,6.1-0.3,9c-0.9-1-1.7-2-2.6-3
				C535,248.3,535.4,246.4,537.3,244.8z"/>
			<path fill="#397190" d="M537.3,244.8c-0.6,1.9-1.2,3.8-1.7,5.8c-0.1,0.6-0.1,1-0.3,1.6c-2.5-2.6-1-5.1,0.1-7.5
				C536,244.8,536.7,244.8,537.3,244.8z"/>
			<path fill="#A5D7EC" d="M348.8,290.7c0.1-0.6,0.3-1,0.4-1.6c1.3-0.7,2.5-1.4,3.8-2.2c1.6,7.7-3.6,12.6-11.3,10.5
				c-0.4-0.1-0.3-1.7-0.4-2.7c0.6-3.8,3.6-2.9,6.1-3.2C347.6,291.5,348.2,291.2,348.8,290.7z"/>
			<path fill="#F3EE73" d="M344.2,281.9c0.4-3.2-2.3-5.9-0.9-10.1c1.4,1.7,2.5,4.8,5.2,2.5C348.2,277.6,345.6,279.5,344.2,281.9z"/>
			<path fill="#ACDDD5" d="M346,309.8c-1.6-2.3-4.9-0.6-6.5-2.9c-0.4-0.4-0.4-0.9-0.3-1.2c0.1-0.3,0.4-0.4,0.6-0.4
				C342.6,305.9,346.3,305.2,346,309.8z"/>
			<path fill="#E8EF8A" d="M348.5,292.2c-1.7,2.9-5.6,0.1-7.4,2.7c-0.6,0-1,0.1-1.6,0.1c-1.4-1,0-1.9,0.1-2.9c0.4,0,1-0.1,1.4-0.1
				C343.6,290.6,346,290.5,348.5,292.2z"/>
			<path fill="#9DDCEA" d="M350.2,309.1c2.2,2.3,3.3,3.9,3,6.4C350.1,314.6,350.1,312.6,350.2,309.1z"/>
			<path fill="#E8EF8A" d="M339.8,305.5c-0.1,0.6-0.3,1-0.3,1.6c-0.4-0.4-0.9-1-1.4-1.4c0.4-3-1-6.2,1.4-9
				C339.7,299.6,339.8,302.6,339.8,305.5z"/>
			<path fill="#CBEAF5" d="M364.8,317.5c-0.4-1-1-2-1.4-3c-1.6-1.6-3.2-3.2-2-5.6c0.6-0.6,1.2-0.9,1.9-0.7c2.6,0.9,3.6,3.3,4.9,5.3
				c2.9,6.8,10.1,8.7,14.9,13.4c0.1,1.3-0.9,1.7-1.7,2.2C373.9,327.9,369.3,322.7,364.8,317.5z"/>
			<path fill="#ABD9E1" d="M403.5,324.8c-1,0.6-2,1-3,1.6c-1-0.1-1.7-0.7-2.3-1.7c-0.4-2,0.6-4.3-1.2-6.2c0.6-3.5,2.9-5.2,5.9-6.4
				c0.7,0,1.3,0.1,2,0.4c1.6,2.5,0.3,5.3,0.9,7.8C405.5,322.1,404.4,323.4,403.5,324.8z"/>
			<path fill="#D7F0F3" d="M412,317.3c-0.4,0-0.9,0-1.2,0.1c-2.3,0.9-2.9-1-3.6-2.3c-0.1-0.6-0.3-1.3-0.1-2c0.4-2,1.4-3.8,3.3-4.8
				c0.6-0.3,1.3-0.4,2-0.3c0.7,0.3,1.2,0.6,1.7,1c0.4,0.6,0.9,1.2,1,1.7c0.3,1.3,0.3,2.7-0.1,4C414.4,316,413.3,316.7,412,317.3z"/>
			<path fill="#C8EDF6" d="M408,314.4c1,1,1.9,2,2.9,3c-2,3-4.3,5.5-7.4,7.4c0.4-1.4,1-2.9,1.4-4.5C405,317.9,405.4,315.4,408,314.4
				z"/>
			<path fill="#DBF3F5" d="M381.3,329c0.4-0.4,1-0.9,1.4-1.3c1.7-2,4.2-2.2,6.6-2c1.2,0,2.3,0.1,3.5,0.7c1,0.6,1.9,1.3,1.6,2.7
				C390.1,329,385.6,329,381.3,329z"/>
			<path fill="#C8EDF1" d="M394.4,329.2c-0.4-0.4-1-0.9-1.4-1.3c0.6-3.9,2.7-4.5,5.9-2.9c0.4,0.4,1,1,1.4,1.4
				C398.9,328.2,396.4,328.2,394.4,329.2z"/>
			<path fill="#8EBBCA" d="M412,317.3c0.6-1,1.2-1.9,1.7-2.9c0.9-0.9,1.3-2.3,3-1.6c0,1,0,2,0,3c-1,0.6-1.9,1-2.9,1.6
				C413.2,317.3,412.6,317.3,412,317.3z"/>
			<path fill="#A7D9E9" d="M362.1,308.5c0.4,2,0.9,3.9,1.4,5.9c-5.2,0.1-5.5-3.6-5.9-7.4c-1-6.8,1.7-12.9,3-19.2
				c5.9-3.3,8.7-10.8,16.3-11.8c1.6,3.2-4.5,1.3-2.9,4.5c0.9,2.3-1,3.3-2,4.8c-1,1-2.2,2.2-3,3.3c-1.2,1.4-2.2,3-2.9,4.6
				c-0.7,1.9-1.9,3.6-1.9,5.6C363.8,302.2,364.7,305.6,362.1,308.5z"/>
			<path fill="#90C3D5" d="M410.9,293.6c1.4-1.4,3-3,4.5-4.5c1.7,4.8,3.6,9.5,2.3,14.7c-0.3,1.3-0.4,3,1.9,3.2
				c0.1,0.4,0.3,0.9,0.4,1.3c-0.6,0.6-1,1-1.6,1.6c-1.4,1-2.9,1.3-4.3-0.1v0.1c-3.3-4.2-1.3-9.7-3.6-14.2c0-0.4,0-0.7,0-1.2
				C410.5,294.4,410.6,293.9,410.9,293.6z"/>
			<path fill="#BFE6F3" d="M413.9,309.8c1.4,0,2.9,0.1,4.3,0.1c-0.4,0.9-1,1.9-1.4,2.7c-1,0.6-2,1.2-3,1.6
				C413.8,312.8,413.9,311.4,413.9,309.8z"/>
			<path fill="#0E3040" d="M476.2,274.4c-5.2,10.7-23.7,18.3-34.1,14.2c-0.7-0.3-1-1.6-1.4-2.3c0.1-0.3,0.1-0.6,0.3-0.9
				c0.6-0.7,1.3-1.3,2.2-1.6c1.7-0.4,3.2-1.6,4.6-2.5c2-0.6,4.2-0.9,5.9-2.2c0.9-0.4,1.7-0.7,2.7-1c5.3-1.3,8.4-6.5,13.9-7.7
				C472.9,270.7,475,271.8,476.2,274.4z"/>
			<path fill="#0B2C37" d="M476.2,274.4c-2.6,0.1-3.9-2.2-6.1-3c-0.4-0.6-0.4-1.2-0.1-1.7c1.2-1.4,3-0.6,4.5-1.2
				c1.6-0.6,3.2-1,4.8-1.6C479.1,269.8,478.5,272.4,476.2,274.4z"/>
			<path fill="#092632" d="M439.1,280.3c1.4,0,3,0,4.5,0c1.3,3-2.3,3.8-3,5.9l0,0c-0.4,0-1,0-1.4,0
				C437.8,284.2,436,282.4,439.1,280.3z"/>
			<path fill="#E5E26C" d="M496.6,246.2c0.1-0.4,0-0.9,0-1.4c2.5,1.4,2.2,3.5,1.6,5.6c-0.3,0.9-1.3,0.9-0.7,0.1
				c0.1-0.1-0.3-0.9-0.4-1.3C496.8,248.3,496.7,247.3,496.6,246.2z"/>
			<path fill="#17343C" d="M483.6,243.2c2,0.1,4.3-0.6,5.9,1.4c-1.4,1-2.9,2-4.5,2.9C484.6,246.1,484.1,244.7,483.6,243.2z"/>
			<path fill="#24495B" d="M471.7,247.7c2,6.2,3.6,12.4-1.6,17.9c-0.3-0.3-0.4-0.6-0.7-1c-0.3-0.7-0.4-1.6-0.4-2.3
				C470.6,257.5,467.7,252,471.7,247.7L471.7,247.7z"/>
			<path fill="#427782" d="M474.3,268.5c-0.9,1.9-2.6,1.2-4,1.7c-1.4,0.3-2-0.4-2.5-1.6c0-1.6-0.1-3.2,2.3-2.9l0,0
				C471.6,266.6,472.9,267.5,474.3,268.5z"/>
			<path fill="#23495C" d="M458.4,239.9c-1.6,0.1-3.2,0.1-4.6,0.3c-2.5-1-4.8,1.4-7.2,0.7c-1.9,0-3.8-0.1-5.3-1.2
				c-0.3-0.3-0.4-0.6-0.7-0.9C446.7,235,452.8,234,458.4,239.9z"/>
			<path fill="#092533" d="M430.2,252c1.2-0.6,2.3-1.2,3.5-1.7c1.2,0.3,1.6,1.2,1.7,2.2c-0.3,3-0.3,5.9,1.6,8.5c0.3,1,0.3,2-0.1,3.2
				c-0.9,1.3-2,2-3.6,1.9c-1.6-1-2.3-2.5-2.3-4.3C430.2,258.4,429.1,255.3,430.2,252z"/>
			<path fill="#254554" d="M430.2,252c0.4,3,0.9,5.9,1.3,9c-0.4,0.9-0.9,0.7-1.3,0c-2.6-2.3-0.7-6.4-3.2-8.8
				C428.1,252.2,429.1,252,430.2,252z"/>
			<path fill="#ACBDC6" d="M434.4,251.9c-0.3-0.6-0.6-1-0.7-1.6c-1.2-2.6,0.9-2.6,2.5-3c0.7-0.3,1.4-0.1,2,0.6
				c1.2,1.9,0.4,3.8,0.1,5.6c-0.3,2-0.4,4-2.7,4.9C432.7,256.6,433.9,254.2,434.4,251.9z"/>
			<path fill="#042234" d="M437.6,247.1c-0.6,0.1-1,0.1-1.6,0.3c0.3-1.4-1.6-2.9,0.1-4.2c1.3-1.4,2-3.8,4.6-3
				c0.7,0.9,0.9,1.9,0.7,2.9c-0.3,1.4-1,2.6-2,3.5C438.9,246.8,438.3,247.1,437.6,247.1z"/>
			<path fill="#23495C" d="M440.5,240.3c-1.4,0.9-2.9,1.9-4.3,2.7c0-2.9,1.7-4,4.3-4.3l0,0c0.3,0.3,0.4,0.7,0.3,1
				C440.8,240.2,440.6,240.3,440.5,240.3z"/>
			<path fill="#214558" d="M430.1,261c0.4,0,0.9,0,1.3,0c0.6,1.4,1,3,1.6,4.5c3.2,1,5.5,2.9,6.8,6.1c0.1,1.2,0,2-1,2.7
				C434.4,271,430.1,267.5,430.1,261z"/>
			<path fill="#0A2A3F" d="M438.9,274.3c0-1,0-2,0-3c-0.3-1.3,0.4-1.9,1.6-2.3c1.9-0.3,3.6,0.3,5.3,1.3c1,0.7,1.4,1.7,1.3,3
				c-0.9,2.3-2.6,2.6-4.6,2.3c-0.7-0.3-1.3-0.7-1.9-1.3C439.9,274.4,439.5,274.4,438.9,274.3z"/>
			<path fill="#0A2D3F" d="M440.5,274.4c0.4,0,1,0,1.4,0c1.6,1.6,4.8,1.2,5.3,4c0,0.7-0.1,1.3-0.6,1.9c-0.7,0.3-1.3,0.3-1.7-0.3
				c-1.4-1.4-3-2.7-4.5-4.2C440.5,275.4,440.5,274.9,440.5,274.4z"/>
			<path fill="#1D3C4D" d="M459.7,243.9c0.9-1,1.9-1,3-0.9c0.6,1.4,1.6,2.5,2.9,3c1.7,0.4,2.6,1.6,3.2,3.2c2,7.1,1.3,13.7-3.9,19.5
				c-2,1-3.8,0.7-5.2-0.9c-0.4-0.6-0.7-1.3-0.7-2c0.1-1,0.6-2,1.2-2.9c3.2-4.3,2.5-8.5-0.4-12.6
				C458.7,248.1,458.3,246.1,459.7,243.9z"/>
			<path fill="#0F3547" d="M467.2,249.1c-0.4-1-1-2-1.4-2.9c3.6-6.2,3.5,2.9,5.9,1.4c-0.4,5.5,1.2,11.1-1.4,16.5
				c-3.5,0-2.6-2.7-1.9-4C470.6,255.9,468.7,252.6,467.2,249.1z"/>
			<path fill="#001A18" d="M459.7,243.9c0.6,2.3,1.2,4.5,1.7,6.8c-0.1,0.3-0.3,0.6-0.4,0.9c-0.7,0.7-1.7,1.2-2.9,1
				c-2.5-1-4-2.7-5.1-5.1c-0.3-1.2-0.1-2.2,0.4-3c0.9-0.7,1.9-0.9,3-0.3C457.6,244.1,458.7,244.1,459.7,243.9z"/>
			<path fill="#BEDADB" d="M456.5,244.2c-0.9,0-1.7,0-2.6,0.1c-1.9,0.6-3.8,0.6-4.9-1.4c0.4-1.9,1.7-2.2,3.3-1.6
				C454.4,241.5,456.1,241.8,456.5,244.2z"/>
			<path fill="#65787C" d="M452.4,241.3c-1,0.4-2.5,0.1-2.9,1.7c-1.4,1.2-2.7,0.6-4-0.1c-0.6-0.4-0.9-1.2-1-1.9
				c0.4-1.2,1.4-1.4,2.6-1.4c1.7,0.3,3.8-0.7,5.2,0.9C452.4,240.8,452.4,241,452.4,241.3z"/>
			<path fill="#0C1E40" d="M452.4,240.5c-2,0-3.9-0.1-5.9-0.1c-0.6-0.3-0.7-0.7-0.6-1c0.1-0.3,0.3-0.4,0.6-0.4
				c2.5,0.4,5.2-1,7.4,1.4C453.4,240.3,452.9,240.3,452.4,240.5z"/>
			<path fill="#9CB3BD" d="M445,280.1c0.4,0.1,0.9,0.3,1.4,0.4c0.4,0.3,0.6,0.7,0.4,1.2c0,0.4-0.1,0.6-0.3,0.6
				c-0.7,1.2-1.9,1.9-3.2,2.3c-1,0.6-1.9,1-2.9,1.6c-0.6-2.7,2.3-3.8,3-5.9C444.1,280.3,444.5,280.2,445,280.1z"/>
			<path fill="#90C4D6" d="M410.9,292c0,0.6,0,1,0,1.6l0,0c-1,2-2.3,3.6-4.8,4c-0.7,0.1-1.4,0-2.2-0.1c-0.9-0.3-1.9-0.7-2.5-1.4
				c-5.5-7.7-13.1-8.4-21.5-7.2c-2.6-0.7-4.8-2-5.2-5.1c0.6-2.6,2.9-3,4.6-4c0.7-0.3,1.3-0.4,2-0.3c3.9,1.7,7.9,0.4,12,0.9
				c0.7,0.1,1.3,0.3,1.9,0.6c2,1.6,4.3,2.5,7.1,2.6c1.4,0.7,3,1.4,4.2,2.7l0,0C407.7,288.3,409.4,290.2,410.9,292z"/>
			<path fill="#C9E7F4" d="M406.4,286.3c-1.4-0.6-2.9-1-4.5-1.6c-2.5-1.2-5.1-1.7-7.4-3l0,0c-3.8-1.9-7.8,0.4-11.6-0.9
				c-1.2-4,2.3-2.7,4-3.5l0.1-0.1C394.9,277.6,402.2,278.6,406.4,286.3z"/>
			<path fill="#CCEDED" d="M410.9,292c-2.5-1.2-4.3-2.9-4.5-5.9C408.9,287.4,410.6,289.2,410.9,292z"/>
			<path fill="#E3F4FB" d="M387.1,277.3c-1.4,0.9-3,1.7-4.5,2.6c-0.1,0.9-0.7,1-1.3,0.6c-0.4,0-1,0-1.4,0c-1.6,0.4-1.9-0.1-1.6-1.6
				c2-1,3.9-2,5.9-3C385.2,276.3,386,276.9,387.1,277.3z"/>
			<path fill="#FCE678" d="M342.7,290.6c1.4-4.3,2.9-2.3,4.5,0C345.6,291.8,344.2,291.8,342.7,290.6z"/>
			<path fill="#EDEF77" d="M342.7,290.6c1.4,0,2.9,0,4.5,0c0.6,0,1.2,0,1.6,0c-0.1,0.4-0.1,1-0.3,1.4c-2.5,0-4.9,0-7.4,0
				C341.7,291.6,342.1,291.2,342.7,290.6z"/>
			<path fill="#C8EAF8" d="M378.2,278.9c0.6,0.6,1,1,1.6,1.6c-1.4,1-3,1.9-4.5,2.9c-0.6,1.3-1.4,2.2-2.9,2.2
				c-0.7-0.1-1.2-0.4-1.7-0.9c0-2.2,2.2-2.9,3.2-4.3C375.4,279.9,376.8,279.3,378.2,278.9z"/>
			<path fill="#A6D9E5" d="M390.1,327.7c-2.5,0-4.9,0-7.4,0c-6.4-3.3-13.3-6.1-16.2-13.4c0.3-0.9,0.7-1.7,1.6-2.3
				c0.9-0.4,1.9-0.6,2.7-0.6c1,0,2,0.3,2.9,0.7c0.6,0.3,1,0.7,1.6,1.3c2,2.5,3.9,5.2,7.7,4.9c2.6,0.3,5.2,1,7.8,0.6
				c1.4,0,2.7,0.1,3.9,1.2C395.7,324.1,391.7,325.1,390.1,327.7z"/>
			<path fill="#93C4D6" d="M367.8,313c-0.4,0.4-0.9,0.9-1.3,1.3c-1-1.9-2.2-3.9-3.2-5.8c-1.3-2.7-0.6-5.6-0.6-8.5
				c0.6-0.7,1.3-0.9,2.2-0.7C367,303.6,369,307.9,367.8,313z"/>
			<path fill="#D8F3FD" d="M363.5,299.7c0,2.9,0,5.9-0.1,8.8c-0.4,0-0.9,0-1.3,0c0-3.9,0-7.8,0-11.7
				C364.5,296.7,364.2,298.1,363.5,299.7z"/>
			<path fill="#F6EF6E" d="M394.6,320.5c-1.4,0-2.9,0-4.3,0c-3.9-1.3-6.5-6.8-11.8-3.6c-2.3-0.3-3-2.6-4.6-3.9l0.1-0.1
				c-1.9-1.2,0.1-5.3-3.8-4.8c-1.3-1.9-1.3-3.9-0.7-6.1c2.3-3.3,3.8-6.9,4.6-10.8c1.3-2.2,2.7-4.3,5.8-3.5c10.7-3.6,18.9,0,25,9
				c3.6,6.8,3.2,10.8-1.6,16.2c-1.9,2-3.9,4-5.8,5.9C396.9,320.2,396.2,321.1,394.6,320.5z"/>
			<path fill="#A7D9E7" d="M394.6,320.5c1-0.6,1.9-1.2,2.9-1.7c10.3-0.6-2.2,4.9,1.6,6.1c-2.3,0.3-4.3,1.2-5.9,2.9c-1,0-2,0-2.9,0
				C389.2,323.8,393.3,323.1,394.6,320.5z"/>
			<path fill="#AEDCDC" d="M403.2,312.8c2.3-5.2,1.9-10.7,1.6-16.2c0.6,0,1-0.1,1.6-0.1c1,0.9,1.2,2,1,3.3c4.6,0,3.9,3,3.3,5.9
				c-1.2,1.9-2.7,3.5-3.3,5.6c-0.6,0.9-1.3,1.4-2.5,1.4C404.4,312.8,403.8,312.8,403.2,312.8z"/>
			<path fill="#A3D5EA" d="M405,313c0.4-0.4,1-1,1.4-1.4c0.9,0.1,1.4,0.6,1.6,1.6c0,0.4,0,1,0,1.4c-0.4,2.3-1.2,4.5-3.2,5.9
				C402.2,317.9,403.8,315.4,405,313z"/>
			<path fill="#DAECF5" d="M410.9,295.2c5.6,3.9,1.9,9.8,3,14.7c-0.6-0.6-1-1-1.6-1.6c-2.7-2.9-0.4-6.9-2.3-10
				C409.7,297.2,409.9,296.1,410.9,295.2z"/>
			<path fill="#A8E2F9" d="M408,313c-0.6-0.6-1-1-1.6-1.6c0.9-1.6-2-5.6,3-4.3c0.6,0.1,1,0.3,1.3,0.7c0,0.3,0.1,0.4,0.1,0.7
				C409.9,310,409,311.5,408,313z"/>
			<path fill="#AEDCDC" d="M410.9,298c2.6,3.2,1,6.9,1.4,10.4c-0.4,0-0.9,0.1-1.4,0.1h-0.1C409.9,304.9,409.6,301.4,410.9,298z"/>
			<path fill="#C7E7F0" d="M363.5,299.7c-0.4-1-1-1.9-1.4-2.9c0.9-1.6,1.9-3.2,2.7-4.6c1.2,0.1,1.9,0.9,2.2,1.9
				c0.1,2.2-0.1,4.2-2.2,5.3C364.4,299.4,363.9,299.6,363.5,299.7z"/>
			<path fill="#C9E5F3" d="M370.7,284.7c0.6,0,1.2,0,1.7,0.1c0.4,3.5-1.3,4.8-4.6,4.8c-0.7-0.6-0.7-1.3,0-1.9
				C368,285.8,368.9,284.8,370.7,284.7z"/>
			<path fill="#CEEEFB" d="M367.8,287.6c0,0.6,0.1,1.2,0.1,1.7c0.7,2,0,3.3-1.9,4.2c-0.4-0.4-0.9-1-1.3-1.4
				C365,290,366,288.6,367.8,287.6z"/>
			<path fill="#9FE0F7" d="M410.9,298c0,3.5,0,6.9,0,10.4c-0.4-0.4-1-0.9-1.4-1.4c2-4.3-4-6.4-3-10.4c1.4-1,3-2,4.5-2.9
				c0,0.6,0,1,0,1.6C410.9,296.2,410.9,297.1,410.9,298z"/>
			<path fill="#1D4457" d="M468.4,268.5c0.6,0.6,1.3,1.2,1.9,1.6c-0.1,0.4-0.1,0.9-0.1,1.2c-4.2,3.3-8.1,7.2-13.3,8.8
				c-0.4-0.4-0.7-1-0.7-1.7c1-3.5,4.3-4.5,6.6-6.5c1.2-0.9,2.3-1.9,3.3-3C466.7,268.5,467.5,268.1,468.4,268.5z"/>
			<path fill="#1B3B4C" d="M446.3,281.6c0.1-0.4,0.1-0.9,0.1-1.2c0-0.6,0-1.2,0.1-1.7c0.4-0.9,0.9-1.7,1.9-2c0.7,0,1.3,0.1,1.9,0.3
				c1.3,1,2.9,1.6,3.6,3.2c-1.3,3-3.5,3-5.9,1.4C447.3,282.2,446.9,282.2,446.3,281.6z"/>
			<path fill="#274C5F" d="M453.9,280.3c-2.2,0-4.2,0-4.5-2.9c0.4-0.6,1.2-0.9,1.9-0.9c2.2,0,4.2,0.4,5.6,2.3c0,0.4,0,0.9,0,1.4
				C455.8,280.2,454.8,280.3,453.9,280.3z"/>
			<path fill="#0B2A34" d="M446.3,281.6c0.6,0,1.2,0,1.7,0.1c-0.6,2.5-1.4,4.5-4.5,2.9C444.4,283.7,445.3,282.7,446.3,281.6z"/>
			<path fill="#234659" d="M468.4,268.5c-0.4,0.4-0.9,1-1.3,1.4c-1,0.4-1.9,0.1-2.6-0.6c-0.1-0.3-0.3-0.6-0.4-0.9
				c3.6-6.1,4.9-12.4,3-19.4c2.9,2.7,3.6,6.1,2.5,9.8c-0.6,1.9-1.3,3.6,0.6,5.2c0,0.6-0.1,1-0.1,1.6
				C469.5,266.6,469,267.6,468.4,268.5z"/>
			<path fill="#0D2B37" d="M446.4,238.7c0,0.4,0,1,0,1.4c-0.4,0.3-0.9,0.7-1.3,1c0.3,0.3,0.6,0.7,0.6,1c0,0.4,0,0.6-0.1,0.6
				c-1.7,1.2-3.5,1.4-5.1-0.1c0-0.9,0-1.6,0-2.5c0-0.4,0-1,0-1.4C442.5,238.7,444.5,238.7,446.4,238.7z"/>
			<path fill="#223948" d="M440.4,269.9c-0.4,0.4-1,1-1.4,1.4c-2.5-1.4-4.5-3.3-5.8-5.9c1-0.6,1.9-1.3,2.9-1.9s2-0.7,3-0.4
				c1,0.4,1.7,1.2,2.3,2c0.3,0.7,0.4,1.3,0.6,2C441.8,268.4,441.4,269.2,440.4,269.9z"/>
			<path fill="#182B36" d="M438.3,263.9c-0.9-0.1-1.6-0.3-2.5-0.4c0-0.7,0.1-1.6,0.1-2.3c-1-1-1.2-2.2-0.4-3.5
				c0.3-1.9,0.4-3.6,0.7-5.5c2.2-0.1,2.5,1.6,3.2,3C439.6,258.2,442.2,261.6,438.3,263.9z"/>
			<path fill="#758D9A" d="M435.7,257.8c0.1,1.2,0.3,2.3,0.4,3.5c-4.9-2.3-3.3-5.8-1.7-9.4C434.9,253.9,434,256.2,435.7,257.8z"/>
			<path fill="#364A53" d="M437.6,255.1c-0.4-0.9-0.9-1.9-1.2-2.7c0.4-1.7,0.7-3.5,1.2-5.2c0-0.4,0.1-0.7,0.7-0.9
				c0.6-0.3,1.2-0.1,1.7,0.1c0.6,0.4,0.9,0.9,1.3,1.4c0.3,0.6,0.3,1.2,0.3,1.9C440.9,251.9,441.4,255.1,437.6,255.1z"/>
			<path fill="#8CA3A8" d="M440.5,242.8c1.6-0.4,3-0.4,4.3,0.7c0.3,3-1.7,3.2-3.9,3.5c-0.7,0-1.3-0.3-1.7-0.9l-0.4-0.1l-0.4,0.3
				C439.1,245.1,438.6,243.2,440.5,242.8z"/>
			<path fill="#BFD6D6" d="M446.6,272.7c-0.4-0.6-1-1.2-1.4-1.6c-0.4-0.7-0.3-1.3,0.1-1.9c0.6-0.4,1.2-0.7,1.9-1
				c2.7-0.3,5.5-1.2,8.4-0.1c0.7,0.9,1,1.9,0.7,3c-0.3,1-1,1.9-1.9,2.6c-1.4,1-3.2,1.4-4.9,1.6C447.9,275,447,274.1,446.6,272.7z"/>
			<path fill="#1A3D4E" d="M446.6,272.7c1,0.6,1.9,1.2,2.9,1.7c0.7,1.4-0.3,2-1.3,2.6c-0.6,0.6-1,1.2-1.6,1.7
				c-1.4-1.4-3-2.9-4.5-4.5C443.7,274.3,445.4,274.4,446.6,272.7z"/>
			<path fill="#99B5B6" d="M445,270.1c0.1,0.3,0.1,0.6,0.1,1c-1.6-0.4-3-0.7-4.6-1.2c0-1,0-2,0-3.2
				C443.1,266.3,445.4,266.3,445,270.1z"/>
			<path fill="#374A47" d="M455.4,268.5c-2.9,1.6-5.9,1.3-9,1c-0.7-0.9-0.9-1.9-0.3-2.9c2.9-2.3,7.2-1.7,9.7-4.9
				c1.2-0.7,2.5-1.3,3.8-1.4c0.7,0,1.3,0.1,1.9,0.4c0.7,0.9,0.6,1.9,0,2.7c-0.7,0.7-1.3,1.4-2,2.2
				C458.7,267.5,458.1,269.7,455.4,268.5z"/>
			<path fill="#CFE5F0" d="M461.5,263.4c0.1-0.7,0.1-1.6,0.3-2.3c-1.3-3.5-1.6-6.9-0.3-10.4l0,0
				C466.8,255.1,465.5,259.2,461.5,263.4z"/>
			<path fill="#3B6F81" d="M459.9,266.9c1.4,0.6,2.9,1,4.3,1.6l0,0c2,3.9-1.3,3.8-3.5,4.6c-1.3,0.1-2.5-0.1-3.5-0.9
				C455.4,269.1,458.1,268.2,459.9,266.9z"/>
			<path fill="#AFC9CA" d="M459.9,266.9c-1.2,1.4-2.2,2.9-3.3,4.2c-0.4,0.6-0.9,0.4-1.3,0c0-0.9,0-1.7,0-2.7c1.3-1,2.7-1.9,4-2.9
				C459.6,266,459.7,266.5,459.9,266.9z"/>
			<path fill="#FEFE80" d="M460,261c-0.6,1.6-1.9,1.3-3.2,1.6c-1.6-0.3-2.5-1.4-3-2.7c-0.7-3-2.2-5.9-2.5-9.1c0.1-1.2,0.6-2,1.4-2.7
				c0.3-0.1,0.7-0.3,1-0.4c2,1.2,3.6,2.6,4.8,4.8C461.7,254.6,461.3,257.7,460,261z"/>
			<path fill="#1D3C4D" d="M460,261c-0.4-2.9-1-5.9-1.4-8.8c1-0.4,1.9-0.9,2.9-1.4c1.6,3.5,2.2,6.9,0.3,10.4
				C461.2,261.1,460.6,261,460,261z"/>
			<path fill="#0F2438" d="M446.4,241.8c1,0.4,2,0.9,3.2,1.3c1.4,0.4,3.2-0.1,4.3,1.3c0,1-0.1,2-0.1,3.2v0.6
				c-2.3,0.6-4.5,0.3-6.5-1.2C446,245.4,445.1,243.8,446.4,241.8z"/>
			<path fill="#1A272F" d="M446.4,241.8c0.4,1.3,1,2.6,1.4,3.9c-1.9,2.9-4.3,3.8-7.5,1.9h0.1c-0.4-0.3-0.6-0.6-0.3-0.9
				c0.1-0.1,0.3-0.3,0.6-0.3c1.3-1,2.7-2,4-3c0.1-0.7,0.3-1.4,0.3-2.2C445.6,241.5,446,241.6,446.4,241.8z"/>
			<path fill="#91C3D9" d="M366.1,293.6c0.6-1.4,1.2-2.9,1.9-4.2c1.4-1.6,3-3,4.5-4.6c1-0.4,2-1,2.9-1.4c1.4,1.4,2.9,2.9,4.5,4.3
				c-1.4,1.4-2.9,3-4.5,4.5c-2,1.9-1.7,5.1-3.8,6.9c-1.6,0.7-0.7,4.3-3.9,3.2c0,0-0.3-0.1-0.1-0.1c2.6,2,1.9,5.5,4,7.7
				c0.4,1,0.3,2-0.4,2.9c-1,0-2.2,0.1-3.2,0.1c-1.7-4.3-3.8-8.5-3-13.4C365.2,297.5,365.7,295.5,366.1,293.6z"/>
			<path fill="#8ABFCD" d="M381.3,280.5c0.4-0.1,0.9-0.3,1.3-0.6c3.9,0.9,8.4-1.2,12,1.7C390.1,281.2,385.3,285,381.3,280.5z"/>
			<path fill="#8EC2CB" d="M394.6,281.8c2.9-0.1,5.5,0.6,7.4,3C398.3,286.6,396.3,284.5,394.6,281.8z"/>
			<path fill="#F7EE6B" d="M378.2,315.9c3.8-2.5,8.2-1.4,12.9-2.5c-3.5,2.3-5.6,4.5-1,6.9c-2.6,1.9-4.9-0.3-7.5-0.3
				C381.3,318.6,377.7,319.6,378.2,315.9z"/>
			<path fill="#F4ED75" d="M371,312.8c-0.1-1-0.1-1.9-0.3-2.9c-0.7-0.7-0.6-1.3,0.4-1.4c1.3-1.7,2.7-3.6,4.6-6.2
				c0.6,4.6-2.9,7.2-2,10.5C372.9,312.8,371.9,312.8,371,312.8z"/>
			<path fill="#E3E791" d="M378.2,315.9c1.4,1.4,3,2.9,4.5,4.3c-5.1,0.1-7.5-2.9-9-7.2C376.1,312.7,376.7,315,378.2,315.9z"/>
			<path fill="#93C4D6" d="M371.2,308.5c-0.1,0.4-0.3,1-0.4,1.4c-0.3-0.3-0.7-0.7-1-1.2c-1.4-3.8-5.8-7.7,0.9-10.8
				c1,0.9,0.9,1.9,0.3,2.9C370.6,303.5,370.4,306.1,371.2,308.5z"/>
			<path fill="#F4ED75" d="M371,301c-0.1-1-0.1-1.9-0.3-2.9c1.3-2.2,2.2-4.6,4.5-5.9C374.2,295.4,375.9,299.7,371,301z"/>
			<path fill="#FAEA78" d="M391.5,292.2c0.9,0,3.3-1.2,2.2,0.7c-2,3.6-4.8,2.6-6.6-0.7C388.6,290.9,390.1,291,391.5,292.2z"/>
			<path fill="#EEF466" d="M391.5,292.2c-1.4,0-3,0-4.5,0C388.6,287.7,390.1,289.9,391.5,292.2z"/>
			<path fill="#153A4C" d="M456.8,278.9c-2.2-0.1-4.6,0.6-6.1-1.7c-0.3-2.5,1.3-3,3.2-3.5c2-0.9,4-1.6,6.2-1.4
				c1.4,0.1,2.9-0.4,4.2,0.7C461.7,274.9,459.3,276.9,456.8,278.9z"/>
			<path fill="#113D4D" d="M464.3,273c-1.6,0-3,0-4.6-0.1c-0.4-0.3-0.6-0.4-0.4-0.7c0.1-0.3,0.3-0.3,0.4-0.3c2-0.3,4.3-0.3,4.5-3.3
				c1,0.6,1.9,1,2.9,1.6C466.2,271,465.2,272,464.3,273z"/>
			<path fill="#ADC3C8" d="M453.5,274.3c-0.9,0.9-1.7,1.9-2.7,2.7c-0.4,0-1,0.1-1.4,0.4c-0.4-0.1-0.9-0.3-1.3-0.3
				c0.4-0.9,0.9-1.7,1.3-2.6c1-1.6,2.5-1.6,4-1.6c0.6,0.3,0.7,0.6,0.6,1C453.8,274.1,453.7,274.3,453.5,274.3z"/>
			<path fill="#FCEF80" d="M440.5,247.5c2.5-0.6,4.9-1.3,7.5-1.9c2.2,0.1,4.3,0.3,5.9,2.2c-0.6,1-1,2-1.6,2.9
				c-7.8,4.2-7.8,4.2-4.6,11.7c0.3,2-0.9,3.3-2.3,4.5c-2,1-3.2-0.9-4.9-1.2c-0.7-0.6-1.4-1.3-2.2-1.9c1.3-3-1.6-5.8-0.7-8.8
				C439.2,252.7,440.4,250.4,440.5,247.5z"/>
			<path fill="#1E303C" d="M440.5,265.9c1.7-1.3,2.9,1,4.5,0.9c0.7-0.4,1.2-0.1,1.4,0.6c0,0.7,0,1.4,0,2.2c-0.4,0.1-1,0.4-1.4,0.6
				c-1.4-1.2-3-2.2-4.5-3.3C440.5,266.5,440.5,266.2,440.5,265.9z"/>
			<path fill="#5A6D73" d="M440.8,246.5c0,0.4,0,0.7-0.1,1.2c-0.4-0.4-1-1-1.4-1.4C439.6,246.2,440.2,246.4,440.8,246.5z"/>
			<path fill="#082634" d="M453.5,274.3c0-0.4,0-1,0-1.4c0.6-0.6,1.3-1.2,1.9-1.6c0.4,0.1,0.9,0.1,1.3,0c1,0.1,2,0.3,3,0.6
				c0,0.4,0,0.7,0,1.2C457.6,273.3,455.5,273.8,453.5,274.3z"/>
			<path fill="#FDF567" d="M446.4,267.3c-0.4-0.1-1-0.4-1.4-0.6c0.4-1.4,0.9-2.7,1.4-4.2c2.5-2.5,5.3-3.9,8.8-3.3
				c0.6,1.2,1.2,2.2,1.6,3.3C454.7,266.8,450.8,267.6,446.4,267.3z"/>
			<path fill="#103654" d="M455.2,259.2c-2.3,2.7-5.3,3.9-8.8,3.3c-4.3-1.4-4.5-6.1-3.6-8.4c1.3-3.8,5.6-4,9.5-3.2
				C454.4,253.2,456.3,255.8,455.2,259.2z"/>
		</g>
	</g>
	<text transform="matrix(1 0 0 1 21.9609 216.5957)" fill="#193956" font-family="'MyriadPro-Regular'" font-size="32">The Worlds Most </text>
	<text transform="matrix(1 0 0 1 21.9609 254.1084)" fill="#193956" font-family="'MyriadPro-Regular'" font-size="32">Secure Endpoint </text>
	<text transform="matrix(1 0 0 1 21.9609 291.6206)" fill="#193956" font-family="'MyriadPro-Regular'" font-size="32">Solution</text>
	<g id="Layer_2_1_">
	</g>
</g>
<rect x="23.3" y="307.2" fill="none" width="180" height="54.7"/>
<text transform="matrix(1 0 0 1 23.2942 320.3566)"><tspan x="0" y="0" fill="#336697" font-family="'FuturaStd-Light'" font-size="16">A Virtual Drive that isolates </tspan><tspan x="0" y="19.2" fill="#336697" font-family="'FuturaStd-Light'" font-size="16">Malware, Viruses, and </tspan><tspan x="0" y="38.4" fill="#336697" font-family="'FuturaStd-Light'" font-size="16">Hackers </tspan></text>
</svg>
