<?xml version="1.0" encoding="utf-8"?>
<!-- Generator: Adobe Illustrator 18.1.0, SVG Export Plug-In . SVG Version: 6.00 Build 0)  -->
<svg version="1.1" id="Layer_1" xmlns="http://www.w3.org/2000/svg" xmlns:xlink="http://www.w3.org/1999/xlink" x="0px" y="0px"
	 viewBox="0 0 500 500" enable-background="new 0 0 500 500" xml:space="preserve">
<g id="Layer_3_1_">
	<path fill="#2178A9" d="M57.5,58.2c0,0,71.4,9.3,194.2-42.6c0,0,110.4,52.9,190.6,42.4c0,0,72.6,310.9-191.3,423.3
		C251,481.2-1.5,398.4,57.5,58.2z"/>
	<path fill="none" stroke="#CCD7E3" stroke-width="8" stroke-miterlimit="10" d="M254.3,446.9c0,0-216-65-171.2-364.2
		c0,0,88.7,2.1,165.7-42c0,0,66.8,26.9,96.7,30"/>
</g>
<g id="Layer_2">
</g>
<rect x="96.7" y="108.7" fill="#CCD7E3" width="49.4" height="60.4"/>
<circle fill="none" stroke="#262262" stroke-width="5" stroke-miterlimit="10" cx="120.9" cy="133.5" r="20.1"/>
<circle fill="#262262" cx="121.1" cy="132.1" r="6.9"/>
<circle fill="#1C75BC" cx="116.3" cy="133.5" r="1.2"/>
<circle fill="#1C75BC" cx="125" cy="128.5" r="1.2"/>
<circle fill="#1C75BC" cx="126.2" cy="132.4" r="1.2"/>
<circle fill="#1C75BC" cx="126" cy="130.3" r="0.3"/>
<circle fill="#262262" cx="144.1" cy="110.3" r="0.6"/>
<circle fill="#262262" cx="144.5" cy="136.7" r="0.6"/>
<path fill="#262262" d="M98.7,137.3c0,0.2-0.2,0.5-0.4,0.6c-0.1,0-0.2,0-0.2,0c-0.3,0-0.6-0.3-0.6-0.6c0-0.3,0.3-0.6,0.6-0.6
	C98.4,136.7,98.7,137,98.7,137.3z"/>
<circle fill="#262262" cx="144.5" cy="167.1" r="0.6"/>
<circle fill="#262262" cx="98.7" cy="167.1" r="0.6"/>
<circle fill="#262262" cx="98" cy="110.1" r="0.6"/>
<circle fill="#1C75BC" cx="123" cy="127" r="0.3"/>
<circle fill="#1C75BC" cx="118.8" cy="127.2" r="0.3"/>
<circle fill="#1C75BC" cx="116.1" cy="131.2" r="0.3"/>
<circle fill="#1C75BC" cx="117.5" cy="135.4" r="0.3"/>
<circle fill="#1C75BC" cx="121.8" cy="136.5" r="0.3"/>
<circle fill="#1C75BC" cx="125.5" cy="134.6" r="0.3"/>
<circle fill="#1C75BC" cx="120.9" cy="126.7" r="1.2"/>
<circle fill="#1C75BC" cx="119.4" cy="136.8" r="1.2"/>
<circle fill="#1C75BC" cx="124.2" cy="136.2" r="1.2"/>
<circle fill="#1C75BC" cx="117" cy="128.8" r="1.2"/>
<circle fill="none" stroke="#1C75BC" stroke-width="2" stroke-miterlimit="10" cx="121.1" cy="131.8" r="3.2"/>
<line fill="none" stroke="#262262" stroke-miterlimit="10" x1="115.1" y1="133.5" x2="117.5" y2="133.5"/>
<line fill="none" stroke="#262262" stroke-miterlimit="10" x1="115.8" y1="128.8" x2="118.2" y2="128.8"/>
<line fill="none" stroke="#262262" stroke-miterlimit="10" x1="119.7" y1="126.7" x2="122.1" y2="126.7"/>
<line fill="none" stroke="#262262" stroke-miterlimit="10" x1="123.8" y1="128.5" x2="126.2" y2="128.5"/>
<line fill="none" stroke="#262262" stroke-miterlimit="10" x1="125" y1="132.4" x2="127.4" y2="132.4"/>
<line fill="none" stroke="#262262" stroke-miterlimit="10" x1="123" y1="136.2" x2="125.4" y2="136.2"/>
<line fill="none" stroke="#262262" stroke-miterlimit="10" x1="118.2" y1="136.8" x2="120.6" y2="136.8"/>
<line fill="none" stroke="#262262" stroke-miterlimit="10" x1="116.3" y1="132.3" x2="116.3" y2="134.7"/>
<line fill="none" stroke="#262262" stroke-miterlimit="10" x1="117" y1="127.6" x2="117" y2="130"/>
<line fill="none" stroke="#262262" stroke-miterlimit="10" x1="120.9" y1="125.5" x2="120.9" y2="127.9"/>
<line fill="none" stroke="#262262" stroke-miterlimit="10" x1="125" y1="127.3" x2="125" y2="129.7"/>
<line fill="none" stroke="#262262" stroke-miterlimit="10" x1="124.2" y1="135" x2="124.2" y2="137.4"/>
<line fill="none" stroke="#262262" stroke-miterlimit="10" x1="126.2" y1="131.2" x2="126.2" y2="133.6"/>
<line fill="none" stroke="#262262" stroke-miterlimit="10" x1="119.4" y1="135.6" x2="119.4" y2="138"/>
<polygon fill="#262262" points="99.6,108.8 100.7,111.4 141.2,111.4 142.7,108.8 "/>
<rect x="98.7" y="152.2" fill="#262262" width="8.1" height="12.8"/>
<rect x="98.7" y="159.9" fill="#262262" width="13.7" height="5.1"/>
<polygon fill="#1C75BC" points="121.1,130 121.7,131.2 123,131.3 122.1,132.2 122.3,133.5 121.1,132.9 120,133.5 120.2,132.2 
	119.3,131.3 120.6,131.2 "/>
<circle fill="#262262" cx="108.7" cy="156.4" r="3"/>
<circle fill="#1C75BC" cx="100" cy="163.6" r="0.6"/>
<circle fill="#1C75BC" cx="108.7" cy="156.7" r="0.6"/>
<path fill="#262262" d="M107.1,152.8c0,0-5.1,5.6,2.6,7.1c7.7,1.5,27.1-13.4,27.1-13.4s-26,2.3-29.5,6"/>
<circle fill="none" stroke="#1C75BC" stroke-miterlimit="10" cx="100" cy="163.6" r="1.1"/>
<circle fill="none" stroke="#262262" stroke-miterlimit="10" cx="98.1" cy="137.3" r="1"/>
<circle fill="none" stroke="#262262" stroke-miterlimit="10" cx="98" cy="110.1" r="1"/>
<circle fill="none" stroke="#262262" stroke-miterlimit="10" cx="144.1" cy="110.3" r="1"/>
<circle fill="none" stroke="#262262" stroke-miterlimit="10" cx="144.5" cy="136.7" r="1"/>
<circle fill="none" stroke="#262262" stroke-miterlimit="10" cx="144.5" cy="167.1" r="1"/>
<circle fill="none" stroke="#262262" stroke-miterlimit="10" cx="98.7" cy="167.1" r="1"/>
<circle fill="none" stroke="#1C75BC" stroke-miterlimit="10" cx="108.7" cy="156.4" r="2.6"/>
<circle fill="none" stroke="#1C75BC" stroke-miterlimit="10" cx="125.5" cy="150.7" r="1.2"/>
<circle fill="#CCD7E3" cx="108.7" cy="156.4" r="2"/>
<circle fill="#CCD7E3" cx="108.7" cy="156.4" r="1.6"/>
<circle fill="none" stroke="#1C75BC" stroke-width="0.34" stroke-miterlimit="10" cx="108.7" cy="156.4" r="1.3"/>
<circle fill="#1C75BC" cx="108.7" cy="156.4" r="0.9"/>
<ellipse transform="matrix(-0.3121 -0.9501 0.9501 -0.3121 5.1175 311.7691)" fill="#1C75BC" cx="115.4" cy="154" rx="0.9" ry="1.7"/>
<circle fill="#1C75BC" cx="120.2" cy="152.9" r="0.5"/>
<circle fill="#1C75BC" cx="125.5" cy="150.7" r="0.9"/>
<path fill="#CCD7E3" d="M131.9,312.5h63.4c1,0,1.9,0.9,1.9,1.9v21.9c0,1-0.9,1.9-1.9,1.9h-63.4c-1,0-1.9-0.9-1.9-1.9v-21.9
	C130,313.3,130.9,312.5,131.9,312.5z"/>
<polygon fill="none" stroke="#002E5F" stroke-miterlimit="10" points="172.4,328.7 179.2,328.7 179.2,332.8 178.1,332.8 
	178.1,333.8 177.4,333.8 177.3,334.6 174.2,334.6 174.2,333.7 173.7,333.7 173.7,332.8 172.4,332.8 "/>
<polygon fill="none" stroke="#002E5F" stroke-miterlimit="10" points="163,328.7 169.8,328.7 169.8,332.8 168.7,332.8 168.7,333.8 
	168,333.8 168,334.6 164.8,334.6 164.8,333.7 164.3,333.7 164.3,332.8 163,332.8 "/>
<polygon fill="none" stroke="#002E5F" stroke-miterlimit="10" points="153.9,328.7 160.7,328.7 160.7,332.8 159.6,332.8 
	159.6,333.8 158.9,333.8 158.8,334.6 155.7,334.6 155.7,333.7 155.2,333.7 155.2,332.8 153.9,332.8 "/>
<polygon fill="none" stroke="#002E5F" stroke-miterlimit="10" points="134.3,328.7 141.1,328.7 141.1,332.8 139.9,332.8 
	139.9,333.8 139.3,333.8 139.2,334.6 136.1,334.6 136.1,333.7 135.6,333.7 135.6,332.8 134.3,332.8 "/>
<polygon fill="none" stroke="#002E5F" stroke-miterlimit="10" points="144.5,328.7 151.3,328.7 151.3,332.8 150.2,332.8 
	150.2,333.8 149.6,333.8 149.5,334.6 146.4,334.6 146.4,333.7 145.8,333.7 145.8,332.8 144.5,332.8 "/>
<rect x="133.2" y="338.2" fill="#262262" width="6.7" height="1.9"/>
<rect x="131.9" y="318.1" fill="none" stroke="#002E5F" stroke-miterlimit="10" width="57.7" height="1.9"/>
<rect x="131.9" y="316.2" fill="none" stroke="#002E5F" stroke-miterlimit="10" width="57.7" height="1.9"/>
<rect x="131.9" y="319.9" fill="none" stroke="#002E5F" stroke-miterlimit="10" width="57.7" height="1.9"/>
<rect x="131.9" y="321.8" fill="none" stroke="#002E5F" stroke-miterlimit="10" width="57.7" height="1.9"/>
<rect x="185.9" y="338.2" fill="#262262" width="6.7" height="1.9"/>
<rect x="131.9" y="327" fill="none" stroke="#002E5F" stroke-miterlimit="10" width="49.4" height="9.3"/>
<circle fill="#262262" cx="189.2" cy="334.6" r="1.5"/>
<circle fill="#262262" cx="184.4" cy="334.6" r="1.5"/>
<path fill="#262262" d="M187.1,312.5h2.6v-6.4l-0.4-0.7v-13.6c0,0-0.8-1.6-1.6,0l0.1,10v3.6l-0.6,0.6V312.5z"/>
<path fill="#CCD7E3" d="M181.3,285.1c0,0-13,7.6-0.6,17.3C180.8,302.4,161.6,294.1,181.3,285.1z"/>
<path fill="#CCD7E3" d="M194.8,302.9c0,0,13-7.5,0.7-17.3C195.5,285.6,214.6,294,194.8,302.9z"/>
<path fill="#CCD7E3" d="M186.5,287.9c0,0-9.6,5.6-0.4,12.7C186.2,300.6,172.1,294.5,186.5,287.9z"/>
<path fill="#CCD7E3" d="M190.6,301.1c0,0,9.6-5.3,0.7-12.6C191.4,288.4,205.3,294.8,190.6,301.1z"/>
<path fill="#CCD7E3" d="M203.9,86.6v8.9v5.3c0,0-0.2,2,2.2,2.1c2.3,0.1,23.4,0,23.4,0l13,0.1c0,0,2.2,0.2,2.8-1.4V82v-2.5
	c0,0,0.1-2.4-2.4-2.4c-2.4,0-9,0-9,0h-28.5c0,0-1.4,0.6-1.5,1.2L203.9,86.6L203.9,86.6L203.9,86.6z"/>
<polygon fill="#2178A9" points="206.2,79.4 228.3,79.4 243,79.4 243,98.1 206.2,98.1 "/>
<circle fill="#FFFFFF" cx="237.7" cy="101.4" r="1"/>
<circle fill="#FFFFFF" cx="240.8" cy="101.4" r="0.8"/>
<rect x="216.2" y="102.8" fill="#2B3990" width="16.8" height="6.4"/>
<path fill="#CCD7E3" d="M269.4,86.6v8.9v5.3c0,0-0.2,2,2.2,2.1c2.3,0.1,23.4,0,23.4,0l13,0.1c0,0,2.2,0.2,2.8-1.4V82v-2.5
	c0,0,0.1-2.4-2.4-2.4c-2.4,0-9,0-9,0h-28.5c0,0-1.4,0.6-1.5,1.2L269.4,86.6L269.4,86.6L269.4,86.6z"/>
<polygon fill="#2178A9" points="271.7,79.4 293.7,79.4 308.5,79.4 308.5,98.1 271.7,98.1 "/>
<circle fill="#FFFFFF" cx="272.3" cy="101.4" r="0.6"/>
<rect x="281.7" y="102.8" fill="#2B3990" width="16.8" height="6.4"/>
<path fill="#CCD7E3" d="M235.7,123.8v8.9v5.2c0,0-0.2,2,2.2,2.1c2.3,0.1,23.4,0,23.4,0l13,0.1c0,0,2.2,0.2,2.8-1.4v-19.4v-2.5
	c0,0,0.1-2.4-2.4-2.4c-2.4,0-9,0-9,0h-28.5c0,0-1.4,0.6-1.5,1.2L235.7,123.8z"/>
<polygon fill="#2178A9" points="238,116.5 260,116.5 274.8,116.5 274.8,135.2 238,135.2 "/>
<circle fill="#FFFFFF" cx="269.4" cy="138.6" r="1"/>
<circle fill="#FFFFFF" cx="272.9" cy="138.7" r="0.8"/>
<circle fill="#FFFFFF" cx="238.6" cy="138.6" r="0.6"/>
<rect x="247.9" y="140" fill="#2B3990" width="16.8" height="6.4"/>
<rect x="244.1" y="146.3" fill="#CCD7E3" width="25.6" height="1.6"/>
<rect x="277.4" y="109.2" fill="#CCD7E3" width="25.3" height="1.6"/>
<rect x="211.3" y="109.2" fill="#CCD7E3" width="25.3" height="1.6"/>
<polygon fill="#CCD7E3" points="250,95.6 255.4,95.6 255.4,89.5 260.9,89.5 260.9,92.6 268.1,86.9 261.1,81.8 261.1,85.1 250,85.1 
	"/>
<polygon fill="#CCD7E3" points="297.1,121.4 291.7,121.4 291.8,127.5 286.4,127.6 286.3,124.4 279.1,130.2 286.1,135.2 286.1,131.9 
	297.1,131.9 "/>
<polygon fill="#CCD7E3" points="229.9,136.3 230,130.9 223.9,130.9 224,125.4 227,125.4 221.4,118.2 216.2,125.1 219.5,125.1 
	219.4,136.1 "/>
<g id="Layer_3">
	<path fill="#CCD7E3" d="M245.9,98.6c0,0,4.3,0.6,11.7-2.6c0,0,6.6,3.2,11.4,2.5c0,0,4.4,18.7-11.5,25.4
		C257.5,124,242.3,119.1,245.9,98.6z"/>
</g>
<path fill="#CCD7E3" d="M295.1,373.1c0,0-2.7-13.3,9.7-14.5c0,0,11.8,0.2,10.3,14.5c0,0,2.3,0.2,2.8,2.1v20c0,0,0,2.3-3.2,2.7h-20.9
	c0,0-2.7-1.2-2.3-3.2l0-19.7C291.5,375.1,293.1,373,295.1,373.1z"/>
<path fill="#2178A9" d="M303.4,385.4c0,0-2-1.2-0.7-3.5c0,0,1.5-1.9,3.7-0.5c0,0,1.1,1.2,0.7,2.7c0,0,0,0.8-1.1,1.3l0.3,5h-3.1
	L303.4,385.4z"/>
<path fill="#FFFFFF" d="M326.4,398.5c0,0-2-1.2-0.7-3.5c0,0,1.5-1.9,3.7-0.5c0,0,1.1,1.2,0.7,2.7c0,0,0,0.8-1.1,1.3l0.3,5h-3.1
	L326.4,398.5z"/>
<path fill="#262262" d="M334.9,388h3.9v-4c0,0,1.2-7.2,8.9-4.3c0,0,2.4,0.8,2.8,4.4v6.3h3.8v-7.7c0,0-1.3-8.7-10.9-7.8
	c0,0-5,0.3-7.5,5.1C336,379.9,334.6,381.7,334.9,388z"/>
<path fill="#262262" d="M339.3,387.2c-0.3,0-0.5,0-0.8,0c-1.5,0-3,0.1-4.6,0c0,0,0,0-0.1,0c-0.3,0-0.7,0-1.1,0c-0.3,0-0.6,0-1,0
	c-3.2,0.1-6.5,0-9.8,0h0h-1.6h0c-0.3,0-0.6,0-1,0h-2.2c-0.3,0-0.6,0-1,0c-1,0.6-1.7,1.5-1.7,1.5v19.7c-0.4,2,2.3,3.2,2.3,3.2h20.9
	c3.2-0.4,3.2-2.7,3.2-2.7v-20C340.7,388,339.9,387.5,339.3,387.2z"/>
<path fill="#2178A9" d="M326.9,399.7c0,0-2-1.2-0.7-3.5c0,0,1.5-1.9,3.7-0.5c0,0,1.1,1.2,0.7,2.7c0,0,0,0.8-1.1,1.3l0.3,5h-3.1
	L326.9,399.7z"/>
<path fill="#2178A9" d="M299.1,371.1h11.2c0,0,1.1-9-5.6-9C304.8,362.1,297.9,361.9,299.1,371.1z"/>
<g id="b6vvwZ.tif">
	<g>
		<path fill="#CCD7E3" d="M430.7,145.2c-0.1,2.6-2.4,6.1-6.6,8.3c-4.6,2.3-9.2,2-13.5-0.8c-0.5-0.3-0.9-0.6-1.3-1
			c-0.8-0.8-1.5-0.6-2.4,0c-6.4,4.6-12.2,4.4-18.3-0.7c-1.1-0.9-1.7-0.9-2.8,0.1c-4.5,4.6-9.9,6-16,3.7c-0.8-0.3-1.4-0.1-2.1,0.2
			c-3.2,1.7-5.9,1.4-8.6-1c-0.7-0.7-1.5-0.7-2.4-0.7c-5-0.1-9.2-2.8-10.6-7.2c-1.3-4.1-0.4-7.7,2.7-10.7c0.6-0.6,1-1.2,0.7-2.2
			c-1.6-5.8-0.2-10.8,4.3-14.7c4.6-4,10-4.6,15.8-2.7c1.1,0.4,2.4,1.5,3.3,1c0.8-0.4,1.1-1.9,1.6-2.9c3.3-6.6,10.6-10.2,18.4-9.2
			c7.3,1,13,6.5,14.2,14c0.3,1.7,0.9,2.3,2.6,2.5c4.6,0.7,7.9,3.2,9.2,7.8c0.4,1.3,1.1,1.8,2.3,2.2
			C427.2,132.8,430.7,137.2,430.7,145.2z"/>
	</g>
</g>
<path fill="#262262" d="M378.3,123c0,0-2.7-13.7,9.9-14.9c0,0,12.1,0.2,10.6,14.9c0,0,2.3,0.2,2.9,2.2v20.6c0,0,0,2.3-3.3,2.7H377
	c0,0-2.7-1.3-2.3-3.3l0-20.2C374.6,125,376.3,122.8,378.3,123z"/>
<path fill="#CCD7E3" d="M386.9,135.6c0,0-2-1.2-0.7-3.6c0,0,1.5-2,3.8-0.5c0,0,1.1,1.2,0.7,2.8c0,0,0,0.8-1.1,1.4l0.3,5.1h-3.2
	L386.9,135.6z"/>
<path fill="#CCD7E3" d="M382.1,123.1h13.1c0,0,1.3-10.6-6.6-10.6C388.7,112.6,380.7,112.4,382.1,123.1z"/>
<polygon fill="#262262" points="382.4,157.2 390.2,157.2 387.5,167.8 390.8,167.8 380.9,178.4 377.2,167.8 380,167.8 "/>
<polygon fill="#CCD7E3" points="372.6,157.2 377.3,157.2 375.8,162.9 377.7,162.9 371.8,168.5 369.6,162.8 371.2,162.8 "/>
<polygon fill="#CCD7E3" points="396.2,157.2 402.7,157.2 400.5,166 403.2,166 395,174.7 392,165.9 394.3,165.9 "/>
<path fill="#CCD7E3" d="M229.3,413.3h-20.6c-2.5,0-4.6-2.1-4.6-4.6v-51.7c0-2.5,2.1-4.6,4.6-4.6h20.6c2.5,0,4.6,2.1,4.6,4.6v51.7
	C233.9,411.2,231.8,413.3,229.3,413.3z"/>
<polygon fill="#2178A9" points="206.4,407.2 206.4,378.8 206.4,359.8 231.6,359.8 231.6,407.2 "/>
<path fill="#262262" d="M213,380.2c0,0-1.7-8.3,6.1-9.1c0,0,7.4,0.1,6.5,9.1c0,0,1.4,0.1,1.8,1.3v12.6c0,0,0,1.4-2,1.7h-13.1
	c0,0-1.7-0.8-1.4-2l0-12.3C210.7,381.5,211.7,380.2,213,380.2z"/>
<path fill="#2178A9" d="M218.2,388c0,0-1.2-0.7-0.4-2.2c0,0,0.9-1.2,2.3-0.3c0,0,0.7,0.7,0.4,1.7c0,0,0,0.5-0.7,0.8l0.2,3.1h-1.9
	L218.2,388z"/>
<path fill="#2178A9" d="M215.3,380.3h8c0,0,0.8-6.5-4-6.5C219.3,373.9,214.4,373.8,215.3,380.3z"/>
<path fill="#CCD7E3" d="M330.4,302.1v12.9v7.6c0,0-0.2,2.9,3.1,3c3.4,0.1,34.1,0,34.1,0l18.9,0.1c0,0,3.3,0.2,4.1-2v-28.3v-3.6
	c0,0,0.1-3.5-3.5-3.5c-3.5,0-13.2,0-13.2,0h-41.4c0,0-2.1,0.8-2.2,1.8V302.1z"/>
<polygon fill="#2178A9" points="334.4,293 365.7,293 386.7,293 386.7,321.2 334.4,321.2 "/>
<path fill="#2B3990" d="M326.5,338.4l-3.4,9.6c0,0-1.5,1.8,3.4,1.7h61.2h8.5c0,0,2.8,0.3,1.6-3.3l-15.6,1l-21.5,0.4l-22.8-0.7
	l-9.6-0.5C328.4,346.6,326.5,341.6,326.5,338.4z"/>
<path fill="#CCD7E3" d="M329.2,330.4l-5.5,16.2c0,0-0.6,1.3,7.9,1.2c8.5-0.1,23.1,0.1,23.1,0.1l30.5-0.1l10.2,0.1
	c0,0,2.8-0.2,2.4-1.6c-0.3-1.4-3-8.7-3-8.7l-3-8.5c0,0-0.6-1.6-3.3-1.4l-21,0H349h-16.5h-1.1C331.4,327.6,329.4,327.9,329.2,330.4z"
	/>
<path fill="#262262" d="M333.4,334.6l1.3-3.7l0.3-0.8c0,0,0.3-0.4,2.1-0.4H351h31.1c0,0,1.3,0.1,1.7,1.4l2.5,6.5
	c0,0,0.8,0.9-1.4,1.1h-17.6h-31.3l-3.3-0.3c0,0-0.8,0.1,0-1.9L333.4,334.6z"/>
<polygon fill="#FFFFFF" points="335.5,332.1 339.4,332.1 339,330.9 336,330.9 "/>
<polygon fill="#FFFFFF" points="340.5,332.1 344.4,332.1 344,330.9 341.1,330.9 "/>
<polygon fill="#FFFFFF" points="334.2,337.8 338.1,337.8 337.7,336.6 334.8,336.6 "/>
<polygon fill="#FFFFFF" points="345.5,337.8 349.5,337.8 349,336.6 346.1,336.6 "/>
<polygon fill="#FFFFFF" points="334.8,334.8 338.8,334.8 338.3,333.6 335.4,333.6 "/>
<polygon fill="#FFFFFF" points="340.2,334.8 344.2,334.8 343.7,333.6 340.8,333.6 "/>
<polygon fill="#FFFFFF" points="339.9,337.8 343.9,337.8 343.4,336.6 340.5,336.6 "/>
<polygon fill="#FFFFFF" points="345.5,332.1 349.5,332.1 349,330.9 346.1,330.9 "/>
<polygon fill="#FFFFFF" points="351.3,332.1 355.2,332.1 354.8,330.9 351.8,330.9 "/>
<polygon fill="#FFFFFF" points="356.8,332.1 360.7,332.1 360.3,330.9 357.4,330.9 "/>
<polygon fill="#FFFFFF" points="362.4,332.1 366.4,332.1 365.9,330.9 363,330.9 "/>
<polygon fill="#FFFFFF" points="368.2,332.1 372.1,332.1 371.7,330.9 368.7,330.9 "/>
<polygon fill="#FFFFFF" points="373.7,332.1 377.7,332.1 377.2,330.9 374.3,330.9 "/>
<polygon fill="#FFFFFF" points="379,332.1 383,332.1 382.5,330.9 379.6,330.9 "/>
<polygon fill="#FFFFFF" points="379,334.8 383,334.8 382.5,333.6 379.6,333.6 "/>
<polygon fill="#FFFFFF" points="379,337.8 383,337.8 382.5,336.6 379.6,336.6 "/>
<polygon fill="#FFFFFF" points="373.7,334.8 377.7,334.8 377.2,333.6 374.3,333.6 "/>
<polygon fill="#FFFFFF" points="373.7,337.8 377.7,337.8 377.2,336.6 374.3,336.6 "/>
<polygon fill="#FFFFFF" points="368.2,334.8 372.1,334.8 371.7,333.6 368.7,333.6 "/>
<polygon fill="#FFFFFF" points="368.2,337.8 372.1,337.8 371.7,336.6 368.7,336.6 "/>
<polygon fill="#FFFFFF" points="362.4,334.8 366.4,334.8 365.9,333.6 363,333.6 "/>
<polygon fill="#FFFFFF" points="362.4,337.8 366.4,337.8 365.9,336.6 363,336.6 "/>
<polygon fill="#FFFFFF" points="356.8,334.8 360.7,334.8 360.3,333.6 357.4,333.6 "/>
<polygon fill="#FFFFFF" points="356.8,337.8 360.7,337.8 360.3,336.6 357.4,336.6 "/>
<polygon fill="#FFFFFF" points="351,334.8 354.9,334.8 354.5,333.6 351.6,333.6 "/>
<polygon fill="#FFFFFF" points="351,337.8 354.9,337.8 354.5,336.6 351.6,336.6 "/>
<polygon fill="#FFFFFF" points="345.5,334.8 349.5,334.8 349,333.6 346.1,333.6 "/>
<polygon fill="#262262" points="352.9,346.2 368.5,346.2 366.9,340.7 354.9,340.7 "/>
<rect x="72.4" y="182.3" fill="none" width="373.3" height="143.5"/>
<text transform="matrix(1 0 0 1 85.7747 220.251)"><tspan x="0" y="0" fill="#EEFF00" font-family="'Futura-Medium'" font-size="46">One Solution for </tspan><tspan x="63.9" y="55.2" fill="#EEFF00" font-family="'Futura-Medium'" font-size="46">Everything</tspan><tspan x="282.7" y="55.2" fill="#EEFF00" font-family="'Futura-Medium'" font-size="46"> </tspan></text>
</svg>
