<?xml version="1.0" encoding="utf-8"?>
<!-- Generator: Adobe Illustrator 18.1.0, SVG Export Plug-In . SVG Version: 6.00 Build 0)  -->
<svg version="1.1" id="Layer_1" xmlns="http://www.w3.org/2000/svg" xmlns:xlink="http://www.w3.org/1999/xlink" x="0px" y="0px"
	 viewBox="0 0 792 612" enable-background="new 0 0 792 612" xml:space="preserve">
<rect x="93.4" fill="#0065A1" width="605.2" height="612"/>
<path fill="#FFFFFF" d="M372.2,253.1c0,0-24.2-91.4,80-108.7c0,0,43.5-4.5,72.7,27.8c0,0,37.5-7.2,55.9-22c0,0-9.2,32.4-36.7,48.4
	c0,0,32.1-2.4,48.6-12.4c0,0-23.4,33.5-43.8,45.9c0,0,15.6,150.9-134.1,234.7c0,0-95.8,64.7-237.1,0c0,0-6.2-3-17.8-11.4
	c0,0,68.7,14.4,130.4-36.5c0,0-60.5,1.8-82-62.3c0,0,25.7,6.6,38.3-1.2c0,0-68.3-16.8-68.9-86.8c0,0,16.2,10.8,38.9,9
	c0,0-64.7-40.7-26.9-118.6C189.5,159.1,251.8,245.9,372.2,253.1z"/>
</svg>
