<?xml version="1.0" encoding="utf-8"?>
<!-- Generator: Adobe Illustrator 17.1.0, SVG Export Plug-In . SVG Version: 6.00 Build 0)  -->
<!DOCTYPE svg PUBLIC "-//W3C//DTD SVG 1.1//EN" "http://www.w3.org/Graphics/SVG/1.1/DTD/svg11.dtd">
<svg version="1.1" id="Layer_1" xmlns="http://www.w3.org/2000/svg" xmlns:xlink="http://www.w3.org/1999/xlink" x="0px" y="0px"
	 viewBox="0 0 219.656 222.108" enable-background="new 0 0 219.656 222.108" xml:space="preserve">
<rect x="0" y="0" fill="#231F20" width="219.656" height="222.108"/>
<path fill="#FFFFFF" d="M101.179,91.849c0,0-8.765-33.169,29.049-39.44c0,0,15.792-1.634,26.369,10.101
	c0,0,13.619-2.608,20.284-7.969c0,0-3.332,11.771-13.329,17.549c0,0,11.646-0.887,17.631-4.509c0,0-8.503,12.17-15.892,16.662
	c0,0,5.65,54.766-48.681,85.191c0,0-34.772,23.471-86.06,0c0,0-2.256-1.087-6.453-4.129c0,0,24.925,5.216,47.309-13.257
	c0,0-21.95,0.652-29.773-22.602c0,0,9.345,2.391,13.909-0.435c0,0-24.775-6.085-24.992-31.512c0,0,5.868,3.912,14.126,3.26
	c0,0-23.471-14.778-9.78-43.03C34.895,57.729,57.497,89.241,101.179,91.849z"/>
</svg>
