<?xml version="1.0" encoding="utf-8"?>
<!-- Generator: Adobe Illustrator 17.1.0, SVG Export Plug-In . SVG Version: 6.00 Build 0)  -->
<!DOCTYPE svg PUBLIC "-//W3C//DTD SVG 1.1//EN" "http://www.w3.org/Graphics/SVG/1.1/DTD/svg11.dtd">
<svg version="1.1" id="Layer_1" xmlns="http://www.w3.org/2000/svg" xmlns:xlink="http://www.w3.org/1999/xlink" x="0px" y="0px"
	 viewBox="0 0 219.656 222.108" enable-background="new 0 0 219.656 222.108" xml:space="preserve">
<rect x="0" y="0" fill="#231F20" width="219.656" height="222.108"/>
<polygon fill="#FFFFFF" points="41.295,33.847 56.689,33.847 65.646,62.957 75.722,33.847 90.277,33.847 72.364,76.672 
	72.364,107.461 59.208,107.461 58.928,77.232 "/>
<path fill="#FFFFFF" d="M92.796,60.718c0,0,0.756-8.677,17.032-9.796c0,0,14.597-0.56,19.355,9.796v37.227
	c0,0-2.799,10.916-18.193,10.916c0,0-17.914,0.28-18.193-12.316V60.718z"/>
<path fill="#FFFFFF" d="M139.819,52.331h13.155v42.814c0,0,3.079,7.557,12.036-1.959V52.331h12.036v55.13H164.73l-0.28-6.438
	c0,0-19.313,15.394-24.631-0.28V52.331z"/>
<path fill="none" stroke="#FFFFFF" stroke-width="3" stroke-miterlimit="10" d="M37.376,131.812c0,0-2.519-18.832,41.705-15.714
	h88.448c0,0,21.272,0.599,20.433,30.269l0.024,35.827c0,0-4.503,14.555-26.055,14.555H54.73c0,0-18.526-5.038-17.38-20.713
	L37.376,131.812z"/>
<polygon fill="#FFFFFF" points="47.732,128.453 79.641,128.453 79.641,136.011 69.005,136.011 69.005,181.914 58.928,181.914 
	58.648,136.57 47.732,136.57 "/>
<path fill="#FFFFFF" d="M79.641,142.168h9.237v31.524c0,0,1.504,4.513,7.802-1.26v-30.264h9.027v40.445H96.68v-3.884
	c0,0-15.709,10.391-17.039-1.784V142.168z"/>
<path fill="#FFFFFF" d="M115.048,128.453h8.922v17.424c0,0,11.861-10.706,17.424,3.044v27.815c0,0-3.044,11.756-17.004,2.834v3.292
	h-9.342V128.453z"/>
<path fill="#FFFFFF" d="M148.216,151.335c0,0,1.679-8.712,11.021-9.761c0,0,14.59-2.519,16.479,9.761v12.281h-17.949v9.971
	c0,0,3.464,6.193,7.977,0.84l0.21-6.718l9.761,0.105c0,0,1.679,12.251-7.767,15.1c0,0-19.208,4.843-19.733-11.216V151.335z"/>
<path fill="#231F20" d="M124.425,150.145c0,0,7.137-4.579,7.277,2.749v22.162c0,0-5.178,3.779-7.277-0.84V150.145z"/>
<path fill="#231F20" d="M105.252,64.496c0,0,0.28-4.198,5.738-3.779c0,0,5.038-0.56,5.318,3.779v32.048c0,0-2.799,3.079-5.528,3.079
	c0,0-5.388,0-5.528-4.478V64.496z"/>
</svg>
