<?xml version="1.0" encoding="utf-8"?>
<!-- Generator: Adobe Illustrator 18.1.0, SVG Export Plug-In . SVG Version: 6.00 Build 0)  -->
<svg version="1.1" id="Layer_1" xmlns="http://www.w3.org/2000/svg" xmlns:xlink="http://www.w3.org/1999/xlink" x="0px" y="0px"
	 viewBox="0 0 792 612" enable-background="new 0 0 792 612" xml:space="preserve">
<rect x="93.4" fill="#0065A1" width="605.2" height="612"/>
<polygon fill="#FFFFFF" points="207.2,93.3 249.6,93.3 274.3,173.5 302,93.3 342.1,93.3 292.8,211.3 292.8,296.1 256.5,296.1 
	255.7,212.8 "/>
<path fill="#FFFFFF" d="M349.1,167.3c0,0,2.1-23.9,46.9-27c0,0,40.2-1.5,53.3,27v102.6c0,0-7.7,30.1-50.1,30.1
	c0,0-49.4,0.8-50.1-33.9L349.1,167.3L349.1,167.3z"/>
<path fill="#FFFFFF" d="M478.6,144.2h36.2v118c0,0,8.5,20.8,33.2-5.4V144.2h33.2v151.9h-33.9l-0.8-17.7c0,0-53.2,42.4-67.9-0.8
	V144.2z"/>
<path fill="none" stroke="#FFFFFF" stroke-width="3" stroke-miterlimit="10" d="M196.4,363.2c0,0-6.9-51.9,114.9-43.3H555
	c0,0,58.6,1.7,56.3,83.4l0.1,98.7c0,0-12.4,40.1-71.8,40.1H244.2c0,0-51-13.9-47.9-57.1L196.4,363.2z"/>
<polygon fill="#FFFFFF" points="224.9,353.9 312.8,353.9 312.8,374.8 283.5,374.8 283.5,501.2 255.7,501.2 255,376.3 224.9,376.3 
	"/>
<path fill="#FFFFFF" d="M312.8,391.7h25.5v86.9c0,0,4.1,12.4,21.5-3.5v-83.4h24.9v111.4h-24.9v-10.7c0,0-43.3,28.6-46.9-4.9v-95.8
	H312.8z"/>
<path fill="#FFFFFF" d="M410.4,353.9H435v48c0,0,32.7-29.5,48,8.4V487c0,0-8.4,32.4-46.9,7.8v9.1h-25.7V353.9z"/>
<path fill="#FFFFFF" d="M501.8,417c0,0,4.6-24,30.4-26.9c0,0,40.2-6.9,45.4,26.9v33.8h-49.5v27.5c0,0,9.5,17.1,22,2.3l0.6-18.5
	l26.9,0.3c0,0,4.6,33.8-21.4,41.6c0,0-52.9,13.3-54.4-30.9L501.8,417L501.8,417z"/>
<path fill="#0065A1" d="M436.2,413.7c0,0,19.7-12.6,20.1,7.6v61.1c0,0-14.3,10.4-20.1-2.3V413.7L436.2,413.7z"/>
<path fill="#0065A1" d="M383.4,177.7c0,0,0.8-11.6,15.8-10.4c0,0,13.9-1.5,14.7,10.4V266c0,0-7.7,8.5-15.2,8.5c0,0-14.8,0-15.2-12.3
	L383.4,177.7L383.4,177.7z"/>
</svg>
